<svg width="58" height="58" viewBox="0 0 58 58" fill="none" xmlns="http://www.w3.org/2000/svg">
<ellipse cx="28" cy="29" rx="28" ry="29" fill="#202020"/>
<path d="M48.7047 37.8936L48.6855 37.9253L46.4044 42.0606L42.3723 44.2607L38.6771 45.0646L32.9956 47.2014L28.9166 47.6044L20.643 46.6962L20.6565 46.5731L28.9158 47.4806L32.9763 47.0785L38.6422 44.9441L42.3374 44.1402L46.3121 41.9678L48.5594 37.8978L46.7899 35.0881L44.4804 32.9578L44.5945 29.3993L43.9013 26.6006L44.0235 26.57L44.7197 29.3955L44.6073 32.9039L46.892 35.0161L48.7047 37.8936Z" fill="#F4F4F4"/>
<path d="M32.5032 32.8728L29.6071 33.5056L28.0075 31.1838L30.6734 30.0514L30.7221 30.1652L28.1963 31.2385L29.6622 33.366L32.4773 32.7525L32.5032 32.8728Z" fill="#F4F4F4"/>
<path d="M19.2229 14.2652L19.293 14.3687L22.0391 12.509L21.969 12.4055L19.2229 14.2652Z" fill="#F4F4F4"/>
<path d="M36.7361 17.9538L36.619 17.9975L35.5542 15.1047L31.7414 12.1388L31.7354 12.1234L29.8815 7.97993L21.9566 6.3183L17.9618 5.35899L13.6939 8.85209L12.1479 16.2549L10.9325 23.4069L8.23746 34.4715L11.2428 40.944L11.1292 40.9964L8.10675 34.4838L8.11079 34.4619L10.8087 23.3822L12.0251 16.2325L13.5804 8.78286L13.5975 8.7685L17.9305 5.22186L17.9615 5.22987L21.9843 6.19588L29.9704 7.87134L31.8431 12.0594L35.6589 15.0266L36.7361 17.9538Z" fill="#F4F4F4"/>
<path d="M44.6188 26.8693C44.776 26.5071 44.6098 26.086 44.2475 25.9288C43.8853 25.7716 43.4642 25.9379 43.307 26.3001C43.1499 26.6624 43.3161 27.0835 43.6784 27.2406C44.0406 27.3978 44.4617 27.2316 44.6188 26.8693Z" fill="url(#paint0_radial_945_1088)"/>
<path d="M45.3142 29.6764C45.4713 29.3142 45.3051 28.8931 44.9428 28.736C44.5806 28.5788 44.1595 28.745 44.0024 29.1073C43.8452 29.4695 44.0114 29.8906 44.3737 30.0478C44.7359 30.2049 45.157 30.0387 45.3142 29.6764Z" fill="url(#paint1_radial_945_1088)"/>
<path d="M45.2009 33.2155C45.3581 32.8533 45.1918 32.4322 44.8296 32.275C44.4673 32.1178 44.0462 32.2841 43.8891 32.6463C43.7319 33.0086 43.8981 33.4297 44.2604 33.5868C44.6226 33.744 45.0437 33.5778 45.2009 33.2155Z" fill="url(#paint2_radial_945_1088)"/>
<path d="M47.4968 35.3317C47.654 34.9695 47.4877 34.5484 47.1255 34.3912C46.7632 34.2341 46.3421 34.4003 46.185 34.7625C46.0278 35.1248 46.194 35.5459 46.5563 35.703C46.9185 35.8602 47.3396 35.694 47.4968 35.3317Z" fill="url(#paint3_radial_945_1088)"/>
<path d="M49.2868 38.1803C49.444 37.8181 49.2777 37.397 48.9155 37.2399C48.5533 37.0827 48.1322 37.2489 47.975 37.6112C47.8178 37.9734 47.9841 38.3945 48.3463 38.5517C48.7086 38.7088 49.1297 38.5426 49.2868 38.1803Z" fill="url(#paint4_radial_945_1088)"/>
<path d="M47.0153 42.298C47.1725 41.9358 47.0063 41.5147 46.644 41.3575C46.2818 41.2004 45.8607 41.3666 45.7035 41.7289C45.5464 42.0911 45.7126 42.5122 46.0748 42.6693C46.4371 42.8265 46.8582 42.6603 47.0153 42.298Z" fill="url(#paint5_radial_945_1088)"/>
<path d="M43.0153 44.4826C43.1725 44.1203 43.0063 43.6993 42.644 43.5421C42.2818 43.3849 41.8607 43.5512 41.7035 43.9134C41.5464 44.2757 41.7126 44.6967 42.0748 44.8539C42.4371 45.0111 42.8582 44.8448 43.0153 44.4826Z" fill="url(#paint6_radial_945_1088)"/>
<path d="M39.32 45.2868C39.4772 44.9245 39.311 44.5035 38.9487 44.3463C38.5865 44.1891 38.1654 44.3554 38.0082 44.7176C37.851 45.0799 38.0173 45.5009 38.3795 45.6581C38.7418 45.8153 39.1629 45.649 39.32 45.2868Z" fill="url(#paint7_radial_945_1088)"/>
<path d="M33.6462 47.423C33.8034 47.0608 33.6371 46.6397 33.2749 46.4825C32.9126 46.3254 32.4916 46.4916 32.3344 46.8539C32.1772 47.2161 32.3435 47.6372 32.7057 47.7943C33.068 47.9515 33.489 47.7853 33.6462 47.423Z" fill="url(#paint8_radial_945_1088)"/>
<path d="M29.5651 47.8268C29.7223 47.4646 29.5561 47.0435 29.1938 46.8863C28.8316 46.7292 28.4105 46.8954 28.2533 47.2577C28.0962 47.6199 28.2624 48.041 28.6247 48.1982C28.9869 48.3553 29.408 48.1891 29.5651 47.8268Z" fill="url(#paint9_radial_945_1088)"/>
<path d="M21.3054 46.9196C21.4625 46.5574 21.2963 46.1363 20.934 45.9791C20.5718 45.8219 20.1507 45.9882 19.9936 46.3504C19.8364 46.7127 20.0026 47.1338 20.3649 47.2909C20.7271 47.4481 21.1482 47.2818 21.3054 46.9196Z" fill="url(#paint10_radial_945_1088)"/>
<path d="M35.5485 41.2433C35.7057 40.8811 35.5395 40.46 35.1772 40.3028C34.815 40.1457 34.3939 40.3119 34.2367 40.6742C34.0796 41.0364 34.2458 41.4575 34.6081 41.6147C34.9703 41.7718 35.3914 41.6056 35.5485 41.2433Z" fill="url(#paint11_radial_945_1088)"/>
<path d="M32.5456 39.1608C32.7028 38.7986 32.5365 38.3775 32.1743 38.2203C31.812 38.0632 31.391 38.2294 31.2338 38.5917C31.0766 38.9539 31.2429 39.375 31.6051 39.5321C31.9674 39.6893 32.3884 39.5231 32.5456 39.1608Z" fill="url(#paint12_radial_945_1088)"/>
<path d="M33.1452 33.0973C33.3024 32.7351 33.1361 32.314 32.7739 32.1568C32.4116 31.9997 31.9906 32.1659 31.8334 32.5282C31.6762 32.8904 31.8425 33.3115 32.2047 33.4687C32.567 33.6258 32.9881 33.4596 33.1452 33.0973Z" fill="url(#paint13_radial_945_1088)"/>
<path d="M30.2917 33.7214C30.4489 33.3591 30.2826 32.938 29.9204 32.7809C29.5581 32.6237 29.1371 32.79 28.9799 33.1522C28.8227 33.5144 28.989 33.9355 29.3512 34.0927C29.7135 34.2499 30.1345 34.0836 30.2917 33.7214Z" fill="url(#paint14_radial_945_1088)"/>
<path d="M28.7565 31.4963C28.9137 31.134 28.7475 30.7129 28.3852 30.5558C28.023 30.3986 27.6019 30.5649 27.4447 30.9271C27.2876 31.2894 27.4538 31.7104 27.8161 31.8676C28.1783 32.0248 28.5994 31.8585 28.7565 31.4963Z" fill="url(#paint15_radial_945_1088)"/>
<path d="M31.3542 30.3923C31.5114 30.03 31.3451 29.6089 30.9829 29.4518C30.6206 29.2946 30.1996 29.4609 30.0424 29.8231C29.8852 30.1853 30.0515 30.6064 30.4137 30.7636C30.776 30.9208 31.197 30.7545 31.3542 30.3923Z" fill="url(#paint16_radial_945_1088)"/>
<path d="M26.736 20.6696C26.8932 20.3074 26.727 19.8863 26.3647 19.7291C26.0025 19.5719 25.5814 19.7382 25.4242 20.1004C25.2671 20.4627 25.4333 20.8838 25.7956 21.0409C26.1578 21.1981 26.5789 21.0318 26.736 20.6696Z" fill="url(#paint17_radial_945_1088)"/>
<path d="M20.2224 21.9401C20.3795 21.5779 20.2133 21.1568 19.851 20.9996C19.4888 20.8425 19.0677 21.0087 18.9106 21.371C18.7534 21.7332 18.9196 22.1543 19.2819 22.3114C19.6441 22.4686 20.0652 22.3024 20.2224 21.9401Z" fill="url(#paint18_radial_945_1088)"/>
<path d="M19.9128 14.5915C20.07 14.2292 19.9037 13.8082 19.5415 13.651C19.1792 13.4938 18.7582 13.6601 18.601 14.0223C18.4438 14.3846 18.6101 14.8056 18.9723 14.9628C19.3346 15.12 19.7556 14.9537 19.9128 14.5915Z" fill="url(#paint19_radial_945_1088)"/>
<path d="M22.6589 12.7306C22.8161 12.3684 22.6498 11.9473 22.2876 11.7902C21.9253 11.633 21.5042 11.7992 21.3471 12.1615C21.1899 12.5237 21.3562 12.9448 21.7184 13.102C22.0807 13.2591 22.5017 13.0929 22.6589 12.7306Z" fill="url(#paint20_radial_945_1088)"/>
<path d="M13.5856 28.5749C13.7428 28.2126 13.5766 27.7916 13.2143 27.6344C12.8521 27.4772 12.431 27.6435 12.2738 28.0057C12.1167 28.368 12.2829 28.789 12.6452 28.9462C13.0074 29.1034 13.4285 28.9371 13.5856 28.5749Z" fill="url(#paint21_radial_945_1088)"/>
<path d="M20.4548 31.5549C20.612 31.1926 20.4457 30.7715 20.0835 30.6144C19.7212 30.4572 19.3001 30.6234 19.143 30.9857C18.9858 31.3479 19.1521 31.769 19.5143 31.9262C19.8766 32.0834 20.2976 31.9171 20.4548 31.5549Z" fill="url(#paint22_radial_945_1088)"/>
<path d="M11.8425 41.2546C11.9997 40.8923 11.8334 40.4712 11.4712 40.3141C11.1089 40.1569 10.6878 40.3232 10.5307 40.6854C10.3735 41.0476 10.5398 41.4687 10.902 41.6259C11.2642 41.7831 11.6853 41.6168 11.8425 41.2546Z" fill="url(#paint23_radial_945_1088)"/>
<path d="M11.5261 23.6808C11.6832 23.3186 11.517 22.8975 11.1548 22.7403C10.7925 22.5832 10.3714 22.7494 10.2143 23.1117C10.0571 23.4739 10.2233 23.895 10.5856 24.0522C10.9478 24.2093 11.3689 24.0431 11.5261 23.6808Z" fill="url(#paint24_radial_945_1088)"/>
<path d="M8.82784 34.7619C8.98501 34.3996 8.81876 33.9786 8.45651 33.8214C8.09427 33.6642 7.6732 33.8305 7.51603 34.1927C7.35886 34.555 7.52511 34.976 7.88735 35.1332C8.2496 35.2904 8.67067 35.1241 8.82784 34.7619Z" fill="url(#paint25_radial_945_1088)"/>
<path d="M12.7419 16.527C12.8991 16.1648 12.7328 15.7437 12.3706 15.5865C12.0083 15.4294 11.5873 15.5956 11.4301 15.9579C11.2729 16.3201 11.4392 16.7412 11.8014 16.8984C12.1637 17.0555 12.5847 16.8893 12.7419 16.527Z" fill="url(#paint26_radial_945_1088)"/>
<path d="M14.2946 9.10173C14.4518 8.73949 14.2856 8.31842 13.9233 8.16125C13.5611 8.00408 13.14 8.17033 12.9828 8.53257C12.8257 8.89482 12.9919 9.31589 13.3542 9.47306C13.7164 9.63023 14.1375 9.46398 14.2946 9.10173Z" fill="url(#paint27_radial_945_1088)"/>
<path d="M18.4187 5.64959C18.5758 5.28734 18.4096 4.86627 18.0473 4.7091C17.6851 4.55193 17.264 4.71818 17.1068 5.08042C16.9497 5.44267 17.1159 5.86374 17.4782 6.02091C17.8404 6.17808 18.2615 6.01183 18.4187 5.64959Z" fill="url(#paint28_radial_945_1088)"/>
<path d="M24.2937 6.73406C24.4508 6.37181 24.2846 5.95074 23.9223 5.79357C23.5601 5.63641 23.139 5.80265 22.9818 6.1649C22.8247 6.52714 22.9909 6.94821 23.3532 7.10538C23.7154 7.26255 24.1365 7.09631 24.2937 6.73406Z" fill="url(#paint29_radial_945_1088)"/>
<path d="M30.5817 7.99675C30.7389 7.63451 30.5727 7.21344 30.2104 7.05627C29.8482 6.8991 29.4271 7.06535 29.2699 7.42759C29.1128 7.78984 29.279 8.21091 29.6413 8.36808C30.0035 8.52525 30.4246 8.359 30.5817 7.99675Z" fill="url(#paint30_radial_945_1088)"/>
<path d="M32.2087 12.1208C32.3659 11.7585 32.1996 11.3375 31.8374 11.1803C31.4751 11.0231 31.0541 11.1894 30.8969 11.5516C30.7397 11.9139 30.906 12.3349 31.2682 12.4921C31.6305 12.6493 32.0515 12.483 32.2087 12.1208Z" fill="url(#paint31_radial_945_1088)"/>
<path d="M36.1941 15.3146C36.3512 14.9524 36.185 14.5313 35.8227 14.3741C35.4605 14.217 35.0394 14.3832 34.8822 14.7455C34.7251 15.1077 34.8913 15.5288 35.2536 15.6859C35.6158 15.8431 36.0369 15.6769 36.1941 15.3146Z" fill="url(#paint32_radial_945_1088)"/>
<path d="M37.3571 18.2599C37.5143 17.8977 37.3481 17.4766 36.9858 17.3195C36.6236 17.1623 36.2025 17.3285 36.0453 17.6908C35.8882 18.053 36.0544 18.4741 36.4167 18.6313C36.7789 18.7884 37.2 18.6222 37.3571 18.2599Z" fill="url(#paint33_radial_945_1088)"/>
<defs>
<radialGradient id="paint0_radial_945_1088" cx="0" cy="0" r="1" gradientUnits="userSpaceOnUse" gradientTransform="translate(43.9629 26.5847) rotate(-66.5453) scale(0.714984 0.714979)">
<stop stop-color="#EFEFF0"/>
<stop offset="0.09" stop-color="#E7E7E9"/>
<stop offset="0.23" stop-color="#D2D3D6"/>
<stop offset="0.41" stop-color="#AFB1B6"/>
<stop offset="0.61" stop-color="#7F828A"/>
<stop offset="0.82" stop-color="#424652"/>
<stop offset="1" stop-color="#0A101F"/>
</radialGradient>
<radialGradient id="paint1_radial_945_1088" cx="0" cy="0" r="1" gradientUnits="userSpaceOnUse" gradientTransform="translate(44.6583 29.3919) rotate(-66.5453) scale(0.714981 0.714984)">
<stop stop-color="#EFEFF0"/>
<stop offset="0.09" stop-color="#E7E7E9"/>
<stop offset="0.23" stop-color="#D2D3D6"/>
<stop offset="0.41" stop-color="#AFB1B6"/>
<stop offset="0.61" stop-color="#7F828A"/>
<stop offset="0.82" stop-color="#424652"/>
<stop offset="1" stop-color="#0A101F"/>
</radialGradient>
<radialGradient id="paint2_radial_945_1088" cx="0" cy="0" r="1" gradientUnits="userSpaceOnUse" gradientTransform="translate(44.545 32.9309) rotate(-66.5453) scale(0.714981 0.714984)">
<stop stop-color="#EFEFF0"/>
<stop offset="0.09" stop-color="#E7E7E9"/>
<stop offset="0.23" stop-color="#D2D3D6"/>
<stop offset="0.41" stop-color="#AFB1B6"/>
<stop offset="0.61" stop-color="#7F828A"/>
<stop offset="0.82" stop-color="#424652"/>
<stop offset="1" stop-color="#0A101F"/>
</radialGradient>
<radialGradient id="paint3_radial_945_1088" cx="0" cy="0" r="1" gradientUnits="userSpaceOnUse" gradientTransform="translate(46.8409 35.0471) rotate(-66.5453) scale(0.714984)">
<stop stop-color="#EFEFF0"/>
<stop offset="0.09" stop-color="#E7E7E9"/>
<stop offset="0.23" stop-color="#D2D3D6"/>
<stop offset="0.41" stop-color="#AFB1B6"/>
<stop offset="0.61" stop-color="#7F828A"/>
<stop offset="0.82" stop-color="#424652"/>
<stop offset="1" stop-color="#0A101F"/>
</radialGradient>
<radialGradient id="paint4_radial_945_1088" cx="0" cy="0" r="1" gradientUnits="userSpaceOnUse" gradientTransform="translate(48.6309 37.8958) rotate(-66.5453) scale(0.714981 0.714984)">
<stop stop-color="#EFEFF0"/>
<stop offset="0.09" stop-color="#E7E7E9"/>
<stop offset="0.23" stop-color="#D2D3D6"/>
<stop offset="0.41" stop-color="#AFB1B6"/>
<stop offset="0.61" stop-color="#7F828A"/>
<stop offset="0.82" stop-color="#424652"/>
<stop offset="1" stop-color="#0A101F"/>
</radialGradient>
<radialGradient id="paint5_radial_945_1088" cx="0" cy="0" r="1" gradientUnits="userSpaceOnUse" gradientTransform="translate(46.3594 42.0134) rotate(-66.5453) scale(0.714981 0.714984)">
<stop stop-color="#EFEFF0"/>
<stop offset="0.09" stop-color="#E7E7E9"/>
<stop offset="0.23" stop-color="#D2D3D6"/>
<stop offset="0.41" stop-color="#AFB1B6"/>
<stop offset="0.61" stop-color="#7F828A"/>
<stop offset="0.82" stop-color="#424652"/>
<stop offset="1" stop-color="#0A101F"/>
</radialGradient>
<radialGradient id="paint6_radial_945_1088" cx="0" cy="0" r="1" gradientUnits="userSpaceOnUse" gradientTransform="translate(42.3594 44.198) rotate(-66.5453) scale(0.714984 0.714979)">
<stop stop-color="#EFEFF0"/>
<stop offset="0.09" stop-color="#E7E7E9"/>
<stop offset="0.23" stop-color="#D2D3D6"/>
<stop offset="0.41" stop-color="#AFB1B6"/>
<stop offset="0.61" stop-color="#7F828A"/>
<stop offset="0.82" stop-color="#424652"/>
<stop offset="1" stop-color="#0A101F"/>
</radialGradient>
<radialGradient id="paint7_radial_945_1088" cx="0" cy="0" r="1" gradientUnits="userSpaceOnUse" gradientTransform="translate(38.6641 45.0022) rotate(-66.5453) scale(0.714984)">
<stop stop-color="#EFEFF0"/>
<stop offset="0.09" stop-color="#E7E7E9"/>
<stop offset="0.23" stop-color="#D2D3D6"/>
<stop offset="0.41" stop-color="#AFB1B6"/>
<stop offset="0.61" stop-color="#7F828A"/>
<stop offset="0.82" stop-color="#424652"/>
<stop offset="1" stop-color="#0A101F"/>
</radialGradient>
<radialGradient id="paint8_radial_945_1088" cx="0" cy="0" r="1" gradientUnits="userSpaceOnUse" gradientTransform="translate(32.9903 47.1384) rotate(-66.5453) scale(0.714984 0.714979)">
<stop stop-color="#EFEFF0"/>
<stop offset="0.09" stop-color="#E7E7E9"/>
<stop offset="0.23" stop-color="#D2D3D6"/>
<stop offset="0.41" stop-color="#AFB1B6"/>
<stop offset="0.61" stop-color="#7F828A"/>
<stop offset="0.82" stop-color="#424652"/>
<stop offset="1" stop-color="#0A101F"/>
</radialGradient>
<radialGradient id="paint9_radial_945_1088" cx="0" cy="0" r="1" gradientUnits="userSpaceOnUse" gradientTransform="translate(28.9092 47.5422) rotate(-66.5453) scale(0.714984 0.714979)">
<stop stop-color="#EFEFF0"/>
<stop offset="0.09" stop-color="#E7E7E9"/>
<stop offset="0.23" stop-color="#D2D3D6"/>
<stop offset="0.41" stop-color="#AFB1B6"/>
<stop offset="0.61" stop-color="#7F828A"/>
<stop offset="0.82" stop-color="#424652"/>
<stop offset="1" stop-color="#0A101F"/>
</radialGradient>
<radialGradient id="paint10_radial_945_1088" cx="0" cy="0" r="1" gradientUnits="userSpaceOnUse" gradientTransform="translate(20.6495 46.635) rotate(-66.5453) scale(0.714981 0.714979)">
<stop stop-color="#EFEFF0"/>
<stop offset="0.09" stop-color="#E7E7E9"/>
<stop offset="0.23" stop-color="#D2D3D6"/>
<stop offset="0.41" stop-color="#AFB1B6"/>
<stop offset="0.61" stop-color="#7F828A"/>
<stop offset="0.82" stop-color="#424652"/>
<stop offset="1" stop-color="#0A101F"/>
</radialGradient>
<radialGradient id="paint11_radial_945_1088" cx="0" cy="0" r="1" gradientUnits="userSpaceOnUse" gradientTransform="translate(34.8926 40.9588) rotate(-66.5453) scale(0.714984)">
<stop stop-color="#EFEFF0"/>
<stop offset="0.09" stop-color="#E7E7E9"/>
<stop offset="0.23" stop-color="#D2D3D6"/>
<stop offset="0.41" stop-color="#AFB1B6"/>
<stop offset="0.61" stop-color="#7F828A"/>
<stop offset="0.82" stop-color="#424652"/>
<stop offset="1" stop-color="#0A101F"/>
</radialGradient>
<radialGradient id="paint12_radial_945_1088" cx="0" cy="0" r="1" gradientUnits="userSpaceOnUse" gradientTransform="translate(31.8897 38.8762) rotate(-66.5453) scale(0.714981 0.714984)">
<stop stop-color="#EFEFF0"/>
<stop offset="0.09" stop-color="#E7E7E9"/>
<stop offset="0.23" stop-color="#D2D3D6"/>
<stop offset="0.41" stop-color="#AFB1B6"/>
<stop offset="0.61" stop-color="#7F828A"/>
<stop offset="0.82" stop-color="#424652"/>
<stop offset="1" stop-color="#0A101F"/>
</radialGradient>
<radialGradient id="paint13_radial_945_1088" cx="0" cy="0" r="1" gradientUnits="userSpaceOnUse" gradientTransform="translate(32.4893 32.8128) rotate(-66.5453) scale(0.714984)">
<stop stop-color="#EFEFF0"/>
<stop offset="0.09" stop-color="#E7E7E9"/>
<stop offset="0.23" stop-color="#D2D3D6"/>
<stop offset="0.41" stop-color="#AFB1B6"/>
<stop offset="0.61" stop-color="#7F828A"/>
<stop offset="0.82" stop-color="#424652"/>
<stop offset="1" stop-color="#0A101F"/>
</radialGradient>
<radialGradient id="paint14_radial_945_1088" cx="0" cy="0" r="1" gradientUnits="userSpaceOnUse" gradientTransform="translate(29.6358 33.4368) rotate(-66.5453) scale(0.714984 0.714979)">
<stop stop-color="#EFEFF0"/>
<stop offset="0.09" stop-color="#E7E7E9"/>
<stop offset="0.23" stop-color="#D2D3D6"/>
<stop offset="0.41" stop-color="#AFB1B6"/>
<stop offset="0.61" stop-color="#7F828A"/>
<stop offset="0.82" stop-color="#424652"/>
<stop offset="1" stop-color="#0A101F"/>
</radialGradient>
<radialGradient id="paint15_radial_945_1088" cx="0" cy="0" r="1" gradientUnits="userSpaceOnUse" gradientTransform="translate(28.1006 31.2117) rotate(-66.5453) scale(0.714981 0.714979)">
<stop stop-color="#EFEFF0"/>
<stop offset="0.09" stop-color="#E7E7E9"/>
<stop offset="0.23" stop-color="#D2D3D6"/>
<stop offset="0.41" stop-color="#AFB1B6"/>
<stop offset="0.61" stop-color="#7F828A"/>
<stop offset="0.82" stop-color="#424652"/>
<stop offset="1" stop-color="#0A101F"/>
</radialGradient>
<radialGradient id="paint16_radial_945_1088" cx="0" cy="0" r="1" gradientUnits="userSpaceOnUse" gradientTransform="translate(30.6983 30.1077) rotate(-66.5453) scale(0.714981 0.714984)">
<stop stop-color="#EFEFF0"/>
<stop offset="0.09" stop-color="#E7E7E9"/>
<stop offset="0.23" stop-color="#D2D3D6"/>
<stop offset="0.41" stop-color="#AFB1B6"/>
<stop offset="0.61" stop-color="#7F828A"/>
<stop offset="0.82" stop-color="#424652"/>
<stop offset="1" stop-color="#0A101F"/>
</radialGradient>
<radialGradient id="paint17_radial_945_1088" cx="0" cy="0" r="1" gradientUnits="userSpaceOnUse" gradientTransform="translate(26.0801 20.385) rotate(-66.5453) scale(0.714981 0.714984)">
<stop stop-color="#EFEFF0"/>
<stop offset="0.09" stop-color="#E7E7E9"/>
<stop offset="0.23" stop-color="#D2D3D6"/>
<stop offset="0.41" stop-color="#AFB1B6"/>
<stop offset="0.61" stop-color="#7F828A"/>
<stop offset="0.82" stop-color="#424652"/>
<stop offset="1" stop-color="#0A101F"/>
</radialGradient>
<radialGradient id="paint18_radial_945_1088" cx="0" cy="0" r="1" gradientUnits="userSpaceOnUse" gradientTransform="translate(19.5665 21.6555) rotate(-66.5453) scale(0.714981 0.714984)">
<stop stop-color="#EFEFF0"/>
<stop offset="0.09" stop-color="#E7E7E9"/>
<stop offset="0.23" stop-color="#D2D3D6"/>
<stop offset="0.41" stop-color="#AFB1B6"/>
<stop offset="0.61" stop-color="#7F828A"/>
<stop offset="0.82" stop-color="#424652"/>
<stop offset="1" stop-color="#0A101F"/>
</radialGradient>
<radialGradient id="paint19_radial_945_1088" cx="0" cy="0" r="1" gradientUnits="userSpaceOnUse" gradientTransform="translate(19.2569 14.3069) rotate(-66.5453) scale(0.714981 0.714984)">
<stop stop-color="#EFEFF0"/>
<stop offset="0.09" stop-color="#E7E7E9"/>
<stop offset="0.23" stop-color="#D2D3D6"/>
<stop offset="0.41" stop-color="#AFB1B6"/>
<stop offset="0.61" stop-color="#7F828A"/>
<stop offset="0.82" stop-color="#424652"/>
<stop offset="1" stop-color="#0A101F"/>
</radialGradient>
<radialGradient id="paint20_radial_945_1088" cx="0" cy="0" r="1" gradientUnits="userSpaceOnUse" gradientTransform="translate(22.003 12.4461) rotate(-66.5453) scale(0.714979 0.714981)">
<stop stop-color="#EFEFF0"/>
<stop offset="0.09" stop-color="#E7E7E9"/>
<stop offset="0.23" stop-color="#D2D3D6"/>
<stop offset="0.41" stop-color="#AFB1B6"/>
<stop offset="0.61" stop-color="#7F828A"/>
<stop offset="0.82" stop-color="#424652"/>
<stop offset="1" stop-color="#0A101F"/>
</radialGradient>
<radialGradient id="paint21_radial_945_1088" cx="0" cy="0" r="1" gradientUnits="userSpaceOnUse" gradientTransform="translate(12.9297 28.2903) rotate(-66.5453) scale(0.714984 0.714981)">
<stop stop-color="#EFEFF0"/>
<stop offset="0.09" stop-color="#E7E7E9"/>
<stop offset="0.23" stop-color="#D2D3D6"/>
<stop offset="0.41" stop-color="#AFB1B6"/>
<stop offset="0.61" stop-color="#7F828A"/>
<stop offset="0.82" stop-color="#424652"/>
<stop offset="1" stop-color="#0A101F"/>
</radialGradient>
<radialGradient id="paint22_radial_945_1088" cx="0" cy="0" r="1" gradientUnits="userSpaceOnUse" gradientTransform="translate(19.7989 31.2703) rotate(-66.5453) scale(0.714984 0.714981)">
<stop stop-color="#EFEFF0"/>
<stop offset="0.09" stop-color="#E7E7E9"/>
<stop offset="0.23" stop-color="#D2D3D6"/>
<stop offset="0.41" stop-color="#AFB1B6"/>
<stop offset="0.61" stop-color="#7F828A"/>
<stop offset="0.82" stop-color="#424652"/>
<stop offset="1" stop-color="#0A101F"/>
</radialGradient>
<radialGradient id="paint23_radial_945_1088" cx="0" cy="0" r="1" gradientUnits="userSpaceOnUse" gradientTransform="translate(11.1866 40.97) rotate(-66.5453) scale(0.714984)">
<stop stop-color="#EFEFF0"/>
<stop offset="0.09" stop-color="#E7E7E9"/>
<stop offset="0.23" stop-color="#D2D3D6"/>
<stop offset="0.41" stop-color="#AFB1B6"/>
<stop offset="0.61" stop-color="#7F828A"/>
<stop offset="0.82" stop-color="#424652"/>
<stop offset="1" stop-color="#0A101F"/>
</radialGradient>
<radialGradient id="paint24_radial_945_1088" cx="0" cy="0" r="1" gradientUnits="userSpaceOnUse" gradientTransform="translate(10.8702 23.3963) rotate(-66.5453) scale(0.714981)">
<stop stop-color="#EFEFF0"/>
<stop offset="0.09" stop-color="#E7E7E9"/>
<stop offset="0.23" stop-color="#D2D3D6"/>
<stop offset="0.41" stop-color="#AFB1B6"/>
<stop offset="0.61" stop-color="#7F828A"/>
<stop offset="0.82" stop-color="#424652"/>
<stop offset="1" stop-color="#0A101F"/>
</radialGradient>
<radialGradient id="paint25_radial_945_1088" cx="0" cy="0" r="1" gradientUnits="userSpaceOnUse" gradientTransform="translate(8.17193 34.4773) rotate(-66.5453) scale(0.714981 0.714984)">
<stop stop-color="#EFEFF0"/>
<stop offset="0.09" stop-color="#E7E7E9"/>
<stop offset="0.23" stop-color="#D2D3D6"/>
<stop offset="0.41" stop-color="#AFB1B6"/>
<stop offset="0.61" stop-color="#7F828A"/>
<stop offset="0.82" stop-color="#424652"/>
<stop offset="1" stop-color="#0A101F"/>
</radialGradient>
<radialGradient id="paint26_radial_945_1088" cx="0" cy="0" r="1" gradientUnits="userSpaceOnUse" gradientTransform="translate(12.086 16.2424) rotate(-66.5453) scale(0.714981 0.714984)">
<stop stop-color="#EFEFF0"/>
<stop offset="0.09" stop-color="#E7E7E9"/>
<stop offset="0.23" stop-color="#D2D3D6"/>
<stop offset="0.41" stop-color="#AFB1B6"/>
<stop offset="0.61" stop-color="#7F828A"/>
<stop offset="0.82" stop-color="#424652"/>
<stop offset="1" stop-color="#0A101F"/>
</radialGradient>
<radialGradient id="paint27_radial_945_1088" cx="0" cy="0" r="1" gradientUnits="userSpaceOnUse" gradientTransform="translate(13.6387 8.81715) rotate(-66.5453) scale(0.714979 0.714984)">
<stop stop-color="#EFEFF0"/>
<stop offset="0.09" stop-color="#E7E7E9"/>
<stop offset="0.23" stop-color="#D2D3D6"/>
<stop offset="0.41" stop-color="#AFB1B6"/>
<stop offset="0.61" stop-color="#7F828A"/>
<stop offset="0.82" stop-color="#424652"/>
<stop offset="1" stop-color="#0A101F"/>
</radialGradient>
<radialGradient id="paint28_radial_945_1088" cx="0" cy="0" r="1" gradientUnits="userSpaceOnUse" gradientTransform="translate(17.7628 5.36501) rotate(-66.5453) scale(0.714979 0.714984)">
<stop stop-color="#EFEFF0"/>
<stop offset="0.09" stop-color="#E7E7E9"/>
<stop offset="0.23" stop-color="#D2D3D6"/>
<stop offset="0.41" stop-color="#AFB1B6"/>
<stop offset="0.61" stop-color="#7F828A"/>
<stop offset="0.82" stop-color="#424652"/>
<stop offset="1" stop-color="#0A101F"/>
</radialGradient>
<radialGradient id="paint29_radial_945_1088" cx="0" cy="0" r="1" gradientUnits="userSpaceOnUse" gradientTransform="translate(23.6378 6.44948) rotate(-66.5453) scale(0.714979 0.714984)">
<stop stop-color="#EFEFF0"/>
<stop offset="0.09" stop-color="#E7E7E9"/>
<stop offset="0.23" stop-color="#D2D3D6"/>
<stop offset="0.41" stop-color="#AFB1B6"/>
<stop offset="0.61" stop-color="#7F828A"/>
<stop offset="0.82" stop-color="#424652"/>
<stop offset="1" stop-color="#0A101F"/>
</radialGradient>
<radialGradient id="paint30_radial_945_1088" cx="0" cy="0" r="1" gradientUnits="userSpaceOnUse" gradientTransform="translate(29.9258 7.71217) rotate(-66.5453) scale(0.714979 0.714984)">
<stop stop-color="#EFEFF0"/>
<stop offset="0.09" stop-color="#E7E7E9"/>
<stop offset="0.23" stop-color="#D2D3D6"/>
<stop offset="0.41" stop-color="#AFB1B6"/>
<stop offset="0.61" stop-color="#7F828A"/>
<stop offset="0.82" stop-color="#424652"/>
<stop offset="1" stop-color="#0A101F"/>
</radialGradient>
<radialGradient id="paint31_radial_945_1088" cx="0" cy="0" r="1" gradientUnits="userSpaceOnUse" gradientTransform="translate(31.5528 11.8362) rotate(-66.5453) scale(0.714979 0.714984)">
<stop stop-color="#EFEFF0"/>
<stop offset="0.09" stop-color="#E7E7E9"/>
<stop offset="0.23" stop-color="#D2D3D6"/>
<stop offset="0.41" stop-color="#AFB1B6"/>
<stop offset="0.61" stop-color="#7F828A"/>
<stop offset="0.82" stop-color="#424652"/>
<stop offset="1" stop-color="#0A101F"/>
</radialGradient>
<radialGradient id="paint32_radial_945_1088" cx="0" cy="0" r="1" gradientUnits="userSpaceOnUse" gradientTransform="translate(35.5381 15.03) rotate(-66.5453) scale(0.714979 0.714984)">
<stop stop-color="#EFEFF0"/>
<stop offset="0.09" stop-color="#E7E7E9"/>
<stop offset="0.23" stop-color="#D2D3D6"/>
<stop offset="0.41" stop-color="#AFB1B6"/>
<stop offset="0.61" stop-color="#7F828A"/>
<stop offset="0.82" stop-color="#424652"/>
<stop offset="1" stop-color="#0A101F"/>
</radialGradient>
<radialGradient id="paint33_radial_945_1088" cx="0" cy="0" r="1" gradientUnits="userSpaceOnUse" gradientTransform="translate(36.7012 17.9754) rotate(-66.5453) scale(0.714979 0.714984)">
<stop stop-color="#EFEFF0"/>
<stop offset="0.09" stop-color="#E7E7E9"/>
<stop offset="0.23" stop-color="#D2D3D6"/>
<stop offset="0.41" stop-color="#AFB1B6"/>
<stop offset="0.61" stop-color="#7F828A"/>
<stop offset="0.82" stop-color="#424652"/>
<stop offset="1" stop-color="#0A101F"/>
</radialGradient>
</defs>
</svg>
