<svg width="64" height="66" viewBox="0 0 64 66" fill="none" xmlns="http://www.w3.org/2000/svg">
<g filter="url(#filter0_d_945_1087)">
<ellipse cx="32" cy="29" rx="28" ry="29" fill="#202020"/>
<path d="M31.8119 46.5194L23.058 48.2581L17.5001 42.5641L14.3214 35.5611L11.2075 26.8408L11.3764 26.7796L14.491 35.4923L17.6599 42.4753L23.1199 48.0609L31.7762 46.3404L31.8119 46.5194Z" fill="#F4F4F4"/>
<path d="M49.647 33.9243L40.5849 40.2568L40.4804 40.1086L49.4371 33.8491L47.2624 26.0635L47.3968 18.9476L45.3651 11.4219L45.5412 11.3744L47.5782 18.9367L47.4438 26.0526L49.647 33.9243Z" fill="#F4F4F4"/>
<path d="M37.8278 33.6578L33.5979 36.1756L30.6408 31.755L30.7901 31.6537L33.6529 35.9332L37.6173 33.5718L36.6192 29.9168L36.7932 29.8683L37.8278 33.6578Z" fill="#F4F4F4"/>
<path d="M12.2436 27.2242C12.4717 26.6985 12.2304 26.0874 11.7047 25.8593C11.179 25.6312 10.5679 25.8725 10.3398 26.3982C10.1117 26.9239 10.353 27.535 10.8787 27.7631C11.4044 27.9912 12.0155 27.7499 12.2436 27.2242Z" fill="url(#paint0_radial_945_1087)"/>
<path d="M15.3559 35.9361C15.584 35.4104 15.3427 34.7993 14.817 34.5712C14.2913 34.3431 13.6802 34.5844 13.4521 35.1101C13.224 35.6358 13.4652 36.2469 13.991 36.475C14.5167 36.7031 15.1278 36.4618 15.3559 35.9361Z" fill="url(#paint1_radial_945_1087)"/>
<path d="M18.5346 42.9391C18.7627 42.4133 18.5214 41.8022 17.9957 41.5741C17.47 41.346 16.8589 41.5873 16.6308 42.113C16.4027 42.6388 16.644 43.2499 17.1697 43.478C17.6954 43.7061 18.3065 43.4648 18.5346 42.9391Z" fill="url(#paint2_radial_945_1087)"/>
<path d="M24.0395 48.5728C24.2676 48.0471 24.0263 47.436 23.5006 47.2079C22.9749 46.9798 22.3638 47.2211 22.1357 47.7468C21.9076 48.2725 22.1488 48.8836 22.6746 49.1117C23.2003 49.3398 23.8114 49.0986 24.0395 48.5728Z" fill="url(#paint3_radial_945_1087)"/>
<path d="M32.7446 46.8424C32.9726 46.3166 32.7314 45.7055 32.2056 45.4774C31.6799 45.2493 31.0688 45.4906 30.8407 46.0164C30.6126 46.5421 30.8539 47.1532 31.3796 47.3813C31.9053 47.6094 32.5165 47.3681 32.7446 46.8424Z" fill="url(#paint4_radial_945_1087)"/>
<path d="M31.6664 32.1187C31.8945 31.593 31.6533 30.9819 31.1275 30.7538C30.6018 30.5257 29.9907 30.767 29.7626 31.2927C29.5345 31.8184 29.7758 32.4295 30.3015 32.6576C30.8273 32.8857 31.4384 32.6445 31.6664 32.1187Z" fill="url(#paint5_radial_945_1087)"/>
<path d="M34.5756 36.4678C34.8037 35.9421 34.5624 35.331 34.0367 35.1029C33.511 34.8748 32.8999 35.1161 32.6718 35.6418C32.4437 36.1676 32.685 36.7787 33.2107 37.0068C33.7364 37.2349 34.3475 36.9936 34.5756 36.4678Z" fill="url(#paint6_radial_945_1087)"/>
<path d="M38.6733 34.0279C38.9014 33.5022 38.6601 32.8911 38.1344 32.663C37.6086 32.4349 36.9976 32.6762 36.7695 33.2019C36.5414 33.7276 36.7826 34.3387 37.3083 34.5668C37.8341 34.7949 38.4452 34.5536 38.6733 34.0279Z" fill="url(#paint7_radial_945_1087)"/>
<path d="M41.4848 40.5968C41.7129 40.071 41.4716 39.4599 40.9459 39.2318C40.4202 39.0037 39.8091 39.245 39.581 39.7708C39.3529 40.2965 39.5942 40.9076 40.1199 41.1357C40.6456 41.3638 41.2567 41.1225 41.4848 40.5968Z" fill="url(#paint8_radial_945_1087)"/>
<path d="M50.4946 34.2999C50.7227 33.7742 50.4814 33.1631 49.9557 32.935C49.4299 32.7069 48.8188 32.9482 48.5907 33.4739C48.3626 33.9996 48.6039 34.6107 49.1297 34.8388C49.6554 35.0669 50.2665 34.8256 50.4946 34.2999Z" fill="url(#paint9_radial_945_1087)"/>
<path d="M48.3041 26.4781C48.5322 25.9524 48.2909 25.3413 47.7652 25.1132C47.2395 24.8851 46.6284 25.1264 46.4003 25.6521C46.1722 26.1778 46.4135 26.7889 46.9392 27.017C47.4649 27.2451 48.076 27.0038 48.3041 26.4781Z" fill="url(#paint10_radial_945_1087)"/>
<path d="M48.4409 19.3502C48.669 18.8245 48.4277 18.2134 47.902 17.9853C47.3762 17.7572 46.7651 17.9984 46.537 18.5242C46.3089 19.0499 46.5502 19.661 47.0759 19.8891C47.6017 20.1172 48.2128 19.8759 48.4409 19.3502Z" fill="url(#paint11_radial_945_1087)"/>
<path d="M46.4047 11.8097C46.6328 11.2839 46.3915 10.6728 45.8658 10.4447C45.3401 10.2166 44.729 10.4579 44.5009 10.9836C44.2728 11.5094 44.5141 12.1204 45.0398 12.3485C45.5655 12.5766 46.1766 12.3354 46.4047 11.8097Z" fill="url(#paint12_radial_945_1087)"/>
<path d="M37.6567 30.3067C37.8848 29.781 37.6435 29.1699 37.1178 28.9418C36.5921 28.7137 35.981 28.955 35.7529 29.4807C35.5248 30.0064 35.766 30.6175 36.2918 30.8456C36.8175 31.0737 37.4286 30.8324 37.6567 30.3067Z" fill="url(#paint13_radial_945_1087)"/>
<path d="M36.4682 24.8497C36.6963 24.324 36.455 23.7129 35.9293 23.4848C35.4036 23.2567 34.7925 23.498 34.5644 24.0237C34.3363 24.5494 34.5776 25.1605 35.1033 25.3886C35.629 25.6167 36.2401 25.3754 36.4682 24.8497Z" fill="url(#paint14_radial_945_1087)"/>
<path d="M35.3315 17.6915C35.5596 17.1658 35.3183 16.5547 34.7926 16.3266C34.2669 16.0985 33.6558 16.3398 33.4277 16.8655C33.1996 17.3912 33.4408 18.0023 33.9666 18.2304C34.4923 18.4585 35.1034 18.2172 35.3315 17.6915Z" fill="url(#paint15_radial_945_1087)"/>
</g>
<defs>
<filter id="filter0_d_945_1087" x="0" y="0" width="64" height="66" filterUnits="userSpaceOnUse" color-interpolation-filters="sRGB">
<feFlood flood-opacity="0" result="BackgroundImageFix"/>
<feColorMatrix in="SourceAlpha" type="matrix" values="0 0 0 0 0 0 0 0 0 0 0 0 0 0 0 0 0 0 127 0" result="hardAlpha"/>
<feOffset dy="4"/>
<feGaussianBlur stdDeviation="2"/>
<feComposite in2="hardAlpha" operator="out"/>
<feColorMatrix type="matrix" values="0 0 0 0 0 0 0 0 0 0 0 0 0 0 0 0 0 0 0.25 0"/>
<feBlend mode="normal" in2="BackgroundImageFix" result="effect1_dropShadow_945_1087"/>
<feBlend mode="normal" in="SourceGraphic" in2="effect1_dropShadow_945_1087" result="shape"/>
</filter>
<radialGradient id="paint0_radial_945_1087" cx="0" cy="0" r="1" gradientUnits="userSpaceOnUse" gradientTransform="translate(11.2917 26.8112) rotate(-66.5453) scale(1.03764 1.03765)">
<stop stop-color="#EFEFF0"/>
<stop offset="0.09" stop-color="#E7E7E9"/>
<stop offset="0.23" stop-color="#D2D3D6"/>
<stop offset="0.41" stop-color="#AFB1B6"/>
<stop offset="0.61" stop-color="#7F828A"/>
<stop offset="0.82" stop-color="#424652"/>
<stop offset="1" stop-color="#0A101F"/>
</radialGradient>
<radialGradient id="paint1_radial_945_1087" cx="0" cy="0" r="1" gradientUnits="userSpaceOnUse" gradientTransform="translate(14.404 35.5231) rotate(-66.5453) scale(1.03765)">
<stop stop-color="#EFEFF0"/>
<stop offset="0.09" stop-color="#E7E7E9"/>
<stop offset="0.23" stop-color="#D2D3D6"/>
<stop offset="0.41" stop-color="#AFB1B6"/>
<stop offset="0.61" stop-color="#7F828A"/>
<stop offset="0.82" stop-color="#424652"/>
<stop offset="1" stop-color="#0A101F"/>
</radialGradient>
<radialGradient id="paint2_radial_945_1087" cx="0" cy="0" r="1" gradientUnits="userSpaceOnUse" gradientTransform="translate(17.5827 42.526) rotate(-66.5453) scale(1.03764 1.03765)">
<stop stop-color="#EFEFF0"/>
<stop offset="0.09" stop-color="#E7E7E9"/>
<stop offset="0.23" stop-color="#D2D3D6"/>
<stop offset="0.41" stop-color="#AFB1B6"/>
<stop offset="0.61" stop-color="#7F828A"/>
<stop offset="0.82" stop-color="#424652"/>
<stop offset="1" stop-color="#0A101F"/>
</radialGradient>
<radialGradient id="paint3_radial_945_1087" cx="0" cy="0" r="1" gradientUnits="userSpaceOnUse" gradientTransform="translate(23.0876 48.1598) rotate(-66.5453) scale(1.03764 1.03765)">
<stop stop-color="#EFEFF0"/>
<stop offset="0.09" stop-color="#E7E7E9"/>
<stop offset="0.23" stop-color="#D2D3D6"/>
<stop offset="0.41" stop-color="#AFB1B6"/>
<stop offset="0.61" stop-color="#7F828A"/>
<stop offset="0.82" stop-color="#424652"/>
<stop offset="1" stop-color="#0A101F"/>
</radialGradient>
<radialGradient id="paint4_radial_945_1087" cx="0" cy="0" r="1" gradientUnits="userSpaceOnUse" gradientTransform="translate(31.7926 46.4294) rotate(-66.5453) scale(1.03765 1.03764)">
<stop stop-color="#EFEFF0"/>
<stop offset="0.09" stop-color="#E7E7E9"/>
<stop offset="0.23" stop-color="#D2D3D6"/>
<stop offset="0.41" stop-color="#AFB1B6"/>
<stop offset="0.61" stop-color="#7F828A"/>
<stop offset="0.82" stop-color="#424652"/>
<stop offset="1" stop-color="#0A101F"/>
</radialGradient>
<radialGradient id="paint5_radial_945_1087" cx="0" cy="0" r="1" gradientUnits="userSpaceOnUse" gradientTransform="translate(30.7145 31.7057) rotate(-66.5453) scale(1.03765 1.03765)">
<stop stop-color="#EFEFF0"/>
<stop offset="0.09" stop-color="#E7E7E9"/>
<stop offset="0.23" stop-color="#D2D3D6"/>
<stop offset="0.41" stop-color="#AFB1B6"/>
<stop offset="0.61" stop-color="#7F828A"/>
<stop offset="0.82" stop-color="#424652"/>
<stop offset="1" stop-color="#0A101F"/>
</radialGradient>
<radialGradient id="paint6_radial_945_1087" cx="0" cy="0" r="1" gradientUnits="userSpaceOnUse" gradientTransform="translate(33.6237 36.0548) rotate(-66.5453) scale(1.03765 1.03764)">
<stop stop-color="#EFEFF0"/>
<stop offset="0.09" stop-color="#E7E7E9"/>
<stop offset="0.23" stop-color="#D2D3D6"/>
<stop offset="0.41" stop-color="#AFB1B6"/>
<stop offset="0.61" stop-color="#7F828A"/>
<stop offset="0.82" stop-color="#424652"/>
<stop offset="1" stop-color="#0A101F"/>
</radialGradient>
<radialGradient id="paint7_radial_945_1087" cx="0" cy="0" r="1" gradientUnits="userSpaceOnUse" gradientTransform="translate(37.7214 33.6149) rotate(-66.5453) scale(1.03765 1.03764)">
<stop stop-color="#EFEFF0"/>
<stop offset="0.09" stop-color="#E7E7E9"/>
<stop offset="0.23" stop-color="#D2D3D6"/>
<stop offset="0.41" stop-color="#AFB1B6"/>
<stop offset="0.61" stop-color="#7F828A"/>
<stop offset="0.82" stop-color="#424652"/>
<stop offset="1" stop-color="#0A101F"/>
</radialGradient>
<radialGradient id="paint8_radial_945_1087" cx="0" cy="0" r="1" gradientUnits="userSpaceOnUse" gradientTransform="translate(40.5329 40.1838) rotate(-66.5453) scale(1.03765 1.03764)">
<stop stop-color="#EFEFF0"/>
<stop offset="0.09" stop-color="#E7E7E9"/>
<stop offset="0.23" stop-color="#D2D3D6"/>
<stop offset="0.41" stop-color="#AFB1B6"/>
<stop offset="0.61" stop-color="#7F828A"/>
<stop offset="0.82" stop-color="#424652"/>
<stop offset="1" stop-color="#0A101F"/>
</radialGradient>
<radialGradient id="paint9_radial_945_1087" cx="0" cy="0" r="1" gradientUnits="userSpaceOnUse" gradientTransform="translate(49.5427 33.8869) rotate(-66.5453) scale(1.03764 1.03765)">
<stop stop-color="#EFEFF0"/>
<stop offset="0.09" stop-color="#E7E7E9"/>
<stop offset="0.23" stop-color="#D2D3D6"/>
<stop offset="0.41" stop-color="#AFB1B6"/>
<stop offset="0.61" stop-color="#7F828A"/>
<stop offset="0.82" stop-color="#424652"/>
<stop offset="1" stop-color="#0A101F"/>
</radialGradient>
<radialGradient id="paint10_radial_945_1087" cx="0" cy="0" r="1" gradientUnits="userSpaceOnUse" gradientTransform="translate(47.3522 26.0651) rotate(-66.5453) scale(1.03765 1.03764)">
<stop stop-color="#EFEFF0"/>
<stop offset="0.09" stop-color="#E7E7E9"/>
<stop offset="0.23" stop-color="#D2D3D6"/>
<stop offset="0.41" stop-color="#AFB1B6"/>
<stop offset="0.61" stop-color="#7F828A"/>
<stop offset="0.82" stop-color="#424652"/>
<stop offset="1" stop-color="#0A101F"/>
</radialGradient>
<radialGradient id="paint11_radial_945_1087" cx="0" cy="0" r="1" gradientUnits="userSpaceOnUse" gradientTransform="translate(47.4889 18.9372) rotate(-66.5453) scale(1.03764 1.03765)">
<stop stop-color="#EFEFF0"/>
<stop offset="0.09" stop-color="#E7E7E9"/>
<stop offset="0.23" stop-color="#D2D3D6"/>
<stop offset="0.41" stop-color="#AFB1B6"/>
<stop offset="0.61" stop-color="#7F828A"/>
<stop offset="0.82" stop-color="#424652"/>
<stop offset="1" stop-color="#0A101F"/>
</radialGradient>
<radialGradient id="paint12_radial_945_1087" cx="0" cy="0" r="1" gradientUnits="userSpaceOnUse" gradientTransform="translate(45.4528 11.3966) rotate(-66.5453) scale(1.03764)">
<stop stop-color="#EFEFF0"/>
<stop offset="0.09" stop-color="#E7E7E9"/>
<stop offset="0.23" stop-color="#D2D3D6"/>
<stop offset="0.41" stop-color="#AFB1B6"/>
<stop offset="0.61" stop-color="#7F828A"/>
<stop offset="0.82" stop-color="#424652"/>
<stop offset="1" stop-color="#0A101F"/>
</radialGradient>
<radialGradient id="paint13_radial_945_1087" cx="0" cy="0" r="1" gradientUnits="userSpaceOnUse" gradientTransform="translate(36.7048 29.8937) rotate(-66.5453) scale(1.03765 1.03765)">
<stop stop-color="#EFEFF0"/>
<stop offset="0.09" stop-color="#E7E7E9"/>
<stop offset="0.23" stop-color="#D2D3D6"/>
<stop offset="0.41" stop-color="#AFB1B6"/>
<stop offset="0.61" stop-color="#7F828A"/>
<stop offset="0.82" stop-color="#424652"/>
<stop offset="1" stop-color="#0A101F"/>
</radialGradient>
<radialGradient id="paint14_radial_945_1087" cx="0" cy="0" r="1" gradientUnits="userSpaceOnUse" gradientTransform="translate(35.5163 24.4367) rotate(-66.5453) scale(1.03764 1.03765)">
<stop stop-color="#EFEFF0"/>
<stop offset="0.09" stop-color="#E7E7E9"/>
<stop offset="0.23" stop-color="#D2D3D6"/>
<stop offset="0.41" stop-color="#AFB1B6"/>
<stop offset="0.61" stop-color="#7F828A"/>
<stop offset="0.82" stop-color="#424652"/>
<stop offset="1" stop-color="#0A101F"/>
</radialGradient>
<radialGradient id="paint15_radial_945_1087" cx="0" cy="0" r="1" gradientUnits="userSpaceOnUse" gradientTransform="translate(34.3796 17.2785) rotate(-66.5453) scale(1.03765 1.03764)">
<stop stop-color="#EFEFF0"/>
<stop offset="0.09" stop-color="#E7E7E9"/>
<stop offset="0.23" stop-color="#D2D3D6"/>
<stop offset="0.41" stop-color="#AFB1B6"/>
<stop offset="0.61" stop-color="#7F828A"/>
<stop offset="0.82" stop-color="#424652"/>
<stop offset="1" stop-color="#0A101F"/>
</radialGradient>
</defs>
</svg>
