<svg width="56" height="58" viewBox="0 0 56 58" fill="none" xmlns="http://www.w3.org/2000/svg">
<ellipse cx="28" cy="29" rx="28" ry="29" fill="#202020"/>
<path d="M35.4616 23.8883L34.8487 29.05L30.3081 32.1384L33.6218 39.4135L29.3958 42.6465L27.3934 48.0003L21.2426 44.3379L19.2975 38.0784L14.6559 33.359L14.8267 33.1897L19.5188 37.9798L21.4471 44.1751L27.2689 47.6421L29.1942 42.4941L33.3211 39.3398L30.0036 32.055L34.6197 28.9141L35.2132 23.9185L33.6059 19.9191L33.2661 13.7275L27.4189 11.2352L23.2888 13.7796L20.7325 19.0636L20.2748 26.5885L20.034 26.5733L20.5047 18.9809L23.0995 13.6083L27.3991 10.9629L33.5038 13.5629L33.8474 19.886L35.4616 23.8883Z" fill="#F4F4F4"/>
<path d="M21.6182 27.2155C21.9692 26.4067 21.598 25.4665 20.7891 25.1155C19.9803 24.7646 19.0401 25.1358 18.6891 25.9447C18.3382 26.7535 18.7094 27.6937 19.5183 28.0446C20.3271 28.3955 21.2673 28.0244 21.6182 27.2155Z" fill="url(#paint0_radial_945_1102)"/>
<path d="M22.0772 19.6662C22.4282 18.8573 22.0569 17.9172 21.2481 17.5662C20.4393 17.2153 19.4991 17.5865 19.1481 18.3953C18.7972 19.2042 19.1684 20.1444 19.9773 20.4953C20.7861 20.8462 21.7263 20.475 22.0772 19.6662Z" fill="url(#paint1_radial_945_1102)"/>
<path d="M24.6573 14.3283C25.0082 13.5195 24.637 12.5793 23.8282 12.2283C23.0193 11.8774 22.0791 12.2486 21.7282 13.0575C21.3773 13.8663 21.7485 14.8065 22.5573 15.1574C23.3662 15.5083 24.3063 15.1372 24.6573 14.3283Z" fill="url(#paint2_radial_945_1102)"/>
<path d="M28.8731 11.7355C29.2241 10.9267 28.8528 9.98644 28.044 9.63551C27.2352 9.28457 26.295 9.65579 25.944 10.4646C25.5931 11.2735 25.9643 12.2137 26.7731 12.5646C27.582 12.9156 28.5222 12.5443 28.8731 11.7355Z" fill="url(#paint3_radial_945_1102)"/>
<path d="M34.8516 14.2804C35.2026 13.4716 34.8314 12.5314 34.0225 12.1804C33.2137 11.8295 32.2735 12.2007 31.9225 13.0096C31.5716 13.8184 31.9428 14.7586 32.7516 15.1095C33.5605 15.4605 34.5007 15.0893 34.8516 14.2804Z" fill="url(#paint4_radial_945_1102)"/>
<path d="M35.1944 20.5509C35.5453 19.7421 35.1741 18.8019 34.3653 18.4509C33.5564 18.1 32.6163 18.4712 32.2653 19.2801C31.9144 20.0889 32.2856 21.0291 33.0944 21.3801C33.9033 21.731 34.8435 21.3598 35.1944 20.5509Z" fill="url(#paint5_radial_945_1102)"/>
<path d="M36.8028 24.5382C37.1537 23.7294 36.7825 22.7892 35.9737 22.4383C35.1648 22.0874 34.2247 22.4585 33.8737 23.2674C33.5228 24.0762 33.894 25.0164 34.7028 25.3674C35.5117 25.7183 36.4519 25.3471 36.8028 24.5382Z" fill="url(#paint6_radial_945_1102)"/>
<path d="M36.1983 29.6144C36.5493 28.8056 36.1781 27.8654 35.3692 27.5144C34.5604 27.1635 33.6202 27.5347 33.2692 28.3435C32.9183 29.1524 33.2895 30.0926 34.0983 30.4435C34.9072 30.7945 35.8474 30.4232 36.1983 29.6144Z" fill="url(#paint7_radial_945_1102)"/>
<path d="M31.6212 32.7316C31.9721 31.9227 31.6009 30.9826 30.792 30.6316C29.9832 30.2807 29.043 30.6519 28.6921 31.4607C28.3411 32.2696 28.7124 33.2098 29.5212 33.5607C30.33 33.9117 31.2702 33.5404 31.6212 32.7316Z" fill="url(#paint8_radial_945_1102)"/>
<path d="M34.9366 40.0114C35.2875 39.2025 34.9163 38.2623 34.1075 37.9114C33.2986 37.5604 32.3584 37.9317 32.0075 38.7405C31.6566 39.5494 32.0278 40.4896 32.8366 40.8405C33.6455 41.1914 34.5857 40.8202 34.9366 40.0114Z" fill="url(#paint9_radial_945_1102)"/>
<path d="M30.7598 43.2047C31.1108 42.3959 30.7395 41.4557 29.9307 41.1048C29.1219 40.7538 28.1817 41.125 27.8307 41.9339C27.4798 42.7427 27.851 43.6829 28.6599 44.0339C29.4687 44.3848 30.4089 44.0136 30.7598 43.2047Z" fill="url(#paint10_radial_945_1102)"/>
<path d="M28.7969 48.4581C29.1479 47.6493 28.7767 46.7091 27.9678 46.3582C27.159 46.0072 26.2188 46.3785 25.8679 47.1873C25.5169 47.9961 25.8881 48.9363 26.697 49.2873C27.5058 49.6382 28.446 49.267 28.7969 48.4581Z" fill="url(#paint11_radial_945_1102)"/>
<path d="M22.8077 44.8908C23.1586 44.0819 22.7874 43.1417 21.9786 42.7908C21.1697 42.4398 20.2295 42.8111 19.8786 43.6199C19.5277 44.4288 19.8989 45.369 20.7077 45.7199C21.5165 46.0708 22.4568 45.6996 22.8077 44.8908Z" fill="url(#paint12_radial_945_1102)"/>
<path d="M20.8672 38.6496C21.2182 37.8408 20.847 36.9006 20.0381 36.5496C19.2293 36.1987 18.2891 36.5699 17.9381 37.3787C17.5872 38.1876 17.9584 39.1278 18.7673 39.4787C19.5761 39.8296 20.5163 39.4584 20.8672 38.6496Z" fill="url(#paint13_radial_945_1102)"/>
<path d="M16.2061 33.9098C16.5571 33.101 16.1859 32.1608 15.377 31.8099C14.5682 31.4589 13.628 31.8301 13.277 32.639C12.9261 33.4478 13.2973 34.388 14.1062 34.7389C14.915 35.0899 15.8552 34.7187 16.2061 33.9098Z" fill="url(#paint14_radial_945_1102)"/>
<defs>
<radialGradient id="paint0_radial_945_1102" cx="0" cy="0" r="1" gradientUnits="userSpaceOnUse" gradientTransform="translate(20.185 26.5042) rotate(-93.1354) scale(1.59645 1.59645)">
<stop stop-color="#EFEFF0"/>
<stop offset="0.09" stop-color="#E7E7E9"/>
<stop offset="0.23" stop-color="#D2D3D6"/>
<stop offset="0.41" stop-color="#AFB1B6"/>
<stop offset="0.61" stop-color="#7F828A"/>
<stop offset="0.82" stop-color="#424652"/>
<stop offset="1" stop-color="#0A101F"/>
</radialGradient>
<radialGradient id="paint1_radial_945_1102" cx="0" cy="0" r="1" gradientUnits="userSpaceOnUse" gradientTransform="translate(20.6427 18.9535) rotate(-93.1354) scale(1.59645 1.59645)">
<stop stop-color="#EFEFF0"/>
<stop offset="0.09" stop-color="#E7E7E9"/>
<stop offset="0.23" stop-color="#D2D3D6"/>
<stop offset="0.41" stop-color="#AFB1B6"/>
<stop offset="0.61" stop-color="#7F828A"/>
<stop offset="0.82" stop-color="#424652"/>
<stop offset="1" stop-color="#0A101F"/>
</radialGradient>
<radialGradient id="paint2_radial_945_1102" cx="0" cy="0" r="1" gradientUnits="userSpaceOnUse" gradientTransform="translate(23.2238 13.6138) rotate(-93.1354) scale(1.59645 1.59645)">
<stop stop-color="#EFEFF0"/>
<stop offset="0.09" stop-color="#E7E7E9"/>
<stop offset="0.23" stop-color="#D2D3D6"/>
<stop offset="0.41" stop-color="#AFB1B6"/>
<stop offset="0.61" stop-color="#7F828A"/>
<stop offset="0.82" stop-color="#424652"/>
<stop offset="1" stop-color="#0A101F"/>
</radialGradient>
<radialGradient id="paint3_radial_945_1102" cx="0" cy="0" r="1" gradientUnits="userSpaceOnUse" gradientTransform="translate(27.4348 11.0199) rotate(-93.1351) scale(1.59646 1.59646)">
<stop stop-color="#EFEFF0"/>
<stop offset="0.09" stop-color="#E7E7E9"/>
<stop offset="0.23" stop-color="#D2D3D6"/>
<stop offset="0.41" stop-color="#AFB1B6"/>
<stop offset="0.61" stop-color="#7F828A"/>
<stop offset="0.82" stop-color="#424652"/>
<stop offset="1" stop-color="#0A101F"/>
</radialGradient>
<radialGradient id="paint4_radial_945_1102" cx="0" cy="0" r="1" gradientUnits="userSpaceOnUse" gradientTransform="translate(33.4144 13.5656) rotate(-93.135) scale(1.59646 1.59645)">
<stop stop-color="#EFEFF0"/>
<stop offset="0.09" stop-color="#E7E7E9"/>
<stop offset="0.23" stop-color="#D2D3D6"/>
<stop offset="0.41" stop-color="#AFB1B6"/>
<stop offset="0.61" stop-color="#7F828A"/>
<stop offset="0.82" stop-color="#424652"/>
<stop offset="1" stop-color="#0A101F"/>
</radialGradient>
<radialGradient id="paint5_radial_945_1102" cx="0" cy="0" r="1" gradientUnits="userSpaceOnUse" gradientTransform="translate(33.7582 19.8348) rotate(-93.1351) scale(1.59646 1.59646)">
<stop stop-color="#EFEFF0"/>
<stop offset="0.09" stop-color="#E7E7E9"/>
<stop offset="0.23" stop-color="#D2D3D6"/>
<stop offset="0.41" stop-color="#AFB1B6"/>
<stop offset="0.61" stop-color="#7F828A"/>
<stop offset="0.82" stop-color="#424652"/>
<stop offset="1" stop-color="#0A101F"/>
</radialGradient>
<radialGradient id="paint6_radial_945_1102" cx="0" cy="0" r="1" gradientUnits="userSpaceOnUse" gradientTransform="translate(35.3669 23.8236) rotate(-93.1354) scale(1.59645 1.59645)">
<stop stop-color="#EFEFF0"/>
<stop offset="0.09" stop-color="#E7E7E9"/>
<stop offset="0.23" stop-color="#D2D3D6"/>
<stop offset="0.41" stop-color="#AFB1B6"/>
<stop offset="0.61" stop-color="#7F828A"/>
<stop offset="0.82" stop-color="#424652"/>
<stop offset="1" stop-color="#0A101F"/>
</radialGradient>
<radialGradient id="paint7_radial_945_1102" cx="0" cy="0" r="1" gradientUnits="userSpaceOnUse" gradientTransform="translate(34.7652 28.9027) rotate(-93.1351) scale(1.59646 1.59646)">
<stop stop-color="#EFEFF0"/>
<stop offset="0.09" stop-color="#E7E7E9"/>
<stop offset="0.23" stop-color="#D2D3D6"/>
<stop offset="0.41" stop-color="#AFB1B6"/>
<stop offset="0.61" stop-color="#7F828A"/>
<stop offset="0.82" stop-color="#424652"/>
<stop offset="1" stop-color="#0A101F"/>
</radialGradient>
<radialGradient id="paint8_radial_945_1102" cx="0" cy="0" r="1" gradientUnits="userSpaceOnUse" gradientTransform="translate(30.1843 32.0197) rotate(-93.1354) scale(1.59645 1.59645)">
<stop stop-color="#EFEFF0"/>
<stop offset="0.09" stop-color="#E7E7E9"/>
<stop offset="0.23" stop-color="#D2D3D6"/>
<stop offset="0.41" stop-color="#AFB1B6"/>
<stop offset="0.61" stop-color="#7F828A"/>
<stop offset="0.82" stop-color="#424652"/>
<stop offset="1" stop-color="#0A101F"/>
</radialGradient>
<radialGradient id="paint9_radial_945_1102" cx="0" cy="0" r="1" gradientUnits="userSpaceOnUse" gradientTransform="translate(33.5048 39.299) rotate(-93.1351) scale(1.59646 1.59646)">
<stop stop-color="#EFEFF0"/>
<stop offset="0.09" stop-color="#E7E7E9"/>
<stop offset="0.23" stop-color="#D2D3D6"/>
<stop offset="0.41" stop-color="#AFB1B6"/>
<stop offset="0.61" stop-color="#7F828A"/>
<stop offset="0.82" stop-color="#424652"/>
<stop offset="1" stop-color="#0A101F"/>
</radialGradient>
<radialGradient id="paint10_radial_945_1102" cx="0" cy="0" r="1" gradientUnits="userSpaceOnUse" gradientTransform="translate(29.3265 42.4942) rotate(-93.1354) scale(1.59645 1.59645)">
<stop stop-color="#EFEFF0"/>
<stop offset="0.09" stop-color="#E7E7E9"/>
<stop offset="0.23" stop-color="#D2D3D6"/>
<stop offset="0.41" stop-color="#AFB1B6"/>
<stop offset="0.61" stop-color="#7F828A"/>
<stop offset="0.82" stop-color="#424652"/>
<stop offset="1" stop-color="#0A101F"/>
</radialGradient>
<radialGradient id="paint11_radial_945_1102" cx="0" cy="0" r="1" gradientUnits="userSpaceOnUse" gradientTransform="translate(27.3629 47.7412) rotate(-93.135) scale(1.59646 1.59645)">
<stop stop-color="#EFEFF0"/>
<stop offset="0.09" stop-color="#E7E7E9"/>
<stop offset="0.23" stop-color="#D2D3D6"/>
<stop offset="0.41" stop-color="#AFB1B6"/>
<stop offset="0.61" stop-color="#7F828A"/>
<stop offset="0.82" stop-color="#424652"/>
<stop offset="1" stop-color="#0A101F"/>
</radialGradient>
<radialGradient id="paint12_radial_945_1102" cx="0" cy="0" r="1" gradientUnits="userSpaceOnUse" gradientTransform="translate(21.3758 44.1788) rotate(-93.1351) scale(1.59646 1.59646)">
<stop stop-color="#EFEFF0"/>
<stop offset="0.09" stop-color="#E7E7E9"/>
<stop offset="0.23" stop-color="#D2D3D6"/>
<stop offset="0.41" stop-color="#AFB1B6"/>
<stop offset="0.61" stop-color="#7F828A"/>
<stop offset="0.82" stop-color="#424652"/>
<stop offset="1" stop-color="#0A101F"/>
</radialGradient>
<radialGradient id="paint13_radial_945_1102" cx="0" cy="0" r="1" gradientUnits="userSpaceOnUse" gradientTransform="translate(19.4355 37.9382) rotate(-93.1354) scale(1.59645 1.59645)">
<stop stop-color="#EFEFF0"/>
<stop offset="0.09" stop-color="#E7E7E9"/>
<stop offset="0.23" stop-color="#D2D3D6"/>
<stop offset="0.41" stop-color="#AFB1B6"/>
<stop offset="0.61" stop-color="#7F828A"/>
<stop offset="0.82" stop-color="#424652"/>
<stop offset="1" stop-color="#0A101F"/>
</radialGradient>
<radialGradient id="paint14_radial_945_1102" cx="0" cy="0" r="1" gradientUnits="userSpaceOnUse" gradientTransform="translate(14.7741 33.1961) rotate(-93.1354) scale(1.59645 1.59645)">
<stop stop-color="#EFEFF0"/>
<stop offset="0.09" stop-color="#E7E7E9"/>
<stop offset="0.23" stop-color="#D2D3D6"/>
<stop offset="0.41" stop-color="#AFB1B6"/>
<stop offset="0.61" stop-color="#7F828A"/>
<stop offset="0.82" stop-color="#424652"/>
<stop offset="1" stop-color="#0A101F"/>
</radialGradient>
</defs>
</svg>
