<svg width="56" height="58" viewBox="0 0 56 58" fill="none" xmlns="http://www.w3.org/2000/svg">
<ellipse cx="28" cy="29" rx="28" ry="29" fill="#202020"/>
<path d="M37.0836 27.9605L26.4626 28.066L19.2033 33.9705L18.9997 33.7199L26.3452 27.7473L37.0777 27.6375L37.0836 27.9605Z" fill="white"/>
<path d="M20.5645 34.4801C20.9154 33.6713 20.5442 32.7311 19.7354 32.3802C18.9265 32.0292 17.9864 32.4004 17.6354 33.2093C17.2845 34.0181 17.6557 34.9583 18.4645 35.3093C19.2734 35.6602 20.2136 35.289 20.5645 34.4801Z" fill="url(#paint0_radial_945_1099)"/>
<path d="M27.8663 28.5417C28.2172 27.7328 27.846 26.7926 27.0372 26.4417C26.2283 26.0908 25.2881 26.462 24.9372 27.2708C24.5862 28.0796 24.9575 29.0198 25.7663 29.3708C26.5752 29.7217 27.5153 29.3505 27.8663 28.5417Z" fill="url(#paint1_radial_945_1099)"/>
<path d="M38.544 28.4362C38.895 27.6273 38.5237 26.6872 37.7149 26.3362C36.906 25.9853 35.9659 26.3565 35.6149 27.1653C35.264 27.9742 35.6352 28.9144 36.444 29.2653C37.2529 29.6162 38.1931 29.245 38.544 28.4362Z" fill="url(#paint2_radial_945_1099)"/>
<defs>
<radialGradient id="paint0_radial_945_1099" cx="0" cy="0" r="1" gradientUnits="userSpaceOnUse" gradientTransform="translate(18.963 33.6516) rotate(-159.825) scale(1.59644 1.59645)">
<stop stop-color="#EFEFF0"/>
<stop offset="0.09" stop-color="#E7E7E9"/>
<stop offset="0.23" stop-color="#D2D3D6"/>
<stop offset="0.41" stop-color="#AFB1B6"/>
<stop offset="0.61" stop-color="#7F828A"/>
<stop offset="0.82" stop-color="#424652"/>
<stop offset="1" stop-color="#0A101F"/>
</radialGradient>
<radialGradient id="paint1_radial_945_1099" cx="0" cy="0" r="1" gradientUnits="userSpaceOnUse" gradientTransform="translate(26.2655 27.7161) rotate(-159.825) scale(1.59646 1.59645)">
<stop stop-color="#EFEFF0"/>
<stop offset="0.09" stop-color="#E7E7E9"/>
<stop offset="0.23" stop-color="#D2D3D6"/>
<stop offset="0.41" stop-color="#AFB1B6"/>
<stop offset="0.61" stop-color="#7F828A"/>
<stop offset="0.82" stop-color="#424652"/>
<stop offset="1" stop-color="#0A101F"/>
</radialGradient>
<radialGradient id="paint2_radial_945_1099" cx="0" cy="0" r="1" gradientUnits="userSpaceOnUse" gradientTransform="translate(36.9425 27.6069) rotate(-159.825) scale(1.59646 1.59645)">
<stop stop-color="#EFEFF0"/>
<stop offset="0.09" stop-color="#E7E7E9"/>
<stop offset="0.23" stop-color="#D2D3D6"/>
<stop offset="0.41" stop-color="#AFB1B6"/>
<stop offset="0.61" stop-color="#7F828A"/>
<stop offset="0.82" stop-color="#424652"/>
<stop offset="1" stop-color="#0A101F"/>
</radialGradient>
</defs>
</svg>
