<svg width="56" height="58" viewBox="0 0 56 58" fill="none" xmlns="http://www.w3.org/2000/svg">
<ellipse cx="28" cy="29" rx="28" ry="29" fill="#202020"/>
<path d="M19.0233 6.60783L12.6629 11.7041L10.0793 17.6381L5.6756 21.861L3.64619 29.5018L3.47302 29.4568L5.5132 21.7634L5.53211 21.7475L9.94051 17.5207L12.5132 11.591L12.5311 11.5777L18.9118 6.46915L19.0233 6.60783Z" fill="#F4F4F4"/>
<path d="M21.9429 31.9671L21.9385 31.9773L16.9071 41.8596L16.7442 41.7769L21.7702 31.9072L23.0501 25.1818L10.9851 22.079L16.1042 19.5937L9.99033 17.6607L10.044 17.4883L16.5886 19.56L11.5043 22.0272L23.2607 25.0504L23.244 25.1305L21.9429 31.9671Z" fill="#F4F4F4"/>
<path d="M27.1796 29.4694L21.897 32.0192L21.8201 31.8563L27.0148 29.3497L27.8411 22.9273L23.1952 25.1963L23.1183 25.0334L27.8907 22.7019L32.8608 15.9034L33.0076 16.0092L28.0375 22.8077L27.1796 29.4694Z" fill="#F4F4F4"/>
<path d="M53.0992 21.5564L48.1477 28.2426L42.3167 31.4247L35.6435 35.2711L29.7362 41.5787L31.3012 32.9054L27.0398 29.4787L27.1547 29.3388L31.4989 32.8315L30.022 41.0102L35.5426 35.122L42.2304 31.2698L48.0276 28.1031L52.9535 21.4481L53.0992 21.5564Z" fill="#F4F4F4"/>
<path d="M38.6612 40.5153L35.2345 47.7817L28.6634 54.3493L28.5352 54.2214L35.0958 47.6643L38.4965 40.4439L42.1905 31.3121L42.3564 31.3811L38.6612 40.5153Z" fill="#F4F4F4"/>
<path d="M4.64586 29.9514C4.90635 29.3511 4.63083 28.6532 4.03044 28.3927C3.43005 28.1322 2.73216 28.4077 2.47166 29.0081C2.21117 29.6085 2.48672 30.3064 3.08711 30.5669C3.68751 30.8274 4.38537 30.5518 4.64586 29.9514Z" fill="url(#paint0_radial_945_1115)"/>
<path d="M6.68106 22.2835C6.94155 21.6831 6.66599 20.9852 6.0656 20.7247C5.46521 20.4642 4.76732 20.7397 4.50683 21.3401C4.24633 21.9405 4.52188 22.6384 5.12227 22.8989C5.72266 23.1594 6.42056 22.8839 6.68106 22.2835Z" fill="url(#paint1_radial_945_1115)"/>
<path d="M11.1029 18.0471C11.3634 17.4467 11.0878 16.7489 10.4874 16.4884C9.88706 16.2279 9.18919 16.5034 8.9287 17.1038C8.66821 17.7042 8.94372 18.4021 9.54411 18.6626C10.1445 18.9231 10.8424 18.6475 11.1029 18.0471Z" fill="url(#paint2_radial_945_1115)"/>
<path d="M17.434 20.0472C17.6945 19.4468 17.4189 18.7489 16.8185 18.4884C16.2181 18.2279 15.5202 18.5034 15.2597 19.1038C14.9993 19.7042 15.2748 20.4021 15.8752 20.6626C16.4756 20.9231 17.1735 20.6475 17.434 20.0472Z" fill="url(#paint3_radial_945_1115)"/>
<path d="M12.3314 22.5247C12.5919 21.9243 12.3164 21.2264 11.716 20.9659C11.1156 20.7054 10.4177 20.981 10.1572 21.5814C9.89672 22.1817 10.1723 22.8796 10.7727 23.1401C11.3731 23.4006 12.0709 23.1251 12.3314 22.5247Z" fill="url(#paint4_radial_945_1115)"/>
<path d="M19.6547 24.4099C19.9152 23.8095 19.6396 23.1117 19.0392 22.8512C18.4388 22.5907 17.741 22.8662 17.4805 23.4666C17.22 24.067 17.4955 24.7649 18.0959 25.0254C18.6963 25.2859 19.3942 25.0103 19.6547 24.4099Z" fill="url(#paint5_radial_945_1115)"/>
<path d="M24.2455 25.5857C24.506 24.9853 24.2304 24.2874 23.6301 24.0269C23.0297 23.7665 22.3318 24.042 22.0713 24.6424C21.8108 25.2428 22.0863 25.9407 22.6867 26.2012C23.2871 26.4617 23.985 26.1861 24.2455 25.5857Z" fill="url(#paint6_radial_945_1115)"/>
<path d="M22.9447 32.4075C23.2052 31.8071 22.9297 31.1092 22.3293 30.8487C21.7289 30.5882 21.031 30.8638 20.7705 31.4642C20.51 32.0645 20.7856 32.7624 21.3859 33.0229C21.9863 33.2834 22.6842 33.0079 22.9447 32.4075Z" fill="url(#paint7_radial_945_1115)"/>
<path d="M17.9135 42.2898C18.174 41.6894 17.8984 40.9915 17.298 40.731C16.6976 40.4706 15.9997 40.7461 15.7392 41.3465C15.4788 41.9469 15.7543 42.6448 16.3547 42.9053C16.9551 43.1658 17.653 42.8902 17.9135 42.2898Z" fill="url(#paint8_radial_945_1115)"/>
<path d="M28.184 29.8816C28.4445 29.2812 28.1689 28.5833 27.5685 28.3228C26.9681 28.0624 26.2702 28.3379 26.0098 28.9383C25.7493 29.5387 26.0248 30.2366 26.6252 30.4971C27.2256 30.7576 27.9235 30.482 28.184 29.8816Z" fill="url(#paint9_radial_945_1115)"/>
<path d="M29.0394 23.2454C29.2999 22.645 29.0244 21.9471 28.424 21.6866C27.8236 21.4261 27.1257 21.7017 26.8652 22.3021C26.6047 22.9025 26.8803 23.6003 27.4807 23.8608C28.0811 24.1213 28.7789 23.8458 29.0394 23.2454Z" fill="url(#paint10_radial_945_1115)"/>
<path d="M34.0199 16.428C34.2804 15.8276 34.0049 15.1297 33.4045 14.8692C32.8041 14.6087 32.1062 14.8843 31.8457 15.4847C31.5852 16.0851 31.8607 16.783 32.4611 17.0434C33.0615 17.3039 33.7594 17.0284 34.0199 16.428Z" fill="url(#paint11_radial_945_1115)"/>
<path d="M32.4867 33.3382C32.7472 32.7378 32.4717 32.0399 31.8713 31.7794C31.2709 31.5189 30.573 31.7944 30.3125 32.3948C30.052 32.9952 30.3275 33.6931 30.9279 33.9536C31.5283 34.2141 32.2262 33.9386 32.4867 33.3382Z" fill="url(#paint12_radial_945_1115)"/>
<path d="M30.9652 41.7649C31.2257 41.1645 30.9502 40.4667 30.3498 40.2062C29.7494 39.9457 29.0515 40.2212 28.791 40.8216C28.5305 41.422 28.8061 42.1199 29.4065 42.3804C30.0068 42.6409 30.7047 42.3653 30.9652 41.7649Z" fill="url(#paint13_radial_945_1115)"/>
<path d="M36.6752 35.6697C36.9357 35.0693 36.6601 34.3714 36.0597 34.1109C35.4594 33.8504 34.7615 34.126 34.501 34.7264C34.2405 35.3268 34.516 36.0247 35.1164 36.2851C35.7168 36.5456 36.4147 36.2701 36.6752 35.6697Z" fill="url(#paint14_radial_945_1115)"/>
<path d="M43.3627 31.8176C43.6232 31.2172 43.3476 30.5194 42.7472 30.2589C42.1468 29.9984 41.449 30.2739 41.1885 30.8743C40.928 31.4747 41.2035 32.1726 41.8039 32.4331C42.4043 32.6936 43.1022 32.418 43.3627 31.8176Z" fill="url(#paint15_radial_945_1115)"/>
<path d="M49.1752 28.6424C49.4357 28.042 49.1601 27.3441 48.5597 27.0836C47.9593 26.8231 47.2615 27.0986 47.001 27.699C46.7405 28.2994 47.016 28.9973 47.6164 29.2578C48.2168 29.5183 48.9147 29.2428 49.1752 28.6424Z" fill="url(#paint16_radial_945_1115)"/>
<path d="M54.1136 21.9744C54.3741 21.374 54.0986 20.6761 53.4982 20.4156C52.8978 20.1551 52.1999 20.4307 51.9394 21.031C51.6789 21.6314 51.9545 22.3293 52.5549 22.5898C53.1552 22.8503 53.8531 22.5748 54.1136 21.9744Z" fill="url(#paint17_radial_945_1115)"/>
<path d="M39.6664 40.9539C39.9269 40.3535 39.6513 39.6556 39.0509 39.3951C38.4505 39.1346 37.7527 39.4102 37.4922 40.0106C37.2317 40.6109 37.5072 41.3088 38.1076 41.5693C38.708 41.8298 39.4059 41.5543 39.6664 40.9539Z" fill="url(#paint18_radial_945_1115)"/>
<path d="M36.2591 48.1897C36.5196 47.5893 36.2441 46.8914 35.6437 46.6309C35.0433 46.3704 34.3454 46.646 34.0849 47.2464C33.8245 47.8468 34.1 48.5447 34.7004 48.8052C35.3008 49.0656 35.9986 48.7901 36.2591 48.1897Z" fill="url(#paint19_radial_945_1115)"/>
<path d="M29.6859 54.7566C29.9464 54.1562 29.6708 53.4583 29.0705 53.1978C28.4701 52.9373 27.7722 53.2129 27.5117 53.8133C27.2512 54.4137 27.5267 55.1116 28.1271 55.372C28.7275 55.6325 29.4254 55.357 29.6859 54.7566Z" fill="url(#paint20_radial_945_1115)"/>
<path d="M13.6752 12.1194C13.9357 11.519 13.6601 10.8211 13.0597 10.5606C12.4593 10.3001 11.7615 10.5757 11.501 11.1761C11.2405 11.7765 11.516 12.4743 12.1164 12.7348C12.7168 12.9953 13.4147 12.7198 13.6752 12.1194Z" fill="url(#paint21_radial_945_1115)"/>
<path d="M20.0521 7.01002C20.3126 6.40963 20.0371 5.71176 19.4367 5.45126C18.8363 5.19077 18.1384 5.4663 17.8779 6.06669C17.6174 6.66709 17.893 7.36498 18.4934 7.62548C19.0938 7.88597 19.7916 7.61041 20.0521 7.01002Z" fill="url(#paint22_radial_945_1115)"/>
<defs>
<radialGradient id="paint0_radial_945_1115" cx="0" cy="0" r="1" gradientUnits="userSpaceOnUse" gradientTransform="translate(3.55876 29.4798) rotate(-66.5453) scale(1.18501)">
<stop stop-color="#EFEFF0"/>
<stop offset="0.09" stop-color="#E7E7E9"/>
<stop offset="0.23" stop-color="#D2D3D6"/>
<stop offset="0.41" stop-color="#AFB1B6"/>
<stop offset="0.61" stop-color="#7F828A"/>
<stop offset="0.82" stop-color="#424652"/>
<stop offset="1" stop-color="#0A101F"/>
</radialGradient>
<radialGradient id="paint1_radial_945_1115" cx="0" cy="0" r="1" gradientUnits="userSpaceOnUse" gradientTransform="translate(5.59394 21.8118) rotate(-66.5453) scale(1.18502 1.18503)">
<stop stop-color="#EFEFF0"/>
<stop offset="0.09" stop-color="#E7E7E9"/>
<stop offset="0.23" stop-color="#D2D3D6"/>
<stop offset="0.41" stop-color="#AFB1B6"/>
<stop offset="0.61" stop-color="#7F828A"/>
<stop offset="0.82" stop-color="#424652"/>
<stop offset="1" stop-color="#0A101F"/>
</radialGradient>
<radialGradient id="paint2_radial_945_1115" cx="0" cy="0" r="1" gradientUnits="userSpaceOnUse" gradientTransform="translate(10.0158 17.5755) rotate(-66.5453) scale(1.18502 1.18501)">
<stop stop-color="#EFEFF0"/>
<stop offset="0.09" stop-color="#E7E7E9"/>
<stop offset="0.23" stop-color="#D2D3D6"/>
<stop offset="0.41" stop-color="#AFB1B6"/>
<stop offset="0.61" stop-color="#7F828A"/>
<stop offset="0.82" stop-color="#424652"/>
<stop offset="1" stop-color="#0A101F"/>
</radialGradient>
<radialGradient id="paint3_radial_945_1115" cx="0" cy="0" r="1" gradientUnits="userSpaceOnUse" gradientTransform="translate(16.3469 19.5755) rotate(-66.5453) scale(1.18501 1.18503)">
<stop stop-color="#EFEFF0"/>
<stop offset="0.09" stop-color="#E7E7E9"/>
<stop offset="0.23" stop-color="#D2D3D6"/>
<stop offset="0.41" stop-color="#AFB1B6"/>
<stop offset="0.61" stop-color="#7F828A"/>
<stop offset="0.82" stop-color="#424652"/>
<stop offset="1" stop-color="#0A101F"/>
</radialGradient>
<radialGradient id="paint4_radial_945_1115" cx="0" cy="0" r="1" gradientUnits="userSpaceOnUse" gradientTransform="translate(11.2443 22.053) rotate(-66.5453) scale(1.18502 1.18503)">
<stop stop-color="#EFEFF0"/>
<stop offset="0.09" stop-color="#E7E7E9"/>
<stop offset="0.23" stop-color="#D2D3D6"/>
<stop offset="0.41" stop-color="#AFB1B6"/>
<stop offset="0.61" stop-color="#7F828A"/>
<stop offset="0.82" stop-color="#424652"/>
<stop offset="1" stop-color="#0A101F"/>
</radialGradient>
<radialGradient id="paint5_radial_945_1115" cx="0" cy="0" r="1" gradientUnits="userSpaceOnUse" gradientTransform="translate(18.5676 23.9383) rotate(-66.5453) scale(1.18502 1.18501)">
<stop stop-color="#EFEFF0"/>
<stop offset="0.09" stop-color="#E7E7E9"/>
<stop offset="0.23" stop-color="#D2D3D6"/>
<stop offset="0.41" stop-color="#AFB1B6"/>
<stop offset="0.61" stop-color="#7F828A"/>
<stop offset="0.82" stop-color="#424652"/>
<stop offset="1" stop-color="#0A101F"/>
</radialGradient>
<radialGradient id="paint6_radial_945_1115" cx="0" cy="0" r="1" gradientUnits="userSpaceOnUse" gradientTransform="translate(23.1584 25.1141) rotate(-66.5453) scale(1.18502 1.18503)">
<stop stop-color="#EFEFF0"/>
<stop offset="0.09" stop-color="#E7E7E9"/>
<stop offset="0.23" stop-color="#D2D3D6"/>
<stop offset="0.41" stop-color="#AFB1B6"/>
<stop offset="0.61" stop-color="#7F828A"/>
<stop offset="0.82" stop-color="#424652"/>
<stop offset="1" stop-color="#0A101F"/>
</radialGradient>
<radialGradient id="paint7_radial_945_1115" cx="0" cy="0" r="1" gradientUnits="userSpaceOnUse" gradientTransform="translate(21.8576 31.9358) rotate(-66.5453) scale(1.18502 1.18503)">
<stop stop-color="#EFEFF0"/>
<stop offset="0.09" stop-color="#E7E7E9"/>
<stop offset="0.23" stop-color="#D2D3D6"/>
<stop offset="0.41" stop-color="#AFB1B6"/>
<stop offset="0.61" stop-color="#7F828A"/>
<stop offset="0.82" stop-color="#424652"/>
<stop offset="1" stop-color="#0A101F"/>
</radialGradient>
<radialGradient id="paint8_radial_945_1115" cx="0" cy="0" r="1" gradientUnits="userSpaceOnUse" gradientTransform="translate(16.8264 41.8182) rotate(-66.5453) scale(1.18502 1.18503)">
<stop stop-color="#EFEFF0"/>
<stop offset="0.09" stop-color="#E7E7E9"/>
<stop offset="0.23" stop-color="#D2D3D6"/>
<stop offset="0.41" stop-color="#AFB1B6"/>
<stop offset="0.61" stop-color="#7F828A"/>
<stop offset="0.82" stop-color="#424652"/>
<stop offset="1" stop-color="#0A101F"/>
</radialGradient>
<radialGradient id="paint9_radial_945_1115" cx="0" cy="0" r="1" gradientUnits="userSpaceOnUse" gradientTransform="translate(27.0969 29.41) rotate(-66.5453) scale(1.18502 1.18503)">
<stop stop-color="#EFEFF0"/>
<stop offset="0.09" stop-color="#E7E7E9"/>
<stop offset="0.23" stop-color="#D2D3D6"/>
<stop offset="0.41" stop-color="#AFB1B6"/>
<stop offset="0.61" stop-color="#7F828A"/>
<stop offset="0.82" stop-color="#424652"/>
<stop offset="1" stop-color="#0A101F"/>
</radialGradient>
<radialGradient id="paint10_radial_945_1115" cx="0" cy="0" r="1" gradientUnits="userSpaceOnUse" gradientTransform="translate(27.9523 22.7737) rotate(-66.5453) scale(1.18502 1.18501)">
<stop stop-color="#EFEFF0"/>
<stop offset="0.09" stop-color="#E7E7E9"/>
<stop offset="0.23" stop-color="#D2D3D6"/>
<stop offset="0.41" stop-color="#AFB1B6"/>
<stop offset="0.61" stop-color="#7F828A"/>
<stop offset="0.82" stop-color="#424652"/>
<stop offset="1" stop-color="#0A101F"/>
</radialGradient>
<radialGradient id="paint11_radial_945_1115" cx="0" cy="0" r="1" gradientUnits="userSpaceOnUse" gradientTransform="translate(32.9328 15.9563) rotate(-66.5453) scale(1.18502 1.18503)">
<stop stop-color="#EFEFF0"/>
<stop offset="0.09" stop-color="#E7E7E9"/>
<stop offset="0.23" stop-color="#D2D3D6"/>
<stop offset="0.41" stop-color="#AFB1B6"/>
<stop offset="0.61" stop-color="#7F828A"/>
<stop offset="0.82" stop-color="#424652"/>
<stop offset="1" stop-color="#0A101F"/>
</radialGradient>
<radialGradient id="paint12_radial_945_1115" cx="0" cy="0" r="1" gradientUnits="userSpaceOnUse" gradientTransform="translate(31.3996 32.8665) rotate(-66.5453) scale(1.18501 1.18503)">
<stop stop-color="#EFEFF0"/>
<stop offset="0.09" stop-color="#E7E7E9"/>
<stop offset="0.23" stop-color="#D2D3D6"/>
<stop offset="0.41" stop-color="#AFB1B6"/>
<stop offset="0.61" stop-color="#7F828A"/>
<stop offset="0.82" stop-color="#424652"/>
<stop offset="1" stop-color="#0A101F"/>
</radialGradient>
<radialGradient id="paint13_radial_945_1115" cx="0" cy="0" r="1" gradientUnits="userSpaceOnUse" gradientTransform="translate(29.8781 41.2933) rotate(-66.5453) scale(1.18501 1.18503)">
<stop stop-color="#EFEFF0"/>
<stop offset="0.09" stop-color="#E7E7E9"/>
<stop offset="0.23" stop-color="#D2D3D6"/>
<stop offset="0.41" stop-color="#AFB1B6"/>
<stop offset="0.61" stop-color="#7F828A"/>
<stop offset="0.82" stop-color="#424652"/>
<stop offset="1" stop-color="#0A101F"/>
</radialGradient>
<radialGradient id="paint14_radial_945_1115" cx="0" cy="0" r="1" gradientUnits="userSpaceOnUse" gradientTransform="translate(35.5881 35.198) rotate(-66.5453) scale(1.18502 1.18501)">
<stop stop-color="#EFEFF0"/>
<stop offset="0.09" stop-color="#E7E7E9"/>
<stop offset="0.23" stop-color="#D2D3D6"/>
<stop offset="0.41" stop-color="#AFB1B6"/>
<stop offset="0.61" stop-color="#7F828A"/>
<stop offset="0.82" stop-color="#424652"/>
<stop offset="1" stop-color="#0A101F"/>
</radialGradient>
<radialGradient id="paint15_radial_945_1115" cx="0" cy="0" r="1" gradientUnits="userSpaceOnUse" gradientTransform="translate(42.2756 31.346) rotate(-66.5453) scale(1.18502 1.18501)">
<stop stop-color="#EFEFF0"/>
<stop offset="0.09" stop-color="#E7E7E9"/>
<stop offset="0.23" stop-color="#D2D3D6"/>
<stop offset="0.41" stop-color="#AFB1B6"/>
<stop offset="0.61" stop-color="#7F828A"/>
<stop offset="0.82" stop-color="#424652"/>
<stop offset="1" stop-color="#0A101F"/>
</radialGradient>
<radialGradient id="paint16_radial_945_1115" cx="0" cy="0" r="1" gradientUnits="userSpaceOnUse" gradientTransform="translate(48.0881 28.1707) rotate(-66.5453) scale(1.18501)">
<stop stop-color="#EFEFF0"/>
<stop offset="0.09" stop-color="#E7E7E9"/>
<stop offset="0.23" stop-color="#D2D3D6"/>
<stop offset="0.41" stop-color="#AFB1B6"/>
<stop offset="0.61" stop-color="#7F828A"/>
<stop offset="0.82" stop-color="#424652"/>
<stop offset="1" stop-color="#0A101F"/>
</radialGradient>
<radialGradient id="paint17_radial_945_1115" cx="0" cy="0" r="1" gradientUnits="userSpaceOnUse" gradientTransform="translate(53.0265 21.5027) rotate(-66.5453) scale(1.18502 1.18501)">
<stop stop-color="#EFEFF0"/>
<stop offset="0.09" stop-color="#E7E7E9"/>
<stop offset="0.23" stop-color="#D2D3D6"/>
<stop offset="0.41" stop-color="#AFB1B6"/>
<stop offset="0.61" stop-color="#7F828A"/>
<stop offset="0.82" stop-color="#424652"/>
<stop offset="1" stop-color="#0A101F"/>
</radialGradient>
<radialGradient id="paint18_radial_945_1115" cx="0" cy="0" r="1" gradientUnits="userSpaceOnUse" gradientTransform="translate(38.5793 40.4822) rotate(-66.5453) scale(1.18502 1.18501)">
<stop stop-color="#EFEFF0"/>
<stop offset="0.09" stop-color="#E7E7E9"/>
<stop offset="0.23" stop-color="#D2D3D6"/>
<stop offset="0.41" stop-color="#AFB1B6"/>
<stop offset="0.61" stop-color="#7F828A"/>
<stop offset="0.82" stop-color="#424652"/>
<stop offset="1" stop-color="#0A101F"/>
</radialGradient>
<radialGradient id="paint19_radial_945_1115" cx="0" cy="0" r="1" gradientUnits="userSpaceOnUse" gradientTransform="translate(35.172 47.7181) rotate(-66.5453) scale(1.18502 1.18501)">
<stop stop-color="#EFEFF0"/>
<stop offset="0.09" stop-color="#E7E7E9"/>
<stop offset="0.23" stop-color="#D2D3D6"/>
<stop offset="0.41" stop-color="#AFB1B6"/>
<stop offset="0.61" stop-color="#7F828A"/>
<stop offset="0.82" stop-color="#424652"/>
<stop offset="1" stop-color="#0A101F"/>
</radialGradient>
<radialGradient id="paint20_radial_945_1115" cx="0" cy="0" r="1" gradientUnits="userSpaceOnUse" gradientTransform="translate(28.5988 54.285) rotate(-66.5453) scale(1.18501 1.18501)">
<stop stop-color="#EFEFF0"/>
<stop offset="0.09" stop-color="#E7E7E9"/>
<stop offset="0.23" stop-color="#D2D3D6"/>
<stop offset="0.41" stop-color="#AFB1B6"/>
<stop offset="0.61" stop-color="#7F828A"/>
<stop offset="0.82" stop-color="#424652"/>
<stop offset="1" stop-color="#0A101F"/>
</radialGradient>
<radialGradient id="paint21_radial_945_1115" cx="0" cy="0" r="1" gradientUnits="userSpaceOnUse" gradientTransform="translate(12.5881 11.6477) rotate(-66.5453) scale(1.18502 1.18501)">
<stop stop-color="#EFEFF0"/>
<stop offset="0.09" stop-color="#E7E7E9"/>
<stop offset="0.23" stop-color="#D2D3D6"/>
<stop offset="0.41" stop-color="#AFB1B6"/>
<stop offset="0.61" stop-color="#7F828A"/>
<stop offset="0.82" stop-color="#424652"/>
<stop offset="1" stop-color="#0A101F"/>
</radialGradient>
<radialGradient id="paint22_radial_945_1115" cx="0" cy="0" r="1" gradientUnits="userSpaceOnUse" gradientTransform="translate(18.965 6.53836) rotate(-66.5453) scale(1.18502 1.18501)">
<stop stop-color="#EFEFF0"/>
<stop offset="0.09" stop-color="#E7E7E9"/>
<stop offset="0.23" stop-color="#D2D3D6"/>
<stop offset="0.41" stop-color="#AFB1B6"/>
<stop offset="0.61" stop-color="#7F828A"/>
<stop offset="0.82" stop-color="#424652"/>
<stop offset="1" stop-color="#0A101F"/>
</radialGradient>
</defs>
</svg>
