<svg width="1070" height="1147" viewBox="0 0 1070 1147" fill="none" xmlns="http://www.w3.org/2000/svg">
<path d="M699.975 781.173L699.896 781.034L675.249 741.938L663.442 716.053L632.008 659.233L632.809 658.753L664.264 715.612L676.055 741.474L700.568 780.377L730.282 789.407L797.922 798.469L845.406 763.835L845.923 764.588L798.151 799.442L730.074 790.328L699.975 781.173Z" fill="url(#paint0_radial_1152_870)"/>
<path d="M636.255 778.702L611.735 755.395L627.02 736.751L611.076 713.959L602.42 694.924L572.74 685.911L573.018 685.011L603.084 694.15L603.169 694.333L611.877 713.479L628.179 736.775L612.994 755.301L636.293 777.443L656.083 759.743L656.684 760.44L636.255 778.702Z" fill="url(#paint1_radial_1152_870)"/>
<path d="M822.89 707.983L812.289 655.868L793.918 619.68L765.861 588.105L718.413 581.514L683.696 581.139L657.206 583.393L638.687 608.537L637.959 607.986L656.729 582.505L656.943 582.487L683.69 580.208L718.506 580.577L766.335 587.221L794.714 619.183L813.174 655.599L823.79 707.763L822.89 707.983Z" fill="url(#paint2_radial_1152_870)"/>
<path d="M710.578 708.376L702.287 692.013L699.228 674.967L696.099 654.132L696.998 653.969L700.139 674.781L703.177 691.761L711.4 707.935L710.578 708.376Z" fill="url(#paint3_radial_1152_870)"/>
<path d="M843.232 769.017C845.8 770.316 848.969 769.22 850.311 766.569C851.652 763.918 850.657 760.716 848.088 759.417C845.52 758.118 842.35 759.213 841.009 761.864C839.668 764.516 840.663 767.718 843.232 769.017Z" fill="url(#paint4_radial_1152_870)"/>
<path d="M795.607 803.748C798.175 805.047 801.344 803.951 802.685 801.3C804.026 798.649 803.031 795.447 800.463 794.147C797.895 792.848 794.725 793.944 793.384 796.595C792.043 799.246 793.038 802.448 795.607 803.748Z" fill="url(#paint5_radial_1152_870)"/>
<path d="M727.722 794.659C730.29 795.958 733.46 794.863 734.801 792.212C736.142 789.561 735.147 786.358 732.578 785.059C730.01 783.76 726.841 784.856 725.5 787.507C724.159 790.158 725.154 793.36 727.722 794.659Z" fill="url(#paint6_radial_1152_870)"/>
<path d="M697.843 785.574C700.412 786.873 703.581 785.777 704.922 783.126C706.263 780.475 705.268 777.273 702.699 775.974C700.131 774.674 696.962 775.77 695.621 778.421C694.28 781.072 695.275 784.275 697.843 785.574Z" fill="url(#paint7_radial_1152_870)"/>
<path d="M673.212 746.472C675.781 747.772 678.95 746.676 680.291 744.025C681.632 741.374 680.637 738.171 678.069 736.872C675.5 735.573 672.331 736.669 670.99 739.32C669.649 741.971 670.644 745.173 673.212 746.472Z" fill="url(#paint8_radial_1152_870)"/>
<path d="M653.956 764.892C656.525 766.192 659.694 765.096 661.035 762.445C662.376 759.794 661.381 756.591 658.813 755.292C656.244 753.993 653.075 755.089 651.734 757.74C650.393 760.391 651.388 763.593 653.956 764.892Z" fill="url(#paint9_radial_1152_870)"/>
<path d="M633.845 782.878C636.414 784.177 639.583 783.082 640.924 780.431C642.265 777.78 641.27 774.577 638.701 773.278C636.133 771.979 632.964 773.075 631.623 775.726C630.282 778.377 631.277 781.579 633.845 782.878Z" fill="url(#paint10_radial_1152_870)"/>
<path d="M609.933 760.145C612.501 761.445 615.671 760.349 617.012 757.698C618.353 755.047 617.358 751.844 614.789 750.545C612.221 749.246 609.052 750.342 607.711 752.993C606.37 755.644 607.365 758.846 609.933 760.145Z" fill="url(#paint11_radial_1152_870)"/>
<path d="M625.171 741.563C627.74 742.862 630.909 741.766 632.25 739.115C633.591 736.464 632.596 733.262 630.028 731.962C627.459 730.663 624.29 731.759 622.949 734.41C621.608 737.061 622.603 740.263 625.171 741.563Z" fill="url(#paint12_radial_1152_870)"/>
<path d="M609.031 718.488C611.599 719.787 614.768 718.691 616.109 716.04C617.45 713.389 616.455 710.187 613.887 708.887C611.318 707.588 608.149 708.684 606.808 711.335C605.467 713.986 606.462 717.188 609.031 718.488Z" fill="url(#paint13_radial_1152_870)"/>
<path d="M600.324 699.342C602.892 700.642 606.061 699.546 607.402 696.895C608.743 694.244 607.748 691.041 605.18 689.742C602.611 688.443 599.442 689.539 598.101 692.19C596.76 694.841 597.755 698.043 600.324 699.342Z" fill="url(#paint14_radial_1152_870)"/>
<path d="M570.456 690.263C573.025 691.562 576.194 690.466 577.535 687.815C578.876 685.164 577.881 681.962 575.313 680.663C572.744 679.363 569.575 680.459 568.234 683.11C566.893 685.761 567.888 688.964 570.456 690.263Z" fill="url(#paint15_radial_1152_870)"/>
<path d="M661.431 720.642C663.999 721.941 667.169 720.845 668.51 718.194C669.851 715.543 668.856 712.341 666.287 711.042C663.719 709.743 660.55 710.838 659.209 713.489C657.868 716.14 658.863 719.343 661.431 720.642Z" fill="url(#paint16_radial_1152_870)"/>
<path d="M629.99 663.791C632.558 665.09 635.727 663.994 637.068 661.343C638.409 658.692 637.414 655.49 634.846 654.19C632.277 652.891 629.108 653.987 627.767 656.638C626.426 659.289 627.421 662.491 629.99 663.791Z" fill="url(#paint17_radial_1152_870)"/>
<path d="M694.12 658.852C696.689 660.151 699.858 659.055 701.199 656.404C702.54 653.753 701.545 650.551 698.977 649.252C696.408 647.952 693.239 649.048 691.898 651.699C690.557 654.35 691.552 657.553 694.12 658.852Z" fill="url(#paint18_radial_1152_870)"/>
<path d="M594.365 589.603C596.933 590.902 600.102 589.806 601.443 587.155C602.784 584.504 601.789 581.302 599.221 580.003C596.652 578.704 593.483 579.799 592.142 582.45C590.801 585.102 591.796 588.304 594.365 589.603Z" fill="url(#paint19_radial_1152_870)"/>
<path d="M635.896 613.056C638.464 614.355 641.634 613.259 642.975 610.608C644.316 607.957 643.321 604.754 640.752 603.455C638.184 602.156 635.014 603.252 633.673 605.903C632.332 608.554 633.327 611.756 635.896 613.056Z" fill="url(#paint20_radial_1152_870)"/>
<path d="M654.538 587.749C657.107 589.049 660.276 587.953 661.617 585.302C662.958 582.651 661.963 579.448 659.395 578.149C656.826 576.85 653.657 577.946 652.316 580.597C650.975 583.248 651.97 586.45 654.538 587.749Z" fill="url(#paint21_radial_1152_870)"/>
<path d="M681.286 585.47C683.855 586.77 687.024 585.674 688.365 583.023C689.706 580.372 688.711 577.169 686.143 575.87C683.574 574.571 680.405 575.667 679.064 578.318C677.723 580.969 678.718 584.171 681.286 585.47Z" fill="url(#paint22_radial_1152_870)"/>
<path d="M716.06 585.847C718.628 587.146 721.798 586.05 723.139 583.399C724.48 580.748 723.485 577.545 720.916 576.246C718.348 574.947 715.178 576.043 713.837 578.694C712.496 581.345 713.491 584.547 716.06 585.847Z" fill="url(#paint23_radial_1152_870)"/>
<path d="M763.669 592.463C766.238 593.763 769.407 592.667 770.748 590.016C772.089 587.365 771.094 584.162 768.526 582.863C765.957 581.564 762.788 582.66 761.447 585.311C760.106 587.962 761.101 591.164 763.669 592.463Z" fill="url(#paint24_radial_1152_870)"/>
<path d="M791.878 624.199C794.447 625.498 797.616 624.402 798.957 621.751C800.298 619.1 799.303 615.898 796.735 614.598C794.166 613.299 790.997 614.395 789.656 617.046C788.315 619.697 789.31 622.899 791.878 624.199Z" fill="url(#paint25_radial_1152_870)"/>
<path d="M810.283 660.505C812.851 661.804 816.02 660.708 817.361 658.057C818.702 655.406 817.707 652.204 815.139 650.904C812.57 649.605 809.401 650.701 808.06 653.352C806.719 656.003 807.714 659.205 810.283 660.505Z" fill="url(#paint26_radial_1152_870)"/>
<path d="M820.911 712.673C823.48 713.972 826.649 712.876 827.99 710.225C829.331 707.574 828.336 704.372 825.768 703.073C823.199 701.774 820.03 702.869 818.689 705.521C817.348 708.172 818.343 711.374 820.911 712.673Z" fill="url(#paint27_radial_1152_870)"/>
<path d="M697.259 679.662C699.828 680.961 702.997 679.865 704.338 677.214C705.679 674.563 704.684 671.361 702.115 670.062C699.547 668.762 696.378 669.858 695.037 672.509C693.696 675.16 694.691 678.363 697.259 679.662Z" fill="url(#paint28_radial_1152_870)"/>
<path d="M700.314 696.722C702.882 698.021 706.052 696.925 707.393 694.274C708.734 691.623 707.739 688.421 705.17 687.122C702.602 685.823 699.432 686.918 698.091 689.569C696.75 692.22 697.745 695.423 700.314 696.722Z" fill="url(#paint29_radial_1152_870)"/>
<path d="M708.564 712.95C711.132 714.25 714.302 713.154 715.643 710.503C716.984 707.852 715.989 704.649 713.42 703.35C710.852 702.051 707.682 703.147 706.341 705.798C705 708.449 705.995 711.651 708.564 712.95Z" fill="url(#paint30_radial_1152_870)"/>
<path d="M737.886 713.843C740.455 715.143 743.624 714.047 744.965 711.396C746.306 708.745 745.311 705.542 742.742 704.243C740.174 702.944 737.005 704.04 735.664 706.691C734.323 709.342 735.318 712.544 737.886 713.843Z" fill="url(#paint31_radial_1152_870)"/>
<path d="M390.602 364.388L390.381 364.234L361.317 345.766L347.337 314.89L343.399 287.014L330.753 243.842L329.951 213.239L340.954 151.762L341.848 151.905L330.857 213.276L331.662 243.74L344.3 286.795L348.238 314.671L362.044 345.108L390.648 363.301L412.144 351.059L428.95 334.547L454.934 336.632L475.782 332.423L475.942 333.347L454.896 337.568L429.278 335.514L412.617 351.846L390.602 364.388Z" fill="url(#paint32_radial_1152_870)"/>
<path d="M435.873 245.123L432.767 223.274L450.602 212.131L457.486 232.434L456.627 232.758L450.102 213.523L433.759 223.734L436.767 244.971L435.873 245.123Z" fill="url(#paint33_radial_1152_870)"/>
<path d="M579.054 152.38L578.26 152.867L590.424 174.021L591.219 173.533L579.054 152.38Z" fill="url(#paint34_radial_1152_870)"/>
<path d="M542.835 281.903L542.577 281.013L564.309 274.062L588.024 246.613L588.139 246.573L619.441 234.162L635.774 175.55L644.899 146.047L621.581 112.963L568.215 98.854L516.512 87.3003L436.952 63.3419L387.999 83.5462L387.675 82.6797L436.931 62.3615L437.089 62.3992L516.757 86.3846L568.444 97.944L622.147 112.139L622.243 112.272L645.919 145.86L645.844 146.089L636.656 175.799L620.188 234.863L588.552 247.4L564.826 274.871L542.835 281.903Z" fill="url(#paint35_radial_1152_870)"/>
<path d="M473.433 337.686C476.001 338.985 479.171 337.889 480.512 335.238C481.853 332.587 480.858 329.385 478.289 328.085C475.721 326.786 472.552 327.882 471.211 330.533C469.87 333.184 470.865 336.386 473.433 337.686Z" fill="url(#paint36_radial_1152_870)"/>
<path d="M452.525 341.907C455.093 343.206 458.262 342.11 459.603 339.459C460.944 336.808 459.949 333.606 457.381 332.306C454.813 331.007 451.643 332.103 450.302 334.754C448.961 337.405 449.956 340.607 452.525 341.907Z" fill="url(#paint37_radial_1152_870)"/>
<path d="M426.683 339.837C429.251 341.136 432.421 340.041 433.762 337.39C435.103 334.739 434.108 331.536 431.539 330.237C428.971 328.938 425.802 330.034 424.461 332.685C423.12 335.336 424.115 338.538 426.683 339.837Z" fill="url(#paint38_radial_1152_870)"/>
<path d="M409.982 356.247C412.55 357.547 415.72 356.451 417.061 353.8C418.402 351.149 417.407 347.946 414.838 346.647C412.27 345.348 409.1 346.444 407.759 349.095C406.418 351.746 407.413 354.948 409.982 356.247Z" fill="url(#paint39_radial_1152_870)"/>
<path d="M388.195 368.637C390.763 369.937 393.932 368.841 395.273 366.19C396.614 363.539 395.619 360.336 393.051 359.037C390.483 357.738 387.313 358.834 385.972 361.485C384.631 364.136 385.626 367.338 388.195 368.637Z" fill="url(#paint40_radial_1152_870)"/>
<path d="M359.255 350.247C361.824 351.546 364.993 350.45 366.334 347.799C367.675 345.148 366.68 341.946 364.111 340.647C361.543 339.348 358.374 340.443 357.033 343.095C355.692 345.746 356.687 348.948 359.255 350.247Z" fill="url(#paint41_radial_1152_870)"/>
<path d="M345.369 319.615C347.937 320.914 351.106 319.818 352.447 317.167C353.788 314.516 352.793 311.314 350.225 310.014C347.656 308.715 344.487 309.811 343.146 312.462C341.805 315.113 342.8 318.315 345.369 319.615Z" fill="url(#paint42_radial_1152_870)"/>
<path d="M341.431 291.739C343.999 293.038 347.169 291.942 348.51 289.291C349.851 286.64 348.856 283.438 346.287 282.139C343.719 280.839 340.55 281.935 339.209 284.586C337.868 287.237 338.863 290.44 341.431 291.739Z" fill="url(#paint43_radial_1152_870)"/>
<path d="M328.783 248.622C331.351 249.921 334.52 248.826 335.861 246.174C337.202 243.523 336.207 240.321 333.639 239.022C331.07 237.723 327.901 238.818 326.56 241.47C325.219 244.121 326.214 247.323 328.783 248.622Z" fill="url(#paint44_radial_1152_870)"/>
<path d="M327.976 218.003C330.544 219.302 333.714 218.206 335.055 215.555C336.396 212.904 335.401 209.702 332.832 208.403C330.264 207.103 327.095 208.199 325.754 210.85C324.413 213.501 325.408 216.703 327.976 218.003Z" fill="url(#paint45_radial_1152_870)"/>
<path d="M338.966 156.631C341.535 157.93 344.704 156.834 346.045 154.183C347.386 151.532 346.391 148.33 343.822 147.03C341.254 145.731 338.085 146.827 336.744 149.478C335.403 152.129 336.398 155.331 338.966 156.631Z" fill="url(#paint46_radial_1152_870)"/>
<path d="M373.011 264.967C375.58 266.267 378.749 265.171 380.09 262.52C381.431 259.869 380.436 256.666 377.867 255.367C375.299 254.068 372.13 255.164 370.789 257.815C369.448 260.466 370.443 263.668 373.011 264.967Z" fill="url(#paint47_radial_1152_870)"/>
<path d="M389.831 243.264C392.4 244.563 395.569 243.467 396.91 240.816C398.251 238.165 397.256 234.962 394.688 233.663C392.119 232.364 388.95 233.46 387.609 236.111C386.268 238.762 387.263 241.964 389.831 243.264Z" fill="url(#paint48_radial_1152_870)"/>
<path d="M433.896 249.842C436.464 251.141 439.634 250.045 440.975 247.394C442.316 244.743 441.321 241.541 438.752 240.242C436.184 238.942 433.014 240.038 431.673 242.689C430.332 245.34 431.327 248.543 433.896 249.842Z" fill="url(#paint49_radial_1152_870)"/>
<path d="M430.831 228.31C433.4 229.61 436.569 228.514 437.91 225.863C439.251 223.212 438.256 220.009 435.688 218.71C433.119 217.411 429.95 218.507 428.609 221.158C427.268 223.809 428.263 227.011 430.831 228.31Z" fill="url(#paint50_radial_1152_870)"/>
<path d="M447.919 217.619C450.488 218.918 453.657 217.822 454.998 215.171C456.339 212.52 455.344 209.318 452.776 208.019C450.207 206.719 447.038 207.815 445.697 210.466C444.356 213.117 445.351 216.32 447.919 217.619Z" fill="url(#paint51_radial_1152_870)"/>
<path d="M454.634 237.4C457.203 238.7 460.372 237.604 461.713 234.953C463.054 232.302 462.059 229.099 459.49 227.8C456.922 226.501 453.753 227.597 452.412 230.248C451.071 232.899 452.066 236.101 454.634 237.4Z" fill="url(#paint52_radial_1152_870)"/>
<path d="M528.224 206.275C530.792 207.574 533.962 206.478 535.303 203.827C536.644 201.176 535.649 197.974 533.08 196.675C530.512 195.376 527.343 196.471 526.002 199.122C524.661 201.773 525.656 204.976 528.224 206.275Z" fill="url(#paint53_radial_1152_870)"/>
<path d="M522.355 157.187C524.923 158.486 528.093 157.39 529.434 154.739C530.775 152.088 529.78 148.886 527.211 147.587C524.643 146.287 521.473 147.383 520.132 150.034C518.791 152.685 519.786 155.888 522.355 157.187Z" fill="url(#paint54_radial_1152_870)"/>
<path d="M576.298 157.424C578.867 158.723 582.036 157.628 583.377 154.976C584.718 152.325 583.723 149.123 581.154 147.824C578.586 146.525 575.417 147.621 574.076 150.272C572.735 152.923 573.73 156.125 576.298 157.424Z" fill="url(#paint55_radial_1152_870)"/>
<path d="M588.47 178.575C591.039 179.874 594.208 178.779 595.549 176.128C596.89 173.477 595.895 170.274 593.326 168.975C590.758 167.676 587.589 168.772 586.248 171.423C584.907 174.074 585.902 177.276 588.47 178.575Z" fill="url(#paint56_radial_1152_870)"/>
<path d="M477.288 105.33C479.857 106.63 483.026 105.534 484.367 102.883C485.708 100.232 484.713 97.0294 482.145 95.7302C479.576 94.4309 476.407 95.5268 475.066 98.1778C473.725 100.829 474.72 104.031 477.288 105.33Z" fill="url(#paint57_radial_1152_870)"/>
<path d="M451.865 155.592C454.433 156.891 457.602 155.796 458.943 153.144C460.284 150.493 459.289 147.291 456.721 145.992C454.152 144.693 450.983 145.789 449.642 148.44C448.301 151.091 449.296 154.293 451.865 155.592Z" fill="url(#paint58_radial_1152_870)"/>
<path d="M385.41 87.9142C387.978 89.2134 391.147 88.1175 392.488 85.4665C393.829 82.8155 392.834 79.6131 390.266 78.3139C387.697 77.0147 384.528 78.1105 383.187 80.7616C381.846 83.4126 382.841 86.6149 385.41 87.9142Z" fill="url(#paint59_radial_1152_870)"/>
<path d="M514.195 91.6375C516.763 92.9367 519.932 91.8409 521.273 89.1899C522.614 86.5388 521.619 83.3365 519.051 82.0373C516.482 80.738 513.313 81.8339 511.972 84.4849C510.631 87.136 511.626 90.3383 514.195 91.6375Z" fill="url(#paint60_radial_1152_870)"/>
<path d="M434.515 67.6461C437.083 68.9453 440.253 67.8494 441.594 65.1984C442.935 62.5474 441.94 59.3451 439.371 58.0458C436.803 56.7466 433.634 57.8425 432.293 60.4935C430.952 63.1445 431.947 66.3469 434.515 67.6461Z" fill="url(#paint61_radial_1152_870)"/>
<path d="M565.911 103.198C568.48 104.497 571.649 103.401 572.99 100.75C574.331 98.0991 573.336 94.8968 570.768 93.5976C568.199 92.2983 565.03 93.3942 563.689 96.0453C562.348 98.6963 563.343 101.899 565.911 103.198Z" fill="url(#paint62_radial_1152_870)"/>
<path d="M619.437 117.359C622.005 118.658 625.175 117.562 626.516 114.911C627.857 112.26 626.862 109.058 624.293 107.759C621.725 106.459 618.555 107.555 617.214 110.206C615.873 112.857 616.868 116.06 619.437 117.359Z" fill="url(#paint63_radial_1152_870)"/>
<path d="M642.533 149.356C645.101 150.655 648.27 149.559 649.611 146.908C650.952 144.257 649.957 141.055 647.389 139.756C644.82 138.456 641.651 139.552 640.31 142.203C638.969 144.854 639.964 148.057 642.533 149.356Z" fill="url(#paint64_radial_1152_870)"/>
<path d="M631.499 192.864C634.068 194.164 637.237 193.068 638.578 190.417C639.919 187.766 638.924 184.563 636.356 183.264C633.787 181.965 630.618 183.061 629.277 185.712C627.936 188.363 628.931 191.565 631.499 192.864Z" fill="url(#paint65_radial_1152_870)"/>
<path d="M618.945 239.379C621.513 240.678 624.682 239.583 626.023 236.932C627.364 234.281 626.369 231.078 623.801 229.779C621.232 228.48 618.063 229.576 616.722 232.227C615.381 234.878 616.376 238.08 618.945 239.379Z" fill="url(#paint66_radial_1152_870)"/>
<path d="M587.908 250.112C590.476 251.411 593.645 250.315 594.986 247.664C596.327 245.013 595.332 241.811 592.764 240.512C590.195 239.212 587.026 240.308 585.685 242.959C584.344 245.61 585.339 248.813 587.908 250.112Z" fill="url(#paint67_radial_1152_870)"/>
<path d="M562.437 278.765C565.005 280.064 568.175 278.969 569.516 276.318C570.857 273.667 569.862 270.464 567.293 269.165C564.725 267.866 561.555 268.962 560.214 271.613C558.873 274.264 559.868 277.466 562.437 278.765Z" fill="url(#paint68_radial_1152_870)"/>
<path d="M540.269 286.431C542.837 287.73 546.007 286.634 547.348 283.983C548.689 281.332 547.694 278.13 545.125 276.831C542.557 275.531 539.387 276.627 538.046 279.278C536.705 281.929 537.7 285.132 540.269 286.431Z" fill="url(#paint69_radial_1152_870)"/>
<path d="M205.596 846.394L200.004 800.931L230.734 773.687L267.203 759L312.309 745.056L312.556 745.94L267.489 759.889L231.125 774.531L200.976 801.296L206.512 846.253L205.596 846.394Z" fill="url(#paint70_radial_1152_870)"/>
<path d="M262.643 941.183L233.997 893.038L234.782 892.535L263.099 940.121L303.15 930.786L338.986 933.176L377.675 924.515L377.85 925.433L338.975 934.112L303.139 931.723L262.643 941.183Z" fill="url(#paint71_radial_1152_870)"/>
<path d="M268.275 880.419L257.113 858.051L280.478 843.887L280.935 844.68L258.315 858.392L268.786 879.356L287.579 875.092L287.761 875.999L268.275 880.419Z" fill="url(#paint72_radial_1152_870)"/>
<path d="M309.997 750.294C312.566 751.593 315.735 750.498 317.076 747.847C318.417 745.196 317.422 741.993 314.854 740.694C312.285 739.395 309.116 740.491 307.775 743.142C306.434 745.793 307.429 748.995 309.997 750.294Z" fill="url(#paint73_radial_1152_870)"/>
<path d="M264.937 764.233C267.505 765.532 270.675 764.436 272.016 761.785C273.357 759.134 272.362 755.932 269.793 754.633C267.225 753.334 264.055 754.429 262.714 757.08C261.373 759.731 262.368 762.934 264.937 764.233Z" fill="url(#paint74_radial_1152_870)"/>
<path d="M228.468 778.92C231.037 780.22 234.206 779.124 235.547 776.473C236.888 773.822 235.893 770.619 233.324 769.32C230.756 768.021 227.587 769.117 226.246 771.768C224.905 774.419 225.9 777.621 228.468 778.92Z" fill="url(#paint75_radial_1152_870)"/>
<path d="M198.06 805.905C200.628 807.204 203.798 806.108 205.139 803.457C206.48 800.806 205.485 797.604 202.916 796.304C200.348 795.005 197.178 796.101 195.837 798.752C194.496 801.403 195.491 804.606 198.06 805.905Z" fill="url(#paint76_radial_1152_870)"/>
<path d="M203.628 851.117C206.197 852.416 209.366 851.32 210.707 848.669C212.048 846.018 211.053 842.816 208.485 841.517C205.916 840.217 202.747 841.313 201.406 843.964C200.065 846.615 201.06 849.818 203.628 851.117Z" fill="url(#paint77_radial_1152_870)"/>
<path d="M278.275 849.081C280.843 850.38 284.012 849.284 285.353 846.633C286.694 843.982 285.699 840.78 283.131 839.481C280.563 838.182 277.393 839.277 276.052 841.928C274.711 844.579 275.706 847.782 278.275 849.081Z" fill="url(#paint78_radial_1152_870)"/>
<path d="M255.283 863.012C257.851 864.311 261.02 863.215 262.361 860.564C263.702 857.913 262.707 854.711 260.139 853.412C257.57 852.112 254.401 853.208 253.06 855.859C251.719 858.51 252.714 861.713 255.283 863.012Z" fill="url(#paint79_radial_1152_870)"/>
<path d="M266.101 884.686C268.669 885.986 271.839 884.89 273.18 882.239C274.521 879.588 273.526 876.385 270.957 875.086C268.389 873.787 265.22 874.883 263.879 877.534C262.538 880.185 263.533 883.387 266.101 884.686Z" fill="url(#paint80_radial_1152_870)"/>
<path d="M231.953 897.582C234.521 898.881 237.69 897.786 239.031 895.135C240.372 892.484 239.377 889.281 236.809 887.982C234.24 886.683 231.071 887.779 229.73 890.43C228.389 893.081 229.384 896.283 231.953 897.582Z" fill="url(#paint81_radial_1152_870)"/>
<path d="M260.443 945.452C263.011 946.751 266.18 945.655 267.521 943.004C268.862 940.353 267.867 937.151 265.299 935.851C262.731 934.552 259.561 935.648 258.22 938.299C256.879 940.95 257.874 944.152 260.443 945.452Z" fill="url(#paint82_radial_1152_870)"/>
<path d="M300.679 936.043C303.248 937.342 306.417 936.246 307.758 933.595C309.099 930.944 308.104 927.742 305.535 926.443C302.967 925.144 299.798 926.239 298.457 928.89C297.116 931.541 298.111 934.744 300.679 936.043Z" fill="url(#paint83_radial_1152_870)"/>
<path d="M336.576 938.448C339.144 939.748 342.313 938.652 343.654 936.001C344.995 933.35 344 930.147 341.432 928.848C338.863 927.549 335.694 928.645 334.353 931.296C333.012 933.947 334.007 937.149 336.576 938.448Z" fill="url(#paint84_radial_1152_870)"/>
<path d="M375.341 929.771C377.91 931.07 381.079 929.975 382.42 927.324C383.761 924.673 382.766 921.47 380.197 920.171C377.629 918.872 374.46 919.968 373.119 922.619C371.778 925.27 372.773 928.472 375.341 929.771Z" fill="url(#paint85_radial_1152_870)"/>
<path d="M285.238 880.342C287.806 881.641 290.975 880.545 292.316 877.894C293.657 875.243 292.662 872.041 290.094 870.742C287.526 869.442 284.356 870.538 283.015 873.189C281.674 875.84 282.669 879.043 285.238 880.342Z" fill="url(#paint86_radial_1152_870)"/>
<path d="M313.185 875.524C315.753 876.823 318.923 875.728 320.264 873.076C321.605 870.425 320.61 867.223 318.041 865.924C315.473 864.625 312.303 865.721 310.962 868.372C309.621 871.023 310.616 874.225 313.185 875.524Z" fill="url(#paint87_radial_1152_870)"/>
<path d="M349.697 871.382C352.265 872.681 355.434 871.585 356.775 868.934C358.116 866.283 357.121 863.081 354.553 861.782C351.984 860.483 348.815 861.578 347.474 864.229C346.133 866.881 347.128 870.083 349.697 871.382Z" fill="url(#paint88_radial_1152_870)"/>
<defs>
<radialGradient id="paint0_radial_1152_870" cx="0" cy="0" r="1" gradientUnits="userSpaceOnUse" gradientTransform="translate(721.431 746.575) rotate(116.832) scale(40.558 119.219)">
<stop stop-color="#F4F4F4"/>
<stop offset="1" stop-color="#F4F4F4" stop-opacity="0.23"/>
</radialGradient>
<radialGradient id="paint1_radial_1152_870" cx="0" cy="0" r="1" gradientUnits="userSpaceOnUse" gradientTransform="translate(610.314 731.694) rotate(116.832) scale(30.2382 54.3523)">
<stop stop-color="#F4F4F4"/>
<stop offset="1" stop-color="#F4F4F4" stop-opacity="0.23"/>
</radialGradient>
<radialGradient id="paint2_radial_1152_870" cx="0" cy="0" r="1" gradientUnits="userSpaceOnUse" gradientTransform="translate(747.999 624.022) rotate(116.832) scale(41.116 105.431)">
<stop stop-color="#F4F4F4"/>
<stop offset="1" stop-color="#F4F4F4" stop-opacity="0.23"/>
</radialGradient>
<radialGradient id="paint3_radial_1152_870" cx="0" cy="0" r="1" gradientUnits="userSpaceOnUse" gradientTransform="translate(703.701 681.129) rotate(116.832) scale(21.21 18.9699)">
<stop stop-color="#F4F4F4"/>
<stop offset="1" stop-color="#F4F4F4" stop-opacity="0.23"/>
</radialGradient>
<radialGradient id="paint4_radial_1152_870" cx="0" cy="0" r="1" gradientUnits="userSpaceOnUse" gradientTransform="translate(845.66 764.217) rotate(116.832) scale(5.37932 5.21171)">
<stop stop-color="#F4F4F4"/>
<stop offset="1" stop-color="#F4F4F4" stop-opacity="0.23"/>
</radialGradient>
<radialGradient id="paint5_radial_1152_870" cx="0" cy="0" r="1" gradientUnits="userSpaceOnUse" gradientTransform="translate(798.035 798.947) rotate(116.832) scale(5.37928 5.21168)">
<stop stop-color="#F4F4F4"/>
<stop offset="1" stop-color="#F4F4F4" stop-opacity="0.23"/>
</radialGradient>
<radialGradient id="paint6_radial_1152_870" cx="0" cy="0" r="1" gradientUnits="userSpaceOnUse" gradientTransform="translate(730.15 789.859) rotate(116.832) scale(5.37932 5.21168)">
<stop stop-color="#F4F4F4"/>
<stop offset="1" stop-color="#F4F4F4" stop-opacity="0.23"/>
</radialGradient>
<radialGradient id="paint7_radial_1152_870" cx="0" cy="0" r="1" gradientUnits="userSpaceOnUse" gradientTransform="translate(700.271 780.774) rotate(116.832) scale(5.37932 5.21168)">
<stop stop-color="#F4F4F4"/>
<stop offset="1" stop-color="#F4F4F4" stop-opacity="0.23"/>
</radialGradient>
<radialGradient id="paint8_radial_1152_870" cx="0" cy="0" r="1" gradientUnits="userSpaceOnUse" gradientTransform="translate(675.64 741.672) rotate(116.832) scale(5.37928 5.21168)">
<stop stop-color="#F4F4F4"/>
<stop offset="1" stop-color="#F4F4F4" stop-opacity="0.23"/>
</radialGradient>
<radialGradient id="paint9_radial_1152_870" cx="0" cy="0" r="1" gradientUnits="userSpaceOnUse" gradientTransform="translate(656.385 760.092) rotate(116.832) scale(5.37932 5.21171)">
<stop stop-color="#F4F4F4"/>
<stop offset="1" stop-color="#F4F4F4" stop-opacity="0.23"/>
</radialGradient>
<radialGradient id="paint10_radial_1152_870" cx="0" cy="0" r="1" gradientUnits="userSpaceOnUse" gradientTransform="translate(636.273 778.078) rotate(116.832) scale(5.37932 5.21171)">
<stop stop-color="#F4F4F4"/>
<stop offset="1" stop-color="#F4F4F4" stop-opacity="0.23"/>
</radialGradient>
<radialGradient id="paint11_radial_1152_870" cx="0" cy="0" r="1" gradientUnits="userSpaceOnUse" gradientTransform="translate(612.361 755.345) rotate(116.832) scale(5.37928 5.21171)">
<stop stop-color="#F4F4F4"/>
<stop offset="1" stop-color="#F4F4F4" stop-opacity="0.23"/>
</radialGradient>
<radialGradient id="paint12_radial_1152_870" cx="0" cy="0" r="1" gradientUnits="userSpaceOnUse" gradientTransform="translate(627.599 736.762) rotate(116.832) scale(5.37932 5.21171)">
<stop stop-color="#F4F4F4"/>
<stop offset="1" stop-color="#F4F4F4" stop-opacity="0.23"/>
</radialGradient>
<radialGradient id="paint13_radial_1152_870" cx="0" cy="0" r="1" gradientUnits="userSpaceOnUse" gradientTransform="translate(611.459 713.687) rotate(116.832) scale(5.37928 5.21171)">
<stop stop-color="#F4F4F4"/>
<stop offset="1" stop-color="#F4F4F4" stop-opacity="0.23"/>
</radialGradient>
<radialGradient id="paint14_radial_1152_870" cx="0" cy="0" r="1" gradientUnits="userSpaceOnUse" gradientTransform="translate(602.752 694.542) rotate(116.832) scale(5.37928 5.21171)">
<stop stop-color="#F4F4F4"/>
<stop offset="1" stop-color="#F4F4F4" stop-opacity="0.23"/>
</radialGradient>
<radialGradient id="paint15_radial_1152_870" cx="0" cy="0" r="1" gradientUnits="userSpaceOnUse" gradientTransform="translate(572.885 685.463) rotate(116.832) scale(5.37932 5.21171)">
<stop stop-color="#F4F4F4"/>
<stop offset="1" stop-color="#F4F4F4" stop-opacity="0.23"/>
</radialGradient>
<radialGradient id="paint16_radial_1152_870" cx="0" cy="0" r="1" gradientUnits="userSpaceOnUse" gradientTransform="translate(663.859 715.842) rotate(116.832) scale(5.37932 5.21168)">
<stop stop-color="#F4F4F4"/>
<stop offset="1" stop-color="#F4F4F4" stop-opacity="0.23"/>
</radialGradient>
<radialGradient id="paint17_radial_1152_870" cx="0" cy="0" r="1" gradientUnits="userSpaceOnUse" gradientTransform="translate(632.418 658.99) rotate(116.832) scale(5.37932 5.21171)">
<stop stop-color="#F4F4F4"/>
<stop offset="1" stop-color="#F4F4F4" stop-opacity="0.23"/>
</radialGradient>
<radialGradient id="paint18_radial_1152_870" cx="0" cy="0" r="1" gradientUnits="userSpaceOnUse" gradientTransform="translate(696.549 654.052) rotate(116.832) scale(5.37932 5.21171)">
<stop stop-color="#F4F4F4"/>
<stop offset="1" stop-color="#F4F4F4" stop-opacity="0.23"/>
</radialGradient>
<radialGradient id="paint19_radial_1152_870" cx="0" cy="0" r="1" gradientUnits="userSpaceOnUse" gradientTransform="translate(596.793 584.803) rotate(116.832) scale(5.37928 5.21171)">
<stop stop-color="#F4F4F4"/>
<stop offset="1" stop-color="#F4F4F4" stop-opacity="0.23"/>
</radialGradient>
<radialGradient id="paint20_radial_1152_870" cx="0" cy="0" r="1" gradientUnits="userSpaceOnUse" gradientTransform="translate(638.324 608.255) rotate(116.832) scale(5.37932 5.21171)">
<stop stop-color="#F4F4F4"/>
<stop offset="1" stop-color="#F4F4F4" stop-opacity="0.23"/>
</radialGradient>
<radialGradient id="paint21_radial_1152_870" cx="0" cy="0" r="1" gradientUnits="userSpaceOnUse" gradientTransform="translate(656.967 582.949) rotate(116.832) scale(5.37932 5.21168)">
<stop stop-color="#F4F4F4"/>
<stop offset="1" stop-color="#F4F4F4" stop-opacity="0.23"/>
</radialGradient>
<radialGradient id="paint22_radial_1152_870" cx="0" cy="0" r="1" gradientUnits="userSpaceOnUse" gradientTransform="translate(683.715 580.67) rotate(116.832) scale(5.37932 5.21171)">
<stop stop-color="#F4F4F4"/>
<stop offset="1" stop-color="#F4F4F4" stop-opacity="0.23"/>
</radialGradient>
<radialGradient id="paint23_radial_1152_870" cx="0" cy="0" r="1" gradientUnits="userSpaceOnUse" gradientTransform="translate(718.488 581.046) rotate(116.832) scale(5.37932 5.21171)">
<stop stop-color="#F4F4F4"/>
<stop offset="1" stop-color="#F4F4F4" stop-opacity="0.23"/>
</radialGradient>
<radialGradient id="paint24_radial_1152_870" cx="0" cy="0" r="1" gradientUnits="userSpaceOnUse" gradientTransform="translate(766.097 587.663) rotate(116.832) scale(5.37932 5.21171)">
<stop stop-color="#F4F4F4"/>
<stop offset="1" stop-color="#F4F4F4" stop-opacity="0.23"/>
</radialGradient>
<radialGradient id="paint25_radial_1152_870" cx="0" cy="0" r="1" gradientUnits="userSpaceOnUse" gradientTransform="translate(794.306 619.398) rotate(116.832) scale(5.37932 5.21171)">
<stop stop-color="#F4F4F4"/>
<stop offset="1" stop-color="#F4F4F4" stop-opacity="0.23"/>
</radialGradient>
<radialGradient id="paint26_radial_1152_870" cx="0" cy="0" r="1" gradientUnits="userSpaceOnUse" gradientTransform="translate(812.711 655.705) rotate(116.832) scale(5.37932 5.21168)">
<stop stop-color="#F4F4F4"/>
<stop offset="1" stop-color="#F4F4F4" stop-opacity="0.23"/>
</radialGradient>
<radialGradient id="paint27_radial_1152_870" cx="0" cy="0" r="1" gradientUnits="userSpaceOnUse" gradientTransform="translate(823.34 707.873) rotate(116.832) scale(5.37932 5.21168)">
<stop stop-color="#F4F4F4"/>
<stop offset="1" stop-color="#F4F4F4" stop-opacity="0.23"/>
</radialGradient>
<radialGradient id="paint28_radial_1152_870" cx="0" cy="0" r="1" gradientUnits="userSpaceOnUse" gradientTransform="translate(699.687 674.862) rotate(116.832) scale(5.37932 5.21171)">
<stop stop-color="#F4F4F4"/>
<stop offset="1" stop-color="#F4F4F4" stop-opacity="0.23"/>
</radialGradient>
<radialGradient id="paint29_radial_1152_870" cx="0" cy="0" r="1" gradientUnits="userSpaceOnUse" gradientTransform="translate(702.742 691.922) rotate(116.832) scale(5.37932 5.21171)">
<stop stop-color="#F4F4F4"/>
<stop offset="1" stop-color="#F4F4F4" stop-opacity="0.23"/>
</radialGradient>
<radialGradient id="paint30_radial_1152_870" cx="0" cy="0" r="1" gradientUnits="userSpaceOnUse" gradientTransform="translate(710.992 708.15) rotate(116.832) scale(5.37932 5.21171)">
<stop stop-color="#F4F4F4"/>
<stop offset="1" stop-color="#F4F4F4" stop-opacity="0.23"/>
</radialGradient>
<radialGradient id="paint31_radial_1152_870" cx="0" cy="0" r="1" gradientUnits="userSpaceOnUse" gradientTransform="translate(740.314 709.043) rotate(116.832) scale(5.37928 5.21168)">
<stop stop-color="#F4F4F4"/>
<stop offset="1" stop-color="#F4F4F4" stop-opacity="0.23"/>
</radialGradient>
<radialGradient id="paint32_radial_1152_870" cx="0" cy="0" r="1" gradientUnits="userSpaceOnUse" gradientTransform="translate(393.565 271.976) rotate(116.832) scale(83.7993 101.209)">
<stop stop-color="#F4F4F4"/>
<stop offset="1" stop-color="#F4F4F4" stop-opacity="0.23"/>
</radialGradient>
<radialGradient id="paint33_radial_1152_870" cx="0" cy="0" r="1" gradientUnits="userSpaceOnUse" gradientTransform="translate(444.43 229.23) rotate(116.832) scale(18.0439 13.0961)">
<stop stop-color="#F4F4F4"/>
<stop offset="1" stop-color="#F4F4F4" stop-opacity="0.23"/>
</radialGradient>
<radialGradient id="paint34_radial_1152_870" cx="0" cy="0" r="1" gradientUnits="userSpaceOnUse" gradientTransform="translate(584.739 163.2) rotate(60.0988) scale(12.2008 0.465859)">
<stop stop-color="#F4F4F4"/>
<stop offset="1" stop-color="#F4F4F4" stop-opacity="0.23"/>
</radialGradient>
<radialGradient id="paint35_radial_1152_870" cx="0" cy="0" r="1" gradientUnits="userSpaceOnUse" gradientTransform="translate(504.532 157.586) rotate(116.832) scale(93.6426 138.086)">
<stop stop-color="#F4F4F4"/>
<stop offset="1" stop-color="#F4F4F4" stop-opacity="0.23"/>
</radialGradient>
<radialGradient id="paint36_radial_1152_870" cx="0" cy="0" r="1" gradientUnits="userSpaceOnUse" gradientTransform="translate(475.861 332.885) rotate(116.832) scale(5.37928 5.21171)">
<stop stop-color="#F4F4F4"/>
<stop offset="1" stop-color="#F4F4F4" stop-opacity="0.23"/>
</radialGradient>
<radialGradient id="paint37_radial_1152_870" cx="0" cy="0" r="1" gradientUnits="userSpaceOnUse" gradientTransform="translate(454.953 337.106) rotate(116.832) scale(5.37932 5.21169)">
<stop stop-color="#F4F4F4"/>
<stop offset="1" stop-color="#F4F4F4" stop-opacity="0.23"/>
</radialGradient>
<radialGradient id="paint38_radial_1152_870" cx="0" cy="0" r="1" gradientUnits="userSpaceOnUse" gradientTransform="translate(429.111 335.037) rotate(116.832) scale(5.37932 5.21169)">
<stop stop-color="#F4F4F4"/>
<stop offset="1" stop-color="#F4F4F4" stop-opacity="0.23"/>
</radialGradient>
<radialGradient id="paint39_radial_1152_870" cx="0" cy="0" r="1" gradientUnits="userSpaceOnUse" gradientTransform="translate(412.41 351.447) rotate(116.832) scale(5.37932 5.21171)">
<stop stop-color="#F4F4F4"/>
<stop offset="1" stop-color="#F4F4F4" stop-opacity="0.23"/>
</radialGradient>
<radialGradient id="paint40_radial_1152_870" cx="0" cy="0" r="1" gradientUnits="userSpaceOnUse" gradientTransform="translate(390.623 363.837) rotate(116.832) scale(5.37932 5.21169)">
<stop stop-color="#F4F4F4"/>
<stop offset="1" stop-color="#F4F4F4" stop-opacity="0.23"/>
</radialGradient>
<radialGradient id="paint41_radial_1152_870" cx="0" cy="0" r="1" gradientUnits="userSpaceOnUse" gradientTransform="translate(361.683 345.447) rotate(116.832) scale(5.37932 5.21169)">
<stop stop-color="#F4F4F4"/>
<stop offset="1" stop-color="#F4F4F4" stop-opacity="0.23"/>
</radialGradient>
<radialGradient id="paint42_radial_1152_870" cx="0" cy="0" r="1" gradientUnits="userSpaceOnUse" gradientTransform="translate(347.797 314.814) rotate(116.832) scale(5.37928 5.21171)">
<stop stop-color="#F4F4F4"/>
<stop offset="1" stop-color="#F4F4F4" stop-opacity="0.23"/>
</radialGradient>
<radialGradient id="paint43_radial_1152_870" cx="0" cy="0" r="1" gradientUnits="userSpaceOnUse" gradientTransform="translate(343.859 286.939) rotate(116.832) scale(5.37932 5.21171)">
<stop stop-color="#F4F4F4"/>
<stop offset="1" stop-color="#F4F4F4" stop-opacity="0.23"/>
</radialGradient>
<radialGradient id="paint44_radial_1152_870" cx="0" cy="0" r="1" gradientUnits="userSpaceOnUse" gradientTransform="translate(331.211 243.822) rotate(116.832) scale(5.37928 5.21171)">
<stop stop-color="#F4F4F4"/>
<stop offset="1" stop-color="#F4F4F4" stop-opacity="0.23"/>
</radialGradient>
<radialGradient id="paint45_radial_1152_870" cx="0" cy="0" r="1" gradientUnits="userSpaceOnUse" gradientTransform="translate(330.404 213.203) rotate(116.832) scale(5.37928 5.21171)">
<stop stop-color="#F4F4F4"/>
<stop offset="1" stop-color="#F4F4F4" stop-opacity="0.23"/>
</radialGradient>
<radialGradient id="paint46_radial_1152_870" cx="0" cy="0" r="1" gradientUnits="userSpaceOnUse" gradientTransform="translate(341.394 151.831) rotate(116.832) scale(5.37928 5.21169)">
<stop stop-color="#F4F4F4"/>
<stop offset="1" stop-color="#F4F4F4" stop-opacity="0.23"/>
</radialGradient>
<radialGradient id="paint47_radial_1152_870" cx="0" cy="0" r="1" gradientUnits="userSpaceOnUse" gradientTransform="translate(375.439 260.167) rotate(116.832) scale(5.37932 5.21171)">
<stop stop-color="#F4F4F4"/>
<stop offset="1" stop-color="#F4F4F4" stop-opacity="0.23"/>
</radialGradient>
<radialGradient id="paint48_radial_1152_870" cx="0" cy="0" r="1" gradientUnits="userSpaceOnUse" gradientTransform="translate(392.26 238.463) rotate(116.832) scale(5.37932 5.21169)">
<stop stop-color="#F4F4F4"/>
<stop offset="1" stop-color="#F4F4F4" stop-opacity="0.23"/>
</radialGradient>
<radialGradient id="paint49_radial_1152_870" cx="0" cy="0" r="1" gradientUnits="userSpaceOnUse" gradientTransform="translate(436.324 245.042) rotate(116.832) scale(5.37932 5.21171)">
<stop stop-color="#F4F4F4"/>
<stop offset="1" stop-color="#F4F4F4" stop-opacity="0.23"/>
</radialGradient>
<radialGradient id="paint50_radial_1152_870" cx="0" cy="0" r="1" gradientUnits="userSpaceOnUse" gradientTransform="translate(433.26 223.51) rotate(116.832) scale(5.37928 5.21171)">
<stop stop-color="#F4F4F4"/>
<stop offset="1" stop-color="#F4F4F4" stop-opacity="0.23"/>
</radialGradient>
<radialGradient id="paint51_radial_1152_870" cx="0" cy="0" r="1" gradientUnits="userSpaceOnUse" gradientTransform="translate(450.347 212.819) rotate(116.832) scale(5.37928 5.21169)">
<stop stop-color="#F4F4F4"/>
<stop offset="1" stop-color="#F4F4F4" stop-opacity="0.23"/>
</radialGradient>
<radialGradient id="paint52_radial_1152_870" cx="0" cy="0" r="1" gradientUnits="userSpaceOnUse" gradientTransform="translate(457.062 232.6) rotate(116.832) scale(5.37932 5.21169)">
<stop stop-color="#F4F4F4"/>
<stop offset="1" stop-color="#F4F4F4" stop-opacity="0.23"/>
</radialGradient>
<radialGradient id="paint53_radial_1152_870" cx="0" cy="0" r="1" gradientUnits="userSpaceOnUse" gradientTransform="translate(530.652 201.475) rotate(116.832) scale(5.37932 5.21169)">
<stop stop-color="#F4F4F4"/>
<stop offset="1" stop-color="#F4F4F4" stop-opacity="0.23"/>
</radialGradient>
<radialGradient id="paint54_radial_1152_870" cx="0" cy="0" r="1" gradientUnits="userSpaceOnUse" gradientTransform="translate(524.783 152.387) rotate(116.832) scale(5.37932 5.21169)">
<stop stop-color="#F4F4F4"/>
<stop offset="1" stop-color="#F4F4F4" stop-opacity="0.23"/>
</radialGradient>
<radialGradient id="paint55_radial_1152_870" cx="0" cy="0" r="1" gradientUnits="userSpaceOnUse" gradientTransform="translate(578.726 152.624) rotate(116.832) scale(5.37932 5.21169)">
<stop stop-color="#F4F4F4"/>
<stop offset="1" stop-color="#F4F4F4" stop-opacity="0.23"/>
</radialGradient>
<radialGradient id="paint56_radial_1152_870" cx="0" cy="0" r="1" gradientUnits="userSpaceOnUse" gradientTransform="translate(590.898 173.775) rotate(116.832) scale(5.3793 5.21168)">
<stop stop-color="#F4F4F4"/>
<stop offset="1" stop-color="#F4F4F4" stop-opacity="0.23"/>
</radialGradient>
<radialGradient id="paint57_radial_1152_870" cx="0" cy="0" r="1" gradientUnits="userSpaceOnUse" gradientTransform="translate(479.717 100.53) rotate(116.832) scale(5.3793 5.21171)">
<stop stop-color="#F4F4F4"/>
<stop offset="1" stop-color="#F4F4F4" stop-opacity="0.23"/>
</radialGradient>
<radialGradient id="paint58_radial_1152_870" cx="0" cy="0" r="1" gradientUnits="userSpaceOnUse" gradientTransform="translate(454.293 150.792) rotate(116.832) scale(5.3793 5.21171)">
<stop stop-color="#F4F4F4"/>
<stop offset="1" stop-color="#F4F4F4" stop-opacity="0.23"/>
</radialGradient>
<radialGradient id="paint59_radial_1152_870" cx="0" cy="0" r="1" gradientUnits="userSpaceOnUse" gradientTransform="translate(387.838 83.114) rotate(116.832) scale(5.37932 5.21171)">
<stop stop-color="#F4F4F4"/>
<stop offset="1" stop-color="#F4F4F4" stop-opacity="0.23"/>
</radialGradient>
<radialGradient id="paint60_radial_1152_870" cx="0" cy="0" r="1" gradientUnits="userSpaceOnUse" gradientTransform="translate(516.623 86.8374) rotate(116.832) scale(5.3793 5.21169)">
<stop stop-color="#F4F4F4"/>
<stop offset="1" stop-color="#F4F4F4" stop-opacity="0.23"/>
</radialGradient>
<radialGradient id="paint61_radial_1152_870" cx="0" cy="0" r="1" gradientUnits="userSpaceOnUse" gradientTransform="translate(436.943 62.846) rotate(116.832) scale(5.37932 5.21169)">
<stop stop-color="#F4F4F4"/>
<stop offset="1" stop-color="#F4F4F4" stop-opacity="0.23"/>
</radialGradient>
<radialGradient id="paint62_radial_1152_870" cx="0" cy="0" r="1" gradientUnits="userSpaceOnUse" gradientTransform="translate(568.34 98.3977) rotate(116.832) scale(5.37932 5.21169)">
<stop stop-color="#F4F4F4"/>
<stop offset="1" stop-color="#F4F4F4" stop-opacity="0.23"/>
</radialGradient>
<radialGradient id="paint63_radial_1152_870" cx="0" cy="0" r="1" gradientUnits="userSpaceOnUse" gradientTransform="translate(621.865 112.559) rotate(116.832) scale(5.37932 5.21168)">
<stop stop-color="#F4F4F4"/>
<stop offset="1" stop-color="#F4F4F4" stop-opacity="0.23"/>
</radialGradient>
<radialGradient id="paint64_radial_1152_870" cx="0" cy="0" r="1" gradientUnits="userSpaceOnUse" gradientTransform="translate(644.961 144.556) rotate(116.832) scale(5.37932 5.21168)">
<stop stop-color="#F4F4F4"/>
<stop offset="1" stop-color="#F4F4F4" stop-opacity="0.23"/>
</radialGradient>
<radialGradient id="paint65_radial_1152_870" cx="0" cy="0" r="1" gradientUnits="userSpaceOnUse" gradientTransform="translate(633.927 188.064) rotate(116.832) scale(5.37932 5.21168)">
<stop stop-color="#F4F4F4"/>
<stop offset="1" stop-color="#F4F4F4" stop-opacity="0.23"/>
</radialGradient>
<radialGradient id="paint66_radial_1152_870" cx="0" cy="0" r="1" gradientUnits="userSpaceOnUse" gradientTransform="translate(621.373 234.579) rotate(116.832) scale(5.37932 5.21168)">
<stop stop-color="#F4F4F4"/>
<stop offset="1" stop-color="#F4F4F4" stop-opacity="0.23"/>
</radialGradient>
<radialGradient id="paint67_radial_1152_870" cx="0" cy="0" r="1" gradientUnits="userSpaceOnUse" gradientTransform="translate(590.336 245.312) rotate(116.832) scale(5.37932 5.21168)">
<stop stop-color="#F4F4F4"/>
<stop offset="1" stop-color="#F4F4F4" stop-opacity="0.23"/>
</radialGradient>
<radialGradient id="paint68_radial_1152_870" cx="0" cy="0" r="1" gradientUnits="userSpaceOnUse" gradientTransform="translate(564.865 273.965) rotate(116.832) scale(5.37932 5.21168)">
<stop stop-color="#F4F4F4"/>
<stop offset="1" stop-color="#F4F4F4" stop-opacity="0.23"/>
</radialGradient>
<radialGradient id="paint69_radial_1152_870" cx="0" cy="0" r="1" gradientUnits="userSpaceOnUse" gradientTransform="translate(542.697 281.631) rotate(116.832) scale(5.37932 5.21168)">
<stop stop-color="#F4F4F4"/>
<stop offset="1" stop-color="#F4F4F4" stop-opacity="0.23"/>
</radialGradient>
<radialGradient id="paint70_radial_1152_870" cx="0" cy="0" r="1" gradientUnits="userSpaceOnUse" gradientTransform="translate(247.847 790.107) rotate(116.832) scale(69.2978 37.8061)">
<stop stop-color="#F4F4F4"/>
<stop offset="1" stop-color="#F4F4F4" stop-opacity="0.23"/>
</radialGradient>
<radialGradient id="paint71_radial_1152_870" cx="0" cy="0" r="1" gradientUnits="userSpaceOnUse" gradientTransform="translate(299.313 922.304) rotate(116.832) scale(33.398 71.4938)">
<stop stop-color="#F4F4F4"/>
<stop offset="1" stop-color="#F4F4F4" stop-opacity="0.23"/>
</radialGradient>
<radialGradient id="paint72_radial_1152_870" cx="0" cy="0" r="1" gradientUnits="userSpaceOnUse" gradientTransform="translate(274.794 862.364) rotate(116.832) scale(19.0533 17.7246)">
<stop stop-color="#F4F4F4"/>
<stop offset="1" stop-color="#F4F4F4" stop-opacity="0.23"/>
</radialGradient>
<radialGradient id="paint73_radial_1152_870" cx="0" cy="0" r="1" gradientUnits="userSpaceOnUse" gradientTransform="translate(312.426 745.494) rotate(116.832) scale(5.37932 5.21168)">
<stop stop-color="#F4F4F4"/>
<stop offset="1" stop-color="#F4F4F4" stop-opacity="0.23"/>
</radialGradient>
<radialGradient id="paint74_radial_1152_870" cx="0" cy="0" r="1" gradientUnits="userSpaceOnUse" gradientTransform="translate(267.365 759.433) rotate(116.832) scale(5.37932 5.21171)">
<stop stop-color="#F4F4F4"/>
<stop offset="1" stop-color="#F4F4F4" stop-opacity="0.23"/>
</radialGradient>
<radialGradient id="paint75_radial_1152_870" cx="0" cy="0" r="1" gradientUnits="userSpaceOnUse" gradientTransform="translate(230.896 774.12) rotate(116.832) scale(5.37936 5.21169)">
<stop stop-color="#F4F4F4"/>
<stop offset="1" stop-color="#F4F4F4" stop-opacity="0.23"/>
</radialGradient>
<radialGradient id="paint76_radial_1152_870" cx="0" cy="0" r="1" gradientUnits="userSpaceOnUse" gradientTransform="translate(200.488 801.105) rotate(116.832) scale(5.37936 5.21169)">
<stop stop-color="#F4F4F4"/>
<stop offset="1" stop-color="#F4F4F4" stop-opacity="0.23"/>
</radialGradient>
<radialGradient id="paint77_radial_1152_870" cx="0" cy="0" r="1" gradientUnits="userSpaceOnUse" gradientTransform="translate(206.056 846.317) rotate(116.832) scale(5.37928 5.21171)">
<stop stop-color="#F4F4F4"/>
<stop offset="1" stop-color="#F4F4F4" stop-opacity="0.23"/>
</radialGradient>
<radialGradient id="paint78_radial_1152_870" cx="0" cy="0" r="1" gradientUnits="userSpaceOnUse" gradientTransform="translate(280.703 844.281) rotate(116.832) scale(5.37936 5.21171)">
<stop stop-color="#F4F4F4"/>
<stop offset="1" stop-color="#F4F4F4" stop-opacity="0.23"/>
</radialGradient>
<radialGradient id="paint79_radial_1152_870" cx="0" cy="0" r="1" gradientUnits="userSpaceOnUse" gradientTransform="translate(257.711 858.212) rotate(116.832) scale(5.37928 5.21171)">
<stop stop-color="#F4F4F4"/>
<stop offset="1" stop-color="#F4F4F4" stop-opacity="0.23"/>
</radialGradient>
<radialGradient id="paint80_radial_1152_870" cx="0" cy="0" r="1" gradientUnits="userSpaceOnUse" gradientTransform="translate(268.529 879.886) rotate(116.832) scale(5.37928 5.21171)">
<stop stop-color="#F4F4F4"/>
<stop offset="1" stop-color="#F4F4F4" stop-opacity="0.23"/>
</radialGradient>
<radialGradient id="paint81_radial_1152_870" cx="0" cy="0" r="1" gradientUnits="userSpaceOnUse" gradientTransform="translate(234.381 892.782) rotate(116.832) scale(5.37928 5.21171)">
<stop stop-color="#F4F4F4"/>
<stop offset="1" stop-color="#F4F4F4" stop-opacity="0.23"/>
</radialGradient>
<radialGradient id="paint82_radial_1152_870" cx="0" cy="0" r="1" gradientUnits="userSpaceOnUse" gradientTransform="translate(262.871 940.652) rotate(116.832) scale(5.37936 5.21168)">
<stop stop-color="#F4F4F4"/>
<stop offset="1" stop-color="#F4F4F4" stop-opacity="0.23"/>
</radialGradient>
<radialGradient id="paint83_radial_1152_870" cx="0" cy="0" r="1" gradientUnits="userSpaceOnUse" gradientTransform="translate(303.107 931.243) rotate(116.832) scale(5.37928 5.21171)">
<stop stop-color="#F4F4F4"/>
<stop offset="1" stop-color="#F4F4F4" stop-opacity="0.23"/>
</radialGradient>
<radialGradient id="paint84_radial_1152_870" cx="0" cy="0" r="1" gradientUnits="userSpaceOnUse" gradientTransform="translate(339.004 933.648) rotate(116.832) scale(5.37936 5.21168)">
<stop stop-color="#F4F4F4"/>
<stop offset="1" stop-color="#F4F4F4" stop-opacity="0.23"/>
</radialGradient>
<radialGradient id="paint85_radial_1152_870" cx="0" cy="0" r="1" gradientUnits="userSpaceOnUse" gradientTransform="translate(377.769 924.971) rotate(116.832) scale(5.37928 5.21168)">
<stop stop-color="#F4F4F4"/>
<stop offset="1" stop-color="#F4F4F4" stop-opacity="0.23"/>
</radialGradient>
<radialGradient id="paint86_radial_1152_870" cx="0" cy="0" r="1" gradientUnits="userSpaceOnUse" gradientTransform="translate(287.666 875.542) rotate(116.832) scale(5.37936 5.21171)">
<stop stop-color="#F4F4F4"/>
<stop offset="1" stop-color="#F4F4F4" stop-opacity="0.23"/>
</radialGradient>
<radialGradient id="paint87_radial_1152_870" cx="0" cy="0" r="1" gradientUnits="userSpaceOnUse" gradientTransform="translate(315.613 870.724) rotate(116.832) scale(5.37936 5.21168)">
<stop stop-color="#F4F4F4"/>
<stop offset="1" stop-color="#F4F4F4" stop-opacity="0.23"/>
</radialGradient>
<radialGradient id="paint88_radial_1152_870" cx="0" cy="0" r="1" gradientUnits="userSpaceOnUse" gradientTransform="translate(352.125 866.582) rotate(116.832) scale(5.37928 5.21171)">
<stop stop-color="#F4F4F4"/>
<stop offset="1" stop-color="#F4F4F4" stop-opacity="0.23"/>
</radialGradient>
</defs>
</svg>
