<svg xmlns="http://www.w3.org/2000/svg" viewBox="0 0 142.07 18.63"><defs><style>.cls-1{fill:#fff;}</style></defs><g id="图层_2" data-name="图层 2"><g id="图层_1-2" data-name="图层 1"><path class="cls-1" d="M0,6.78A1.07,1.07,0,0,0,.21,6.4l.17-.28.41-.75a18.42,18.42,0,0,0,1.55-3.3.34.34,0,0,0,.17-.32c.13-.26.25-.54.38-.84A.58.58,0,0,0,3.06.53,1.84,1.84,0,0,1,3.5.4L3.93.33A.73.73,0,0,1,4.4.74a2.63,2.63,0,0,1,.34.47v.11L7.1,4l0,.09L7,4.42c-.17.17-.33.33-.48.46a1.45,1.45,0,0,1-.62-.43l-.28-.2a4.75,4.75,0,0,1-.55-.55l-.37-.49a1.24,1.24,0,0,0-.37-.39h0A3.85,3.85,0,0,1,4,3.43a1.66,1.66,0,0,1-.37.48c0-.06-.1-.06-.14,0s-.07.07-.07,0,.11-.28.17-.41a1.24,1.24,0,0,1-.23,0A4.83,4.83,0,0,1,3,4c-.19.3-.31.5-.38.58-.42.36-.37.49.17.42a6.39,6.39,0,0,1,.63-.13A1,1,0,0,0,4.15,5C4.73,5,5.31,5,5.87,5a2.07,2.07,0,0,1,.38.1v.62a.09.09,0,0,1,0,.07,1,1,0,0,1-.46.38H5.12a.1.1,0,0,0,0,0A1.34,1.34,0,0,0,5,6.93v.32c0,.06,0,.21,0,.46a1.44,1.44,0,0,0,.08.42A3.24,3.24,0,0,0,6,8.2a.33.33,0,0,1,.34,0,.45.45,0,0,1,.21.58,1.69,1.69,0,0,1,0,.43,1.4,1.4,0,0,1-.86.25c-.32-.11-.52-.05-.61.2v.85A.69.69,0,0,0,5,11a1.72,1.72,0,0,1,.34.24.57.57,0,0,1,.38.34,1.35,1.35,0,0,1,0,.69,3.29,3.29,0,0,0,.17.49v0a1.74,1.74,0,0,1-.81.49,1.32,1.32,0,0,0-.33,1.12.5.5,0,0,1,0,.13A2.7,2.7,0,0,1,4.7,15a.19.19,0,0,0-.11.24.22.22,0,0,1-.13.25l1.32-.11h.39a.26.26,0,0,1,.08.11.93.93,0,0,1-.38.56l.1.23a.85.85,0,0,1-.59.22l-1.09.38-.1,0L2.4,17.5a1.78,1.78,0,0,1-.68.21.55.55,0,0,1-.55-.54A1.18,1.18,0,0,1,1,16.75v0a2.94,2.94,0,0,1,.39-.26l.41-.21c.06,0,.06-.05,0-.08a18.93,18.93,0,0,1,0-2.13c0-.12,0-.36,0-.74s0-.64,0-.76v-.66c0-.16,0-.33,0-.51a.81.81,0,0,1,.34-.88l.55.17a1.11,1.11,0,0,1,.12.47c0,.25,0,.41,0,.49,0,1-.06,2.07-.14,3.09A4.46,4.46,0,0,1,2.51,16c.35,0,.51-.06.47-.1l.8-.2c.08-.14,0-.17-.14-.08s-.27,0-.24-.17a24.19,24.19,0,0,1-.13-2.55q0-.37,0-.75a.79.79,0,0,0,0-.2V9.52L3,9.54,2.47,9.4c-.31.14-.64.27-1,.4a1.45,1.45,0,0,1-.36-.38V9.18c0-.5.12-.78.34-.84s.55-.14,1-.27c.11-.12.21-.14.31-.05a.81.81,0,0,0,.31.18q.28,0,.21-.36a1.94,1.94,0,0,1,0-.76c0-.2,0-.41-.08-.62a1.76,1.76,0,0,0-.55-.17l-.88.08a.38.38,0,0,1-.17-.27c0-.07,0-.11,0-.11a1.74,1.74,0,0,0-.3.31c-.16.18-.26.3-.31.37a1.48,1.48,0,0,0-.62.62L.21,7A.22.22,0,0,1,0,6.78Zm1.93,9.41v0l.17-.09h0A.13.13,0,0,0,1.93,16.19ZM3.61,3.4a1.34,1.34,0,0,0,.09-.24.2.2,0,0,0-.13,0h0A.25.25,0,0,1,3.61,3.4Zm3,13.6a2.28,2.28,0,0,1,.72-.62q0-6.79.13-13.6V2.17a.65.65,0,0,1-.06-.34l.3-.58A1.88,1.88,0,0,1,8.5.5,2.36,2.36,0,0,0,9,.7a.55.55,0,0,0,.26,0h.59a.59.59,0,0,1,.47-.21h.47l1.44.1a.84.84,0,0,1,.26-.06l.42.21a1.91,1.91,0,0,1,.6.6,1.39,1.39,0,0,1-.05.69,1.6,1.6,0,0,0,.43.71,3.13,3.13,0,0,1,.19,1.09c.1.14.1.25,0,.32a1.13,1.13,0,0,0,.23.6,1,1,0,0,0-.1.51,3.18,3.18,0,0,0,.06.62A.5.5,0,0,1,14,6.4a.18.18,0,0,0,0,.23,7.57,7.57,0,0,0,0,.81v.31a.87.87,0,0,0-.1.42c0,.25,0,.48,0,.69s-.06.27-.09.43a.69.69,0,0,1,0,.32.83.83,0,0,1-.68.81.89.89,0,0,0-.43,0,.24.24,0,0,1-.3-.2V9.54a.19.19,0,0,1-.06-.17c-.24,0-.47,0-.7-.08s-.24-.11-.3,0a1.41,1.41,0,0,1-.72.08c0,.11-.06.13-.07.05l-.42-.13-.09.17H9.78a.25.25,0,0,0-.28-.09.67.67,0,0,0-.57.15A.52.52,0,0,0,9,9.7v1.37a.66.66,0,0,0,0,.55v.54a4.67,4.67,0,0,0-.1.71v.58a.68.68,0,0,0,0,.53c.09.24,0,.4-.17.49,0,.31,0,.6-.07.86,0,.11.05.17.15.17a4.79,4.79,0,0,1,.85-.25l.81-.33c.1,0,.16,0,.17.13v.49a.53.53,0,0,1-.27.37.38.38,0,0,0-.2.43,1.08,1.08,0,0,0-.51.3,2.92,2.92,0,0,1-.59.4.51.51,0,0,0-.24.26,3,3,0,0,1-.76.32,1.91,1.91,0,0,1-.72.39.6.6,0,0,1-.28-.47,3.17,3.17,0,0,0-.3-.34A.23.23,0,0,1,6.63,17ZM10.54,3.91c.56,0,1.14,0,1.71,0a.41.41,0,0,0,.32-.47,1.79,1.79,0,0,1,0-.69,1.26,1.26,0,0,0,.25-.45v0a3.19,3.19,0,0,0-.45-.66h0l-.68,0a1.43,1.43,0,0,1-.59.13l-.47-.09a.14.14,0,0,1-.21,0,3.33,3.33,0,0,0-.34-.24A2.68,2.68,0,0,0,8.78,2a.35.35,0,0,1-.06.14L9,3.33a.15.15,0,0,0-.06.15,1.65,1.65,0,0,0,.61.39,1.86,1.86,0,0,1,.34,0Zm.2,4.16.57,0,.51.05c.44,0,.68-.16.72-.46a7.59,7.59,0,0,0,.05-1V6.46q0-.52,0-1a1.73,1.73,0,0,0-1.32-.24L10.84,5c-.29.09-.45.17-.47.24l-.08,0a3.6,3.6,0,0,0-.55.07A.68.68,0,0,0,9,5.82a2.7,2.7,0,0,0,0,.49c-.22,0-.32.07-.3.29a.56.56,0,0,0,.2.44v.52A.66.66,0,0,0,9.1,8a.46.46,0,0,1,.27,0C9.83,8,10.29,8.05,10.74,8.07ZM13.94,18a1.79,1.79,0,0,1-.46-.45,9.08,9.08,0,0,1-.85-.92,8.75,8.75,0,0,1-.47-.89,1.65,1.65,0,0,0-.47-.7,9.54,9.54,0,0,0-.81.51.29.29,0,0,1-.1-.25,2.36,2.36,0,0,1,.13-.75,1.65,1.65,0,0,0,.25-.69A2.14,2.14,0,0,0,10.9,13a2.86,2.86,0,0,1-.29-.79c0-.15-.11-.3-.17-.46a5.76,5.76,0,0,1-.15-.79,3.38,3.38,0,0,1,0-.45,3.46,3.46,0,0,1-.17-.71.41.41,0,0,1,.25-.42,1.68,1.68,0,0,1,.21.28,2.21,2.21,0,0,1,.2.34,2.44,2.44,0,0,1,.35.46,2.67,2.67,0,0,1,.24.54c.05.11.17.37.38.77s.35.64.47.69.12-.05.17-.13A6.36,6.36,0,0,1,13.6,10.7a.27.27,0,0,1,.26-.15,2.28,2.28,0,0,1,.49.49q.12.27.21.54a1,1,0,0,1-.32.88l-.51.54a1.78,1.78,0,0,0-.38.4,1.86,1.86,0,0,0-.34.54.73.73,0,0,0,.21.4,18.46,18.46,0,0,1,1.47,2.53l0,.84,0,0c-.06.19-.11.28-.15.29l-.26.12,0,0Z"/><path class="cls-1" d="M18.32,7.45a4.05,4.05,0,0,1-.25-.58,1.38,1.38,0,0,0-.3-.52c0-.39.07-.58.24-.56l1,.13a.25.25,0,0,1,.29,0,.8.8,0,0,1,.68.47,1.33,1.33,0,0,1-.34,1.22,3.65,3.65,0,0,0-.23.43A1.37,1.37,0,0,0,18.92,8,6,6,0,0,1,18.32,7.45Zm.15-5.12q-.11,0-.15,0a3.81,3.81,0,0,0-.17-.51,1.61,1.61,0,0,1-.31-.56.17.17,0,0,0,0-.25c.24-.1.49-.18.74-.26,0-.06.07-.07.21,0h.53a2.12,2.12,0,0,1,.75.44l.13.24c0,.19-.05.37-.07.56s0,.25-.17.34a.71.71,0,0,1-.53.47.76.76,0,0,1-.64.17A1,1,0,0,1,18.47,2.33Zm-.09,15.22a.66.66,0,0,0-.18-.35c0-.32,0-.63,0-.93q0-1.27.06-2.52a25.86,25.86,0,0,0,.17-2.68,5.3,5.3,0,0,0,.29-.86c.15-.49.28-.77.41-.84a.31.31,0,0,0,.24.17,1.23,1.23,0,0,1,.42.73,3.38,3.38,0,0,1,.15.84,1,1,0,0,0,.08.83,3.32,3.32,0,0,1,0,.41.59.59,0,0,0-.06.24A1.88,1.88,0,0,1,20,13v1.7l0,0a1.51,1.51,0,0,0-.07.67c0,.28-.06.57-.1.87a4.85,4.85,0,0,1-.28,1.18s0,0-.06,0a1.45,1.45,0,0,1-.68.39v-.05C18.6,17.81,18.44,17.73,18.38,17.55Zm11.55.54a.24.24,0,0,1-.12,0,.46.46,0,0,0-.35-.25,1.72,1.72,0,0,0-.34-.36A2.52,2.52,0,0,1,28.7,17a.67.67,0,0,0-.09-.14l-.51-.56a2.55,2.55,0,0,0-.57-.71c0-.05,0-.09,0-.13a1,1,0,0,0-.21-.21,6.47,6.47,0,0,0-.3-.82,1.59,1.59,0,0,1-.17-.25l0,0a1.11,1.11,0,0,0,0-.19h0l-.51-.08c-.25,0-.39,0-.41.12a.85.85,0,0,1-.25.31l-.34.17c0,.05-.05.11-.07.17a.85.85,0,0,1-.65.64l0,.07a.29.29,0,0,1-.08.14l0,0a.4.4,0,0,0-.17.17c-.16.14-.33.27-.51.4-.33.32-.64.66-.94,1l-.45.35a1.35,1.35,0,0,0-.37.38l0,0-.48.34h-.05a.22.22,0,0,1-.21-.19v0l2-3,.3-.71a.52.52,0,0,1,.08-.25v0l-.34-.14-.1-.09h0a.71.71,0,0,0-.32.17l-.48.22a3,3,0,0,0-.37.25,3.57,3.57,0,0,1-.49.2,3.07,3.07,0,0,1-.46.15l-.34-.18a1.68,1.68,0,0,1-.22-.51,7.34,7.34,0,0,0,.6-.51,2.45,2.45,0,0,0,.68-.56h0a1.86,1.86,0,0,1,.47.23l1-.23h.15l.21.06a1,1,0,0,0,.51-.1c.06-.16.14-.36.22-.6l0-.11v-.39a2.46,2.46,0,0,0,.13-.41l0,0-.08,0a.07.07,0,0,1,0,0,.3.3,0,0,1-.26.11l-.08,0L24,11.32h-.38a.24.24,0,0,1-.24.18h0l-.14-.05a.46.46,0,0,0,0,.09h0l-.13,0-.08,0-.09,0-.1.08h-.24l-.07,0h-.07l-.26,0-.28.09h-.06l0-.05-.3-.08a1.25,1.25,0,0,0-.3-.5s0,.06,0,.07a.66.66,0,0,1-.23-.32.85.85,0,0,1,.1-.19v-.13a1.22,1.22,0,0,1,.33-.14,1.25,1.25,0,0,0,.31-.12l.13.06a1.13,1.13,0,0,1,.27-.13,4,4,0,0,1,.85-.14l.47-.09.77.06a1.34,1.34,0,0,0,.55.43,1,1,0,0,0,.3-.13V9.84l.13-.17L25,9.57V9.29A.38.38,0,0,0,25.19,9,.26.26,0,0,0,25,8.77l-.36.05A1.5,1.5,0,0,1,24,8.69l-.13,0-.38.21a.68.68,0,0,0-.64,0,.89.89,0,0,1-.1.54l0,0h-.3l-.13,0L22,9.5h0A2,2,0,0,1,21.66,8c0-.09-.05-.18-.08-.28V7.57c0-.07,0-.12,0-.16l0-.16a1,1,0,0,1,0-.1V7.08c0-.13.05-.23.08-.32v0c0-.08,0-.18,0-.28a.11.11,0,0,1,0-.05l0-.08a3,3,0,0,1,.53-.77.65.65,0,0,1,.64-.22l.41.16V5.07a.12.12,0,0,0,.1-.09c0-.05,0-.11,0-.17v0s0-.1,0-.17-.06-.28-.1-.43l.06,0a.51.51,0,0,0-.09-.22.1.1,0,0,1,0-.08V2.73a.21.21,0,0,0,.06-.08.71.71,0,0,0-.06-.22h-.07l-1.12.13h-.43l-.25,0a1.25,1.25,0,0,0-.18-.34A.16.16,0,0,1,21,2a.29.29,0,0,1,.1-.28l.64-.23.64-.21a1.61,1.61,0,0,1,.51-.09l.33.17a.26.26,0,0,1,0-.21V.27A.52.52,0,0,0,23.6.14L23.9,0h.34l.29.11a.43.43,0,0,1,.22.17.06.06,0,0,0-.05.06c.05.22.09.43.13.61a.09.09,0,0,1,0,.1.59.59,0,0,0,.4.28l.07.06.31-.06h.3L27,1.42a3.6,3.6,0,0,0,.8-.06.05.05,0,0,1,0,0,2.87,2.87,0,0,0,.44-.17v0A.47.47,0,0,0,28.17,1s0-.06.06-.1A2.5,2.5,0,0,1,28.3.44l.33-.09L29,.25a.54.54,0,0,1,.2.1.9.9,0,0,1,.4.66c0,.27.23.42.62.44l.15,0h0l.1.07a1.39,1.39,0,0,0,.58.13.13.13,0,0,0,.1,0l.13.25a.28.28,0,0,0,0,.13.8.8,0,0,0,.13.13v0c-.16,0-.25.07-.26.22A.16.16,0,0,0,31,2.3c-.13,0-.26.07-.4.09s-.06,0-.07,0a.16.16,0,0,1-.16.13h-.05a.13.13,0,0,0-.06,0l-.08,0a.57.57,0,0,1-.26,0,.31.31,0,0,1-.21.22l0,.08a.3.3,0,0,1,0,.13,1.14,1.14,0,0,1-.08.33.69.69,0,0,1,0,.1v0l0,0a5.19,5.19,0,0,1-.25.47c0,.14,0,.28.08.41a2.46,2.46,0,0,1-.21.62c0,.13.08.18.19.17l.13,0a2.08,2.08,0,0,1,.76.51,2.11,2.11,0,0,0,.07.3c.1,0,.16.16.17.36s0,.19,0,.26l.22.36a2.1,2.1,0,0,1-.15.22c.06.14.13.27.19.4a.29.29,0,0,1-.06.22,1.82,1.82,0,0,1,.1.94,0,0,0,0,1,0,.07c0,.08-.05.17-.07.27s0,.4,0,.6a1.61,1.61,0,0,1-.87.69c-.14,0-.22-.15-.24-.38a.68.68,0,0,0-.14-.45,1.5,1.5,0,0,0,0-.24A.61.61,0,0,0,29,8.82a1.84,1.84,0,0,0-.28-.09h-.09l-.32,0L28,8.69a4.83,4.83,0,0,0-.59.17V9l.06,0c-.12.39-.24.61-.36.67a.17.17,0,0,0,.09.14L27,9.93v.24h.17l.13,0,.32-.07.49.07a6,6,0,0,0,1,0,3.41,3.41,0,0,0,.48.09h.64l0,0h.35a.15.15,0,0,0,.09.06.27.27,0,0,0,.11-.1.68.68,0,0,1,.57.64.81.81,0,0,0-.13.34,1.38,1.38,0,0,1-.48.17l-.07,0-.26,0-.15,0-.12,0L30,11.28a1.55,1.55,0,0,0-.37,0h-.06l-.21,0h-.64a.17.17,0,0,1-.11.06l-.29-.1-.07,0A1.57,1.57,0,0,0,28,11.2a.36.36,0,0,1-.09.08h-.21a.46.46,0,0,1-.17.09l-.07,0h0l-.11,0a1.06,1.06,0,0,1-.25-.09l-.15.06a1.23,1.23,0,0,1,0,.2l0,0,0,.09c-.11,0-.23.17-.34.49a.34.34,0,0,0,.21.23,2.21,2.21,0,0,0,.34.43,1.91,1.91,0,0,1,.56.07h.85a.83.83,0,0,0,.44.1h.51l.64,0h.51a.13.13,0,0,0,.13.06l1,.21a.63.63,0,0,1,.23.2v.13a.67.67,0,0,0-.23.34h-1a.14.14,0,0,1-.12.06,1,1,0,0,1-.17-.1l-.09,0h-.48l-.22,0h0l-.28,0-.21.06-.64-.13-.13,0h-.08v0c.1.15.28.41.55.77l.3.34a1,1,0,0,1,.09.17h0l.12.16.13.1a1.67,1.67,0,0,1,.26.37,2.19,2.19,0,0,0,.21.23.56.56,0,0,1,.26.24,1.18,1.18,0,0,0,.11.18.61.61,0,0,0,.2.16l.07.06a1.43,1.43,0,0,0,.24.19c.08.06.23.14.44.26s.32.23.32.35l.21.3a.18.18,0,0,1,0,.08.59.59,0,0,0-.17.39l-.45.17H30.7l-.38-.13A3.77,3.77,0,0,0,29.93,18.09ZM24.51,7.92a1.33,1.33,0,0,0,.58-.09,1.38,1.38,0,0,0,.17-.54,4.75,4.75,0,0,0,0-.83V6a.1.1,0,0,1-.09,0L24.79,6A4.1,4.1,0,0,1,24.3,6a.76.76,0,0,1-.49-.22.42.42,0,0,1-.3.29c-.14-.06-.24,0-.3.14a1.93,1.93,0,0,1-.31.33,2.72,2.72,0,0,1,0,.7.51.51,0,0,1,.15.33c0,.14.14.24.42.31l.25-.06C24,7.87,24.24,7.9,24.51,7.92Zm2.91-3,.37,0,.08,0a.37.37,0,0,0,.26-.17,1.25,1.25,0,0,1,0-.21,1.41,1.41,0,0,1,0-.2l-.48-.06-.17-.07h-.09l-.49.09-.15,0a.16.16,0,0,0-.19-.09l-.43.11-.33-.09H25.7l-.3,0-.34-.07-.08,0a3.65,3.65,0,0,0-.45.39v.21a.4.4,0,0,0,.13.06l.32-.1.13,0s.07,0,.08,0l.68-.13L26,4.57a1.52,1.52,0,0,1,.42.16c.18,0,.29-.08.32-.13a.9.9,0,0,0,.26.13h0a.19.19,0,0,0,.09-.05A2.77,2.77,0,0,0,27.42,4.9ZM25.23,3.37a15.66,15.66,0,0,0,1.94.09.89.89,0,0,1,.62,0c.19-.07.26-.23.21-.49a.21.21,0,0,0,.13-.28.68.68,0,0,0-.54-.3.17.17,0,0,1-.17.13A3.12,3.12,0,0,1,27,2.39a1.67,1.67,0,0,1-.39,0L26,2.3a.24.24,0,0,0-.21.05h-.51c-.27-.1-.46,0-.54.3s.08.4.11.58,0,.19.21.1A.38.38,0,0,1,25.23,3.37Zm1,9.29a.74.74,0,0,1,0,.18l.15,0,0,0,0-.26-.08,0h0c-.05,0-.08,0-.09,0A.74.74,0,0,0,26.25,12.66ZM28,7.89l.44.07h0l.55,0a.61.61,0,0,0,.19,0,3.24,3.24,0,0,0,.55-.07,10.31,10.31,0,0,0,0-1.11.84.84,0,0,0-.56-.86,2,2,0,0,1-.72,0c-.33,0-.66.07-1,.08a.28.28,0,0,0-.11.37c0,.14,0,.28-.06.41a.3.3,0,0,0,.06.29.86.86,0,0,1-.19.46c.05.09.11.19.19.31A2.81,2.81,0,0,1,28,7.89Z"/><path class="cls-1" d="M35.05,17.07a1.88,1.88,0,0,0,.3-.6.77.77,0,0,0,.17-.47,1.17,1.17,0,0,1,0-.8c.07-.83.16-1.65.26-2.46a3,3,0,0,1,.13-.69L36,11c0-.15.09-.31.13-.47a2,2,0,0,0,.28-1,.58.58,0,0,1,.29.37v.41a10.85,10.85,0,0,1,.39,2.38.53.53,0,0,1,.38.08.73.73,0,0,1,.09.43c0,.3-.08.59-.13.86v.43c-.05.34-.1.67-.17,1a3.49,3.49,0,0,0,0,.5c0,.14,0,.4-.09.76a1.51,1.51,0,0,1-.21.71c.07.53-.15.81-.66.82a1.39,1.39,0,0,1-.77-.39.76.76,0,0,1-.53-.41A1.52,1.52,0,0,1,35.05,17.07ZM36,2.43a.6.6,0,0,1-.47-.4c-.07-.3-.14-.58-.21-.86q-.08,0-.06-.15a.42.42,0,0,1,.34-.45,2.57,2.57,0,0,0,.4.06v0a5,5,0,0,1,1.87.46c.19.1.24.19.17.25a.24.24,0,0,0-.08.26,1,1,0,0,1-.66.86H36.9a.69.69,0,0,1-.68,0A.54.54,0,0,0,36,2.43ZM35.29,5.6a.81.81,0,0,1,.61-.47,8.43,8.43,0,0,1,1.35.35c.6.21.92.42,1,.64A.86.86,0,0,1,37.8,7l-.47.12a.68.68,0,0,0-.27.27c0,.08-.16.12-.39.12a1.61,1.61,0,0,1-1-.6L35.29,6Zm3.56-3a2,2,0,0,1,.92-.19l0-.06.78-.17.53.13a8.77,8.77,0,0,0,.9,0c.17-.06.38-.13.65-.2,1.27-.07,2.53-.1,3.79-.1H47l.49,0,.51,0a4.83,4.83,0,0,1,.6,0q.45,0,.51.21l-.1.32c-.06.18-.09.28-.11.32a3.77,3.77,0,0,1-.39.26.38.38,0,0,1-.31,0l-.64.1a.67.67,0,0,1-.26.09l-.55-.09a.37.37,0,0,0-.23,0l-.39-.07q-1,.06-2,.09a7,7,0,0,1-.74,0l-1.07-.3a3.76,3.76,0,0,1-.48.13c-.15.1-.24.19-.26.27a4.12,4.12,0,0,1-.66.43.5.5,0,0,0-.08.2,2.6,2.6,0,0,0-.66.14h-.9a.32.32,0,0,0-.27,0,.6.6,0,0,1-.47-.44,1,1,0,0,1-.3-.6C38.27,3,38.48,2.78,38.85,2.62Zm.73,12.88c.06-.06.06-.11,0-.13a.92.92,0,0,0,.13-.57.68.68,0,0,1,0-.26,6.59,6.59,0,0,0,.13-1.33.24.24,0,0,1,0-.26l0-.43a.73.73,0,0,0,.11-.38q0-.3,0-.6c0-.09,0-.27.08-.54s0-.46,0-.55a.79.79,0,0,1,.44-.93.75.75,0,0,0,.17-.1,1.23,1.23,0,0,1,.49.23,1.51,1.51,0,0,1,.68.2V11a.93.93,0,0,0-.08.65l.1.25a2.91,2.91,0,0,0-.19.43c.06.21.12.43.17.65l-.12.6a.07.07,0,0,1,.08.08,1,1,0,0,1-.19.39.18.18,0,0,0,0-.17v-.8c-.09.05-.1.17,0,.35a1.18,1.18,0,0,1-.19.66c-.16.06-.16.15,0,.26a1.15,1.15,0,0,1-.2.53.49.49,0,0,0-.23.2,8.79,8.79,0,0,1-.51,1.47c0,.07-.12.22-.25.43l-.24.43a1,1,0,0,1-.81.92V18Zm.53-9.11a3.87,3.87,0,0,1,.39-.79l.12-.13a1.58,1.58,0,0,0,.3-.47c.11-.13.22-.26.32-.4A3.07,3.07,0,0,1,42,3.46a2,2,0,0,1,.77.11A.67.67,0,0,0,43,3.8c.06.14.12.28.17.43l0,0A2,2,0,0,1,43,4.7c-.15.33-.31.67-.49,1a1.34,1.34,0,0,1-.37.38.3.3,0,0,0-.1.09,2.33,2.33,0,0,0-.6,1c.07.25.25.35.54.28l.36,0q.51,0,1,0a.59.59,0,0,0,.29,0c1.42,0,2.83,0,4.24-.06q.36-.09-.09-.3a5.53,5.53,0,0,1-.63-.71A1.94,1.94,0,0,1,47,6L46.3,4.87a.83.83,0,0,1,.08-.77,2.17,2.17,0,0,1,.43.2,4.49,4.49,0,0,1,1.13,1.13.92.92,0,0,0,.21.39L49,7.42v.11a.4.4,0,0,1-.24.49,1.94,1.94,0,0,1-.4-.49,3.69,3.69,0,0,1-.1.39.45.45,0,0,1-.13.1,3.86,3.86,0,0,1-2.38.63l-.26,0a3.54,3.54,0,0,1-1.12.13,1.5,1.5,0,0,0-.73,0h-.74a1.53,1.53,0,0,1-.66.1,3.86,3.86,0,0,1-1,.09,2.17,2.17,0,0,1-.5-.37,4.73,4.73,0,0,1-.48-.42A1.66,1.66,0,0,1,39.84,7,1.41,1.41,0,0,1,40.11,6.39ZM43.32.23h.54l.79.18L45.7.7c.17.05.46.15.86.3s.69.27.85.34a.2.2,0,0,1,.15.24.38.38,0,0,1-.43.38,5.55,5.55,0,0,1-1.6-.32l-.36,0a6,6,0,0,1-1.34-.43h0a3.91,3.91,0,0,0-.49.34l-.83.26A3.13,3.13,0,0,0,42,1.9a1.35,1.35,0,0,1-.37.27.81.81,0,0,1-.5-.3A.52.52,0,0,1,41,1.34,3.24,3.24,0,0,1,42.22.57a8.7,8.7,0,0,0,.87-.43h.09A.24.24,0,0,0,43.32.23Zm-.14,17.59a.32.32,0,0,1-.3-.35c0-.13,0-.33,0-.6s0-.48,0-.6V11.54a6.8,6.8,0,0,0,.09-.86c-.11-.55.07-.87.55-1a1.36,1.36,0,0,1,.92.3c0,.28,0,.55,0,.83V11c0,.35,0,.73,0,1.13a.39.39,0,0,0,0,.31c0,.19.09.39.14.6s0,.19-.06.3v.44c0,.37,0,.75.06,1.14a3.69,3.69,0,0,1-.1.39,9.5,9.5,0,0,1-.53,2.54.66.66,0,0,1-.45,0ZM46.7,18a.75.75,0,0,1-.57-.64,4.26,4.26,0,0,1-.74-1.25,8.52,8.52,0,0,0,.08-.87V15.1a5.67,5.67,0,0,0-.08-1.29c0-.26,0-.53,0-.81.05-1.07.12-2.13.19-3.18a.41.41,0,0,1,.27-.17h.68a3,3,0,0,1,.36.2,1.05,1.05,0,0,1,.18.65c0,.31,0,.55.06.74l0,0V12a2.66,2.66,0,0,0,0,.9c.05.59.09,1.18.13,1.78a8.28,8.28,0,0,0,0,1.22,2.93,2.93,0,0,1-.19.4.72.72,0,0,0,.51.39,2.57,2.57,0,0,0,.4-.06.49.49,0,0,0,.39.06,3.38,3.38,0,0,0,.61-1.09c0-.13.09-.36.16-.68s.11-.55.14-.69a1.62,1.62,0,0,1,.19-.6.25.25,0,0,1,.11.21q.06.45.09.9v.36c0,.36,0,.72-.09,1.07,0,.11,0,.22.06.33a.81.81,0,0,0-.3.79,2.54,2.54,0,0,0-.4.64,1.74,1.74,0,0,1-.58.16,5.22,5.22,0,0,1-.63.06l-.57-.31A.81.81,0,0,1,46.7,18Z"/><path class="cls-1" d="M54.59,16.06a.88.88,0,0,0-.55.13,3.6,3.6,0,0,1-1.28.75c0-.12.05-.25.07-.37s-.12-.25-.17-.38v-.05a7.24,7.24,0,0,1,.78-.68.24.24,0,0,1,.26.19l.78-.26a.16.16,0,0,0,.15-.08c0-.46,0-.93,0-1.41,0-.16,0-.21-.19-.16a.59.59,0,0,0-.28.22.37.37,0,0,1-.26.43,2.81,2.81,0,0,1-.63-.09c0-.21,0-.44-.07-.68l-.17-.37c0-.08,0-.21,0-.41,0,0,0-.07-.06-.08V11.67a1,1,0,0,0,.1-.63c0-.13,0-.39,0-.8s0-.67,0-.8v0l0-1c0-.53,0-1.08.05-1.63s-.05-1.1-.09-1.65a2.67,2.67,0,0,1,.21-1,6.77,6.77,0,0,1,.54-.86c.08-.09.17-.09.28,0s.15.08.14,0a.49.49,0,0,1,.38.34.36.36,0,0,0,.09-.42V2.41a.58.58,0,0,1-.58.06,6.34,6.34,0,0,0-1.06-.06c-.23-.14-.29-.29-.17-.45s.11-.35.34-.34l1.09-.24h.46c0-.25,0-.49.05-.71s0-.29.12-.3a1.39,1.39,0,0,1,.73.1c.32.11.49.25.53.42a1,1,0,0,0,0,.49,1.9,1.9,0,0,0,.84.08c.44,0,.68.14.73.46a.33.33,0,0,1-.13.25,5,5,0,0,1-.66.17l-.65.13c-.11-.09-.21-.07-.3.07v.88a.65.65,0,0,0,.33.09c.18,0,.26,0,.22.08a2.18,2.18,0,0,1,.64.75,1.1,1.1,0,0,0,.08.51c0,.51.05,1,.09,1.52a3.12,3.12,0,0,1-.06.41q0,.36.06.69a2,2,0,0,1,0,.55c0,.17,0,.34.08.5a5.72,5.72,0,0,1,.09,1,.77.77,0,0,1-.13.6c0,1-.07,2-.09,3.05a3.7,3.7,0,0,0-.11.8c0,.37-.13.58-.35.63l-.2-.1a.74.74,0,0,1-.51-.11,3.27,3.27,0,0,0,0-.71c-.24,0-.31.12-.21.37s-.08.67-.11,1a.72.72,0,0,0,.05.32l1.31.09c.19,0,.25.07.19.2a.2.2,0,0,0,.11.29.51.51,0,0,1-.42.17,8.68,8.68,0,0,1-1,0c-.21.05-.31.36-.3.95s-.11.93-.38,1c-.1-.12-.18-.14-.23-.05s-.16.1-.31.05A10,10,0,0,1,54.59,16.06Zm0-3.44c.09,0,.14,0,.14-.12,0-.79.05-1.57,0-2.35l0-.41,0-.37a.23.23,0,0,0-.13-.3,1.57,1.57,0,0,0-.21.17,13.86,13.86,0,0,1-.08,1.83.23.23,0,0,0,0,.09s0,0,0,0v.44l0,.9v.05A.59.59,0,0,0,54.58,12.62ZM54.7,7.9s.06,0,.06-.09c0-.25,0-.5,0-.75,0-.08,0-.29,0-.65V5.56c0-.44,0-.77,0-1s0-.17-.06-.17h0l-.3.09,0,.21.21.37c0,.1,0,.27,0,.51s0,.56,0,.74,0,.35,0,.52a.32.32,0,0,1-.13.41V7.4A.43.43,0,0,0,54.7,7.9Zm1.12,4.56.07.08c.16,0,.25-.09.26-.28s0-.32,0-.44a13,13,0,0,0,.07-1.4,3.65,3.65,0,0,0-.11-1.22.71.71,0,0,0-.23.26,4,4,0,0,1,.13.66v.17a.18.18,0,0,0-.07.16c0,.1,0,.22,0,.34s-.09.42-.14.62a1.36,1.36,0,0,1,0,.17.22.22,0,0,1,0,.08s0,.05,0,.09a2.33,2.33,0,0,1,.06.35c0,.1-.06.22-.09.34Zm.32-4.52c0-.24.07-.42.09-.54a1.36,1.36,0,0,0,0-.17v0s0,0,0-.06V6.22L56.16,6a1.57,1.57,0,0,0-.13.72,1,1,0,0,1-.08.58s0,0,0,.05a1.18,1.18,0,0,1-.1.25A.31.31,0,0,0,56.14,7.94Zm.09-3c.2,0,.29-.09.27-.28s-.07-.22-.21-.21h-.06Zm5.19,13.11A2.79,2.79,0,0,1,60,17.69a.27.27,0,0,1,.15-.15A7.41,7.41,0,0,0,63,17.15a2.2,2.2,0,0,0,.44-.17.47.47,0,0,1,.07-.17.86.86,0,0,0,.3-.3v-.28a1.49,1.49,0,0,0-.09-.84v-.92a4.59,4.59,0,0,1-.08-1,.31.31,0,0,0-.3.14H62.25a1.83,1.83,0,0,1-.45-.08,1,1,0,0,0-.9-.09c-.37-.12-.69-.23-1-.34a1.17,1.17,0,0,0-.24.22.73.73,0,0,0-.51.21,1.42,1.42,0,0,0-.8.17,1.16,1.16,0,0,1-.77.34,1,1,0,0,1,.06-.34.57.57,0,0,1-.25-.41.68.68,0,0,1,.28-.3,4.62,4.62,0,0,1,.51-.28l.51-.27c.08-.05.15,0,.21.08a5.45,5.45,0,0,1,1.51-.13l.47-.08H61l.44,0h2.34v-.6c-.06-.1.07-.13.37-.09a.85.85,0,0,0-.43-.62.18.18,0,0,0-.23.13l-.35.06a1,1,0,0,0-.33.09l-.49.13a.51.51,0,0,0-.38.13l-1,.17a.89.89,0,0,0-.38.17,3.24,3.24,0,0,0-.45.11c-.24,0-.48.1-.72.13s-.33.1-.43-.07a2.71,2.71,0,0,1-.11-.51.69.69,0,0,1-.31-.45,1.8,1.8,0,0,1,.25-.39,3.18,3.18,0,0,0,.92-.11l.82-.81.07,0,.47-.47c.23,0,.33-.14.31-.35a3.85,3.85,0,0,0-.57.11l-.43-.17A1.44,1.44,0,0,0,60,9a.8.8,0,0,0-.13.41V10l-.45.5-.47,0-.35-.06-.13-.66a3.84,3.84,0,0,1,0-.48,3.65,3.65,0,0,0-.07-.87,11.72,11.72,0,0,0,0-1.31V6.55c0-.06,0-.19,0-.39a3.68,3.68,0,0,1,0-.39c0-.28,0-.56,0-.85V4.21a6.46,6.46,0,0,0,.38-.58s.08,0,.17,0a2.45,2.45,0,0,0,.29-.29,2.85,2.85,0,0,0,.3-.35.86.86,0,0,1,.75.3,4.2,4.2,0,0,0,.64-.17A1,1,0,0,0,61.46,3l-.07-.13V2.41a1,1,0,0,0-.61-.17.41.41,0,0,0-.38.23H60l-.23-.06H58.8c-.23.06-.38,0-.46-.31a.72.72,0,0,1,0-.65A5,5,0,0,1,59,1.38a4.43,4.43,0,0,1,1-.19q.44.06.9.09a1.12,1.12,0,0,0,.49-.07.56.56,0,0,1,.27-.64,3.43,3.43,0,0,0,.72.1,1.27,1.27,0,0,1,.94.58l1.44.07a6.39,6.39,0,0,1,.92.05.59.59,0,0,1,.6.55c0,.13,0,.19-.1.18a.14.14,0,0,0-.16.14,1,1,0,0,1-.51.13h-.79a.4.4,0,0,1-.36,0A.3.3,0,0,0,64,2.5a1.31,1.31,0,0,0-.5-.08.58.58,0,0,0-.39.16V3l.1,0,.41.07a4.41,4.41,0,0,0,.89,0,2.11,2.11,0,0,1,.77.46,1.17,1.17,0,0,1,.49.7,3.53,3.53,0,0,1,0,.38c.07.29.16.57.26.86a9.5,9.5,0,0,1,0,1.2c0,.13.07.24.09.34V7.7l0,0V9a.74.74,0,0,1,0,.56c0,.18,0,.35.06.51a.56.56,0,0,1-.14.35.61.61,0,0,0-.45-.13l-.38,0a.75.75,0,0,1-.47-.82,1,1,0,0,1,0-.66l-.66,0c-.31,0-.48.06-.52.14v0l.34.26L65.54,11a1.11,1.11,0,0,1,.17.54c-.1.13-.21.29-.34.49s-.08.35.13.43a3.13,3.13,0,0,1,1.27.25.57.57,0,0,0,.09.48c0,.09-.13.15-.32.19l-.4.08a.44.44,0,0,1-.49.07.61.61,0,0,0-.39.23.08.08,0,0,0,0,.07V15l0,.41a3,3,0,0,1,0,.68.07.07,0,0,1-.06,0,1.26,1.26,0,0,1,0,.54.7.7,0,0,1-.13.17,4.55,4.55,0,0,1-.37.84,2,2,0,0,1-.5.13l-.25.14a1.54,1.54,0,0,1-.46.13l-.46.05a6.51,6.51,0,0,1-.77,0Zm-1.69-2.23c-.08,0-.13-.05-.14-.19l-.11,0a2.05,2.05,0,0,1-.27-.55A2,2,0,0,1,59,14.5a.3.3,0,0,1,.37-.2h.42a.7.7,0,0,0,.55.24l0,.06a4.3,4.3,0,0,1,.59.34,3.32,3.32,0,0,1,.43.41v0a4.2,4.2,0,0,1-.17.5.64.64,0,0,0,.08.19,2.91,2.91,0,0,1-.72.17,3,3,0,0,1-.72-.26C59.87,15.87,59.82,15.82,59.73,15.84Zm.33-10.37h1.33l0,0c0-.21,0-.44,0-.68,0-.06,0-.13,0-.2a2,2,0,0,0,0-.42A1.19,1.19,0,0,0,60.84,4a2.79,2.79,0,0,0-.44.3.48.48,0,0,0-.18-.06,1.26,1.26,0,0,0-.4.54s-.08,0-.13,0A.88.88,0,0,0,60.06,5.47Zm.25,2.43,1-.05a4.43,4.43,0,0,0,.09-1.15c-.08-.23-.27-.26-.56-.09l-.47-.06c-.42,0-.6.19-.53.55s0,.51,0,.75A.67.67,0,0,0,60.31,7.9Zm2.89,2.39h.21l0,0q0-.08,0-.21a4.16,4.16,0,0,0-.23-.71h0V9.24h0q-.08.24-.24.24a5.93,5.93,0,0,0-.81.77C62.45,10.27,62.83,10.29,63.2,10.29Zm1.17-4.82a1,1,0,0,1,.36.16h0a3.22,3.22,0,0,0,.13-1,.48.48,0,0,0-.36-.37,2.7,2.7,0,0,1-1.06,0c-.07,0-.14.14-.19.36a1.91,1.91,0,0,0-.09.45,3.58,3.58,0,0,1,.09.45Zm0,2.47a.43.43,0,0,1,.21.21c0-.29,0-.55,0-.77a6.4,6.4,0,0,0,0-.73h-.54l-.31,0c-.29,0-.43,0-.4.16a.5.5,0,0,1-.13.38,5.37,5.37,0,0,0,.11.7Z"/><path class="cls-1" d="M70,13.12h2.66V15a3.42,3.42,0,0,1-2,3.32L70,17.65a2.72,2.72,0,0,0,1.37-2.08H70Z"/><path class="cls-1" d="M78,4.57c-.25-.07-.54-.13-.86-.19s-.58.11-.91.2-.52,0-.57-.31a.42.42,0,0,1-.17-.36.69.69,0,0,0,.1-.21c.29-.08.63-.17,1-.24a4.18,4.18,0,0,1,2-.31c.72.06,1.4.1,2.05.14a.7.7,0,0,1,.6.24.12.12,0,0,0,0,.17v.51a.82.82,0,0,1-.68.17q-.06.29-.3.3c-.17-.19-.41-.21-.74-.08A1.15,1.15,0,0,0,79,4.47c-.06-.1-.13-.08-.21,0s-.16.16-.22.08A1.23,1.23,0,0,0,78,4.57ZM75.64,10c0-.2-.07-.4-.11-.6a.48.48,0,0,1,.64-.37l.6-.19a4.44,4.44,0,0,1,.61-.15.51.51,0,0,0,.3,0l.91.13,1.49-.05.45.13q.77-.12.81.48c0,.4-.08.49-.37.25a.3.3,0,0,0-.32.24,2.18,2.18,0,0,0-1.16,0,2,2,0,0,1-1.13,0,.32.32,0,0,0-.24.26q0,.21-.21.21a.56.56,0,0,0-.17-.09C77,10.17,76.31,10.09,75.64,10Zm.78,7.88a7.68,7.68,0,0,1-.42-.81v-.34l-.09,0a1.31,1.31,0,0,0,.2-.55l0-.05,0-.08v0s0-.06,0-.09l0,0V15.2s0-.07-.09-.06a.38.38,0,0,0,.09-.13l0-.26,0-.43c0-.14,0-.28-.07-.43a1.93,1.93,0,0,1,0-.27v0a.57.57,0,0,1,0-.14l0,0s0-.06,0-.12l0-.22.06-.66,0,0a.08.08,0,0,1,0-.09s0-.06.06-.08a1.89,1.89,0,0,1,.23-.8s0,0,0,0,.16-.06.17-.19a.51.51,0,0,1,0-.2.35.35,0,0,1,.16-.08.33.33,0,0,1,.14,0l.13-.13.08,0,.26.2c.06,0,.09.05.08,0l.09-.25,0,0a.4.4,0,0,0,.11.12v0a.7.7,0,0,0,.23-.06h0a.14.14,0,0,1,.09.08.2.2,0,0,0,.08-.13.31.31,0,0,1,.09.13.24.24,0,0,1,.1-.1.35.35,0,0,0,.09.06l.08,0h0l.08,0,.09,0,.08,0,.26.12.08,0a.8.8,0,0,0,.13-.13.31.31,0,0,0,.1,0l0,0h0l.1.09.07,0,.08,0h0l.08,0,.06,0h0a.29.29,0,0,1,.18-.11v.18l.14-.07.07.17.1-.13a7.53,7.53,0,0,1,.41.93l0,.34v.08c0,.15.12.22.31.22-.07,0-.1,0-.1.08s.07.1.13.09a2.11,2.11,0,0,1,.1.3,1.45,1.45,0,0,1-.11.29l-.1.27c.06,0,.1,0,.11,0a.92.92,0,0,1-.13.21l.1.09c0,.2-.09.41-.14.64s0,.25.17.28V15a.41.41,0,0,1-.11.42,1,1,0,0,1,.17.3c0,.12-.08.24-.11.35s.1.12.09.25,0,.51,0,.77,0,.32-.13.37,0,.35-.07.52a.46.46,0,0,0-.14-.16l0,.16,0,0-.1,0h0c0,.09,0,.15-.08.17a.12.12,0,0,1-.06-.13l-.13.13L80.14,18a.64.64,0,0,1-.1.13A.33.33,0,0,0,80,18c0,.06,0,.09-.08.09l-.06-.05-.17-.21.06,0q0-.22-.06-.24v-.06a.36.36,0,0,0,.08-.09.5.5,0,0,0-.11-.19l-.12,0-.11-.13-.08,0a.19.19,0,0,0-.09,0h0l-.07,0c-.06,0-.09,0-.12-.1a.36.36,0,0,1-.26.1l-.08,0a.35.35,0,0,1-.09.07l-.23-.13h0a.3.3,0,0,1-.09.13,3.93,3.93,0,0,0-.63-.2,1.7,1.7,0,0,0-.35.37l-.12.47h-.09a.4.4,0,0,1-.1.3L76.68,18c-.13,0-.18,0-.17-.13ZM76.25,7a1.21,1.21,0,0,0,0-.41l-.1-.11A4.7,4.7,0,0,1,76.27,6c.76,0,1.51-.08,2.24-.17h.59a.8.8,0,0,1,.66,0,.49.49,0,0,0,.58,0,1.27,1.27,0,0,0,.17.4.1.1,0,0,1,.06.15A.52.52,0,0,1,80,7a.74.74,0,0,1-.71.11,2.41,2.41,0,0,0-.44.08l-.11-.08A18.06,18.06,0,0,0,76.25,7Zm.83-5a2,2,0,0,1-.4-.19l-.09-.28a.39.39,0,0,1-.17-.39c-.27-.12-.26-.25,0-.42a1.22,1.22,0,0,1,.48-.13,2.19,2.19,0,0,1,.81,0h.47a17.37,17.37,0,0,0,2.51,0,.53.53,0,0,0,.33.24.35.35,0,0,1,.28.31.38.38,0,0,1-.27.46c0-.05-.12,0-.22,0s-.16.06-.21,0l-.47.14a.72.72,0,0,0-.7,0,3.79,3.79,0,0,1-.49,0c-.07,0-.12,0-.16-.07,0,.11-.12.2-.34.26a2.16,2.16,0,0,0-.94-.09A.85.85,0,0,1,77.08,2Zm1.26,14.19a3.36,3.36,0,0,1,.47-.13c.47.21.73.1.78-.35a10.83,10.83,0,0,0,.07-1.22.87.87,0,0,1,0-.42,5.57,5.57,0,0,1,.19-.76.54.54,0,0,1,0-.55.57.57,0,0,1,.14-.52,3,3,0,0,0-1.4-.4,1.36,1.36,0,0,0-1.17.4c0,.17-.08.25-.11.22s-.06,0-.06.13a.51.51,0,0,1,.07.5.61.61,0,0,0,.06.52v1.05a.34.34,0,0,0,0,.16c0,.38.07.75.08,1.11a.36.36,0,0,0,.51.17Zm6.4,2.29a3.24,3.24,0,0,1-1.36-.17,2,2,0,0,1-.69-.3l.09,0a.27.27,0,0,1-.15-.13h.11a.12.12,0,0,1-.09-.11s0-.06.09-.06l-.22-.09a6.12,6.12,0,0,1,1,0,1,1,0,0,0,.56-.2h0l.08,0,.11,0,.11,0a.79.79,0,0,0,.42-.29.1.1,0,0,1,.08,0A.16.16,0,0,1,85,17l.09.09.19-.05a.2.2,0,0,1,.17,0,.15.15,0,0,1,.1-.07l.07,0a.88.88,0,0,1,.12-.17h0l.07,0c.15,0,.24-.05.27-.17h0a.1.1,0,0,1,.06.1c0-.11.07-.21.1-.3h.07a.86.86,0,0,1,.17-.15v.05h.06a2.35,2.35,0,0,1,.34-.43l-.13-.18V14.9l-.14-.34.1-.09v-.3l0-.12a2.11,2.11,0,0,0-.17-.22q0-.16,0-.24h.1v-.45h-.13v-.62a.28.28,0,0,0,.08-.22,1.57,1.57,0,0,0,0-.27,3.7,3.7,0,0,0,.14-.49h-.12c0-.24,0-.47,0-.71a.56.56,0,0,0-.1-.15,2.29,2.29,0,0,1,.1-.23,4.64,4.64,0,0,0,0-.76c.09,0,.15,0,.17-.12v0q0-.18,0-.3s-.09-.06-.14-.16,0-.07,0-.08a.09.09,0,0,1-.1,0s0,0-.11-.1a1.71,1.71,0,0,0-.49-.07h-.25l-.07,0h0l-.21,0L85.2,9a1.43,1.43,0,0,1-.15-.18,1,1,0,0,0-.23.16.16.16,0,0,1-.11,0,.32.32,0,0,1-.33.2c.06.09,0,.15-.09.19L84,9.18l-.19.07a.18.18,0,0,1-.11-.13.12.12,0,0,1-.08.06.38.38,0,0,0-.09-.09c0,.05,0,.06-.08.05l-.11-.05h0l-.09,0a.29.29,0,0,0-.08-.07l-.09,0-.08,0,0,0h0L82.5,9l-.1,0-.09,0a1.56,1.56,0,0,1-.55-.1l-.06,0a2.41,2.41,0,0,0,0-.6c-.15.07-.21,0-.18-.17a.45.45,0,0,1,.09-.25L81.7,8V8c.17,0,.32-.06.46-.09h0l.09,0,.08,0a.16.16,0,0,1,.09,0l0-.09H83a.16.16,0,0,1,.11,0h0l.08,0a2.29,2.29,0,0,0,.34-.07.28.28,0,0,0,.09-.1l.08.06c.22,0,.37,0,.43-.23h0a.18.18,0,0,1,.11.13l.06,0,.09.09a.16.16,0,0,0,.08-.06.44.44,0,0,1,.28.27.18.18,0,0,1,0-.1l.13,0,0,0h0l.09.06a.21.21,0,0,0,.08-.06h0l.13,0,.1,0,0,0a.1.1,0,0,1,.08,0,1.14,1.14,0,0,1,.3,0,.26.26,0,0,1,.1-.07l.13,0,0,0h0l.19,0q.18,0,.15-.24l0,0a.46.46,0,0,1,.12.23.51.51,0,0,1,.17-.44,7.65,7.65,0,0,1,.09-1.16H87a1.43,1.43,0,0,0,.27-.35.3.3,0,0,1,0-.1.64.64,0,0,1-.55.17l-.34-.07H86.2a.14.14,0,0,1-.08.13h0a.86.86,0,0,0-.07-.1l-.29.1a.55.55,0,0,1-.45-.23,1.55,1.55,0,0,1-.49,0,2.6,2.6,0,0,0-.49.47,1.11,1.11,0,0,1-.53.1L83.33,6l-.42.13a7.47,7.47,0,0,1-.94.09l-.27-.09-.11.09-.09,0,0,0h0l-.13,0a2.46,2.46,0,0,0-.32.19.2.2,0,0,0,0-.17l-.1.07,0,0c0-.16,0-.44,0-.84V5.24a.57.57,0,0,1,.47-.52s0,0,.06,0,.07-.12.22-.19a.18.18,0,0,1,.17.06.14.14,0,0,1,.08-.13h0l.07.09a1.07,1.07,0,0,0,.32-.18l0,0,.06,0,.08,0v0l.17.09h.08a1.09,1.09,0,0,0,.17-.13H83c.22,0,.44-.1.66-.13a.12.12,0,0,1,.15.07.14.14,0,0,1-.08.12,2.52,2.52,0,0,1,.36.33h0l.08,0,0,0h.1s.14-.1.36-.15a1.5,1.5,0,0,1,0-.24.73.73,0,0,1,.09-.08v0A1.87,1.87,0,0,0,84.57,4a1.35,1.35,0,0,1,.17-.32V3.57a.15.15,0,0,1-.09.06.7.7,0,0,1-.13-.26.12.12,0,0,1,0-.09l.06-.08a.3.3,0,0,1,.1-.34.09.09,0,0,1,0-.15l-.17.07a.13.13,0,0,1-.1-.13.61.61,0,0,1-.26.21,1.21,1.21,0,0,1-.25-.17.11.11,0,0,0-.09,0,.38.38,0,0,0-.08-.13l-.09.09a.07.07,0,0,0-.06,0,.19.19,0,0,0-.11.08s0-.06-.08-.08a1.29,1.29,0,0,0-.28.08h0l-.09,0,0,0h0l-.32-.08a.38.38,0,0,0-.13,0v0a.76.76,0,0,0-.3.12L82,2.6c-.05.12-.13.17-.24.13a.55.55,0,0,1-.13-.34V2.26l.09-.17a2.9,2.9,0,0,0-.06-.41,2.76,2.76,0,0,1,.31-.3l.09.07a.2.2,0,0,0,.11,0l.1,0,.09,0,.12,0a.1.1,0,0,0,.07,0s0,0,.06,0l.13-.07.55-.1A1.38,1.38,0,0,1,83.86,1h.07l.13,0,0,0h0a.42.42,0,0,1,.15.17s0-.06.06-.06a.07.07,0,0,1,.07.06s0-.06,0-.09,0-.09-.13-.08a.59.59,0,0,0,.17-.13l0-.09a.8.8,0,0,1,.17-.21l0-.15c0-.09,0-.18,0-.26V.12c.11-.16.64-.16,1.57,0,.09,0,.17.1.26.41l0,.12a2.64,2.64,0,0,0,.2.6c0-.13.08-.18.19-.17h.12a.11.11,0,0,1,0,.15l.13-.11.19.18a1.5,1.5,0,0,0,.32-.09c.08,0,.11,0,.08.11l.36.06h.07l.06-.1a.18.18,0,0,1,.11.12h.17l.29,0a2,2,0,0,1,.36.2.19.19,0,0,0-.08.1l0,.07a.13.13,0,0,1,0,.1h.1a.42.42,0,0,1-.19.26s0,0-.08-.06a1.2,1.2,0,0,1-.17.21h0v.06a.58.58,0,0,0-.34.2H88l0,.08a.07.07,0,0,0-.07,0,.28.28,0,0,1-.1.09,1.44,1.44,0,0,1-.24-.09.14.14,0,0,0-.12.09h-.28c0,.08,0,.11-.1.1l0,0L87,2.6l-.07,0c-.27.08-.37.22-.32.43a.66.66,0,0,1-.15.59.24.24,0,0,1,.13.07,2.1,2.1,0,0,1-.13.26l0,.3a.35.35,0,0,1,.17.21.52.52,0,0,0,.17-.13.29.29,0,0,0,.22.22l.12-.13a1,1,0,0,1,.34.13.66.66,0,0,1,.34,0l.07-.06a.08.08,0,0,1,.06,0h0l0,0a.13.13,0,0,0,.1,0l0,.08v0l.13-.07s.07,0,.07,0,0-.09.1-.07l.24.07a1.36,1.36,0,0,1,.12-.17h0a1.06,1.06,0,0,0,.26.13,1.21,1.21,0,0,0,.34-.07l0,.16.09,0q0,.09.06.09h0a.26.26,0,0,0,.09-.09.26.26,0,0,1,.25.22l.17.55.09.09-.09,0-.17.2a.5.5,0,0,1-.27.17l-.17-.13-.17.13h0a.29.29,0,0,0-.08-.07,1.64,1.64,0,0,0-.28.07l-.1,0c0,.06,0,.09-.07.09l-.47-.13-.1,0v0h-.1a.34.34,0,0,0-.16,0c.11,0,.17.16.17.37A.52.52,0,0,1,88.2,6c0,.06.16.11.38.13a.5.5,0,0,0,0,.13h0l.08,0h0a6.38,6.38,0,0,1,.09,1.22.3.3,0,0,1,0,.1,1,1,0,0,0,0,.24l.15,0a.07.07,0,0,1,.06,0,.17.17,0,0,1,.1-.07.52.52,0,0,1,.24.07v.47a2.15,2.15,0,0,1-.21.39c0,.05,0,.08-.07.08s0,0-.06,0c-.09.25-.18.51-.26.77l0,.07h0l0,.05a.63.63,0,0,1,.13.56v.34a.05.05,0,0,0,0,0,1.12,1.12,0,0,1,0,.13.53.53,0,0,1-.13.13l.08,0a1.44,1.44,0,0,1,0,.34v.13a.53.53,0,0,1-.09.47.31.31,0,0,1,.09.11v.06c0,.13,0,.23,0,.28l-.12.13s0,0,0,0h.12a.58.58,0,0,1,0,.22,1.13,1.13,0,0,1-.17.81l0,0,.1.18a1.65,1.65,0,0,1,.09.21v1.44a.77.77,0,0,0,.12.13l0,0-.1.21a1.18,1.18,0,0,0,0,.19c0,.3-.06.6-.1.9a1.38,1.38,0,0,1,.14.24v0c0,.25-.15.4-.29.45a.72.72,0,0,0-.3.39.06.06,0,0,0-.06,0,2.8,2.8,0,0,0-.58.43,2.32,2.32,0,0,1-.91.15.05.05,0,0,0,0,0h0a1.23,1.23,0,0,1-.64.3,1.67,1.67,0,0,1-.44-.17,2.2,2.2,0,0,0-.53-.06A1.93,1.93,0,0,1,84.74,18.46Zm-.51-3.6a2.27,2.27,0,0,1-.43-.77c-.11,0-.17-.11-.17-.26a6.44,6.44,0,0,1-.51-.92.13.13,0,0,0-.13-.06,1.46,1.46,0,0,0-.3-.63,1.16,1.16,0,0,1-.29-.51.38.38,0,0,1,.21-.37c-.15,0-.19-.06-.12-.17a1.26,1.26,0,0,1,.2-.27l.34.23a3,3,0,0,1,.64.24c.14,0,.19.07.17.27a.6.6,0,0,1,.51.46.16.16,0,0,0,0,.12l.32.26a1.72,1.72,0,0,1,.36.34,1.93,1.93,0,0,1,.26.54.75.75,0,0,1,.34.47l0,.43a2.17,2.17,0,0,0-.57.47.87.87,0,0,0-.55.21.23.23,0,0,0-.11-.14A.21.21,0,0,1,84.23,14.86Zm3.06-8.94a.38.38,0,0,0,.1-.13s0,0,0,0Z"/><path class="cls-1" d="M92.88,9.5c.43-.3.86-.61,1.29-.94a.62.62,0,0,0,.26.09A4.9,4.9,0,0,0,95,8.52h.64l.43,0,.46,0,0,0,.87.09H98a.45.45,0,0,1,.47.28c0,.15-.05.3-.08.44a.94.94,0,0,1-.9.35,1.45,1.45,0,0,1-.85-.17.2.2,0,0,1-.23.12,2.56,2.56,0,0,1-.79-.12l-.44-.22a.36.36,0,0,0-.34.34,10.33,10.33,0,0,0-.92.6,1.27,1.27,0,0,1-.7.2A.39.39,0,0,1,93,9.93C92.92,9.87,92.87,9.72,92.88,9.5Zm1-5.68H93.6a1,1,0,0,1-.17-.55.71.71,0,0,1,.64-.43h.78a.69.69,0,0,1,.39-.07l1.06.07a.23.23,0,0,0,.17,0h1l.08,0H98a.54.54,0,0,1,.39.26.84.84,0,0,1-.49.81l-.43-.09-.36.05-.44-.05-.24.09a2.64,2.64,0,0,0-.42-.23l-.53.3c.06.07,0,.11,0,.14l-1-.34Zm-.17,2.25c0-.27,0-.42.24-.47l.4,0,.39-.08.42-.09.23.13,1.37,0h1c.64.17.71.42.21.73a1.87,1.87,0,0,1-.63.24.32.32,0,0,1-.43.13,3.12,3.12,0,0,0-.49.06l-.87,0h-.36a1.19,1.19,0,0,1-.41,0,5.42,5.42,0,0,1-.89-.13.66.66,0,0,0-.15-.36Zm.64,11.6a1.55,1.55,0,0,1-.3-.33v-.08c0-.16,0-.32,0-.47a6.57,6.57,0,0,1,0-.71,5.88,5.88,0,0,1,0-.69.24.24,0,0,1-.06-.21c0-.23,0-.44.06-.64V12a.64.64,0,0,0,0-.47.65.65,0,0,1,.28-.62,1.32,1.32,0,0,1,.72-.73.67.67,0,0,1,.49.3.69.69,0,0,1,.38-.17.4.4,0,0,0,.37,0,1.62,1.62,0,0,1,.44,0,.15.15,0,0,1,.11-.06l.44.13.13,0a.77.77,0,0,1,.47.51,3.11,3.11,0,0,1,.13.71,1.09,1.09,0,0,1,.34.43c0,.5.08,1,.08,1.47,0,.2.08.4.13.62s-.06.45-.09.67l.15.66a.53.53,0,0,0,0,.37c0,.13,0,.26,0,.4a1.42,1.42,0,0,0,.17.76.33.33,0,0,0-.22.37.27.27,0,0,1-.25.33,2.43,2.43,0,0,1-.32.24,1.24,1.24,0,0,1-1.08-.47A.79.79,0,0,0,96.2,17a.28.28,0,0,1-.34-.06.93.93,0,0,0-.37.27.19.19,0,0,1-.1.3.45.45,0,0,1-.36.39,3.37,3.37,0,0,1-.32-.19A.58.58,0,0,0,94.3,17.67Zm0-16a.58.58,0,0,1-.34-.41.29.29,0,0,1,.23-.43l.77-.23a2.34,2.34,0,0,0,.68-.13l.32.19.51-.06h.23l.95,0c.43,0,.68.16.73.41a.51.51,0,0,1-.4.36.54.54,0,0,1-.41.26.38.38,0,0,0-.4,0l-.42-.09s-.07,0-.09.05a2,2,0,0,1-.57.1.35.35,0,0,1-.28-.1.7.7,0,0,1-.44.17l-.6-.22Zm1.51,14,.38-.13c.32.07.48,0,.47-.24a2.41,2.41,0,0,1,.07-.7,5.51,5.51,0,0,0-.07-.71,1.27,1.27,0,0,1,0-.34V12.09c-.07-.18,0-.3.2-.38a.44.44,0,0,0-.37-.36q-.14.11-.21.06l-.47-.09a.17.17,0,0,0-.14.13.66.66,0,0,0-.34.52,2.05,2.05,0,0,0,.17.83s0,.12,0,.2l0,.45q0,.12,0,.21l0,.83v.43c0,.06,0,.14,0,.22A.52.52,0,0,0,95.79,15.65Zm3.49.24a9.42,9.42,0,0,1,.47-1.14,20.09,20.09,0,0,0,.85-2.66,3.71,3.71,0,0,0,.31-1.11c.07-.15.14-.31.2-.47s.07-.18.14-.17a2.82,2.82,0,0,0,.43,0,2.17,2.17,0,0,0,.34.22,1.27,1.27,0,0,1,.72.34v.21a1.49,1.49,0,0,1-.17.73,1.08,1.08,0,0,1-.21.84,3.17,3.17,0,0,1-.2.7,2,2,0,0,1-.31.65c-.11.23-.23.45-.36.68a6.84,6.84,0,0,1-1,1.48,2.6,2.6,0,0,0-.38.51l-.6.6a.71.71,0,0,1-.57.39,1.06,1.06,0,0,1-.36-.09ZM107,18.14l-.93.15h-.7l-.56-.15a2.11,2.11,0,0,1-1.1-1.1,2,2,0,0,1-.3-.42,1.14,1.14,0,0,1,0-.47c0-.23,0-.48-.09-.73,0-.05,0-.1,0-.17a2.55,2.55,0,0,0,.09-.45c0-.18,0-.37-.09-.56s.07-.55.09-.88-.08-.65-.13-1v-.47a7,7,0,0,0,0-1.3.6.6,0,0,1,.74-.48,2.44,2.44,0,0,0,.54,0,1.81,1.81,0,0,1,.42.16l.06-.16a1,1,0,0,0-.55-.51,5.45,5.45,0,0,0-1.4.19l-.7-.12c-.12,0-.19.08-.19.18s-.12.17-.36.18L101,9.87c-.19.05-.28.28-.28.67s-.1.61-.31.66a.42.42,0,0,1-.37-.13c-.33,0-.48,0-.44,0a3,3,0,0,0-.41-.37.39.39,0,0,0,0-.53,2.43,2.43,0,0,1,0-.69c0-.23,0-.45,0-.68a.26.26,0,0,0,0-.22V6.87a9.54,9.54,0,0,1-.12-1.52V4.83l.25-.25a2.36,2.36,0,0,1,.64-.9.68.68,0,0,0,.36-.24l.51.34a.61.61,0,0,0,.42-.21l.51,0c.32,0,.64-.07,1-.08s.46,0,.72.06a.78.78,0,0,0,.28-.06h.6a1.27,1.27,0,0,0,.6.09,1.45,1.45,0,0,0,.61-.18c.22.06.48.34.79.83a5.13,5.13,0,0,1,.55,1.08.14.14,0,0,0-.07.15c0,.19.07.36.11.53a.53.53,0,0,0,0,.16,3.47,3.47,0,0,1,.06.45.17.17,0,0,0-.06.12,2.74,2.74,0,0,0,.1.41.09.09,0,0,0-.06.11c0,.19.07.37.1.55s-.06.3-.1.45a1.23,1.23,0,0,1,0,.76c0,.17.07.33.1.49a.62.62,0,0,0,.09.6c-.08.14-.15.29-.23.45a.49.49,0,0,1,.06.17.68.68,0,0,1-.57.69.31.31,0,0,0-.3.14l-.48-.21a3,3,0,0,0-.43-.17,14.58,14.58,0,0,0,0,2.19c.06.24.12.47.17.7l-.13.57a1.44,1.44,0,0,0,0,.65,1.34,1.34,0,0,0,.1.67v.6a.71.71,0,0,0,.62.26h.19c.14-.27.26-.55.38-.85a.15.15,0,0,1-.1-.09l.23-.49a7.5,7.5,0,0,1,.11-.81l.27-.6a6.39,6.39,0,0,0,.43-.88c.08-.08.14-.07.21,0a11.86,11.86,0,0,1,0,1.69,12,12,0,0,0,0,1.7,1.54,1.54,0,0,0-.06.51c0,.1,0,.18,0,.24a.87.87,0,0,1-.43.81A.21.21,0,0,0,107,18.14Zm-7-15.51a.49.49,0,0,0-.13-.43v0l-.06-.43c0-.21-.06-.36-.07-.42V1.19A.45.45,0,0,1,100,.61a3.86,3.86,0,0,1,.47.17,7.23,7.23,0,0,1,.61.41,1.93,1.93,0,0,1,.71,1.05.53.53,0,0,1-.64.53,1,1,0,0,1-.32.2,1.84,1.84,0,0,1-.41.17h-.12a1.88,1.88,0,0,1-.24-.36C100.13,2.62,100.09,2.57,99.92,2.63Zm3.25,5.71h.64a3.73,3.73,0,0,1,.74,0,.44.44,0,0,0,.42-.23A10.83,10.83,0,0,1,105,7V5.86c.11-.16.22-.35.34-.56a1.63,1.63,0,0,0-.4-.58,1,1,0,0,1-.43.06l-.48,0-.41.08a2.55,2.55,0,0,0-.91,0,1.84,1.84,0,0,1-.72-.13,1.09,1.09,0,0,0-.37-.19l-.1,0a1.93,1.93,0,0,0-.41.64c-.22.13-.4.25-.55.33a6.6,6.6,0,0,0,.21.71,3.45,3.45,0,0,1,.07.85c0,.09,0,.17-.07.24a1.33,1.33,0,0,0,.13.53,2.9,2.9,0,0,0,.62.5h.57l.07,0,.91,0ZM104,2.2A8.09,8.09,0,0,1,105.38.65c.24-.29.5-.27.78.07a2.1,2.1,0,0,1,.34,1,1.11,1.11,0,0,1-.38.85.33.33,0,0,1-.47.06,1.15,1.15,0,0,0-.5-.16l-.75.27a1.22,1.22,0,0,1-.42-.4A.13.13,0,0,1,104,2.2Z"/><path class="cls-1" d="M111.24,17.73a.45.45,0,0,1,.26-.51,12.9,12.9,0,0,1,2-1.25h.1a1.42,1.42,0,0,1,.54.35s0,0,.06,0a2.93,2.93,0,0,1,1.4-.27,12.23,12.23,0,0,0,1.49,0,.27.27,0,0,0,.3-.11,2.77,2.77,0,0,0,.1-1c0-.54,0-1.07-.06-1.58a.25.25,0,0,0-.09-.19l-.76.1-.72,0-.68,0a2.09,2.09,0,0,1-.34,0l-.49.13c-.25,0-.38-.13-.38-.36-.2,0-.3-.05-.3-.22a.46.46,0,0,1,.44-.58,4.6,4.6,0,0,0,.94-.34,2.31,2.31,0,0,1,.43.08l.4-.08c.28,0,.42.09.44.3h1.15a.61.61,0,0,0,0-.41c0-.45,0-.91-.09-1.37a.32.32,0,0,0-.17.06h-1.68a.85.85,0,0,0-.36.26h-.32a1,1,0,0,1-.79-.17.29.29,0,0,0-.1-.17c-.07.14-.16.28-.24.41a.61.61,0,0,0-.21.27c-.06.14-.07.12,0,0a1.66,1.66,0,0,0-.55.86c-.14,0-.2.08-.19.21a4.67,4.67,0,0,1-1.2,1.23,1,1,0,0,1-.48.44,1,1,0,0,1-.37-.25.35.35,0,0,1,0-.13l1.55-3.09a4.73,4.73,0,0,1,.44-.94l.39-.53a5.39,5.39,0,0,0-.39-.8,5.63,5.63,0,0,1,0-.71V4.94s0-.06,0-.07c0-.77,0-1.52,0-2.27a.46.46,0,0,1,0-.19,1.58,1.58,0,0,1,.21-.81,1.06,1.06,0,0,0,.17-.26c.17-.16.35-.33.52-.51l.48-.35a3.47,3.47,0,0,1,.43.35.75.75,0,0,0,.45.34c.23,0,.36-.09.38-.23a1.48,1.48,0,0,1,.11-.37,1.65,1.65,0,0,1,1-.17l1.56,0,1.31,0,.56,0,.42,0a5,5,0,0,1,1.38.17.33.33,0,0,1,.22-.17.79.79,0,0,1,.55.17l.77.86a.47.47,0,0,1,0,.4,2.11,2.11,0,0,1,.17.5,1.15,1.15,0,0,1,.45,1.16,3,3,0,0,0,0,1.36,2.69,2.69,0,0,1,.19.54,1.72,1.72,0,0,1-.3.55c.17.06.23.22.18.47a1,1,0,0,0,0,.56c0,.28,0,.56,0,.83a1.51,1.51,0,0,1-.13.74c-.08-.1-.18,0-.27.17s-.23.31-.41.28l-.58-.19a.61.61,0,0,1-.42,0V8.07a1,1,0,0,0-.73,0l-.66-.14-.42.1a4.49,4.49,0,0,0-.91-.06l-.56.1L118,7.9c-.33,0-.51.07-.55.3l-.74,0-.43.09-.72-.19a4.19,4.19,0,0,1-.49.1l-.51,0q-.2,0-.15.21a.59.59,0,0,1-.35.3.41.41,0,0,0-.29.3c-.21,0-.24,0-.1.09l.7.64a1.9,1.9,0,0,0,.38-.13,3.38,3.38,0,0,0,1.51-.64h.07a1.2,1.2,0,0,1,.5.47v0h.69a3.27,3.27,0,0,1,.17-1.06c0-.17.13-.27.34-.3a1.83,1.83,0,0,0,.74.21,1.8,1.8,0,0,1,.91.35,1.94,1.94,0,0,0,0,.67l1.13.05,1.12,0h1c.09,0,.12,0,.08,0a1.4,1.4,0,0,1,.7.26,1.62,1.62,0,0,0-.15.56s-.1,0-.15.08l-.74,0-.23.06H121a.24.24,0,0,1-.14.08l-.43-.1c-.27.05-.54.1-.81.13a6.17,6.17,0,0,0-.1,1.41V12a.7.7,0,0,0,.44.07,2.4,2.4,0,0,0,.42,0l.42,0h1.88a1.43,1.43,0,0,1,.73.16.57.57,0,0,0-.13.43,1.41,1.41,0,0,1-1,.38l-1.36-.1a8.58,8.58,0,0,0-1.23.06c-.11.1-.15.19-.13.28,0,.4,0,.79.06,1.16s0,.5-.06.73a1,1,0,0,0,1.23.73c.21,0,.58,0,1.09,0s.89,0,1.1,0a1.81,1.81,0,0,0,.44.09h.43a2.36,2.36,0,0,1,.51.2c.28.09.34.27.19.53a.9.9,0,0,1-.1.35l-.34.25h0l-1.68-.13H122a2.17,2.17,0,0,0-.53.13H121c-.51,0-1,0-1.52-.06s-.89.05-1.35.06l-.87,0h-.06l-.57.06h-.13l-.91,0a.69.69,0,0,1-.34-.28.59.59,0,0,0-.43-.28h0l-.53.17a.24.24,0,0,0-.07.18l-.47.12a1.48,1.48,0,0,1-1.08.48,2.42,2.42,0,0,0-.74.34l-.43,0A.86.86,0,0,0,111.24,17.73Zm4.05-14.16h.27l1.28,0h.66a2,2,0,0,0,.59.06,1.32,1.32,0,0,0,.36-.06l1.6,0c.6,0,1.19.07,1.8.09.42-.09.6-.38.53-.9a1.63,1.63,0,0,0,.13-.32,3.05,3.05,0,0,0-.31-.47,4,4,0,0,0-.43-.48,1,1,0,0,1-.63.33,5.06,5.06,0,0,1-.75.08.07.07,0,0,1-.09,0,4.14,4.14,0,0,0-.45,0,6.28,6.28,0,0,0-1.06.14,1.43,1.43,0,0,1-.74,0,.93.93,0,0,0-.64,0h-.49a5.26,5.26,0,0,1-.89,0,2.08,2.08,0,0,1-.34-.44,1.74,1.74,0,0,0-.3.31l-.27.33-.39.26a.26.26,0,0,1-.27.23c0,.16,0,.31,0,.45s.08.35.12.49C114.84,3.53,115.07,3.56,115.29,3.57Zm5.9,3.23a3.86,3.86,0,0,0,.52-.06c.24,0,.38-.1.4-.2l.1-1.21a.75.75,0,0,1,0-.26,1.21,1.21,0,0,1-.36-.17.2.2,0,0,1-.21,0,.82.82,0,0,0-.45-.13,1.6,1.6,0,0,1-.91,0,4.87,4.87,0,0,1-.55,0V4.58a1.79,1.79,0,0,1-.6.23c-.09-.08-.14-.1-.17-.08a1.67,1.67,0,0,1-.43-.09c-.09.15-.19.19-.29.1s-.17-.08-.22,0h-.48l-.13,0a4.1,4.1,0,0,0-.56.17h-.23l-.7-.1a1.23,1.23,0,0,1-.68.13,1.59,1.59,0,0,1-.51.13,1.56,1.56,0,0,0-.17.62.48.48,0,0,1,0,.25v.5a.52.52,0,0,0,.49.27l.46-.06,1.07.06c.47,0,1,0,1.44,0a2.38,2.38,0,0,0,.81.07h.45Zm-3.25-2-.06,0,.13,0C118,4.82,118,4.84,117.94,4.83Z"/><path class="cls-1" d="M134.31.48a2,2,0,0,0,.55.5c.26,0,.5-.06.71-.07l.58,0a2.24,2.24,0,0,0,.58,0l.34-.23a.35.35,0,0,0,.26.1l.68.6a7.9,7.9,0,0,0,.57.86,1.8,1.8,0,0,1,.39.88c0,.11,0,.23-.05.34a.48.48,0,0,0,.56.24.49.49,0,0,0,.7-.05,1.49,1.49,0,0,1,1.08.73,2.26,2.26,0,0,1,.07.43.37.37,0,0,1,.14.43.47.47,0,0,0,.31.41.5.5,0,0,1,.29.45,3.82,3.82,0,0,0-.11.55A.34.34,0,0,0,142,7V7.6a.35.35,0,0,0,0,.23c0,.24,0,.49,0,.75s-.05.49-.07.73a.24.24,0,0,0,.07.13s-.07.07-.11.27a.94.94,0,0,1-.19.46l-.13.1a.65.65,0,0,1-.21.56.92.92,0,0,1-.6-.19,5.14,5.14,0,0,1-.23-.47c0-.06,0-.13,0-.2a11.81,11.81,0,0,1-.13-1.47l-.08-.05h-.49v.13a.72.72,0,0,1,.3.3.28.28,0,0,1,0,.13,4.67,4.67,0,0,0-.08.83,1.51,1.51,0,0,0-.6.37.51.51,0,0,0-.35.2c-.11.12-.21.13-.31,0a1.68,1.68,0,0,1-.55-.3,1.3,1.3,0,0,1-.23-.7.32.32,0,0,1,0-.3l.48-.3.47-.3a2.71,2.71,0,0,0,.39-.17q0-.1-.09-.09l-.53.09a.6.6,0,0,1-.45-.09l0,.09a3.86,3.86,0,0,0-1.13.17,4.85,4.85,0,0,1-1,0,.68.68,0,0,1-.56-.05c-.18-.09-.23,0-.15.31a4,4,0,0,1,1.15.86,3.23,3.23,0,0,1,.23.27,2.81,2.81,0,0,0,.2.6c.26-.07.45,0,.6.34s.2.5.16.61c-.09.3-.18.61-.28.92,0,.1,0,.3,0,.58s0,.5,0,.62v.13l0,2.4a.92.92,0,0,1-.51.9.93.93,0,0,0-.36.23.84.84,0,0,1-.38.43,2.16,2.16,0,0,0-.36,0,11.74,11.74,0,0,0-1.21.21h0a1.51,1.51,0,0,1-.87.24.31.31,0,0,0-.38,0h-.7a3,3,0,0,0-.64,0l-.77-.2a1.27,1.27,0,0,1-.31-.17.82.82,0,0,1,.42-.09l.91.13a3.45,3.45,0,0,0,1.34-.27,1.75,1.75,0,0,1,.49-.16c.27-.14.54-.28.81-.44a1.42,1.42,0,0,0,.87-.95s0-.1,0-.15V14.45c-.18,0-.29,0-.34.15a3.26,3.26,0,0,1-.4.24.67.67,0,0,0-.51.36l-.53.2a2.83,2.83,0,0,1-1.4.53.35.35,0,0,1-.32.24.09.09,0,0,0-.11,0l-.83.37c0,.11-.08.1-.3,0l-.53.23h0q-.73.3-1.47.54a.6.6,0,0,0,.3-.43,3.37,3.37,0,0,0,.43-.34l.08-.07a3.36,3.36,0,0,0,.39-.23l.14-.07c.51-.28,1-.56,1.51-.86s.82-.62,1.24-.9a6,6,0,0,1,.67-.34,1.93,1.93,0,0,1,.54-.56.69.69,0,0,1,.49-.44l.85-.76a3.57,3.57,0,0,0,.53-1.11V11a1.86,1.86,0,0,0-.47-.3l-.57.54a.76.76,0,0,1-.17.13,3.59,3.59,0,0,0-.66.39c-.17.18-.36.37-.54.57a4.18,4.18,0,0,0-.67.6h0l-.51.47a1.08,1.08,0,0,1-.6.46,3.73,3.73,0,0,0-.74.4.27.27,0,0,0-.27.07,3.89,3.89,0,0,1-.4.1c-.15.08-.22.08-.2,0l-.57.3q-.14-.11.09-.3a15.64,15.64,0,0,1,1.95-1.6c.2-.13.4-.28.6-.43s.33-.33.48-.5a.33.33,0,0,0,.2-.23A10.52,10.52,0,0,0,134.65,10a.18.18,0,0,0-.15-.22.89.89,0,0,0-.52.39,1.11,1.11,0,0,1-.39.4.07.07,0,0,1-.07-.06,1.06,1.06,0,0,0-.42.36.48.48,0,0,0-.48.19,1,1,0,0,1-.35.34l-.34.18-.64.52a.51.51,0,0,0-.23.17c-.2.05-.39.1-.57.13a10.33,10.33,0,0,1-1.24.77.17.17,0,0,0-.1,0l-.41.2c-.27.13-.28,0-.06-.26l3.46-3.3,1-1.11.08-.17a1.69,1.69,0,0,0-.66-.13.33.33,0,0,0-.34.32,3,3,0,0,1-.08.55,3.06,3.06,0,0,1-.4.33c0,.17-.07.32-.11.47a3.81,3.81,0,0,1-.7.4.43.43,0,0,1-.57-.3V9.48l-.09-1.2a2,2,0,0,1,.06-.6V5.75a3.28,3.28,0,0,1,.13-.68l.91-1a.46.46,0,0,0,.07-.26,1.79,1.79,0,0,0-.6.35,2.07,2.07,0,0,1-.34.3.56.56,0,0,0-.51.08,2.08,2.08,0,0,1-.51.18c-.09,0-.13-.09-.12-.2a1.08,1.08,0,0,1,.37-.55,4.46,4.46,0,0,0,.5-.54l3.46-3a.5.5,0,0,1,.53-.1A.28.28,0,0,0,134.31.48Zm-2.25,3.3a1.68,1.68,0,0,0,.63.47.55.55,0,0,0,.58-.25s0-.09,0-.13a1.82,1.82,0,0,1,.57-.17.52.52,0,0,1,.56-.13h1.08a.28.28,0,0,1,.38,0h.56l.87,0a.25.25,0,0,0,.26-.21,1.17,1.17,0,0,0-.09-.48L137,2.07s-.07-.07-.17,0l-.92,0h-.46A1,1,0,0,0,135,2a1.55,1.55,0,0,0-1.06.47.7.7,0,0,1-.13.17q-.36,0-.45.24c-.2.11-.41.22-.63.32a4.38,4.38,0,0,1-.43.13,1.46,1.46,0,0,0-.34.26.15.15,0,0,0-.23.08A.66.66,0,0,0,132.06,3.78Zm0,2.85c0,.22.08.36.18.41h.28c.44,0,.9,0,1.36,0a.33.33,0,0,1,.23,0l.68.09a1.86,1.86,0,0,0,.47-.09.24.24,0,0,0,.1-.17V5.37a.38.38,0,0,0-.27-.3,2.49,2.49,0,0,1-.81-.05.74.74,0,0,0-.64-.11,3,3,0,0,1-.76.07,1.54,1.54,0,0,1-.38.6c0,.22-.12.21-.24,0a.61.61,0,0,0-.23.6C132.06,6.24,132.07,6.4,132.09,6.63Zm8.11.54a.34.34,0,0,0,.35-.41,3.34,3.34,0,0,1,0-.71,1.86,1.86,0,0,0,.3-.53.62.62,0,0,0-.13-.37l-.51-.51h-.08a.72.72,0,0,1-.81.34A.36.36,0,0,0,139,5a3.74,3.74,0,0,1-.54.05L138,5l-.45,0-.4,0h-.11a1.78,1.78,0,0,0-.1.43l.1.17a5.42,5.42,0,0,1,0,.9.39.39,0,0,0,.17.47,2,2,0,0,0,.63,0l.43,0,1.46,0A.88.88,0,0,0,140.2,7.17Zm0,11a2,2,0,0,1-1-.75,3.5,3.5,0,0,1-.69-1.14,4.17,4.17,0,0,1-.1-.83c.09-.36.18-.69.27-1a.32.32,0,0,1-.21-.36,10.3,10.3,0,0,1,.34-2.87.48.48,0,0,1,.49-.47.52.52,0,0,1,.25.49,3.69,3.69,0,0,1-.1.39.39.39,0,0,1,0,.15,4.39,4.39,0,0,1,.27.47,3.08,3.08,0,0,1,0,.43l0,.14c.07.25.11.43.14.56a3,3,0,0,0,0,.52l0,.64v.11c0,.14-.06.27-.08.4a1.53,1.53,0,0,0,.13.54c-.07,0-.11.09-.09.15a1,1,0,0,0,.6.9q.27,0,.27-.36a3.25,3.25,0,0,1,0-.5c.15-.06.16-.1,0-.1a7.39,7.39,0,0,1,.12-1.33s.07,0,.07.1a3.35,3.35,0,0,1,.06.47h0a2.21,2.21,0,0,0,.17-.6q.1.09.06.51c0,.28.07.44.29.48v.58a.41.41,0,0,1,.08.34l-.09.58a.3.3,0,0,1,.05.23,1.18,1.18,0,0,1-.56.78.13.13,0,0,0,.09.13.42.42,0,0,1-.36.17c-.09.05-.2,0-.34-.07A1.07,1.07,0,0,1,140.18,18.16Z"/></g></g></svg>