<svg width="245" height="60" viewBox="0 0 245 60" fill="none" xmlns="http://www.w3.org/2000/svg">
<circle cx="18" cy="18" r="17.7358" stroke="#DBDBDB" stroke-width="0.528302"/>
<circle cx="123" cy="18" r="16.7358" stroke="#DBDBDB" stroke-width="0.528302"/>
<circle cx="228" cy="18" r="16.7358" stroke="#DBDBDB" stroke-width="0.528302"/>
<path d="M25.8203 20.5053C26.5734 21.2156 27.2706 21.9559 27.9021 22.7157C28.5455 23.4743 29.0562 24.2627 29.4083 25.0409C29.575 25.4324 29.6565 25.8099 29.6485 26.1537C29.6365 26.4981 29.5014 26.7851 29.2561 26.987C29.0065 27.1883 28.666 27.3076 28.2606 27.3357C27.8636 27.3656 27.4337 27.3427 26.9826 27.2675C26.0823 27.1108 25.147 26.8453 24.205 26.4789C23.2663 26.1194 22.3276 25.7033 21.3983 25.2347C17.6735 23.3454 14.1247 20.908 11.0243 18.1095C10.2534 17.4103 9.52808 16.6835 8.85563 15.9364C8.17562 15.1887 7.59208 14.411 7.12265 13.6269C6.88726 13.2298 6.7089 12.8336 6.5924 12.4491C6.47495 12.0613 6.4649 11.7014 6.56303 11.3964C6.6625 11.0937 6.88236 10.8639 7.20092 10.7297C7.51941 10.5994 7.90089 10.5399 8.32574 10.5544C9.1784 10.6044 10.0972 10.7986 11.0357 11.1271C11.9715 11.4442 12.9127 11.8291 13.8461 12.2768C12.9165 11.8435 11.9808 11.4734 11.052 11.1714C10.1235 10.8581 9.21754 10.6791 8.37992 10.6432C7.96755 10.6309 7.59791 10.6909 7.29017 10.8199C6.98635 10.9501 6.7772 11.1716 6.68326 11.4624C6.59562 11.7577 6.61106 12.1043 6.72842 12.4764C6.84085 12.8489 7.01444 13.2328 7.24429 13.6175C7.71095 14.3905 8.29055 15.1565 8.96533 15.892C9.63152 16.6283 10.35 17.3441 11.1134 18.0323C12.6519 19.4134 14.3064 20.7085 16.0442 21.8919C17.7728 23.0905 19.5764 24.1706 21.4188 25.1105C22.338 25.5781 23.2669 25.9945 24.1963 26.3553C25.1257 26.7203 26.0492 26.9868 26.9394 27.1469C27.38 27.2212 27.8004 27.2454 28.1897 27.2189C28.5744 27.1906 28.8984 27.0772 29.1376 26.887C29.3752 26.6942 29.5078 26.4199 29.5229 26.0902C29.5319 25.7567 29.456 25.391 29.2991 25.0113C28.9654 24.2462 28.4768 23.4691 27.8573 22.718C27.2407 21.9591 26.5586 21.2182 25.8203 20.5053Z" fill="white"/>
<path d="M24.8395 16.003C25.8026 16.1431 26.7382 16.3327 27.6333 16.5692C28.5369 16.7988 29.3534 17.1162 30.0415 17.5053C30.3795 17.7062 30.6439 17.9394 30.8209 18.1927C30.9952 18.4484 31.0434 18.7239 30.9606 18.9925C30.8742 19.2629 30.6735 19.519 30.3739 19.7414C30.0818 19.9609 29.736 20.1584 29.3458 20.3285C28.5636 20.6634 27.6962 20.9367 26.77 21.1403C25.85 21.3472 24.8997 21.513 23.9288 21.6361C20.0312 22.1213 15.9781 22.1213 12.0805 21.6361C11.1096 21.513 10.1593 21.3472 9.23927 21.1403C8.31303 20.9367 7.44569 20.6634 6.66344 20.3285C6.26911 20.1578 5.91953 19.9593 5.62417 19.7384C5.32635 19.5157 5.1267 19.2596 5.04028 18.9895C4.95616 18.7205 5.0043 18.4443 5.17997 18.1882C5.35765 17.935 5.62201 17.7019 5.95942 17.5008C6.64775 17.1123 7.46423 16.7954 8.36763 16.5662C9.2629 16.3299 10.1984 16.1403 11.1614 16C10.2091 16.1489 9.28567 16.3465 8.40394 16.5901C7.51644 16.8255 6.71794 17.1469 6.04882 17.5382C5.72225 17.7347 5.46734 17.9623 5.2973 18.2092C5.13095 18.455 5.08666 18.7198 5.16879 18.9775C5.25817 19.2354 5.45489 19.4791 5.7443 19.6905C6.03006 19.9046 6.36942 20.0966 6.75284 20.2611C7.52698 20.5893 8.38504 20.8561 9.30074 21.0534C10.2101 21.2556 11.1493 21.4169 12.1084 21.5357C14.0385 21.771 16.0128 21.8861 17.9921 21.8787C19.9724 21.8869 21.9477 21.7718 23.8785 21.5357C24.841 21.417 25.7838 21.2562 26.6974 21.0549C27.6131 20.8567 28.4719 20.59 29.2481 20.2626C29.6295 20.097 29.9686 19.9051 30.2566 19.692C30.5401 19.4798 30.7311 19.2361 30.8153 18.979C30.8969 18.7209 30.8537 18.4558 30.6896 18.2092C30.5188 17.9628 30.2651 17.7354 29.9409 17.5382C29.2742 17.1495 28.4808 16.8292 27.5997 16.5931C26.7167 16.3498 25.7925 16.1522 24.8395 16.003Z" fill="white"/>
<path d="M22.3305 11.8797C23.2135 11.3974 24.1074 10.9758 24.9996 10.6207C25.8942 10.2543 26.7764 10.0196 27.6016 9.92824C28.0135 9.89198 28.3869 9.93026 28.7022 10.0411C29.0169 10.1557 29.2415 10.367 29.3543 10.6544C29.4652 10.9456 29.473 11.2962 29.3771 11.6793C29.2853 12.0553 29.1348 12.4456 28.9296 12.8398C28.5139 13.6248 27.9871 14.4093 27.3652 15.1696C26.7506 15.929 26.0836 16.6713 25.371 17.3892C22.5044 20.2632 19.1841 22.8096 15.6652 24.8329C14.7871 25.335 13.8972 25.7867 13.0044 26.1834C12.1088 26.5869 11.2146 26.8923 10.3487 27.0902C9.91087 27.1883 9.49107 27.2339 9.10066 27.2259C8.70697 27.2178 8.3713 27.1188 8.11894 26.9363C7.86916 26.7534 7.72295 26.4811 7.69473 26.1463C7.6701 25.8127 7.72992 25.4423 7.87112 25.054C8.17383 24.281 8.62967 23.4904 9.21562 22.7219C9.7902 21.9523 10.4291 21.1984 11.1236 20.4705C10.4436 21.1992 9.81998 21.9526 9.26148 22.7201C8.69267 23.4839 8.25463 24.2673 7.96952 25.0307C7.8341 25.4081 7.77827 25.7677 7.80494 26.0909C7.83391 26.4109 7.97562 26.6708 8.21616 26.8451C8.46269 27.0149 8.78765 27.1049 9.16684 27.1084C9.54487 27.1166 9.95194 27.0716 10.3766 26.975C11.2314 26.7762 12.1136 26.471 12.9964 26.0687C13.8772 25.6745 14.755 25.2259 15.6206 24.7274C17.3598 23.7211 19.0545 22.5816 20.6709 21.3316C22.2986 20.0947 23.8394 18.7528 25.2623 17.3328C25.971 16.6241 26.6353 15.8908 27.2483 15.1404C27.8652 14.3914 28.3894 13.6181 28.8052 12.8435C29.0063 12.4587 29.1551 12.0775 29.2478 11.7097C29.3374 11.3456 29.33 11.0121 29.2262 10.7338C29.1195 10.4563 28.9059 10.2511 28.6057 10.138C28.3002 10.0294 27.9394 9.98948 27.5414 10.0203C26.7339 10.0985 25.8687 10.3162 24.9882 10.6628C24.1014 11.0043 23.2114 11.4118 22.3305 11.8797Z" fill="white"/>
<path d="M123.175 6.34277L124.21 17.757H122.141L123.175 6.34277Z" fill="white"/>
<path d="M113.285 12.0469L123.692 16.8609L122.658 18.654L113.285 12.0469Z" fill="white"/>
<path d="M113.285 23.4606L122.658 16.8604L123.692 18.6535L113.285 23.4606Z" fill="white"/>
<path d="M123.175 29.1711L122.141 17.7568H124.21L123.175 29.1711Z" fill="white"/>
<path d="M133.059 23.4606L122.658 18.6535L123.693 16.8604L133.059 23.4606Z" fill="white"/>
<path d="M133.059 12.0469L123.693 18.654L122.658 16.8609L133.059 12.0469Z" fill="white"/>
<path d="M123.174 20.1367C124.488 20.1367 125.554 19.0715 125.554 17.7573C125.554 16.4432 124.488 15.3779 123.174 15.3779C121.86 15.3779 120.795 16.4432 120.795 17.7573C120.795 19.0715 121.86 20.1367 123.174 20.1367Z" fill="white"/>
<path d="M123.002 16L122 18H124L123.002 16Z" fill="black"/>
<g style="mix-blend-mode:plus-lighter" opacity="0.7">
<path d="M234.203 18.8048C236.433 18.8048 238.241 16.9966 238.241 14.7662C238.241 12.5357 236.433 10.7275 234.203 10.7275C231.972 10.7275 230.164 12.5357 230.164 14.7662C230.164 16.9966 231.972 18.8048 234.203 18.8048Z" fill="#3B3B3B"/>
</g>
<g style="mix-blend-mode:plus-lighter" opacity="0.5">
<path d="M225.013 24.4211C229.265 24.4211 232.712 20.9178 232.712 16.5963C232.712 12.2748 229.265 8.77148 225.013 8.77148C220.761 8.77148 217.314 12.2748 217.314 16.5963C217.314 20.9178 220.761 24.4211 225.013 24.4211Z" fill="#3B3B3B"/>
</g>
<g style="mix-blend-mode:plus-lighter" opacity="0.7">
<path d="M231.149 27.5013C234.007 27.5013 236.324 25.1846 236.324 22.3268C236.324 19.469 234.007 17.1523 231.149 17.1523C228.291 17.1523 225.975 19.469 225.975 22.3268C225.975 25.1846 228.291 27.5013 231.149 27.5013Z" fill="#3B3B3B"/>
</g>
<path d="M10.71 42.27C11.45 42.4633 11.9333 42.6333 12.16 42.78C12.3933 42.92 12.51 43.1033 12.51 43.33C12.51 43.55 12.4433 43.7467 12.31 43.92C12.1833 44.0867 12.0467 44.17 11.9 44.17C11.8467 44.17 11.8033 44.1533 11.77 44.12C11.7433 44.08 11.6767 43.95 11.57 43.73C11.4633 43.5033 11.33 43.2833 11.17 43.07C11.0167 42.8567 10.8367 42.6467 10.63 42.44L10.71 42.27ZM10.83 44.55H8.31C8.13 44.55 7.99 44.5733 7.89 44.62L7.62 44.19C7.76 44.2233 7.92667 44.24 8.12 44.24H14.58L15.11 43.44C15.1567 43.38 15.1967 43.35 15.23 43.35C15.27 43.35 15.3967 43.4333 15.61 43.6C15.83 43.76 16.0133 43.91 16.16 44.05C16.3067 44.1833 16.38 44.29 16.38 44.37C16.38 44.49 16.2867 44.55 16.1 44.55H11.29C11.5633 44.6167 11.7733 44.6767 11.92 44.73C12.0667 44.7767 12.14 44.8233 12.14 44.87C12.14 44.9167 12.0867 44.97 11.98 45.03C11.8733 45.0833 11.8067 45.1867 11.78 45.34C11.76 45.4867 11.73 45.73 11.69 46.07H13.58L13.9 45.59C13.94 45.5233 13.98 45.49 14.02 45.49C14.08 45.49 14.2733 45.61 14.6 45.85C14.9267 46.09 15.09 46.24 15.09 46.3C15.09 46.3667 14.9333 46.4633 14.62 46.59C14.5333 48.59 14.4267 49.8133 14.3 50.26C14.18 50.7067 13.92 51.0333 13.52 51.24C13.12 51.4533 12.8567 51.56 12.73 51.56C12.65 51.56 12.6033 51.4867 12.59 51.34C12.5633 51.1 12.47 50.9067 12.31 50.76C12.15 50.6133 11.8367 50.4533 11.37 50.28L11.39 50.08C12.0433 50.2333 12.4833 50.31 12.71 50.31C12.9367 50.31 13.0967 50.2733 13.19 50.2C13.2833 50.1333 13.35 50.02 13.39 49.86C13.4367 49.6933 13.4867 49.2833 13.54 48.63C13.6 47.97 13.6467 47.22 13.68 46.38H11.65C11.4633 47.8333 11.09 48.92 10.53 49.64C9.97 50.3533 9.07 50.98 7.83 51.52L7.76 51.36C8.88667 50.6133 9.67 49.76 10.11 48.8C10.5567 47.84 10.7967 46.4233 10.83 44.55ZM23.32 42.26C23.8667 42.48 24.28 42.7 24.56 42.92C24.84 43.14 24.98 43.3633 24.98 43.59C24.98 43.81 24.9133 43.9933 24.78 44.14C24.6533 44.28 24.54 44.35 24.44 44.35C24.3933 44.35 24.3533 44.33 24.32 44.29C24.2933 44.2433 24.26 44.1433 24.22 43.99C24.18 43.83 24.0567 43.5833 23.85 43.25C23.6433 42.9167 23.4267 42.6267 23.2 42.38L23.32 42.26ZM19.82 45.92C19.32 46.6133 18.7933 47.2267 18.24 47.76L18.13 47.62C19.2767 46.1467 20.1367 44.3933 20.71 42.36C21.4767 42.7867 21.86 43.0533 21.86 43.16C21.86 43.2133 21.79 43.25 21.65 43.27C21.55 43.2833 21.4567 43.3467 21.37 43.46C21.29 43.5667 21.15 43.7967 20.95 44.15C20.75 44.5033 20.5467 44.8367 20.34 45.15C20.74 45.2567 20.94 45.34 20.94 45.4C20.94 45.46 20.85 45.53 20.67 45.61V51.09C20.67 51.1567 20.64 51.2133 20.58 51.26C20.52 51.3067 20.3933 51.3667 20.2 51.44C20.0133 51.52 19.8867 51.56 19.82 51.56C19.7867 51.56 19.77 51.5267 19.77 51.46L19.79 50.82C19.81 50.34 19.82 49.95 19.82 49.65V45.92ZM26 44.6L26.42 43.91C26.46 43.8433 26.5 43.81 26.54 43.81C26.6067 43.81 26.8 43.96 27.12 44.26C27.4467 44.5533 27.61 44.7367 27.61 44.81C27.61 44.8567 27.5233 44.88 27.35 44.88H22.03C21.85 44.88 21.71 44.9033 21.61 44.95L21.43 44.55C21.57 44.5833 21.7367 44.6 21.93 44.6H26ZM24.77 50.53H26.11L26.45 49.89C26.5233 49.75 26.5933 49.68 26.66 49.68C26.7333 49.68 26.8033 49.7067 26.87 49.76C26.9367 49.8067 27.0767 49.9367 27.29 50.15C27.5033 50.3633 27.64 50.5067 27.7 50.58C27.76 50.66 27.79 50.72 27.79 50.76C27.79 50.8 27.7233 50.82 27.59 50.82H21.65C21.47 50.82 21.33 50.8433 21.23 50.89L21.05 50.48C21.19 50.5133 21.3567 50.53 21.55 50.53H24.34C24.7333 48.87 25.0633 47.1067 25.33 45.24C25.77 45.4133 26.0933 45.5567 26.3 45.67C26.5133 45.7767 26.62 45.86 26.62 45.92C26.62 45.98 26.5533 46.0233 26.42 46.05C26.36 46.0633 26.3067 46.1067 26.26 46.18C26.22 46.2467 26.04 46.7467 25.72 47.68L24.77 50.53ZM22.22 45.69C23.2133 47.0833 23.71 48.09 23.71 48.71C23.71 48.9367 23.6533 49.1433 23.54 49.33C23.4267 49.5167 23.2633 49.61 23.05 49.61C22.9633 49.61 22.9033 49.5767 22.87 49.51C22.8367 49.4433 22.8133 49.2567 22.8 48.95C22.7933 48.6367 22.7167 48.1533 22.57 47.5C22.43 46.8467 22.2633 46.2833 22.07 45.81L22.22 45.69Z" fill="white"/>
<path d="M90.15 44.71H88.7C88.5267 44.71 88.3833 44.7267 88.27 44.76L88.1 44.35C88.24 44.3833 88.4067 44.4 88.6 44.4H90.49C90.4833 43.14 90.4733 42.46 90.46 42.36C91.2333 42.5267 91.62 42.6633 91.62 42.77C91.62 42.8233 91.51 42.9333 91.29 43.1V44.4H92.77L93.17 43.82C93.2233 43.7467 93.28 43.71 93.34 43.71C93.4067 43.71 93.58 43.84 93.86 44.1C94.1467 44.36 94.29 44.5267 94.29 44.6C94.29 44.6733 94.23 44.71 94.11 44.71H91.55C91.9167 45.77 92.3867 46.65 92.96 47.35C93.5333 48.05 94.1433 48.4933 94.79 48.68V48.86C94.25 48.84 93.8667 49 93.64 49.34C93.6067 49.4 93.56 49.43 93.5 49.43C93.4667 49.43 93.4267 49.4133 93.38 49.38C93.34 49.34 93.18 49.1267 92.9 48.74C92.6267 48.3533 92.39 47.9567 92.19 47.55C91.9967 47.1367 91.83 46.7033 91.69 46.25C91.5567 45.7967 91.44 45.2833 91.34 44.71H91.29V48.89H91.73L92.01 48.46C92.05 48.4 92.0967 48.37 92.15 48.37C92.21 48.37 92.36 48.47 92.6 48.67C92.84 48.87 92.96 49.0067 92.96 49.08C92.96 49.1467 92.8867 49.18 92.74 49.18H91.29C91.29 49.64 91.2967 50.12 91.31 50.62L91.33 51.22C91.33 51.2667 91.3033 51.31 91.25 51.35C91.1967 51.39 91.07 51.45 90.87 51.53C90.67 51.6167 90.5333 51.66 90.46 51.66C90.4133 51.66 90.3933 51.62 90.4 51.54C90.46 50.9133 90.49 50.1267 90.49 49.18H89.38C89.2067 49.18 89.0633 49.1967 88.95 49.23L88.78 48.84C88.92 48.8733 89.0867 48.89 89.28 48.89H90.49V45.85C90.15 46.7233 89.76 47.4667 89.32 48.08C88.8867 48.6867 88.31 49.2867 87.59 49.88V51.07C87.59 51.11 87.5833 51.14 87.57 51.16C87.5567 51.1867 87.49 51.2333 87.37 51.3C87.25 51.3733 87.13 51.43 87.01 51.47C86.8967 51.5167 86.8233 51.54 86.79 51.54C86.7567 51.54 86.74 51.5067 86.74 51.44L86.77 50.84C86.7833 50.3867 86.79 49.9933 86.79 49.66V45.9C86.33 46.6733 85.8667 47.3333 85.4 47.88L85.27 47.75C86.2833 46.0967 86.9833 44.2533 87.37 42.22C88.19 42.4933 88.6 42.6833 88.6 42.79C88.6 42.8367 88.54 42.8767 88.42 42.91C88.3067 42.9367 88.2267 42.98 88.18 43.04C88.1333 43.1 88.0867 43.1933 88.04 43.32C87.8267 43.8867 87.5533 44.4867 87.22 45.12C87.6733 45.2533 87.9 45.3633 87.9 45.45C87.9 45.4967 87.7967 45.5933 87.59 45.74V49.62C88.2767 48.76 88.81 47.9533 89.19 47.2C89.57 46.4467 89.89 45.6167 90.15 44.71ZM97.75 50.88C97.8167 50.8467 97.88 50.8133 97.94 50.78C98.0067 50.7467 98.0767 50.7133 98.15 50.68L98.16 48.82C98 48.9667 97.8533 49.0967 97.72 49.21C97.5933 49.3233 97.4667 49.43 97.34 49.53C97.2133 49.63 97.08 49.73 96.94 49.83C96.8067 49.9233 96.6567 50.0233 96.49 50.13L96.39 49.97C96.6433 49.7167 96.8567 49.4933 97.03 49.3C97.21 49.1067 97.3767 48.91 97.53 48.71C97.69 48.51 97.8467 48.29 98 48.05C98.1533 47.81 98.3333 47.52 98.54 47.18H97.22C97.0933 47.18 96.9867 47.1967 96.9 47.23L96.76 46.86C96.8867 46.8867 97.0133 46.9 97.14 46.9H99.1C99.0467 46.7533 99 46.63 98.96 46.53C98.92 46.43 98.8767 46.34 98.83 46.26C98.7833 46.1733 98.73 46.0933 98.67 46.02C98.6167 45.9467 98.5467 45.8633 98.46 45.77L98.51 45.64H96.89C96.8167 45.64 96.74 45.6467 96.66 45.66C96.5867 45.6733 96.53 45.6867 96.49 45.7L96.33 45.32C96.4167 45.3333 96.49 45.3433 96.55 45.35C96.6167 45.3567 96.6967 45.36 96.79 45.36H98.92V44.27H97.41C97.3367 44.27 97.2633 44.2767 97.19 44.29C97.1167 44.3033 97.06 44.3167 97.02 44.33L96.86 43.93C96.9467 43.9433 97.02 43.9533 97.08 43.96C97.1467 43.9667 97.2267 43.97 97.32 43.97H98.92C98.92 43.7433 98.92 43.5533 98.92 43.4C98.92 43.24 98.92 43.1067 98.92 43C98.92 42.8933 98.92 42.8033 98.92 42.73C98.92 42.6567 98.9167 42.5867 98.91 42.52C99.1833 42.5733 99.4867 42.6733 99.82 42.82C99.9733 42.88 100.04 42.9367 100.02 42.99C100.007 43.0433 99.9033 43.1233 99.71 43.23L99.72 43.97H100.44L100.8 43.52C100.847 43.4667 100.883 43.44 100.91 43.44C100.937 43.44 100.983 43.4667 101.05 43.52C101.183 43.6267 101.3 43.7267 101.4 43.82C101.5 43.9133 101.597 44.0133 101.69 44.12C101.77 44.22 101.753 44.27 101.64 44.27H99.72V45.36H101.86C101.853 45.1667 101.85 44.95 101.85 44.71C101.85 44.47 101.847 44.23 101.84 43.99C101.833 43.73 101.827 43.4567 101.82 43.17C101.82 42.8833 101.817 42.61 101.81 42.35C101.97 42.39 102.123 42.4333 102.27 42.48C102.423 42.5267 102.583 42.5767 102.75 42.63C102.917 42.69 102.993 42.75 102.98 42.81C102.967 42.8633 102.843 42.9367 102.61 43.03C102.597 43.4633 102.587 43.8767 102.58 44.27C102.58 44.6633 102.583 45.0267 102.59 45.36H104.02L104.34 44.89C104.4 44.7967 104.45 44.7533 104.49 44.76C104.53 44.7667 104.607 44.81 104.72 44.89C104.853 44.99 104.977 45.09 105.09 45.19C105.203 45.29 105.317 45.39 105.43 45.49C105.537 45.5967 105.517 45.65 105.37 45.65H102.59C102.597 45.97 102.61 46.2633 102.63 46.53C102.657 46.7967 102.687 47.0433 102.72 47.27C102.76 47.49 102.803 47.7 102.85 47.9C102.897 48.0933 102.943 48.28 102.99 48.46C103.217 48.1 103.397 47.74 103.53 47.38C103.67 47.02 103.793 46.63 103.9 46.21C104.087 46.2833 104.247 46.35 104.38 46.41C104.52 46.4633 104.667 46.5367 104.82 46.63C104.933 46.6967 104.983 46.75 104.97 46.79C104.963 46.83 104.887 46.8767 104.74 46.93C104.72 46.9367 104.7 46.9467 104.68 46.96C104.66 46.9733 104.633 47 104.6 47.04C104.573 47.08 104.54 47.1367 104.5 47.21C104.46 47.2767 104.41 47.37 104.35 47.49C104.19 47.81 104.027 48.1 103.86 48.36C103.7 48.62 103.51 48.8867 103.29 49.16C103.417 49.4067 103.547 49.6133 103.68 49.78C103.813 49.94 103.98 50.0867 104.18 50.22C104.387 50.3533 104.53 50.4033 104.61 50.37C104.69 50.3367 104.75 50.23 104.79 50.05C104.817 49.93 104.84 49.82 104.86 49.72C104.88 49.6133 104.903 49.5033 104.93 49.39C104.957 49.2767 104.983 49.1533 105.01 49.02C105.043 48.8867 105.08 48.73 105.12 48.55L105.32 48.59C105.293 49.05 105.277 49.4233 105.27 49.71C105.263 49.99 105.267 50.2233 105.28 50.41C105.3 50.5967 105.33 50.7567 105.37 50.89C105.417 51.0233 105.477 51.17 105.55 51.33C105.61 51.4633 105.593 51.55 105.5 51.59C105.407 51.63 105.273 51.6233 105.1 51.57C104.62 51.4167 104.18 51.19 103.78 50.89C103.387 50.59 103.057 50.21 102.79 49.75C102.617 49.95 102.44 50.13 102.26 50.29C102.087 50.4567 101.9 50.61 101.7 50.75C101.507 50.89 101.3 51.02 101.08 51.14C100.86 51.2667 100.627 51.39 100.38 51.51L100.27 51.32C100.723 50.9933 101.14 50.6533 101.52 50.3C101.907 49.9467 102.24 49.57 102.52 49.17C102.44 48.95 102.367 48.7367 102.3 48.53C102.24 48.3167 102.183 48.08 102.13 47.82C102.083 47.5533 102.037 47.25 101.99 46.91C101.95 46.5633 101.91 46.1433 101.87 45.65L98.76 45.64V45.68C98.9733 45.7133 99.15 45.7533 99.29 45.8C99.43 45.84 99.54 45.8933 99.62 45.96C99.7 46.02 99.75 46.09 99.77 46.17C99.7967 46.25 99.8033 46.34 99.79 46.44C99.7767 46.54 99.74 46.6267 99.68 46.7C99.6267 46.7667 99.5433 46.8267 99.43 46.88L99.44 46.92H100.65L100.96 46.42C101 46.3533 101.04 46.3267 101.08 46.34C101.127 46.3467 101.18 46.3767 101.24 46.43C101.347 46.53 101.437 46.6167 101.51 46.69C101.583 46.7633 101.667 46.8567 101.76 46.97C101.827 47.0567 101.857 47.11 101.85 47.13C101.85 47.15 101.803 47.16 101.71 47.16L99.39 47.17C99.3167 47.3033 99.24 47.4333 99.16 47.56C99.08 47.6867 99 47.8067 98.92 47.92V50.28L100.27 49.57L100.41 49.74C100.13 49.9733 99.89 50.1733 99.69 50.34C99.4967 50.5133 99.33 50.6633 99.19 50.79C99.05 50.9167 98.93 51.03 98.83 51.13C98.7367 51.23 98.65 51.3267 98.57 51.42C98.5367 51.46 98.51 51.48 98.49 51.48C98.47 51.48 98.4333 51.4633 98.38 51.43C98.2667 51.3367 98.16 51.2533 98.06 51.18C97.9667 51.1067 97.8633 51.0067 97.75 50.88ZM101.64 47.77C101.7 47.8233 101.72 47.87 101.7 47.91C101.68 47.95 101.63 47.9633 101.55 47.95C101.51 47.9433 101.47 47.9433 101.43 47.95C101.397 47.95 101.34 47.97 101.26 48.01C101.187 48.0433 101.077 48.1033 100.93 48.19C100.79 48.27 100.597 48.3867 100.35 48.54C100.617 48.68 100.823 48.7967 100.97 48.89C101.123 48.9833 101.237 49.07 101.31 49.15C101.383 49.23 101.43 49.3067 101.45 49.38C101.47 49.4467 101.48 49.5233 101.48 49.61C101.48 49.7833 101.447 49.9233 101.38 50.03C101.32 50.1367 101.247 50.19 101.16 50.19C101.093 50.19 101.04 50.1767 101 50.15C100.967 50.13 100.913 50.0633 100.84 49.95C100.7 49.73 100.573 49.5467 100.46 49.4C100.353 49.2467 100.237 49.11 100.11 48.99C99.99 48.8633 99.85 48.7367 99.69 48.61C99.5367 48.4833 99.34 48.3333 99.1 48.16L99.22 48.01C99.3667 48.0767 99.5267 48.1467 99.7 48.22C99.8733 48.2933 100.017 48.3567 100.13 48.41C100.243 48.29 100.333 48.1833 100.4 48.09C100.473 47.9967 100.537 47.9067 100.59 47.82C100.65 47.7333 100.703 47.6467 100.75 47.56C100.803 47.4733 100.867 47.3767 100.94 47.27C101.167 47.4033 101.4 47.57 101.64 47.77ZM104.79 44.08C104.79 44.2333 104.73 44.3733 104.61 44.5C104.49 44.62 104.367 44.68 104.24 44.68C104.087 44.68 103.987 44.5767 103.94 44.37C103.907 44.2233 103.837 44.0667 103.73 43.9C103.63 43.7267 103.463 43.4933 103.23 43.2L103.36 43.05C103.633 43.13 103.86 43.2133 104.04 43.3C104.227 43.38 104.373 43.4633 104.48 43.55C104.593 43.6367 104.673 43.7267 104.72 43.82C104.767 43.9067 104.79 43.9933 104.79 44.08ZM109.35 43.28C109.363 43.0667 109.37 42.8933 109.37 42.76C109.377 42.62 109.373 42.4967 109.36 42.39C109.62 42.45 109.837 42.51 110.01 42.57C110.183 42.6233 110.347 42.6867 110.5 42.76C110.667 42.8333 110.74 42.9033 110.72 42.97C110.707 43.0367 110.58 43.1067 110.34 43.18L110.23 44.47H114.6L115.01 43.8C115.063 43.7067 115.117 43.66 115.17 43.66C115.23 43.66 115.307 43.6967 115.4 43.77C115.553 43.8967 115.687 44.0133 115.8 44.12C115.92 44.22 116.05 44.3467 116.19 44.5C116.277 44.5933 116.307 44.6667 116.28 44.72C116.26 44.7733 116.18 44.8 116.04 44.8H110.2L110.06 46.49H114.57L114.8 46.12C114.867 46.0133 114.983 46.0067 115.15 46.1C115.29 46.18 115.413 46.26 115.52 46.34C115.627 46.4133 115.747 46.5033 115.88 46.61C115.927 46.65 115.96 46.6867 115.98 46.72C116.007 46.7533 116.01 46.79 115.99 46.83C115.97 46.87 115.923 46.9167 115.85 46.97C115.777 47.0167 115.67 47.0733 115.53 47.14C115.47 47.7933 115.417 48.3167 115.37 48.71C115.33 49.0967 115.297 49.4 115.27 49.62C115.243 49.8333 115.217 49.9867 115.19 50.08C115.17 50.1733 115.15 50.2533 115.13 50.32C115.057 50.54 114.98 50.7233 114.9 50.87C114.82 51.0167 114.72 51.1433 114.6 51.25C114.48 51.3567 114.337 51.4433 114.17 51.51C114.003 51.5833 113.797 51.6533 113.55 51.72C113.45 51.7467 113.373 51.7467 113.32 51.72C113.273 51.7 113.243 51.63 113.23 51.51C113.217 51.4033 113.197 51.3133 113.17 51.24C113.15 51.1733 113.093 51.1067 113 51.04C112.907 50.9733 112.767 50.9033 112.58 50.83C112.393 50.7567 112.137 50.6633 111.81 50.55L111.86 50.32C112.367 50.42 112.767 50.4867 113.06 50.52C113.36 50.5533 113.59 50.5533 113.75 50.52C113.91 50.4867 114.02 50.4133 114.08 50.3C114.147 50.1933 114.2 50.0433 114.24 49.85C114.313 49.49 114.383 49.07 114.45 48.59C114.523 48.11 114.59 47.5133 114.65 46.8H110.06L110.05 46.87C110.043 46.9633 110.007 47.0167 109.94 47.03C109.833 47.0633 109.727 47.0933 109.62 47.12C109.513 47.1467 109.39 47.1767 109.25 47.21C109.177 47.23 109.127 47.2333 109.1 47.22C109.08 47.2 109.077 47.1433 109.09 47.05C109.103 46.9633 109.117 46.8333 109.13 46.66C109.143 46.4867 109.153 46.3467 109.16 46.24L109.35 43.28ZM113.85 48.54C113.79 48.46 113.693 48.36 113.56 48.24C113.433 48.1133 113.293 47.9933 113.14 47.88C113.033 47.8 112.96 47.7633 112.92 47.77C112.887 47.7767 112.843 47.82 112.79 47.9L112.42 48.5H108.03C107.93 48.5 107.843 48.4967 107.77 48.49C107.703 48.4833 107.623 48.47 107.53 48.45L107.72 48.89C107.76 48.87 107.82 48.8533 107.9 48.84C107.98 48.8267 108.06 48.82 108.14 48.82H113.74C113.86 48.82 113.93 48.8033 113.95 48.77C113.97 48.73 113.937 48.6533 113.85 48.54ZM123.17 44.05C123.377 44.9833 123.617 45.8033 123.89 46.51C124.17 47.21 124.493 47.8233 124.86 48.35C125.233 48.8767 125.66 49.3267 126.14 49.7C126.62 50.0733 127.17 50.3967 127.79 50.67V50.85C127.563 50.87 127.38 50.8933 127.24 50.92C127.1 50.9533 126.987 50.9867 126.9 51.02C126.82 51.06 126.76 51.1033 126.72 51.15C126.68 51.2033 126.647 51.2633 126.62 51.33C126.587 51.4233 126.54 51.47 126.48 51.47C126.42 51.4767 126.367 51.46 126.32 51.42C125.56 50.76 124.89 49.9667 124.31 49.04C123.737 48.1067 123.257 46.9733 122.87 45.64C122.61 46.4467 122.34 47.1467 122.06 47.74C121.787 48.3333 121.473 48.86 121.12 49.32C120.773 49.7733 120.377 50.1833 119.93 50.55C119.483 50.9167 118.96 51.28 118.36 51.64L118.28 51.5C118.627 51.2 118.943 50.9067 119.23 50.62C119.517 50.34 119.783 50.0467 120.03 49.74C120.277 49.4267 120.503 49.0933 120.71 48.74C120.923 48.38 121.127 47.9733 121.32 47.52C121.52 47.06 121.71 46.5467 121.89 45.98C122.077 45.4067 122.267 44.75 122.46 44.01L122.37 43.53H121.15C121.11 43.53 121.057 43.5333 120.99 43.54C120.923 43.54 120.857 43.5433 120.79 43.55C120.723 43.5567 120.66 43.5667 120.6 43.58C120.547 43.5867 120.51 43.5933 120.49 43.6L120.21 43.18C120.257 43.1933 120.317 43.2033 120.39 43.21C120.463 43.21 120.54 43.2133 120.62 43.22C120.7 43.2267 120.777 43.23 120.85 43.23C120.93 43.23 120.997 43.23 121.05 43.23H122.26L122.45 42.82C122.497 42.7467 122.537 42.7167 122.57 42.73C122.603 42.7367 122.677 42.7633 122.79 42.81C122.923 42.8633 123.05 42.9267 123.17 43C123.297 43.0733 123.42 43.15 123.54 43.23C123.68 43.3233 123.743 43.3967 123.73 43.45C123.723 43.5033 123.643 43.5533 123.49 43.6C123.457 43.6133 123.417 43.63 123.37 43.65C123.33 43.67 123.29 43.6967 123.25 43.73C123.217 43.7633 123.19 43.8067 123.17 43.86C123.157 43.9133 123.157 43.9767 123.17 44.05ZM134.65 46.02V44.48H133.2C133.013 44.48 132.873 44.5067 132.78 44.56L132.58 44.1C132.72 44.1333 132.887 44.15 133.08 44.15H134.65V43.42C134.65 43.06 134.633 42.7467 134.6 42.48C135.167 42.62 135.517 42.72 135.65 42.78C135.783 42.8333 135.85 42.89 135.85 42.95C135.85 43.01 135.747 43.0933 135.54 43.2V44.15H136.56L136.91 43.64C136.963 43.56 137.017 43.52 137.07 43.52C137.123 43.52 137.313 43.6467 137.64 43.9C137.973 44.1533 138.14 44.3133 138.14 44.38C138.14 44.4467 138.04 44.48 137.84 44.48H135.54V46.02H137.3L137.61 45.52C137.663 45.4333 137.717 45.39 137.77 45.39C137.83 45.39 137.947 45.4567 138.12 45.59L138.59 45.97C138.73 46.09 138.8 46.1867 138.8 46.26C138.8 46.3333 138.707 46.37 138.52 46.37H135.95C136.683 46.51 137.05 46.6333 137.05 46.74C137.05 46.8 136.95 46.87 136.75 46.95V47.66H137.19L137.53 47.14C137.617 47.0067 137.69 46.94 137.75 46.94C137.81 46.94 137.87 46.9667 137.93 47.02C137.99 47.0733 138.1 47.1867 138.26 47.36C138.427 47.5267 138.533 47.64 138.58 47.7C138.633 47.76 138.66 47.81 138.66 47.85C138.66 47.9233 138.587 47.96 138.44 47.96H136.75V50.85C136.75 51.0233 136.707 51.17 136.62 51.29C136.533 51.41 136.353 51.53 136.08 51.65C135.807 51.7767 135.627 51.84 135.54 51.84C135.48 51.84 135.44 51.7867 135.42 51.68C135.387 51.44 135.287 51.25 135.12 51.11C134.953 50.9767 134.633 50.8133 134.16 50.62L134.21 50.43C134.883 50.5767 135.3 50.65 135.46 50.65C135.627 50.65 135.737 50.63 135.79 50.59C135.843 50.55 135.87 50.4633 135.87 50.33V47.96H132.67C132.503 47.96 132.36 47.9767 132.24 48.01L132.07 47.61C132.21 47.6433 132.377 47.66 132.57 47.66H135.87C135.87 46.9267 135.863 46.4967 135.85 46.37H132.94C132.76 46.37 132.62 46.3933 132.52 46.44L132.34 45.97C132.48 46.0033 132.647 46.02 132.84 46.02H134.65ZM130.42 42.57C130.967 42.87 131.383 43.1467 131.67 43.4C131.963 43.6533 132.11 43.8867 132.11 44.1C132.11 44.3133 132.057 44.5067 131.95 44.68C131.843 44.8467 131.71 44.93 131.55 44.93C131.477 44.93 131.423 44.9 131.39 44.84C131.357 44.7733 131.32 44.66 131.28 44.5C131.133 43.84 130.807 43.24 130.3 42.7L130.42 42.57ZM133.05 48.85C132.383 49.6033 131.947 50.1133 131.74 50.38C131.54 50.6533 131.36 50.9533 131.2 51.28C131.153 51.3667 131.1 51.41 131.04 51.41C130.993 51.41 130.927 51.3533 130.84 51.24C130.76 51.1267 130.623 50.88 130.43 50.5C130.57 50.38 130.673 50.25 130.74 50.11C130.807 49.9767 130.84 49.78 130.84 49.52V46.23H129.84C129.72 46.23 129.61 46.2467 129.51 46.28L129.24 45.87C129.353 45.9033 129.493 45.92 129.66 45.92H130.79L131 45.51C131.047 45.4167 131.107 45.37 131.18 45.37C131.253 45.37 131.427 45.4667 131.7 45.66C131.973 45.8533 132.11 45.98 132.11 46.04C132.11 46.1133 131.96 46.21 131.66 46.33V49.63L132.91 48.73L133.05 48.85ZM133.4 48.25C133.833 48.4367 134.153 48.62 134.36 48.8C134.573 48.9733 134.68 49.16 134.68 49.36C134.68 49.5533 134.627 49.7133 134.52 49.84C134.42 49.96 134.313 50.02 134.2 50.02C134.147 50.02 134.103 50 134.07 49.96C134.037 49.9133 134 49.8167 133.96 49.67C133.847 49.23 133.62 48.8033 133.28 48.39L133.4 48.25ZM144.58 43.74C142.82 43.9333 141.587 44.03 140.88 44.03V43.81C143.667 43.4567 145.82 42.9333 147.34 42.24C147.793 42.6333 148.073 42.89 148.18 43.01C148.287 43.13 148.34 43.2167 148.34 43.27C148.34 43.3233 148.31 43.35 148.25 43.35C148.19 43.35 148.13 43.34 148.07 43.32C148.01 43.3 147.91 43.29 147.77 43.29C147.637 43.29 147.36 43.3267 146.94 43.4C146.527 43.4733 146.047 43.5467 145.5 43.62V45.44H146.86L147.23 44.9C147.29 44.8133 147.36 44.77 147.44 44.77C147.52 44.77 147.71 44.91 148.01 45.19C148.31 45.4633 148.46 45.63 148.46 45.69C148.46 45.7433 148.38 45.77 148.22 45.77H145.5V47.39H147.86L148.37 46.75C148.443 46.6633 148.507 46.62 148.56 46.62C148.62 46.62 148.803 46.78 149.11 47.1C149.423 47.4133 149.58 47.5967 149.58 47.65C149.58 47.7033 149.5 47.73 149.34 47.73H145.5V50.49C145.5 50.7433 145.467 50.9333 145.4 51.06C145.34 51.1933 145.183 51.3233 144.93 51.45C144.683 51.5833 144.51 51.65 144.41 51.65C144.343 51.65 144.3 51.5967 144.28 51.49C144.233 51.25 144.12 51.0633 143.94 50.93C143.76 50.8033 143.413 50.66 142.9 50.5L142.95 50.3C143.51 50.3933 143.89 50.44 144.09 50.44C144.297 50.44 144.43 50.4 144.49 50.32C144.55 50.2467 144.58 50.1067 144.58 49.9V47.73H141C140.773 47.73 140.607 47.75 140.5 47.79L140.32 47.34C140.46 47.3733 140.627 47.39 140.82 47.39H144.58V45.77H142.11C141.883 45.77 141.717 45.79 141.61 45.83L141.43 45.39C141.57 45.4233 141.737 45.44 141.93 45.44H144.58V43.74ZM154.05 50.22C154.163 50.2133 154.273 50.2067 154.38 50.2C154.493 50.2 154.607 50.1967 154.72 50.19C155.08 49.73 155.423 49.2367 155.75 48.71C156.077 48.1767 156.38 47.6467 156.66 47.12H154.66C154.58 47.12 154.5 47.1267 154.42 47.14C154.34 47.1533 154.28 47.17 154.24 47.19L154.04 46.75L153.7 47.9C153.6 48.22 153.52 48.49 153.46 48.71C153.4 48.93 153.357 49.1367 153.33 49.33C153.31 49.5167 153.303 49.71 153.31 49.91C153.317 50.1033 153.337 50.3367 153.37 50.61C153.397 50.7967 153.403 50.9533 153.39 51.08C153.377 51.2133 153.35 51.32 153.31 51.4C153.27 51.48 153.217 51.5367 153.15 51.57C153.09 51.6033 153.023 51.62 152.95 51.62C152.83 51.62 152.723 51.59 152.63 51.53C152.543 51.47 152.473 51.39 152.42 51.29C152.373 51.19 152.343 51.0767 152.33 50.95C152.323 50.8233 152.34 50.6933 152.38 50.56C152.413 50.4333 152.44 50.3233 152.46 50.23C152.487 50.1367 152.507 50.0467 152.52 49.96C152.533 49.8733 152.54 49.7867 152.54 49.7C152.547 49.6133 152.55 49.5133 152.55 49.4C152.55 49.3267 152.54 49.2633 152.52 49.21C152.5 49.15 152.447 49.0933 152.36 49.04C152.28 48.98 152.16 48.9233 152 48.87C151.84 48.81 151.62 48.7433 151.34 48.67L151.36 48.47C151.66 48.49 151.9 48.4967 152.08 48.49C152.26 48.4767 152.41 48.4367 152.53 48.37C152.65 48.3033 152.75 48.2033 152.83 48.07C152.917 47.93 153.01 47.74 153.11 47.5L154.78 43.61L154.98 43.7L154.68 44.64C154.753 44.6533 154.82 44.6633 154.88 44.67C154.94 44.67 155.01 44.67 155.09 44.67H156.71V43.26C156.71 43.0267 156.71 42.84 156.71 42.7C156.71 42.56 156.703 42.4333 156.69 42.32C156.797 42.3467 156.887 42.3733 156.96 42.4C157.033 42.42 157.1 42.4433 157.16 42.47C157.227 42.4967 157.293 42.5233 157.36 42.55C157.427 42.5767 157.507 42.6067 157.6 42.64C157.673 42.6667 157.737 42.6967 157.79 42.73C157.85 42.7567 157.883 42.79 157.89 42.83C157.903 42.87 157.883 42.9167 157.83 42.97C157.783 43.0167 157.693 43.0733 157.56 43.14V44.67H158.74L158.99 44.17C159.043 44.0633 159.093 44.01 159.14 44.01C159.193 44.01 159.273 44.05 159.38 44.13C159.5 44.2233 159.607 44.3133 159.7 44.4C159.8 44.4867 159.897 44.58 159.99 44.68C160.183 44.88 160.147 44.98 159.88 44.98H157.56V46.78H159.15L159.51 46.19C159.563 46.1033 159.61 46.06 159.65 46.06C159.697 46.06 159.763 46.0967 159.85 46.17C159.983 46.2767 160.1 46.3733 160.2 46.46C160.3 46.5467 160.403 46.6433 160.51 46.75C160.663 46.9033 160.733 47.0033 160.72 47.05C160.713 47.0967 160.623 47.12 160.45 47.12H156.87C156.99 47.1733 157.097 47.2233 157.19 47.27C157.283 47.3167 157.367 47.3667 157.44 47.42C157.573 47.5133 157.633 47.5867 157.62 47.64C157.613 47.6933 157.56 47.7333 157.46 47.76C157.407 47.7733 157.343 47.8067 157.27 47.86C157.203 47.9133 157.123 47.9967 157.03 48.11C156.91 48.25 156.777 48.4033 156.63 48.57C156.483 48.7367 156.33 48.91 156.17 49.09C156.017 49.27 155.857 49.45 155.69 49.63C155.53 49.81 155.373 49.9833 155.22 50.15L158.62 49.87C158.52 49.6367 158.39 49.4033 158.23 49.17C158.077 48.9367 157.877 48.6933 157.63 48.44L157.75 48.28C158.203 48.56 158.567 48.81 158.84 49.03C159.12 49.2433 159.337 49.44 159.49 49.62C159.643 49.7933 159.747 49.95 159.8 50.09C159.853 50.2367 159.88 50.3767 159.88 50.51C159.88 50.8033 159.827 51.01 159.72 51.13C159.613 51.25 159.49 51.31 159.35 51.31C159.257 51.31 159.167 51.2767 159.08 51.21C158.993 51.1433 158.937 51.02 158.91 50.84C158.897 50.76 158.883 50.69 158.87 50.63C158.863 50.5767 158.853 50.5267 158.84 50.48C158.827 50.44 158.81 50.3933 158.79 50.34C158.777 50.2933 158.76 50.2333 158.74 50.16C158.12 50.2867 157.587 50.4033 157.14 50.51C156.693 50.6167 156.317 50.7133 156.01 50.8C155.703 50.8867 155.463 50.96 155.29 51.02C155.117 51.0867 154.993 51.14 154.92 51.18C154.84 51.2267 154.76 51.25 154.68 51.25C154.6 51.25 154.54 51.22 154.5 51.16C154.407 51.0267 154.323 50.88 154.25 50.72C154.183 50.5667 154.117 50.4 154.05 50.22ZM154.05 46.74C154.137 46.76 154.213 46.7733 154.28 46.78C154.353 46.78 154.44 46.78 154.54 46.78H156.71V44.98H155.23C155.15 44.98 155.07 44.9867 154.99 45C154.91 45.0133 154.85 45.03 154.81 45.05L154.65 44.74L154.05 46.74ZM153.92 43.83C153.92 43.9167 153.903 44.0067 153.87 44.1C153.837 44.1933 153.793 44.28 153.74 44.36C153.687 44.44 153.63 44.5067 153.57 44.56C153.51 44.6067 153.45 44.63 153.39 44.63C153.323 44.63 153.27 44.61 153.23 44.57C153.19 44.5233 153.143 44.42 153.09 44.26C153.01 43.9867 152.897 43.72 152.75 43.46C152.61 43.2 152.407 42.9433 152.14 42.69L152.22 42.54C152.587 42.6867 152.88 42.8167 153.1 42.93C153.327 43.0367 153.5 43.1367 153.62 43.23C153.74 43.3233 153.82 43.42 153.86 43.52C153.9 43.6133 153.92 43.7167 153.92 43.83ZM153.13 46.16C153.13 46.26 153.107 46.36 153.06 46.46C153.02 46.5533 152.97 46.6367 152.91 46.71C152.85 46.7833 152.783 46.8433 152.71 46.89C152.643 46.9367 152.583 46.96 152.53 46.96C152.463 46.96 152.407 46.9367 152.36 46.89C152.32 46.8367 152.277 46.7233 152.23 46.55C152.19 46.41 152.15 46.2833 152.11 46.17C152.077 46.0567 152.03 45.95 151.97 45.85C151.917 45.7433 151.843 45.6367 151.75 45.53C151.663 45.4167 151.55 45.29 151.41 45.15L151.51 44.99C151.857 45.11 152.137 45.2167 152.35 45.31C152.563 45.4033 152.727 45.4933 152.84 45.58C152.96 45.66 153.037 45.7467 153.07 45.84C153.11 45.9333 153.13 46.04 153.13 46.16Z" fill="white"/>
<path d="M220.57 44.23C221.01 44.31 221.337 44.4 221.55 44.5C221.763 44.5933 221.87 44.74 221.87 44.94C221.87 45.14 221.817 45.3033 221.71 45.43C221.61 45.55 221.507 45.61 221.4 45.61C221.293 45.61 221.217 45.5233 221.17 45.35C221.077 45.0167 220.877 44.72 220.57 44.46V51.08C220.57 51.1667 220.557 51.2267 220.53 51.26C220.51 51.3 220.39 51.3733 220.17 51.48C219.95 51.5867 219.82 51.64 219.78 51.64C219.747 51.64 219.73 51.6033 219.73 51.53L219.75 50.98C219.757 50.76 219.76 50.5067 219.76 50.22V43.17C219.76 42.8367 219.753 42.54 219.74 42.28C220.56 42.4667 220.97 42.61 220.97 42.71C220.97 42.77 220.837 42.87 220.57 43.01V44.23ZM223.81 43.76H222.29C222.11 43.76 221.97 43.7833 221.87 43.83L221.69 43.4C221.83 43.4333 221.997 43.45 222.19 43.45H223.81V43.18C223.81 42.8467 223.803 42.55 223.79 42.29C224.617 42.45 225.03 42.5767 225.03 42.67C225.03 42.73 224.903 42.81 224.65 42.91V43.45H225.86L226.18 42.98C226.253 42.8733 226.313 42.82 226.36 42.82C226.44 42.82 226.613 42.94 226.88 43.18C227.153 43.42 227.29 43.5767 227.29 43.65C227.29 43.7233 227.21 43.76 227.05 43.76H224.65V44.56H225.7L225.98 44.11C226.04 44.01 226.1 43.96 226.16 43.96C226.227 43.96 226.38 44.0767 226.62 44.31C226.86 44.5433 226.98 44.6967 226.98 44.77C226.98 44.8367 226.91 44.87 226.77 44.87H224.65V45.75H226.22L226.54 45.32C226.607 45.2133 226.677 45.16 226.75 45.16C226.823 45.16 226.997 45.2833 227.27 45.53C227.55 45.77 227.69 45.9267 227.69 46C227.69 46.0467 227.617 46.07 227.47 46.07H222.14C221.96 46.07 221.82 46.0933 221.72 46.14L221.54 45.7C221.68 45.7333 221.847 45.75 222.04 45.75H223.81V44.87H222.81C222.63 44.87 222.49 44.8933 222.39 44.94L222.21 44.51C222.35 44.5433 222.517 44.56 222.71 44.56H223.81V43.76ZM219.2 44.44C219.32 45.0933 219.38 45.58 219.38 45.9C219.38 46.2133 219.313 46.46 219.18 46.64C219.053 46.8133 218.877 46.9 218.65 46.9C218.543 46.9 218.453 46.8767 218.38 46.83C218.307 46.7833 218.27 46.71 218.27 46.61C218.27 46.51 218.343 46.35 218.49 46.13C218.803 45.67 218.96 45.11 218.96 44.45L219.2 44.44ZM223.2 46.84H225.44L225.65 46.54C225.697 46.4733 225.757 46.44 225.83 46.44C225.91 46.44 226.083 46.5133 226.35 46.66C226.617 46.8067 226.75 46.9133 226.75 46.98C226.75 47.0467 226.63 47.1267 226.39 47.22V50.5C226.39 50.8 226.367 51.0033 226.32 51.11C226.28 51.2167 226.16 51.33 225.96 51.45C225.76 51.5767 225.623 51.64 225.55 51.64C225.483 51.64 225.417 51.5567 225.35 51.39C225.263 51.1833 225.147 51.0267 225 50.92C224.853 50.8133 224.597 50.7167 224.23 50.63L224.25 50.42C224.717 50.4867 225.027 50.52 225.18 50.52C225.34 50.52 225.44 50.4967 225.48 50.45C225.52 50.41 225.54 50.3333 225.54 50.22V49.27H223.09V51.11C223.09 51.21 223.07 51.28 223.03 51.32C222.99 51.36 222.88 51.42 222.7 51.5C222.52 51.58 222.403 51.62 222.35 51.62C222.303 51.62 222.28 51.5667 222.28 51.46L222.3 51.07C222.307 50.8033 222.31 50.5067 222.31 50.18V47.61C222.31 47.17 222.3 46.79 222.28 46.47C222.62 46.5633 222.927 46.6867 223.2 46.84ZM225.54 47.86V47.13H223.09V47.86H225.54ZM225.54 48.98V48.18H223.09V48.98H225.54ZM234.74 44.15H231.36C231.347 45.3833 231.293 46.23 231.2 46.69C231.113 47.1433 230.94 47.5733 230.68 47.98C230.42 48.3867 229.99 48.8367 229.39 49.33L229.26 49.17C229.773 48.61 230.113 48.0567 230.28 47.51C230.447 46.9567 230.53 46.1833 230.53 45.19C230.53 44.6833 230.507 44.1 230.46 43.44C230.78 43.5267 231.12 43.66 231.48 43.84H234.71C234.65 43.2533 234.59 42.75 234.53 42.33C234.817 42.3767 235.067 42.43 235.28 42.49C235.493 42.5433 235.617 42.5833 235.65 42.61C235.69 42.63 235.71 42.6533 235.71 42.68C235.71 42.7467 235.623 42.8267 235.45 42.92C235.443 43.2067 235.45 43.5133 235.47 43.84H237.13L237.56 43.35C237.613 43.29 237.663 43.26 237.71 43.26C237.757 43.26 237.897 43.3867 238.13 43.64C238.37 43.8867 238.49 44.0333 238.49 44.08C238.49 44.1267 238.433 44.15 238.32 44.15H235.49C235.563 44.9967 235.75 45.7333 236.05 46.36C236.283 45.8933 236.5 45.3533 236.7 44.74C236.86 44.7867 237.067 44.8733 237.32 45C237.58 45.12 237.71 45.2033 237.71 45.25C237.71 45.29 237.667 45.32 237.58 45.34C237.493 45.36 237.423 45.4067 237.37 45.48C237.317 45.5467 237.213 45.73 237.06 46.03C236.913 46.33 236.703 46.6567 236.43 47.01C236.557 47.19 236.727 47.3733 236.94 47.56C237.153 47.7467 237.297 47.84 237.37 47.84C237.45 47.84 237.507 47.81 237.54 47.75C237.58 47.6833 237.633 47.54 237.7 47.32C237.767 47.1 237.853 46.76 237.96 46.3L238.16 46.34C238.113 46.7067 238.09 47.0267 238.09 47.3C238.09 47.8667 238.197 48.2867 238.41 48.56C238.497 48.6733 238.54 48.77 238.54 48.85C238.54 48.9233 238.467 48.96 238.32 48.96C238.02 48.96 237.64 48.8567 237.18 48.65C236.72 48.4367 236.303 48.0867 235.93 47.6C235.383 48.1733 234.843 48.5933 234.31 48.86C234.563 49.0467 234.69 49.2333 234.69 49.42C234.69 49.6 234.653 49.7633 234.58 49.91C234.507 50.05 234.393 50.12 234.24 50.12C234.193 50.12 234.16 50.1067 234.14 50.08C234.12 50.06 234.093 50 234.06 49.9C234.027 49.7933 233.94 49.5967 233.8 49.31C233.66 49.0233 233.52 48.7667 233.38 48.54L233.52 48.37C233.76 48.4967 233.97 48.6233 234.15 48.75C234.783 48.15 235.27 47.6 235.61 47.1C235.37 46.6933 235.187 46.2833 235.06 45.87C234.94 45.4567 234.833 44.8833 234.74 44.15ZM235.96 42.45C236.373 42.55 236.65 42.65 236.79 42.75C236.93 42.8433 237 42.9667 237 43.12C237 43.2667 236.967 43.4033 236.9 43.53C236.833 43.65 236.753 43.71 236.66 43.71C236.573 43.71 236.493 43.6233 236.42 43.45C236.247 43.0233 236.06 42.7333 235.86 42.58L235.96 42.45ZM233.44 44.97L233.76 44.58C233.807 44.52 233.853 44.49 233.9 44.49C233.953 44.49 234.093 44.5967 234.32 44.81C234.547 45.0167 234.66 45.1433 234.66 45.19C234.66 45.2367 234.61 45.26 234.51 45.26H232.01C231.83 45.26 231.69 45.2833 231.59 45.33L231.41 44.92C231.55 44.9533 231.717 44.97 231.91 44.97H233.44ZM233.61 47.81H232.46V48.03C232.46 48.09 232.437 48.1367 232.39 48.17C232.343 48.1967 232.243 48.2333 232.09 48.28C231.943 48.32 231.84 48.34 231.78 48.34C231.727 48.34 231.703 48.3 231.71 48.22C231.737 47.92 231.75 47.5967 231.75 47.25V46.56C231.75 46.28 231.74 45.9967 231.72 45.71C232.1 45.8367 232.38 45.9433 232.56 46.03H233.61L233.78 45.77C233.807 45.7233 233.84 45.7 233.88 45.7C233.92 45.7 234.063 45.7767 234.31 45.93C234.557 46.0767 234.68 46.1733 234.68 46.22C234.68 46.2667 234.57 46.3467 234.35 46.46V46.99C234.35 47.2767 234.353 47.47 234.36 47.57L234.38 47.86C234.38 47.8933 234.367 47.92 234.34 47.94C234.32 47.9533 234.227 47.9833 234.06 48.03C233.893 48.07 233.763 48.09 233.67 48.09C233.63 48.09 233.61 48.06 233.61 48V47.81ZM232.46 47.47H233.61V46.34H232.46V47.47ZM235.93 48.91C235.93 49.39 235.957 49.7633 236.01 50.03C236.07 50.3033 236.177 50.4833 236.33 50.57C236.417 50.6233 236.46 50.6733 236.46 50.72C236.46 50.7733 236.4 50.8833 236.28 51.05C236.16 51.2167 235.983 51.33 235.75 51.39C235.517 51.4567 235.053 51.49 234.36 51.49C233.673 51.49 233.177 51.4633 232.87 51.41C232.563 51.3567 232.363 51.2633 232.27 51.13C232.177 51.0033 232.13 50.7733 232.13 50.44V49.51C232.13 49.2367 232.12 48.9633 232.1 48.69C232.567 48.77 232.863 48.8333 232.99 48.88C233.123 48.92 233.19 48.9667 233.19 49.02C233.19 49.0733 233.107 49.1267 232.94 49.18V50.22C232.94 50.3867 232.947 50.5033 232.96 50.57C232.98 50.6367 233.013 50.68 233.06 50.7C233.113 50.7267 233.283 50.7433 233.57 50.75C233.857 50.7567 234.1 50.76 234.3 50.76C234.86 50.76 235.207 50.7167 235.34 50.63C235.48 50.5433 235.603 49.9667 235.71 48.9L235.93 48.91ZM231.36 48.8C231.4 49.0933 231.42 49.3633 231.42 49.61C231.42 50.0967 231.347 50.4867 231.2 50.78C231.053 51.08 230.857 51.23 230.61 51.23C230.45 51.23 230.31 51.1833 230.19 51.09C230.07 51.0033 230.01 50.8867 230.01 50.74C230.01 50.6333 230.12 50.5067 230.34 50.36C230.593 50.1933 230.77 50.0133 230.87 49.82C230.97 49.62 231.053 49.28 231.12 48.8H231.36ZM236.53 48.87C237.163 49.2633 237.583 49.5567 237.79 49.75C238.003 49.9433 238.11 50.12 238.11 50.28C238.11 50.44 238.06 50.6167 237.96 50.81C237.86 51.01 237.747 51.11 237.62 51.11C237.54 51.11 237.473 51.0833 237.42 51.03C237.373 50.9833 237.297 50.82 237.19 50.54C237.083 50.26 236.97 50.0067 236.85 49.78C236.737 49.5467 236.583 49.2933 236.39 49.02L236.53 48.87Z" fill="white"/>
</svg>
