<svg width="295" height="265" viewBox="0 0 295 265" fill="none" xmlns="http://www.w3.org/2000/svg">
    <g class='meaning-btn'>
        <rect x="225.244" y="239.384" width="64.4651" height="19.9535" rx="9.97674" stroke="#84D3FF" fill="#000"
            stroke-width="0.767442" />
        <path
            d="M239.648 246.369V248.42H241.698L242.214 247.757C242.279 247.675 242.337 247.634 242.386 247.634C242.435 247.634 242.525 247.691 242.656 247.806C242.795 247.912 242.955 248.043 243.135 248.199C243.315 248.354 243.438 248.469 243.503 248.543C243.577 248.608 243.614 248.67 243.614 248.727C243.614 248.784 243.528 248.813 243.356 248.813H235.436C235.215 248.813 235.043 248.841 234.92 248.899L234.699 248.359C234.871 248.399 235.076 248.42 235.313 248.42H238.42V246.369H234.306C234.085 246.369 233.913 246.398 233.79 246.455L233.569 245.89C233.741 245.931 233.946 245.952 234.183 245.952H238.42V244.724C238.42 244.282 238.411 243.897 238.395 243.57C238.763 243.627 239.148 243.721 239.549 243.852C239.95 243.975 240.151 244.081 240.151 244.171C240.151 244.253 239.983 244.376 239.648 244.54V245.952H242.828L243.282 245.326C243.339 245.252 243.393 245.215 243.442 245.215C243.54 245.215 243.781 245.375 244.166 245.694C244.559 246.013 244.756 246.206 244.756 246.271C244.756 246.337 244.666 246.369 244.485 246.369H239.648ZM237.204 250.274H241.072L241.354 249.746C241.42 249.631 241.481 249.574 241.538 249.574C241.604 249.574 241.841 249.693 242.251 249.93C242.668 250.168 242.877 250.327 242.877 250.409C242.877 250.491 242.717 250.626 242.398 250.814V253.749C242.398 253.921 242.402 254.081 242.41 254.228L242.435 254.572C242.435 254.703 242.283 254.813 241.981 254.903C241.678 254.993 241.461 255.038 241.33 255.038C241.248 255.038 241.207 254.985 241.207 254.879V253.847H236.86V254.596C236.86 254.711 236.823 254.793 236.75 254.842C236.684 254.899 236.52 254.969 236.258 255.051C236.005 255.132 235.829 255.173 235.73 255.173C235.69 255.173 235.669 255.141 235.669 255.075L235.694 254.584C235.71 254.379 235.718 254.179 235.718 253.982V250.667C235.718 250.323 235.706 249.975 235.681 249.623C236.23 249.779 236.737 249.996 237.204 250.274ZM241.207 253.467V250.655H236.86V253.467H241.207ZM253.94 245.129C253.826 245.145 253.723 245.195 253.633 245.276C253.552 245.358 253.457 245.522 253.351 245.768C253.105 246.357 252.872 246.873 252.651 247.315C252.43 247.757 252.189 248.187 251.927 248.604C252.344 249.046 252.688 249.423 252.958 249.734C253.236 250.037 253.453 250.299 253.609 250.52C253.773 250.732 253.883 250.908 253.94 251.048C254.006 251.187 254.039 251.314 254.039 251.428C254.039 251.78 253.969 252.05 253.83 252.239C253.699 252.419 253.576 252.509 253.461 252.509C253.404 252.509 253.359 252.505 253.326 252.497C253.294 252.488 253.261 252.468 253.228 252.435C253.204 252.402 253.175 252.361 253.142 252.312C253.118 252.255 253.081 252.177 253.032 252.079C252.794 251.604 252.541 251.158 252.27 250.741C252.008 250.315 251.722 249.881 251.411 249.439C251.116 249.791 250.842 250.102 250.588 250.372C250.334 250.642 250.072 250.896 249.802 251.134C249.54 251.371 249.262 251.6 248.967 251.821C248.681 252.042 248.362 252.276 248.01 252.521L247.874 252.3C248.186 252.014 248.476 251.731 248.746 251.453C249.016 251.166 249.274 250.876 249.52 250.581C249.765 250.286 249.995 249.979 250.208 249.66C250.429 249.341 250.637 249.001 250.834 248.641C250.514 248.183 250.109 247.659 249.618 247.069C249.135 246.472 248.595 245.837 247.997 245.166L248.145 245.019C248.48 245.272 248.779 245.51 249.041 245.731C249.311 245.952 249.565 246.173 249.802 246.394C250.04 246.615 250.273 246.844 250.502 247.081C250.74 247.319 250.993 247.585 251.264 247.88C251.542 247.315 251.8 246.721 252.037 246.099C252.274 245.477 252.5 244.81 252.712 244.098C252.868 244.171 252.999 244.237 253.105 244.294C253.22 244.351 253.322 244.405 253.412 244.454C253.502 244.503 253.588 244.556 253.67 244.613C253.752 244.663 253.838 244.716 253.928 244.773C254.059 244.863 254.12 244.941 254.112 245.006C254.104 245.072 254.047 245.113 253.94 245.129ZM246.597 246.75C246.597 246.463 246.593 246.247 246.585 246.099C246.585 245.944 246.581 245.8 246.573 245.669C246.884 245.759 247.134 245.841 247.322 245.915C247.51 245.98 247.715 246.062 247.936 246.161C248.05 246.21 248.096 246.267 248.071 246.332C248.055 246.398 247.915 246.472 247.653 246.553V253.417H254.874V246.824C254.874 246.537 254.869 246.32 254.861 246.173C254.861 246.017 254.857 245.874 254.849 245.743C255.16 245.833 255.422 245.919 255.635 246.001C255.848 246.083 256.089 246.185 256.359 246.308C256.507 246.373 256.56 246.447 256.519 246.529C256.478 246.603 256.302 246.705 255.991 246.836V252.73C255.991 252.975 255.991 253.192 255.991 253.381C255.999 253.569 256.011 253.774 256.028 253.995C256.028 254.068 256.003 254.121 255.954 254.154C255.88 254.203 255.815 254.244 255.758 254.277C255.7 254.31 255.639 254.338 255.573 254.363C255.508 254.396 255.43 254.424 255.34 254.449C255.25 254.482 255.136 254.519 254.996 254.559C254.914 254.584 254.874 254.547 254.874 254.449V253.835H247.653V254.142C247.653 254.232 247.617 254.302 247.543 254.351C247.396 254.449 247.256 254.527 247.125 254.584C246.994 254.641 246.847 254.695 246.683 254.744C246.593 254.776 246.548 254.735 246.548 254.621C246.565 254.072 246.577 253.598 246.585 253.196C246.593 252.804 246.597 252.423 246.597 252.055V246.75ZM260.19 250.544H263.076V249.562H261.332V249.758C261.332 249.816 261.308 249.857 261.259 249.881C261.152 249.938 261.029 249.983 260.89 250.016C260.751 250.041 260.575 250.073 260.362 250.114C260.321 250.123 260.301 250.094 260.301 250.028C260.317 249.914 260.325 249.803 260.325 249.697C260.325 249.582 260.325 249.492 260.325 249.427V246.824C260.325 246.684 260.321 246.562 260.313 246.455C260.313 246.341 260.305 246.218 260.289 246.087C260.428 246.136 260.546 246.177 260.645 246.21C260.743 246.242 260.829 246.275 260.903 246.308C260.984 246.341 261.062 246.377 261.136 246.418C261.21 246.451 261.296 246.492 261.394 246.541H265.667L265.9 246.222C265.949 246.156 265.994 246.124 266.035 246.124C266.084 246.116 266.162 246.144 266.269 246.21C266.432 246.324 266.584 246.418 266.723 246.492C266.862 246.558 267.001 246.644 267.14 246.75C267.255 246.832 267.292 246.91 267.251 246.983C267.21 247.057 267.075 247.143 266.846 247.241V249.181C266.846 249.345 266.858 249.513 266.882 249.685C266.891 249.75 266.862 249.799 266.797 249.832C266.674 249.881 266.551 249.922 266.428 249.955C266.305 249.979 266.125 250.012 265.888 250.053C265.831 250.053 265.802 250.02 265.802 249.955V249.562H264.058V250.544H266.981L267.239 250.127C267.28 250.061 267.337 250.016 267.41 249.992C267.492 249.967 267.578 249.988 267.668 250.053C267.824 250.168 267.971 250.282 268.11 250.397C268.25 250.503 268.389 250.606 268.528 250.704C268.634 250.777 268.671 250.855 268.638 250.937C268.614 251.019 268.454 251.129 268.16 251.269V253.589C268.16 253.778 268.139 253.941 268.098 254.081C268.065 254.22 268 254.343 267.902 254.449C267.812 254.564 267.681 254.666 267.509 254.756C267.337 254.854 267.116 254.956 266.846 255.063C266.649 255.137 266.543 255.1 266.526 254.952C266.51 254.838 266.485 254.735 266.453 254.645C266.42 254.564 266.354 254.482 266.256 254.4C266.166 254.326 266.031 254.252 265.851 254.179C265.671 254.105 265.434 254.019 265.139 253.921L265.151 253.675C265.618 253.774 265.982 253.835 266.244 253.86C266.514 253.892 266.715 253.892 266.846 253.86C266.977 253.835 267.058 253.778 267.091 253.688C267.124 253.606 267.14 253.491 267.14 253.344V250.937H264.058V252.3L265.483 252.19C265.352 251.928 265.163 251.649 264.918 251.355L265.028 251.183C265.397 251.346 265.683 251.502 265.888 251.649C266.101 251.788 266.26 251.928 266.367 252.067C266.473 252.198 266.539 252.333 266.563 252.472C266.588 252.611 266.604 252.759 266.612 252.914C266.621 253.07 266.567 253.201 266.453 253.307C266.346 253.422 266.219 253.471 266.072 253.454C266.015 253.446 265.957 253.405 265.9 253.332C265.843 253.266 265.802 253.184 265.777 253.086C265.753 252.971 265.728 252.865 265.704 252.767C265.687 252.668 265.659 252.57 265.618 252.472L263.101 253.012C262.798 253.078 262.507 253.151 262.229 253.233C261.95 253.315 261.75 253.397 261.627 253.479C261.447 253.593 261.324 253.589 261.259 253.467C261.201 253.36 261.148 253.266 261.099 253.184C261.058 253.102 261.017 253.025 260.976 252.951C260.935 252.869 260.894 252.787 260.853 252.705C260.821 252.623 260.784 252.529 260.743 252.423C260.939 252.423 261.12 252.423 261.283 252.423C261.447 252.423 261.615 252.419 261.787 252.411C261.959 252.402 262.147 252.394 262.352 252.386C262.556 252.37 262.798 252.353 263.076 252.337V250.937H260.19V254.498C260.19 254.564 260.182 254.609 260.166 254.633C260.158 254.658 260.129 254.686 260.08 254.719C259.957 254.785 259.834 254.834 259.712 254.866C259.589 254.899 259.421 254.94 259.208 254.989C259.151 254.997 259.126 254.961 259.134 254.879C259.143 254.756 259.147 254.617 259.147 254.461C259.155 254.306 259.159 254.146 259.159 253.982C259.167 253.819 259.171 253.655 259.171 253.491C259.171 253.336 259.171 253.192 259.171 253.061V250.937H258.827C258.729 250.937 258.631 250.945 258.533 250.962C258.434 250.978 258.361 250.999 258.312 251.023L258.091 250.483C258.205 250.507 258.304 250.524 258.385 250.532C258.475 250.54 258.582 250.544 258.705 250.544H259.171C259.171 250.274 259.159 250.02 259.134 249.783C259.323 249.824 259.519 249.877 259.724 249.943C259.928 250.008 260.096 250.065 260.227 250.114C260.383 250.18 260.461 250.237 260.461 250.286C260.469 250.335 260.379 250.405 260.19 250.495V250.544ZM269.216 245.473C269.33 245.588 269.375 245.682 269.351 245.755C269.326 245.821 269.244 245.854 269.105 245.854C268.999 245.854 268.9 245.862 268.81 245.878C268.72 245.895 268.614 245.935 268.491 246.001C268.368 246.066 268.217 246.165 268.037 246.296C267.865 246.427 267.644 246.603 267.374 246.824L267.202 246.725C267.267 246.578 267.325 246.455 267.374 246.357C267.423 246.251 267.464 246.156 267.496 246.075C267.537 245.985 267.574 245.903 267.607 245.829C267.64 245.747 267.672 245.661 267.705 245.571H259.626C259.634 245.784 259.634 245.968 259.626 246.124C259.617 246.271 259.593 246.402 259.552 246.517C259.519 246.623 259.466 246.721 259.392 246.811C259.319 246.901 259.22 246.991 259.098 247.081C259.016 247.147 258.922 247.192 258.815 247.217C258.717 247.241 258.619 247.253 258.52 247.253C258.422 247.245 258.332 247.225 258.25 247.192C258.177 247.151 258.123 247.098 258.091 247.032C258.042 246.942 258.025 246.832 258.042 246.701C258.058 246.57 258.177 246.418 258.398 246.247C258.529 246.148 258.635 246.058 258.717 245.976C258.799 245.886 258.868 245.784 258.926 245.669C258.991 245.555 259.044 245.416 259.085 245.252C259.126 245.088 259.167 244.879 259.208 244.626H259.441C259.466 244.732 259.486 244.834 259.503 244.933C259.527 245.031 259.548 245.125 259.564 245.215H263.285C263.26 245.043 263.223 244.896 263.174 244.773C263.133 244.642 263.076 244.527 263.002 244.429C262.929 244.323 262.834 244.22 262.72 244.122C262.605 244.016 262.462 243.901 262.29 243.778L262.401 243.607C262.892 243.664 263.281 243.733 263.567 243.815C263.862 243.897 264.071 243.991 264.193 244.098C264.324 244.204 264.386 244.323 264.378 244.454C264.378 244.577 264.337 244.712 264.255 244.859C264.173 245.006 264.079 245.125 263.972 245.215H267.644L267.938 244.822C268.02 244.716 268.082 244.663 268.123 244.663C268.172 244.654 268.25 244.687 268.356 244.761C268.552 244.9 268.708 245.019 268.823 245.117C268.937 245.215 269.068 245.334 269.216 245.473ZM265.802 246.922H264.058V247.916H265.802V246.922ZM263.076 246.922H261.332V247.916H263.076V246.922ZM265.802 248.309H264.058V249.181H265.802V248.309ZM263.076 248.309H261.332V249.181H263.076V248.309ZM277.111 245.448H271.684C271.463 245.448 271.291 245.477 271.168 245.534L270.947 245.019C271.119 245.06 271.323 245.08 271.561 245.08H275.49C275.285 244.401 274.974 243.905 274.557 243.594L274.618 243.361C275.15 243.418 275.592 243.512 275.944 243.643C276.305 243.766 276.485 243.963 276.485 244.233C276.485 244.585 276.301 244.867 275.932 245.08H278.818L279.272 244.392C279.338 244.302 279.403 244.257 279.469 244.257C279.534 244.257 279.755 244.413 280.132 244.724C280.508 245.027 280.696 245.223 280.696 245.313C280.696 245.403 280.606 245.448 280.426 245.448H277.516C278.179 245.686 278.511 245.874 278.511 246.013C278.511 246.103 278.429 246.156 278.265 246.173C278.11 246.189 277.95 246.255 277.786 246.369C277.631 246.476 277.41 246.684 277.123 246.996H279.677L280.144 246.308C280.201 246.218 280.267 246.173 280.34 246.173C280.422 246.173 280.651 246.337 281.028 246.664C281.413 246.983 281.605 247.184 281.605 247.266C281.605 247.339 281.523 247.376 281.36 247.376H270.971C270.75 247.376 270.578 247.405 270.456 247.462L270.235 246.934C270.407 246.975 270.611 246.996 270.849 246.996H274.041C273.902 246.406 273.673 245.964 273.354 245.669L273.452 245.51C274.467 245.665 274.974 245.948 274.974 246.357C274.974 246.447 274.946 246.553 274.888 246.676C274.831 246.799 274.745 246.905 274.631 246.996H276.595C276.808 246.529 276.98 246.013 277.111 245.448ZM273.427 248.039H278.007L278.302 247.671C278.351 247.605 278.4 247.573 278.449 247.573C278.507 247.573 278.728 247.683 279.112 247.904C279.505 248.125 279.702 248.268 279.702 248.334C279.702 248.416 279.534 248.551 279.198 248.739V249.832C279.198 250.069 279.203 250.323 279.211 250.593L279.235 250.974C279.235 251.056 279.207 251.117 279.149 251.158C279.092 251.199 278.965 251.248 278.769 251.305C278.572 251.355 278.404 251.379 278.265 251.379C278.192 251.379 278.155 251.351 278.155 251.293V251.06H273.354C273.354 251.15 273.333 251.211 273.292 251.244C273.259 251.269 273.19 251.305 273.083 251.355C272.977 251.396 272.834 251.436 272.654 251.477C272.482 251.51 272.371 251.527 272.322 251.527C272.281 251.527 272.265 251.486 272.273 251.404C272.314 251.109 272.334 250.737 272.334 250.286V248.739C272.334 248.387 272.322 248.039 272.298 247.695C272.723 247.777 273.1 247.892 273.427 248.039ZM278.155 249.378V248.408H273.354V249.378H278.155ZM278.155 250.704V249.734H273.354V250.704H278.155ZM275.245 251.379C275.834 251.486 276.264 251.612 276.534 251.76C276.804 251.907 276.939 252.087 276.939 252.3C276.939 252.505 276.886 252.701 276.779 252.889C276.673 253.07 276.53 253.16 276.35 253.16C276.178 253.16 276.043 253.033 275.944 252.779C275.854 252.517 275.756 252.304 275.65 252.14C275.543 251.977 275.371 251.784 275.134 251.563L275.245 251.379ZM278.388 252.091C278.388 252.492 278.404 252.795 278.437 253C278.478 253.205 278.539 253.36 278.621 253.467C278.703 253.573 278.83 253.679 279.002 253.786C279.092 253.843 279.137 253.9 279.137 253.958C279.137 254.015 279.059 254.134 278.904 254.314C278.756 254.502 278.572 254.629 278.351 254.695C278.13 254.768 277.717 254.817 277.111 254.842C276.513 254.866 275.912 254.879 275.306 254.879C274.708 254.879 274.266 254.854 273.98 254.805C273.701 254.756 273.521 254.654 273.44 254.498C273.366 254.351 273.329 254.081 273.329 253.688V252.558C273.329 252.222 273.317 251.887 273.292 251.551C273.98 251.682 274.373 251.764 274.471 251.797C274.569 251.821 274.618 251.858 274.618 251.907C274.618 251.948 274.524 252.026 274.336 252.14V253.565C274.336 253.753 274.373 253.868 274.446 253.909C274.528 253.95 274.704 253.974 274.974 253.982C275.253 253.991 275.699 253.995 276.313 253.995C276.935 253.995 277.365 253.945 277.602 253.847C277.848 253.749 278.02 253.16 278.118 252.079L278.388 252.091ZM279.051 251.563C279.714 251.825 280.246 252.091 280.647 252.361C281.048 252.623 281.249 252.894 281.249 253.172C281.249 253.458 281.184 253.692 281.053 253.872C280.93 254.06 280.795 254.154 280.647 254.154C280.557 254.154 280.475 254.117 280.402 254.044C280.336 253.97 280.23 253.761 280.083 253.417C279.943 253.082 279.776 252.783 279.579 252.521C279.383 252.251 279.162 251.997 278.916 251.76L279.051 251.563ZM272.113 251.698C272.179 252.124 272.212 252.492 272.212 252.804C272.212 253.401 272.077 253.847 271.806 254.142C271.544 254.437 271.27 254.584 270.984 254.584C270.82 254.584 270.669 254.535 270.529 254.437C270.398 254.338 270.333 254.203 270.333 254.031C270.333 253.868 270.484 253.679 270.787 253.467C271.098 253.262 271.332 253.041 271.487 252.804C271.643 252.558 271.77 252.19 271.868 251.698H272.113Z"
            fill="white" />
        <circle cx="224.861" cy="248.65" r="3.06977" fill="#D9D9D9" />
    </g>


    <g class='season-btn'>
        <rect x="225.244" y="179.384" width="64.4651" height="19.9535" rx="9.97674" stroke="#84D3FF" fill="#000"
            stroke-width="0.767442" />
        <path
            d="M242.791 186.615H243.11L243.565 185.976C243.622 185.895 243.679 185.854 243.736 185.854C243.802 185.854 243.986 186.017 244.289 186.345C244.592 186.672 244.743 186.865 244.743 186.922C244.743 186.979 244.666 187.008 244.51 187.008H242.791V193.565C242.791 193.827 242.77 194.027 242.73 194.167C242.697 194.306 242.615 194.424 242.484 194.523C242.361 194.621 242.152 194.723 241.858 194.83C241.563 194.944 241.379 195.001 241.305 195.001C241.24 195.001 241.186 194.936 241.146 194.805C241.047 194.453 240.875 194.203 240.63 194.056C240.392 193.917 240.061 193.786 239.635 193.663L239.672 193.417C240.458 193.54 240.965 193.602 241.195 193.602C241.424 193.602 241.567 193.565 241.624 193.491C241.682 193.426 241.71 193.299 241.71 193.111V187.008H238.567C238.362 187.008 238.186 187.028 238.039 187.069L237.83 186.553C238.002 186.594 238.207 186.615 238.444 186.615H241.71V184.859C241.71 184.409 241.702 183.975 241.686 183.557C241.915 183.607 242.222 183.68 242.607 183.778C242.992 183.877 243.208 183.942 243.258 183.975C243.315 184.008 243.344 184.04 243.344 184.073C243.344 184.171 243.159 184.315 242.791 184.503V186.615ZM235.055 184.994H236.504L236.786 184.503C236.836 184.421 236.893 184.38 236.958 184.38C237.008 184.38 237.147 184.454 237.376 184.601C237.613 184.74 237.802 184.863 237.941 184.969C238.08 185.076 238.149 185.158 238.149 185.215C238.149 185.272 237.99 185.383 237.671 185.547V191.625L237.695 192.73C237.695 192.828 237.687 192.889 237.671 192.914C237.654 192.93 237.572 192.975 237.425 193.049C237.286 193.131 237.138 193.196 236.983 193.246C236.827 193.295 236.729 193.319 236.688 193.319C236.656 193.319 236.639 193.27 236.639 193.172V192.128H234.834V193.319C234.834 193.393 234.826 193.442 234.81 193.467C234.793 193.499 234.72 193.548 234.589 193.614C234.466 193.688 234.318 193.753 234.146 193.81C233.975 193.868 233.868 193.896 233.827 193.896C233.794 193.896 233.782 193.86 233.79 193.786C233.831 193.385 233.852 192.975 233.852 192.558V185.35C233.852 185.006 233.84 184.658 233.815 184.306C234.355 184.544 234.769 184.773 235.055 184.994ZM236.639 188.457V185.375H234.834V188.457H236.639ZM236.639 191.748V188.837H234.834V191.748H236.639ZM239.021 188.15C239.562 188.535 239.975 188.882 240.261 189.193C240.548 189.505 240.691 189.791 240.691 190.053C240.691 190.315 240.605 190.548 240.433 190.753C240.261 190.958 240.077 191.06 239.881 191.06C239.701 191.06 239.598 190.921 239.574 190.642C239.508 189.701 239.23 188.915 238.739 188.285L239.021 188.15ZM251.656 184.884C250.928 186.242 250.138 187.323 249.287 188.125C248.435 188.919 247.244 189.697 245.713 190.458L245.578 190.274C247.003 189.316 248.128 188.318 248.955 187.278C249.79 186.238 250.449 184.982 250.932 183.508C251.128 183.566 251.407 183.701 251.767 183.913C252.135 184.118 252.32 184.257 252.32 184.331C252.32 184.396 252.258 184.446 252.135 184.478C252.021 184.503 251.927 184.54 251.853 184.589C253.015 186.725 254.804 188.121 257.219 188.776L257.207 189.022C256.691 189.038 256.355 189.079 256.2 189.144C256.052 189.202 255.909 189.345 255.77 189.574C255.729 189.648 255.676 189.685 255.61 189.685C255.471 189.685 255.054 189.427 254.358 188.911C253.67 188.395 253.134 187.831 252.749 187.217C252.365 186.603 252 185.825 251.656 184.884ZM250.453 187.131C251.026 187.376 251.452 187.585 251.73 187.757C252.017 187.929 252.201 188.076 252.283 188.199C252.373 188.322 252.418 188.477 252.418 188.665C252.418 188.854 252.34 189.071 252.184 189.316C252.037 189.554 251.898 189.672 251.767 189.672C251.693 189.672 251.64 189.652 251.607 189.611C251.575 189.562 251.493 189.374 251.362 189.046C251.239 188.711 251.1 188.42 250.944 188.174C250.797 187.929 250.584 187.659 250.306 187.364L250.453 187.131ZM251.509 192.804C252.401 191.797 253.019 190.999 253.363 190.409H248.427C248.206 190.409 248.034 190.438 247.911 190.495L247.69 189.93C247.862 189.971 248.067 189.992 248.304 189.992H253.449L253.756 189.586C253.813 189.513 253.871 189.476 253.928 189.476C254.018 189.476 254.165 189.57 254.37 189.758L254.96 190.299C255.14 190.462 255.23 190.581 255.23 190.655C255.23 190.728 255.123 190.773 254.91 190.79C254.698 190.806 254.542 190.839 254.444 190.888C254.354 190.929 254.088 191.129 253.646 191.49C253.212 191.85 252.635 192.349 251.914 192.988C252.381 193.217 252.68 193.446 252.811 193.675C252.95 193.905 253.019 194.13 253.019 194.351C253.019 194.572 252.966 194.76 252.86 194.916C252.762 195.079 252.667 195.161 252.577 195.161C252.496 195.161 252.426 195.137 252.369 195.087C252.32 195.047 252.221 194.928 252.074 194.731C251.386 193.839 250.375 192.967 249.041 192.116L249.164 191.944C250.343 192.337 251.124 192.623 251.509 192.804ZM265.667 185.387H267.349L267.853 184.613C267.951 184.466 268.037 184.392 268.11 184.392C268.184 184.392 268.393 184.585 268.737 184.969C269.08 185.346 269.252 185.567 269.252 185.633C269.252 185.698 269.187 185.731 269.056 185.731H265.667L265.691 187.02C265.691 187.135 265.671 187.212 265.63 187.253C265.589 187.286 265.45 187.335 265.213 187.401C264.983 187.466 264.828 187.499 264.746 187.499C264.68 187.499 264.648 187.442 264.648 187.327V185.731H262.499V187.131C262.499 187.229 262.47 187.298 262.413 187.339C262.356 187.38 262.233 187.425 262.045 187.474C261.856 187.515 261.693 187.536 261.553 187.536C261.496 187.536 261.467 187.47 261.467 187.339L261.48 185.731H258.741C258.529 185.731 258.357 185.755 258.226 185.804L257.931 185.326C258.103 185.367 258.308 185.387 258.545 185.387H261.48V184.417C261.48 184.147 261.467 183.848 261.443 183.521C262.417 183.717 262.904 183.881 262.904 184.012C262.904 184.077 262.769 184.192 262.499 184.356V185.387H264.648V184.392C264.648 184.122 264.635 183.823 264.611 183.496C265.593 183.717 266.084 183.885 266.084 183.999C266.084 184.073 265.945 184.188 265.667 184.343V185.387ZM262.352 188.101H259.712C259.531 188.101 259.36 188.125 259.196 188.174L258.901 187.695C259.073 187.736 259.278 187.757 259.515 187.757H266.318L266.625 187.376C266.682 187.303 266.747 187.266 266.821 187.266C266.903 187.266 267.132 187.409 267.509 187.695C267.885 187.974 268.074 188.15 268.074 188.223C268.074 188.297 267.902 188.412 267.558 188.567C267.541 189.795 267.509 190.7 267.46 191.281C267.419 191.862 267.37 192.239 267.312 192.411C267.263 192.574 267.161 192.722 267.005 192.853C266.85 192.984 266.621 193.119 266.318 193.258C266.023 193.405 265.839 193.479 265.765 193.479C265.691 193.479 265.646 193.397 265.63 193.233C265.589 192.914 265.483 192.689 265.311 192.558C265.147 192.427 264.77 192.276 264.181 192.104V191.87C264.877 191.993 265.348 192.055 265.593 192.055C265.847 192.055 266.019 192.03 266.109 191.981C266.199 191.924 266.264 191.833 266.305 191.711C266.346 191.58 266.387 191.121 266.428 190.335C266.477 189.55 266.506 188.805 266.514 188.101H263.457V193.479C263.457 193.896 263.461 194.183 263.469 194.338L263.481 194.768C263.481 194.834 263.44 194.891 263.358 194.94C263.277 194.989 263.129 195.042 262.916 195.1C262.712 195.157 262.54 195.186 262.401 195.186C262.343 195.186 262.315 195.153 262.315 195.087L262.339 194.535C262.347 194.281 262.352 193.929 262.352 193.479V188.101ZM273.44 185.694C272.457 187.479 271.381 188.833 270.21 189.758L270.063 189.611C270.636 188.956 271.188 188.068 271.72 186.946C272.261 185.825 272.682 184.667 272.985 183.471C273.321 183.619 273.64 183.77 273.943 183.926C274.246 184.073 274.418 184.167 274.459 184.208C274.5 184.249 274.52 184.286 274.52 184.319C274.52 184.401 274.434 184.454 274.262 184.478C274.098 184.503 273.992 184.572 273.943 184.687C273.894 184.802 273.771 185.055 273.575 185.448C273.64 185.457 273.759 185.461 273.931 185.461H279.137L279.64 184.712C279.706 184.613 279.771 184.564 279.837 184.564C279.902 184.564 280.017 184.63 280.181 184.761C280.344 184.884 280.516 185.027 280.696 185.191C280.885 185.346 281.012 185.461 281.077 185.534C281.143 185.6 281.175 185.657 281.175 185.706C281.175 185.796 281.102 185.841 280.954 185.841H274.053C273.832 185.841 273.661 185.87 273.538 185.927L273.44 185.694ZM273.685 187.487C273.464 187.487 273.292 187.515 273.169 187.573L272.948 187.069C273.12 187.11 273.325 187.131 273.562 187.131H278.302L278.879 186.394C278.945 186.304 279.01 186.259 279.076 186.259C279.149 186.259 279.26 186.332 279.407 186.48C279.555 186.627 279.731 186.795 279.935 186.983C280.148 187.172 280.254 187.303 280.254 187.376C280.254 187.45 280.168 187.487 279.997 187.487H273.685ZM281.102 191.035C281.077 191.551 281.065 192.03 281.065 192.472C281.065 192.906 281.098 193.27 281.163 193.565C281.237 193.86 281.364 194.191 281.544 194.559C281.601 194.666 281.63 194.756 281.63 194.83C281.63 194.985 281.503 195.063 281.249 195.063C280.848 195.063 280.291 194.903 279.579 194.584C278.875 194.273 278.327 193.753 277.934 193.025C277.549 192.304 277.34 191.003 277.307 189.12H272.433C272.228 189.12 272.06 189.148 271.929 189.206L271.708 188.702C271.88 188.743 272.085 188.764 272.322 188.764H277.197L277.467 188.334C277.541 188.219 277.614 188.162 277.688 188.162C277.77 188.162 277.995 188.264 278.363 188.469C278.74 188.665 278.928 188.813 278.928 188.911C278.928 189.034 278.744 189.12 278.376 189.169C278.351 189.472 278.339 189.758 278.339 190.028C278.339 190.896 278.441 191.592 278.646 192.116C278.851 192.64 279.108 193.008 279.419 193.221C279.731 193.442 279.976 193.553 280.156 193.553C280.23 193.553 280.287 193.52 280.328 193.454C280.369 193.389 280.426 193.205 280.5 192.902C280.582 192.591 280.701 191.969 280.856 191.035H281.102Z"
            fill="white" />
        <circle cx="224.861" cy="190.325" r="3.06977" fill="#D9D9D9" />
    </g>

    <g filter="url(#filter0_d_373_55)" class='animal-btn'>
        <rect x="225.244" y="120.104" width="64.4651" height="19.9535" rx="9.97674" stroke="#84D3FF" fill="#000"
            stroke-width="0.767442" shape-rendering="crispEdges" />
        <path
            d="M244.571 127.654C244.629 127.695 244.67 127.736 244.694 127.777C244.727 127.81 244.731 127.846 244.706 127.887C244.682 127.928 244.625 127.977 244.535 128.035C244.453 128.084 244.334 128.149 244.178 128.231C244.178 128.403 244.174 128.624 244.166 128.894C244.158 129.156 244.146 129.443 244.129 129.754C244.121 130.065 244.109 130.388 244.093 130.724C244.076 131.051 244.06 131.366 244.043 131.669C244.027 131.972 244.007 132.251 243.982 132.504C243.966 132.758 243.949 132.963 243.933 133.118C243.9 133.438 243.843 133.712 243.761 133.941C243.687 134.17 243.577 134.371 243.429 134.543C243.29 134.715 243.11 134.866 242.889 134.997C242.676 135.128 242.414 135.255 242.103 135.378C242.005 135.419 241.927 135.427 241.87 135.402C241.813 135.386 241.772 135.312 241.747 135.181C241.714 135.034 241.665 134.899 241.6 134.776C241.543 134.653 241.457 134.539 241.342 134.432C241.227 134.326 241.08 134.228 240.9 134.137C240.728 134.047 240.515 133.961 240.261 133.88L240.323 133.597C240.839 133.704 241.244 133.773 241.538 133.806C241.841 133.847 242.075 133.847 242.238 133.806C242.41 133.765 242.529 133.683 242.594 133.56C242.66 133.429 242.717 133.245 242.766 133.008C242.799 132.852 242.832 132.611 242.865 132.283C242.897 131.956 242.926 131.575 242.951 131.141C242.983 130.699 243.008 130.216 243.024 129.692C243.041 129.16 243.053 128.612 243.061 128.047H241.747C241.657 129.062 241.526 129.938 241.354 130.675C241.182 131.403 240.941 132.058 240.63 132.639C240.327 133.221 239.942 133.757 239.476 134.248C239.009 134.739 238.44 135.251 237.769 135.783L237.609 135.55C237.928 135.206 238.219 134.874 238.481 134.555C238.751 134.244 238.993 133.925 239.205 133.597C239.426 133.27 239.619 132.93 239.783 132.578C239.946 132.218 240.085 131.817 240.2 131.375C240.323 130.933 240.425 130.441 240.507 129.901C240.589 129.361 240.654 128.743 240.704 128.047H239.709C239.611 128.047 239.512 128.055 239.414 128.072C239.316 128.088 239.242 128.108 239.193 128.133L238.972 127.556C239.087 127.58 239.185 127.597 239.267 127.605C239.357 127.613 239.463 127.617 239.586 127.617H240.728C240.753 127.167 240.769 126.684 240.777 126.168C240.794 125.653 240.806 125.092 240.814 124.486C241.158 124.576 241.444 124.658 241.674 124.732C241.911 124.805 242.099 124.871 242.238 124.928C242.378 124.994 242.447 125.055 242.447 125.112C242.447 125.161 242.365 125.231 242.202 125.321C242.087 125.387 242.005 125.456 241.956 125.53C241.915 125.604 241.89 125.722 241.882 125.886C241.866 126.197 241.85 126.5 241.833 126.795C241.817 127.081 241.8 127.355 241.784 127.617H242.963L243.331 127.114C243.389 127.04 243.438 127.003 243.479 127.003C243.528 127.003 243.61 127.036 243.724 127.102C243.88 127.192 244.031 127.286 244.178 127.384C244.326 127.474 244.457 127.564 244.571 127.654ZM238.874 133.081C238.874 133.204 238.849 133.327 238.8 133.45C238.759 133.564 238.706 133.667 238.641 133.757C238.575 133.855 238.497 133.933 238.407 133.99C238.325 134.047 238.244 134.076 238.162 134.076C238.08 134.076 238.014 134.052 237.965 134.002C237.916 133.953 237.883 133.851 237.867 133.695C237.842 133.433 237.793 133.172 237.72 132.91C237.089 133.049 236.582 133.167 236.197 133.266C235.821 133.356 235.518 133.433 235.288 133.499C235.059 133.564 234.887 133.622 234.773 133.671C234.666 133.72 234.576 133.765 234.503 133.806C234.437 133.847 234.38 133.863 234.331 133.855C234.29 133.847 234.249 133.802 234.208 133.72C234.134 133.581 234.061 133.433 233.987 133.278C233.913 133.122 233.835 132.95 233.754 132.762L234.331 132.725C234.699 132.03 235.022 131.366 235.301 130.736C235.579 130.098 235.788 129.553 235.927 129.103H234.232C234.134 129.103 234.036 129.111 233.938 129.128C233.84 129.144 233.766 129.164 233.717 129.189L233.496 128.6C233.61 128.624 233.709 128.641 233.79 128.649C233.88 128.657 233.987 128.661 234.11 128.661H237.609L238.064 127.998C238.203 127.81 238.37 127.797 238.567 127.961C238.755 128.125 238.919 128.284 239.058 128.44C239.205 128.596 239.312 128.706 239.377 128.772C239.476 128.87 239.508 128.952 239.476 129.017C239.451 129.074 239.377 129.103 239.255 129.103H236.701C236.791 129.144 236.872 129.185 236.946 129.226C237.02 129.259 237.089 129.291 237.155 129.324C237.45 129.488 237.454 129.627 237.167 129.742C237.061 129.782 236.967 129.84 236.885 129.913C236.803 129.987 236.705 130.11 236.59 130.282C236.459 130.486 236.336 130.671 236.222 130.834C236.115 130.998 236.001 131.17 235.878 131.35C235.763 131.522 235.632 131.714 235.485 131.927C235.338 132.132 235.157 132.382 234.945 132.676L237.56 132.48C237.388 132.054 237.134 131.641 236.799 131.24L236.946 131.019C237.355 131.281 237.683 131.51 237.928 131.706C238.182 131.903 238.379 132.083 238.518 132.246C238.657 132.402 238.751 132.549 238.8 132.689C238.849 132.82 238.874 132.95 238.874 133.081ZM238.727 125.923C238.841 126.037 238.882 126.123 238.849 126.181C238.825 126.23 238.751 126.254 238.628 126.254H235.006C234.908 126.254 234.81 126.262 234.711 126.279C234.613 126.295 234.539 126.316 234.49 126.34L234.269 125.812C234.384 125.837 234.482 125.853 234.564 125.861C234.654 125.87 234.76 125.874 234.883 125.874H237.008L237.486 125.174C237.544 125.092 237.597 125.051 237.646 125.051C237.695 125.043 237.773 125.084 237.879 125.174C238.076 125.337 238.248 125.489 238.395 125.628C238.551 125.759 238.661 125.857 238.727 125.923ZM248.108 128.022H247.052C246.749 128.718 246.299 129.525 245.701 130.441L245.492 130.319C246.229 128.6 246.63 127.04 246.696 125.64C247.555 125.91 247.985 126.095 247.985 126.193C247.985 126.234 247.928 126.275 247.813 126.316C247.698 126.348 247.608 126.475 247.543 126.696C247.461 126.999 247.351 127.318 247.211 127.654H248.108V125.432C248.108 125.071 248.096 124.719 248.071 124.376C249.078 124.695 249.581 124.908 249.581 125.014C249.581 125.088 249.418 125.223 249.09 125.419V127.654H249.299L249.692 127.102C249.79 126.971 249.872 126.905 249.937 126.905C250.011 126.905 250.093 126.954 250.183 127.052C250.281 127.151 250.4 127.298 250.539 127.494C250.678 127.691 250.756 127.822 250.772 127.887C251.28 126.921 251.718 125.698 252.086 124.216C253.036 124.593 253.511 124.863 253.511 125.026C253.511 125.084 253.457 125.121 253.351 125.137C253.245 125.145 253.126 125.202 252.995 125.309C252.872 125.407 252.774 125.534 252.7 125.689C252.455 126.23 252.225 126.68 252.013 127.04H255.23L255.684 126.5C255.741 126.443 255.786 126.414 255.819 126.414C255.852 126.414 255.893 126.43 255.942 126.463L256.396 126.831C256.65 127.028 256.805 127.155 256.863 127.212C256.928 127.261 256.961 127.306 256.961 127.347C256.961 127.429 256.789 127.552 256.445 127.716C256.314 129.852 256.208 131.354 256.126 132.222C256.052 133.09 255.975 133.675 255.893 133.978C255.811 134.281 255.668 134.551 255.463 134.788C255.258 135.034 254.98 135.23 254.628 135.378C254.284 135.533 254.014 135.611 253.818 135.611C253.736 135.611 253.687 135.55 253.67 135.427C253.613 134.919 253.15 134.526 252.283 134.248L252.307 133.99C253.028 134.113 253.547 134.174 253.867 134.174C254.186 134.174 254.407 134.129 254.53 134.039C254.661 133.957 254.767 133.802 254.849 133.573C254.931 133.335 255.021 132.762 255.119 131.854C255.217 130.937 255.328 129.467 255.451 127.445H254.861C254.591 129.394 254.075 130.908 253.314 131.989C252.553 133.069 251.349 134.068 249.704 134.985L249.557 134.813C250.187 134.346 250.711 133.904 251.128 133.487C251.546 133.069 251.898 132.652 252.184 132.234C252.471 131.809 252.708 131.407 252.897 131.031C253.085 130.646 253.269 130.098 253.449 129.385C253.629 128.665 253.752 128.018 253.818 127.445H253.142C252.938 128.411 252.61 129.295 252.16 130.098C251.71 130.892 250.92 131.751 249.79 132.676L249.643 132.504C251.018 131.014 251.853 129.328 252.148 127.445H251.779C251.264 128.297 250.621 129.103 249.851 129.864L249.704 129.729C250.13 129.074 250.469 128.497 250.723 127.998C250.674 128.014 250.617 128.022 250.551 128.022H249.09V130.319L250.736 129.828L250.809 130.098L249.09 130.859V135.181C249.09 135.304 248.947 135.447 248.66 135.611C248.374 135.783 248.202 135.869 248.145 135.869C248.087 135.869 248.059 135.832 248.059 135.758L248.083 135.169C248.1 134.76 248.108 134.391 248.108 134.064V131.35C247.314 131.8 246.835 132.091 246.671 132.222C246.614 132.263 246.565 132.283 246.524 132.283C246.426 132.283 246.196 131.89 245.836 131.105C246.409 131.014 247.166 130.847 248.108 130.601V128.022ZM269.24 134.444C269.15 134.567 269.06 134.67 268.97 134.751C268.88 134.833 268.778 134.895 268.663 134.936C268.557 134.985 268.434 135.022 268.295 135.046C268.164 135.071 268.012 135.091 267.84 135.108C267.627 135.124 267.398 135.136 267.153 135.144C266.907 135.153 266.661 135.157 266.416 135.157C266.17 135.157 265.933 135.153 265.704 135.144C265.474 135.144 265.266 135.136 265.077 135.12C264.775 135.095 264.537 135.062 264.365 135.022C264.193 134.989 264.066 134.923 263.985 134.825C263.903 134.735 263.85 134.604 263.825 134.432C263.809 134.268 263.8 134.047 263.8 133.769V125.996C263.8 125.448 263.788 124.994 263.764 124.633C264.017 124.699 264.234 124.764 264.414 124.83C264.603 124.887 264.779 124.945 264.942 125.002C265.204 125.092 265.327 125.182 265.311 125.272C265.294 125.354 265.131 125.477 264.82 125.64V130.036C264.951 129.922 265.122 129.766 265.335 129.57C265.548 129.365 265.777 129.136 266.023 128.882C266.277 128.62 266.535 128.334 266.797 128.022C267.058 127.711 267.312 127.388 267.558 127.052C267.746 127.216 267.93 127.384 268.11 127.556C268.29 127.728 268.45 127.883 268.589 128.022C268.679 128.113 268.728 128.194 268.737 128.268C268.745 128.334 268.679 128.358 268.54 128.342C268.442 128.325 268.319 128.338 268.172 128.379C268.033 128.411 267.848 128.505 267.619 128.661C267.415 128.8 267.185 128.952 266.932 129.115C266.686 129.271 266.432 129.426 266.17 129.582C265.917 129.737 265.671 129.885 265.434 130.024C265.196 130.163 264.992 130.282 264.82 130.38V133.499C264.82 133.712 264.848 133.876 264.906 133.99C264.963 134.105 265.086 134.17 265.274 134.187C265.618 134.211 265.974 134.223 266.342 134.223C266.711 134.223 267.071 134.203 267.423 134.162C267.57 134.146 267.685 134.109 267.767 134.052C267.857 133.994 267.934 133.88 268 133.708C268.065 133.528 268.127 133.274 268.184 132.946C268.241 132.611 268.311 132.156 268.393 131.583H268.688C268.696 132.042 268.712 132.414 268.737 132.701C268.761 132.979 268.79 133.204 268.823 133.376C268.864 133.54 268.913 133.659 268.97 133.732C269.027 133.814 269.097 133.871 269.179 133.904C269.269 133.945 269.322 134.011 269.338 134.101C269.363 134.191 269.33 134.305 269.24 134.444ZM263.371 133.388C262.609 133.7 261.987 133.953 261.504 134.15C261.029 134.354 260.645 134.522 260.35 134.653C260.055 134.792 259.834 134.907 259.687 134.997C259.54 135.087 259.421 135.169 259.331 135.243C259.241 135.316 259.175 135.345 259.134 135.329C259.102 135.32 259.053 135.275 258.987 135.193C258.848 135.013 258.737 134.854 258.656 134.715C258.582 134.584 258.496 134.436 258.398 134.273C258.561 134.232 258.721 134.195 258.877 134.162C259.04 134.137 259.204 134.105 259.368 134.064V126.082C259.368 125.861 259.364 125.661 259.355 125.481C259.355 125.301 259.347 125.121 259.331 124.94C259.544 124.981 259.744 125.035 259.933 125.1C260.121 125.157 260.289 125.215 260.436 125.272C260.583 125.329 260.694 125.378 260.768 125.419C260.841 125.46 260.874 125.505 260.866 125.554C260.858 125.595 260.808 125.649 260.718 125.714C260.637 125.771 260.51 125.849 260.338 125.947V129.066H261.627L262.069 128.256C262.126 128.158 262.18 128.113 262.229 128.121C262.278 128.121 262.352 128.166 262.45 128.256C262.605 128.395 262.753 128.534 262.892 128.673C263.039 128.804 263.158 128.927 263.248 129.042C263.485 129.32 263.444 129.459 263.125 129.459H260.338V133.843C260.755 133.753 261.205 133.65 261.688 133.536C262.171 133.413 262.712 133.274 263.309 133.118L263.371 133.388ZM271.696 126.205H272.482L272.666 125.898C272.707 125.833 272.756 125.8 272.813 125.8C272.871 125.8 273.055 125.89 273.366 126.07C273.685 126.242 273.845 126.365 273.845 126.438C273.845 126.504 273.71 126.61 273.44 126.758V128.673C274.152 128.084 274.757 127.449 275.257 126.77C275.764 126.082 276.251 125.235 276.718 124.228C277.659 124.613 278.13 124.859 278.13 124.965C278.13 125.022 278.036 125.071 277.848 125.112C277.823 125.121 277.807 125.125 277.799 125.125C278.601 126.222 279.886 127.012 281.654 127.494V127.679C281.351 127.695 281.126 127.74 280.979 127.814C280.84 127.887 280.68 128.031 280.5 128.244C280.443 128.309 280.385 128.342 280.328 128.342C280.181 128.342 279.788 128.076 279.149 127.544C278.511 127.003 277.991 126.242 277.59 125.26C277.549 125.301 277.463 125.407 277.332 125.579C276.718 126.398 276.108 127.057 275.502 127.556H277.602L277.958 127.003C278.016 126.913 278.069 126.868 278.118 126.868C278.175 126.868 278.355 127.007 278.658 127.286C278.969 127.564 279.125 127.74 279.125 127.814C279.125 127.879 279.051 127.912 278.904 127.912H275.552C275.404 127.912 275.261 127.928 275.122 127.961L275.097 127.875C274.762 128.129 274.455 128.338 274.176 128.501C274.512 128.583 274.872 128.722 275.257 128.919H276.264L276.472 128.661C276.53 128.596 276.583 128.563 276.632 128.563C276.681 128.563 276.853 128.657 277.148 128.845C277.443 129.025 277.59 129.152 277.59 129.226C277.59 129.291 277.479 129.381 277.258 129.496V134.248C277.258 134.674 277.217 134.936 277.136 135.034C277.054 135.14 276.89 135.251 276.644 135.365C276.399 135.48 276.247 135.537 276.19 135.537C276.133 135.537 276.096 135.492 276.08 135.402C276.039 135.165 275.965 134.993 275.859 134.886C275.76 134.788 275.539 134.686 275.195 134.58L275.232 134.358C275.592 134.408 275.846 134.432 275.994 134.432C276.141 134.432 276.231 134.412 276.264 134.371C276.305 134.338 276.325 134.273 276.325 134.174V132.382H275.06V135.329C275.06 135.402 275.028 135.464 274.962 135.513C274.905 135.562 274.77 135.623 274.557 135.697C274.352 135.771 274.217 135.807 274.152 135.807C274.094 135.807 274.066 135.775 274.066 135.709L274.103 134.862C274.135 134.223 274.152 133.736 274.152 133.401V129.361C274.152 129.058 274.144 128.784 274.127 128.538C273.914 128.677 273.693 128.812 273.464 128.943L273.44 128.907V130.957C273.44 131.317 273.444 131.571 273.452 131.718L273.464 132.124C273.464 132.197 273.427 132.263 273.354 132.32C273.28 132.377 273.149 132.451 272.961 132.541C272.772 132.623 272.654 132.664 272.605 132.664C272.555 132.664 272.531 132.623 272.531 132.541V131.534H271.487V132.946C271.487 133.028 271.475 133.086 271.45 133.118C271.434 133.143 271.368 133.188 271.254 133.253C271.147 133.311 271.004 133.372 270.824 133.438C270.652 133.495 270.554 133.524 270.529 133.524C270.505 133.524 270.497 133.487 270.505 133.413C270.546 133.004 270.566 132.59 270.566 132.173V126.684C270.566 126.34 270.554 125.992 270.529 125.64C270.988 125.829 271.377 126.017 271.696 126.205ZM272.531 131.215V126.561H271.487V131.215H272.531ZM276.325 130.466V129.287H275.06V130.466H276.325ZM276.325 132.05V130.798H275.06V132.05H276.325ZM279.456 128.514C280.373 128.767 280.832 128.939 280.832 129.029C280.832 129.087 280.721 129.169 280.5 129.275V134.408C280.5 134.76 280.463 135.013 280.389 135.169C280.324 135.324 280.152 135.472 279.874 135.611C279.595 135.75 279.399 135.82 279.284 135.82C279.227 135.82 279.186 135.771 279.162 135.672C279.096 135.402 278.969 135.193 278.781 135.046C278.593 134.899 278.306 134.768 277.921 134.653L277.946 134.42C278.396 134.494 278.724 134.53 278.928 134.53C279.133 134.53 279.276 134.506 279.358 134.457C279.44 134.408 279.481 134.309 279.481 134.162V129.214C279.481 128.943 279.473 128.71 279.456 128.514ZM277.885 129.078C278.318 129.209 278.605 129.304 278.744 129.361C278.883 129.41 278.953 129.459 278.953 129.508C278.953 129.557 278.887 129.627 278.756 129.717V132.406L278.781 133.118C278.781 133.167 278.765 133.204 278.732 133.229C278.699 133.253 278.576 133.294 278.363 133.352C278.151 133.401 278.016 133.425 277.958 133.425C277.901 133.425 277.872 133.405 277.872 133.364L277.885 132.922C277.893 132.791 277.897 132.619 277.897 132.406V129.705C277.897 129.369 277.893 129.16 277.885 129.078Z"
            fill="white" />
        <circle cx="224.861" cy="130.464" r="3.06977" fill="#D9D9D9" />
    </g>
    <g class='attribute-btn'>
        <rect x="225.244" y="60.2431" width="64.4651" height="19.9535" rx="9.97674" stroke="#84D3FF" fill="#000"
            stroke-width="0.767442" />
        <path
            d="M237.744 66.8175H234.441C234.22 66.8175 234.048 66.8461 233.925 66.9034L233.704 66.3509C233.876 66.3918 234.081 66.4123 234.318 66.4123H241.956L242.558 65.6264C242.64 65.52 242.721 65.4668 242.803 65.4668C242.885 65.4668 243.102 65.6591 243.454 66.0439C243.806 66.4286 243.982 66.6619 243.982 66.7438C243.982 66.7929 243.904 66.8175 243.749 66.8175H238.849L238.358 69.9486H240.704L241.109 69.4943C241.174 69.4206 241.236 69.3838 241.293 69.3838C241.35 69.3838 241.506 69.4697 241.76 69.6417C242.013 69.8136 242.206 69.9568 242.337 70.0714C242.476 70.1778 242.545 70.2679 242.545 70.3416C242.545 70.4152 242.349 70.5298 241.956 70.6854L241.698 75.0444H242.779L243.245 74.3445C243.36 74.1808 243.454 74.099 243.528 74.099C243.61 74.099 243.847 74.2872 244.24 74.6638C244.641 75.0485 244.842 75.2777 244.842 75.3514C244.842 75.4251 244.772 75.4619 244.633 75.4619H233.778C233.557 75.4619 233.385 75.4906 233.262 75.5479L233.041 74.983C233.213 75.024 233.418 75.0444 233.655 75.0444H236.406L237.167 70.3416H235.141C234.92 70.3416 234.748 70.3702 234.625 70.4275L234.404 69.8872C234.576 69.9282 234.781 69.9486 235.018 69.9486H237.229L237.744 66.8175ZM238.297 70.3416L237.56 75.0444H240.532L240.826 70.3416H238.297ZM248.12 65.123C248.595 65.3112 248.951 65.475 249.188 65.6141C249.426 65.7533 249.544 65.8515 249.544 65.9088C249.544 65.9579 249.479 65.9948 249.348 66.0193C249.225 66.0439 249.131 66.0848 249.066 66.1421C249 66.1912 248.91 66.2895 248.795 66.4368C248.1 67.3782 247.134 68.3401 245.898 69.3224L245.726 69.1628C246.733 67.9512 247.531 66.6046 248.12 65.123ZM254.223 66.6087L254.64 65.9211C254.714 65.7901 254.792 65.7246 254.874 65.7246C254.955 65.7246 255.095 65.8229 255.291 66.0193C255.488 66.2076 255.672 66.3795 255.844 66.535C256.024 66.6906 256.114 66.8093 256.114 66.8911C256.114 66.973 256.024 67.0139 255.844 67.0139H250.969C250.748 67.0139 250.576 67.0426 250.453 67.0999L250.232 66.5473C250.404 66.5883 250.609 66.6087 250.846 66.6087H254.223ZM247.445 71.3239C247.011 71.7659 246.409 72.2939 245.64 72.9079L245.48 72.736C246.274 71.8273 246.892 71.0005 247.334 70.2556C247.776 69.5025 248.165 68.6307 248.501 67.6402C249.385 68.0822 249.827 68.3605 249.827 68.4751C249.827 68.5324 249.765 68.5693 249.643 68.5857C249.52 68.602 249.426 68.6348 249.36 68.6839C249.303 68.733 249.176 68.9254 248.98 69.261C248.783 69.5966 248.525 69.9896 248.206 70.4398C248.632 70.5708 248.845 70.6854 248.845 70.7836C248.845 70.8737 248.73 70.9719 248.501 71.0783V76.0882C248.501 76.17 248.468 76.2355 248.402 76.2846C248.345 76.3337 248.194 76.3992 247.948 76.4811C247.703 76.563 247.539 76.6039 247.457 76.6039C247.416 76.6039 247.396 76.5589 247.396 76.4688L247.432 75.3146C247.441 74.9544 247.445 74.6147 247.445 74.2954V71.3239ZM253.609 70.0223H250.232C250.011 70.0223 249.839 70.051 249.716 70.1083L249.495 69.5557C249.667 69.5966 249.872 69.6171 250.109 69.6171H255.07L255.537 68.9172C255.618 68.7944 255.688 68.733 255.745 68.733C255.827 68.733 256.069 68.909 256.47 69.261C256.871 69.613 257.072 69.834 257.072 69.9241C257.072 69.9896 256.99 70.0223 256.826 70.0223H254.763V75.2655C254.763 75.5765 254.718 75.7935 254.628 75.9163C254.546 76.0472 254.317 76.211 253.94 76.4074C253.572 76.6039 253.343 76.7021 253.253 76.7021C253.171 76.7021 253.114 76.6121 253.081 76.432C253.032 76.1455 252.897 75.9163 252.676 75.7443C252.463 75.5724 252.053 75.3842 251.448 75.1795V74.9094C252.332 75.0485 252.888 75.1181 253.118 75.1181C253.347 75.1181 253.486 75.0936 253.535 75.0444C253.584 75.0035 253.609 74.9257 253.609 74.8111V70.0223ZM267.165 74.4673C267.132 74.6065 267.075 74.7211 266.993 74.8111C266.919 74.9012 266.837 74.938 266.747 74.9217C266.723 74.9135 266.694 74.8889 266.661 74.848C266.637 74.807 266.584 74.6843 266.502 74.4796C266.469 74.4141 266.44 74.3486 266.416 74.2831C266.391 74.2177 266.363 74.1522 266.33 74.0867L264.562 74.3937C264.373 74.4264 264.21 74.4591 264.071 74.4919C263.931 74.5246 263.796 74.5574 263.665 74.5901C263.534 74.6229 263.399 74.6597 263.26 74.7006C263.121 74.7497 262.961 74.803 262.781 74.8603C262.683 74.893 262.618 74.9053 262.585 74.8971C262.56 74.8971 262.54 74.8807 262.523 74.848C262.458 74.717 262.401 74.586 262.352 74.455C262.302 74.3241 262.245 74.1644 262.18 73.9762C262.523 73.9762 262.847 73.9762 263.15 73.9762C263.461 73.968 263.772 73.9557 264.083 73.9393V72.7851H261.934V75.7566C261.934 75.863 261.897 75.9367 261.824 75.9777C261.701 76.0431 261.57 76.0963 261.431 76.1373C261.291 76.1864 261.165 76.2191 261.05 76.2355C260.944 76.2601 260.894 76.2191 260.903 76.1127C260.927 75.7689 260.944 75.4865 260.952 75.2655C260.96 75.0444 260.964 74.807 260.964 74.5533V72.9816V72.7851C260.808 72.8015 260.694 72.8301 260.62 72.871L260.411 72.343C260.501 72.3676 260.592 72.384 260.682 72.3922C260.772 72.4003 260.862 72.4044 260.952 72.4044C260.952 72.3062 260.948 72.2203 260.939 72.1466C260.939 72.0647 260.939 71.987 260.939 71.9133C261.177 72.0115 261.373 72.0975 261.529 72.1711C261.684 72.2366 261.84 72.3144 261.995 72.4044H264.083V71.4835H262.487C262.478 71.639 262.421 71.7414 262.315 71.7905C262.2 71.856 262.085 71.9051 261.971 71.9378C261.864 71.9706 261.742 71.9951 261.602 72.0115C261.553 72.0115 261.529 71.9788 261.529 71.9133C261.545 71.7496 261.553 71.5899 261.553 71.4344C261.553 71.2789 261.553 71.1561 261.553 71.066V70.1697C261.553 70.0387 261.549 69.92 261.541 69.8136C261.541 69.7071 261.533 69.5884 261.517 69.4575C261.713 69.523 261.889 69.5884 262.045 69.6539C262.2 69.7112 262.36 69.7808 262.523 69.8627H264.083V69.1873C263.624 69.2119 263.146 69.2323 262.646 69.2487C262.155 69.2569 261.615 69.261 261.025 69.261V68.9417C261.566 68.909 262.122 68.864 262.695 68.8067C263.268 68.7494 263.817 68.6839 264.341 68.6102C264.865 68.5283 265.352 68.4424 265.802 68.3523C266.252 68.2623 266.625 68.1682 266.919 68.0699C267.091 68.2337 267.218 68.3564 267.3 68.4383C267.382 68.5202 267.464 68.6102 267.546 68.7084C267.644 68.8312 267.672 68.9131 267.632 68.954C267.599 68.995 267.501 69.0031 267.337 68.9786C267.247 68.9622 267.149 68.9581 267.042 68.9663C266.944 68.9663 266.801 68.9745 266.612 68.9909C266.35 69.0236 266.093 69.0523 265.839 69.0768C265.585 69.0932 265.327 69.1096 265.065 69.1259V69.8627H266.612L266.919 69.5066C266.952 69.4738 266.985 69.4575 267.018 69.4575C267.05 69.4575 267.108 69.482 267.189 69.5311C267.304 69.5966 267.415 69.6703 267.521 69.7522C267.636 69.8258 267.75 69.9118 267.865 70.01C267.963 70.0919 268 70.1533 267.975 70.1942C267.959 70.2351 267.857 70.2965 267.668 70.3784V70.8941C267.668 71.1151 267.681 71.3484 267.705 71.594C267.713 71.6513 267.709 71.6963 267.693 71.7291C267.685 71.7537 267.656 71.7741 267.607 71.7905C267.468 71.8478 267.337 71.8928 267.214 71.9256C267.099 71.9583 266.952 71.9829 266.772 71.9992C266.706 72.0074 266.674 71.9665 266.674 71.8764V71.4835H265.065V72.4044H267.447L267.803 72.0729C267.844 72.032 267.881 72.0115 267.914 72.0115C267.947 72.0033 268 72.0197 268.074 72.0606C268.237 72.1507 268.385 72.2325 268.516 72.3062C268.655 72.3799 268.798 72.4699 268.945 72.5763C269.06 72.6582 269.101 72.7278 269.068 72.7851C269.035 72.8342 268.888 72.9161 268.626 73.0307V75.1181C268.626 75.4292 268.552 75.6748 268.405 75.8549C268.266 76.0431 267.996 76.211 267.595 76.3583C267.439 76.4156 267.333 76.432 267.275 76.4074C267.226 76.3829 267.181 76.3051 267.14 76.1741C267.108 76.0677 267.071 75.9777 267.03 75.904C266.989 75.8385 266.915 75.773 266.809 75.7075C266.711 75.6502 266.563 75.5888 266.367 75.5233C266.17 75.4578 265.9 75.376 265.556 75.2777L265.63 75.0567C266.08 75.1058 266.436 75.1386 266.698 75.155C266.96 75.1713 267.157 75.1672 267.288 75.1427C267.419 75.1263 267.501 75.0936 267.533 75.0444C267.566 75.0035 267.582 74.9462 267.582 74.8725V72.7851H265.065V73.8779L266.183 73.8165C266.117 73.7101 266.043 73.5996 265.962 73.485C265.88 73.3622 265.781 73.2271 265.667 73.0798L265.802 72.957C266.097 73.1289 266.338 73.2885 266.526 73.4359C266.715 73.5832 266.858 73.7183 266.956 73.8411C267.063 73.9639 267.128 74.0785 267.153 74.1849C267.185 74.2831 267.189 74.3773 267.165 74.4673ZM268.688 65.9825C268.843 66.0971 268.909 66.183 268.884 66.2403C268.859 66.2977 268.712 66.3918 268.442 66.5228V67.2963C268.442 67.3946 268.442 67.4846 268.442 67.5665C268.45 67.6483 268.462 67.7466 268.479 67.8612C268.495 67.9594 268.462 68.0208 268.381 68.0454C268.241 68.0945 268.114 68.1313 268 68.1559C267.885 68.1804 267.734 68.205 267.546 68.2296C267.464 68.2377 267.423 68.2009 267.423 68.119V67.8243H260.571C260.555 68.4056 260.534 68.9581 260.51 69.482C260.493 69.9977 260.469 70.4766 260.436 70.9187C260.387 71.6309 260.305 72.2694 260.19 72.8342C260.084 73.399 259.941 73.9107 259.761 74.3691C259.581 74.8275 259.372 75.2409 259.134 75.6093C258.897 75.9858 258.631 76.3337 258.336 76.653L258.115 76.5057C258.271 76.2191 258.41 75.9572 258.533 75.7198C258.656 75.4824 258.762 75.245 258.852 75.0076C258.942 74.7702 259.02 74.5205 259.085 74.2586C259.151 73.9966 259.208 73.7019 259.257 73.3745C259.306 73.047 259.347 72.6787 259.38 72.2694C259.421 71.8519 259.458 71.3689 259.49 70.8204C259.507 70.5749 259.519 70.2556 259.527 69.8627C259.536 69.4616 259.54 69.0195 259.54 68.5365C259.548 68.0454 259.548 67.5297 259.54 66.9894C259.54 66.4491 259.54 65.9088 259.54 65.3685C259.777 65.4586 260.01 65.5609 260.24 65.6755C260.469 65.7819 260.649 65.8802 260.78 65.9702H267.3L267.619 65.5527C267.66 65.5118 267.701 65.4872 267.742 65.479C267.783 65.4627 267.84 65.475 267.914 65.5159C268.045 65.5814 268.176 65.655 268.307 65.7369C268.446 65.8106 268.573 65.8924 268.688 65.9825ZM260.608 66.3263C260.6 66.5146 260.592 66.7029 260.583 66.8911C260.583 67.0712 260.583 67.2513 260.583 67.4314H267.423V66.3263H260.608ZM265.065 70.2433V71.1397H266.674V70.2433H265.065ZM262.487 71.1397H264.083V70.2433H262.487V71.1397ZM272.85 68.1682C273.497 68.3155 273.923 68.4465 274.127 68.5611C274.332 68.6675 274.434 68.823 274.434 69.0277C274.434 69.2242 274.389 69.4165 274.299 69.6048C274.209 69.7849 274.09 69.875 273.943 69.875C273.804 69.875 273.685 69.7563 273.587 69.5189C273.39 69.0277 273.145 68.688 272.85 68.4997V76.0513C272.85 76.1332 272.813 76.1987 272.74 76.2478C272.666 76.2969 272.506 76.3624 272.261 76.4443C272.023 76.5343 271.88 76.5793 271.831 76.5793C271.782 76.5793 271.757 76.5548 271.757 76.5057C271.757 76.4565 271.761 76.3092 271.77 76.0636C271.786 75.8262 271.794 75.4087 271.794 74.8111V66.4368C271.794 66.0275 271.786 65.6632 271.77 65.344C272.113 65.4258 272.429 65.5118 272.715 65.6018C273.01 65.6919 273.178 65.7492 273.218 65.7737C273.268 65.7983 273.292 65.8229 273.292 65.8474C273.292 65.9129 273.145 66.0234 272.85 66.179V68.1682ZM277.05 72.343H275.024C274.803 72.343 274.631 72.3717 274.508 72.429L274.275 71.9256C274.446 71.9665 274.651 71.987 274.888 71.987H277.05V69.2978H275.416C274.991 70.4603 274.442 71.5326 273.771 72.515L273.525 72.3922C274.279 70.6895 274.762 68.7248 274.974 66.4982C275.457 66.6619 275.813 66.8052 276.043 66.928C276.272 67.0426 276.387 67.1203 276.387 67.1613C276.387 67.2022 276.337 67.235 276.239 67.2595C276.149 67.2841 276.08 67.325 276.03 67.3823C275.981 67.4314 275.908 67.6361 275.809 67.9963C275.719 68.3564 275.629 68.6757 275.539 68.954H277.05V66.5105C277.05 65.8802 277.041 65.4954 277.025 65.3563C277.377 65.4054 277.684 65.4668 277.946 65.5404C278.208 65.6141 278.368 65.6673 278.425 65.7001C278.482 65.7328 278.511 65.7656 278.511 65.7983C278.511 65.8638 278.388 65.9579 278.142 66.0807V68.954H279.395L279.861 68.2296C279.952 68.0822 280.029 68.0085 280.095 68.0085C280.168 68.0085 280.312 68.1068 280.525 68.3032L281.102 68.8558C281.274 69.0195 281.36 69.1341 281.36 69.1996C281.36 69.2651 281.29 69.2978 281.151 69.2978H278.142V71.987H279.309L279.812 71.2748C279.902 71.152 279.984 71.0906 280.058 71.0906C280.132 71.0906 280.332 71.2543 280.66 71.5817C280.987 71.9092 281.151 72.1179 281.151 72.208C281.151 72.298 281.073 72.343 280.917 72.343H278.142V75.376H279.861L280.426 74.6761C280.525 74.5533 280.602 74.4919 280.66 74.4919C280.717 74.4919 280.791 74.5328 280.881 74.6147C280.971 74.6965 281.118 74.8357 281.323 75.0322C281.527 75.2368 281.662 75.3801 281.728 75.4619C281.802 75.552 281.838 75.6216 281.838 75.6707C281.838 75.728 281.761 75.7566 281.605 75.7566H274.275C274.053 75.7566 273.882 75.7853 273.759 75.8426L273.55 75.3146C273.722 75.3555 273.927 75.376 274.164 75.376H277.05V72.343ZM271.021 68.119C271.184 68.8394 271.266 69.4616 271.266 69.9855C271.266 70.5012 271.164 70.8655 270.959 71.0783C270.754 71.283 270.538 71.3853 270.308 71.3853C270.177 71.3853 270.063 71.3403 269.965 71.2502C269.874 71.152 269.829 71.0619 269.829 70.9801C269.829 70.89 269.936 70.7099 270.149 70.4398C270.362 70.1697 270.509 69.8504 270.591 69.482C270.673 69.1137 270.701 68.6634 270.677 68.1313L271.021 68.119Z"
            fill="white" />
        <circle cx="224.861" cy="70.6037" r="3.06977" fill="#D9D9D9" />
    </g>
    <g class='direction-btn'>
        <rect x="225.244" y="0.382744" width="64.4651" height="19.9535" rx="9.97674" stroke="#84D3FF" fill="#000"
            stroke-width="0.767442" />
        <path
            d="M237.474 4.5073C238.383 4.7447 238.976 4.95344 239.255 5.13353C239.541 5.30544 239.684 5.53056 239.684 5.80888C239.684 6.07902 239.602 6.32051 239.439 6.53335C239.283 6.738 239.115 6.84033 238.935 6.84033C238.87 6.84033 238.817 6.81986 238.776 6.77893C238.743 6.72981 238.661 6.57019 238.53 6.30005C238.399 6.02172 238.235 5.75158 238.039 5.48963C237.851 5.22767 237.63 4.96981 237.376 4.71605L237.474 4.5073ZM237.621 7.30693H234.527C234.306 7.30693 234.134 7.33558 234.011 7.39288L233.68 6.86488C233.852 6.90581 234.056 6.92628 234.294 6.92628H242.226L242.877 5.94395C242.934 5.87028 242.983 5.83344 243.024 5.83344C243.073 5.83344 243.229 5.93577 243.491 6.14042C243.761 6.33688 243.986 6.52107 244.166 6.69298C244.346 6.8567 244.436 6.98767 244.436 7.08591C244.436 7.23326 244.322 7.30693 244.093 7.30693H238.186C238.522 7.38879 238.78 7.46246 238.96 7.52795C239.14 7.58526 239.23 7.64256 239.23 7.69986C239.23 7.75716 239.165 7.82265 239.034 7.89633C238.903 7.96181 238.821 8.0887 238.788 8.27698C238.763 8.45707 238.727 8.75586 238.677 9.17335H240.998L241.391 8.58395C241.44 8.50209 241.489 8.46116 241.538 8.46116C241.612 8.46116 241.85 8.60851 242.251 8.90321C242.652 9.19791 242.852 9.38209 242.852 9.45577C242.852 9.53763 242.66 9.65633 242.275 9.81186C242.169 12.2677 242.038 13.7698 241.882 14.3183C241.735 14.8667 241.416 15.2679 240.925 15.5216C240.433 15.7836 240.11 15.9146 239.954 15.9146C239.856 15.9146 239.799 15.8245 239.783 15.6444C239.75 15.3497 239.635 15.1123 239.439 14.9322C239.242 14.7521 238.858 14.5557 238.285 14.3428L238.309 14.0973C239.111 14.2855 239.652 14.3797 239.93 14.3797C240.208 14.3797 240.405 14.3347 240.519 14.2446C240.634 14.1627 240.716 14.0236 240.765 13.8271C240.822 13.6225 240.884 13.119 240.949 12.3168C241.023 11.5064 241.08 10.5854 241.121 9.554H238.628C238.399 11.3386 237.941 12.6729 237.253 13.557C236.565 14.4329 235.46 15.2024 233.938 15.8654L233.852 15.669C235.235 14.7521 236.197 13.7043 236.737 12.5255C237.286 11.3467 237.581 9.60721 237.621 7.30693ZM247.899 6.71753H249.102C249.463 5.7434 249.688 4.95344 249.778 4.34767C250.097 4.42953 250.441 4.53186 250.809 4.65465C251.178 4.77744 251.382 4.85521 251.423 4.88795C251.472 4.9207 251.497 4.94935 251.497 4.97391C251.497 5.04758 251.403 5.10488 251.214 5.14581C250.83 5.24405 250.343 5.76795 249.753 6.71753H254.775L255.095 6.27549C255.168 6.16907 255.226 6.11586 255.266 6.11586C255.316 6.11586 255.41 6.15679 255.549 6.23865C255.688 6.32051 255.868 6.4474 256.089 6.6193C256.318 6.78302 256.453 6.88535 256.494 6.92628C256.535 6.95902 256.556 6.99177 256.556 7.02451C256.556 7.11456 256.351 7.27009 255.942 7.49112V14.2814C255.942 14.7235 255.901 15.0427 255.819 15.2392C255.737 15.4357 255.524 15.624 255.181 15.804C254.837 15.9841 254.599 16.0742 254.468 16.0742C254.386 16.0742 254.337 16.0005 254.321 15.8532C254.288 15.5748 254.149 15.3497 253.904 15.1778C253.666 15.0059 253.29 14.834 252.774 14.6621L252.823 14.4288C253.576 14.5598 254.067 14.6253 254.296 14.6253C254.534 14.6253 254.681 14.5884 254.738 14.5147C254.804 14.4411 254.837 14.306 254.837 14.1095V7.11046H247.899L247.85 7.1473V15.4971C247.85 15.5544 247.842 15.5994 247.825 15.6321C247.817 15.6649 247.727 15.7304 247.555 15.8286C247.383 15.935 247.22 16.0128 247.064 16.0619C246.909 16.1192 246.81 16.1479 246.769 16.1479C246.737 16.1479 246.72 16.1274 246.72 16.0865C246.72 16.0537 246.728 15.8736 246.745 15.5462C246.769 15.2269 246.782 14.8586 246.782 14.4411V7.25781C246.782 6.84851 246.773 6.48014 246.757 6.1527C247.175 6.31642 247.555 6.5047 247.899 6.71753ZM250.49 8.95233H252.307L252.59 8.62079C252.647 8.53074 252.7 8.48572 252.749 8.48572C252.807 8.48572 252.942 8.56349 253.154 8.71902C253.376 8.87456 253.539 8.99735 253.646 9.0874C253.76 9.17744 253.818 9.25521 253.818 9.3207C253.818 9.378 253.691 9.47214 253.437 9.60312V11.9116C253.437 12.0753 253.441 12.2267 253.449 12.3659L253.474 12.7097C253.474 12.767 253.437 12.8202 253.363 12.8693C253.29 12.9185 253.146 12.9799 252.933 13.0535C252.729 13.1272 252.594 13.164 252.528 13.164C252.471 13.164 252.442 13.1231 252.442 13.0413V12.2677H250.318V12.9553C250.318 13.0208 250.306 13.0699 250.281 13.1027C250.257 13.1354 250.171 13.1968 250.023 13.2868C249.884 13.3769 249.749 13.4506 249.618 13.5079C249.495 13.557 249.413 13.5815 249.373 13.5815C249.332 13.5815 249.311 13.557 249.311 13.5079L249.323 13.0658C249.332 12.9267 249.336 12.7466 249.336 12.5255V9.54172C249.336 9.18972 249.323 8.83772 249.299 8.48572C249.798 8.63307 250.195 8.7886 250.49 8.95233ZM252.442 11.887V9.34526H250.318V11.887H252.442ZM264.009 4.49502C264.68 4.76516 265.188 5.0353 265.532 5.30544C265.876 5.57558 266.048 5.84981 266.048 6.12814C266.048 6.39828 265.966 6.6234 265.802 6.80349C265.646 6.9754 265.507 7.06135 265.384 7.06135C265.327 7.06135 265.278 7.03679 265.237 6.98767C265.204 6.93037 265.163 6.80758 265.114 6.6193C265.065 6.42284 264.914 6.11995 264.66 5.71065C264.406 5.30135 264.14 4.94526 263.862 4.64237L264.009 4.49502ZM259.712 8.98916C259.098 9.84051 258.451 10.5936 257.771 11.2485L257.636 11.0766C259.044 9.26749 260.1 7.11456 260.804 4.61781C261.746 5.14172 262.216 5.46916 262.216 5.60014C262.216 5.66563 262.13 5.71065 261.959 5.73521C261.836 5.75158 261.721 5.82935 261.615 5.96851C261.517 6.09949 261.345 6.38191 261.099 6.81577C260.853 7.24963 260.604 7.65893 260.35 8.04367C260.841 8.17465 261.087 8.27698 261.087 8.35065C261.087 8.42433 260.976 8.51028 260.755 8.60851V15.3374C260.755 15.4193 260.718 15.4889 260.645 15.5462C260.571 15.6035 260.416 15.6772 260.178 15.7672C259.949 15.8654 259.793 15.9146 259.712 15.9146C259.671 15.9146 259.65 15.8736 259.65 15.7918L259.675 15.0059C259.699 14.4165 259.712 13.9376 259.712 13.5693V8.98916ZM267.3 7.36833L267.816 6.52107C267.865 6.43921 267.914 6.39828 267.963 6.39828C268.045 6.39828 268.282 6.58247 268.675 6.95084C269.076 7.31102 269.277 7.53614 269.277 7.62619C269.277 7.68349 269.17 7.71214 268.958 7.71214H262.425C262.204 7.71214 262.032 7.74079 261.909 7.79809L261.688 7.30693C261.86 7.34786 262.065 7.36833 262.302 7.36833H267.3ZM265.79 14.6498H267.435L267.853 13.864C267.943 13.692 268.029 13.6061 268.11 13.6061C268.2 13.6061 268.286 13.6388 268.368 13.7043C268.45 13.7616 268.622 13.9213 268.884 14.1832C269.146 14.4452 269.314 14.6212 269.387 14.7112C269.461 14.8094 269.498 14.8831 269.498 14.9322C269.498 14.9813 269.416 15.0059 269.252 15.0059H261.959C261.738 15.0059 261.566 15.0346 261.443 15.0919L261.222 14.5884C261.394 14.6293 261.598 14.6498 261.836 14.6498H265.262C265.745 12.6115 266.15 10.4463 266.477 8.15419C267.018 8.36702 267.415 8.54302 267.668 8.68219C267.93 8.81316 268.061 8.91549 268.061 8.98916C268.061 9.06284 267.979 9.11605 267.816 9.14879C267.742 9.16516 267.677 9.21837 267.619 9.30842C267.57 9.39028 267.349 10.0042 266.956 11.1503L265.79 14.6498ZM262.658 8.70674C263.878 10.4176 264.488 11.6537 264.488 12.415C264.488 12.6933 264.418 12.9471 264.279 13.1763C264.14 13.4055 263.94 13.5201 263.678 13.5201C263.571 13.5201 263.498 13.4792 263.457 13.3973C263.416 13.3155 263.387 13.0863 263.371 12.7097C263.362 12.325 263.268 11.7315 263.088 10.9293C262.916 10.127 262.712 9.4353 262.474 8.85409L262.658 8.70674ZM273.82 9.7873H275.048L275.122 8.89093H271.18C270.992 8.89093 270.853 8.91549 270.763 8.9646L270.566 8.44888C270.722 8.48981 270.894 8.51028 271.082 8.51028H275.159C275.208 8.07642 275.224 7.74898 275.208 7.52795H272.654V7.68758C272.654 7.74488 272.645 7.78172 272.629 7.79809C272.613 7.81447 272.547 7.84721 272.433 7.89633C272.326 7.93726 272.187 7.97819 272.015 8.01912C271.843 8.06005 271.725 8.08051 271.659 8.08051C271.594 8.08051 271.565 8.04777 271.573 7.98228C271.614 7.67121 271.634 7.35605 271.634 7.03679V5.67381C271.634 5.40367 271.622 5.12535 271.598 4.83884C272.056 4.98619 272.367 5.0926 272.531 5.15809H278.953L279.198 4.82656C279.256 4.75288 279.313 4.71605 279.37 4.71605C279.436 4.71605 279.661 4.83474 280.046 5.07214C280.43 5.30135 280.623 5.45688 280.623 5.53874C280.623 5.6206 280.435 5.7393 280.058 5.89484V6.914C280.058 7.03679 280.062 7.1514 280.07 7.25781L280.095 7.51567C280.095 7.62209 279.952 7.71623 279.665 7.79809C279.387 7.87995 279.207 7.92088 279.125 7.92088C279.051 7.92088 279.014 7.87586 279.014 7.78581V7.52795H275.515C276.251 7.70805 276.62 7.83902 276.62 7.92088C276.62 7.97 276.53 8.03958 276.35 8.12963L276.288 8.51028H279.407L279.825 7.89633C279.89 7.80628 279.956 7.76126 280.021 7.76126C280.144 7.76126 280.377 7.9127 280.721 8.21558C281.073 8.51847 281.249 8.70674 281.249 8.78042C281.249 8.85409 281.175 8.89093 281.028 8.89093H276.227L276.08 9.7873H277.848L278.106 9.40665C278.147 9.34935 278.2 9.3207 278.265 9.3207C278.331 9.3207 278.564 9.42712 278.965 9.63995C279.366 9.85279 279.567 10.0001 279.567 10.082C279.567 10.1557 279.399 10.3276 279.063 10.5977V14.9445H279.616L280.168 14.1218C280.234 14.0318 280.287 13.9867 280.328 13.9867C280.369 13.9867 280.455 14.04 280.586 14.1464C280.717 14.2528 280.889 14.4042 281.102 14.6007C281.315 14.7972 281.462 14.9445 281.544 15.0427C281.634 15.141 281.679 15.2228 281.679 15.2883C281.679 15.3538 281.605 15.3866 281.458 15.3866H270.701C270.513 15.3866 270.374 15.4111 270.284 15.4602L270.087 14.8831C270.243 14.924 270.415 14.9445 270.603 14.9445H272.605V10.5363C272.605 10.1188 272.592 9.73 272.568 9.36981C273.198 9.56628 273.616 9.70544 273.82 9.7873ZM279.014 7.11046V5.5633H277.565V7.11046H279.014ZM275.085 5.5633V7.11046H276.608V5.5633H275.085ZM274.127 7.11046V5.5633H272.654V7.11046H274.127ZM277.909 11.1134V10.1925H273.697V11.1134H277.909ZM277.909 12.3782V11.5309H273.697V12.3782H277.909ZM277.909 13.7166V12.808H273.697V13.7166H277.909ZM277.909 14.9445V14.1464H273.697V14.9445H277.909Z"
            fill="white" />
        <circle cx="224.861" cy="9.97577" r="3.06977" fill="#D9D9D9" />
    </g>

    <g class='twenty-eight-xiu-btn'>
        <rect y="178.813" width="65.2326" height="19.9535" rx="9.97674" fill="#5988FF" />
        <path
            d="M16.5062 185.728L16.9728 185.04C17.0546 184.918 17.1406 184.856 17.2306 184.856C17.3289 184.856 17.5663 185.028 17.9428 185.372C18.3194 185.716 18.5076 185.937 18.5076 186.035C18.5076 186.125 18.4135 186.17 18.2252 186.17H10.6245C10.4035 186.17 10.2316 186.199 10.1088 186.256L9.679 185.667C9.8509 185.707 10.0556 185.728 10.2929 185.728H16.5062ZM17.5867 192.948L18.127 192.174C18.2089 192.052 18.2948 191.99 18.3849 191.99C18.4749 191.99 18.7246 192.183 19.1339 192.567C19.5514 192.952 19.7601 193.181 19.7601 193.255C19.7601 193.329 19.6455 193.366 19.4163 193.366H9.49481C9.27379 193.366 9.10188 193.394 8.97909 193.451L8.59844 192.887C8.77034 192.928 8.975 192.948 9.21239 192.948H17.5867ZM27.1644 188.135H30.0377L30.6394 187.361C30.713 187.255 30.7826 187.201 30.8481 187.201C30.9545 187.201 31.1878 187.382 31.548 187.742C31.9082 188.102 32.0883 188.323 32.0883 188.405C32.0883 188.487 32.0146 188.528 31.8673 188.528H27.1644V193.157C27.1644 193.574 27.1685 193.865 27.1767 194.029L27.2012 194.471C27.2012 194.503 27.189 194.532 27.1644 194.557C27.148 194.589 26.9679 194.655 26.6241 194.753C26.2885 194.851 26.0961 194.9 26.047 194.9C26.0061 194.9 25.9856 194.835 25.9856 194.704L25.9979 194.225C26.0143 193.898 26.0224 193.529 26.0224 193.12V188.528H21.8476C21.6265 188.528 21.4546 188.556 21.3318 188.614L21.1108 188.073C21.2827 188.114 21.4874 188.135 21.7248 188.135H26.0224V184.611C26.0224 184.201 26.0143 183.837 25.9979 183.518C26.4072 183.591 26.7469 183.669 27.017 183.751C27.2954 183.833 27.4714 183.894 27.545 183.935C27.6187 183.968 27.6556 184.001 27.6556 184.033C27.6556 184.107 27.4918 184.238 27.1644 184.426V188.135ZM37.8717 186.293C37.9945 186.358 38.0477 186.42 38.0314 186.477C38.0232 186.534 37.9741 186.575 37.884 186.6C37.7776 186.633 37.6835 186.71 37.6016 186.833C37.5279 186.956 37.4829 187.099 37.4665 187.263C37.3601 188.229 37.2169 189.076 37.0368 189.805C36.8649 190.525 36.6152 191.172 36.2877 191.745C35.9685 192.31 35.551 192.817 35.0353 193.267C34.5277 193.726 33.881 194.172 33.0952 194.606L32.9724 194.458C33.6027 193.943 34.1389 193.415 34.5809 192.874C35.023 192.334 35.3832 191.728 35.6615 191.057C35.9398 190.378 36.1445 189.608 36.2755 188.749C36.4064 187.889 36.4719 186.874 36.4719 185.703C36.6275 185.744 36.7625 185.785 36.8771 185.826C36.9917 185.867 37.0982 185.912 37.1964 185.961C37.3028 186.01 37.4051 186.064 37.5034 186.121C37.6098 186.17 37.7326 186.227 37.8717 186.293ZM40.1679 185.495C40.2089 186.551 40.3316 187.496 40.5363 188.331C40.741 189.166 41.0275 189.911 41.3958 190.566C41.7642 191.221 42.2185 191.798 42.7588 192.297C43.2991 192.797 43.9294 193.239 44.6498 193.623V193.894C44.3878 193.869 44.1709 193.861 43.999 193.869C43.8271 193.885 43.6797 193.914 43.557 193.955C43.4423 194.004 43.3482 194.065 43.2745 194.139C43.2009 194.221 43.1313 194.315 43.0658 194.422C43.0167 194.503 42.9676 194.536 42.9184 194.52C42.8693 194.512 42.8243 194.487 42.7834 194.446C42.2513 193.808 41.7847 193.173 41.3836 192.543C40.9824 191.913 40.6386 191.225 40.3521 190.48C40.0738 189.735 39.8528 188.904 39.689 187.987C39.5253 187.07 39.4189 186.01 39.3698 184.807H37.9823C37.9331 184.807 37.8636 184.811 37.7735 184.819C37.6835 184.819 37.5934 184.827 37.5034 184.844C37.4133 184.852 37.3274 184.864 37.2455 184.881C37.1718 184.889 37.1227 184.897 37.0982 184.905L36.7421 184.377C36.7994 184.394 36.873 184.406 36.9631 184.414C37.0531 184.414 37.1473 184.418 37.2455 184.426C37.3437 184.435 37.4379 184.439 37.5279 184.439C37.618 184.439 37.6957 184.439 37.7612 184.439H39.2347L39.468 183.935C39.5253 183.87 39.5744 183.837 39.6154 183.837C39.6563 183.837 39.7463 183.866 39.8855 183.923C40.0492 183.988 40.2048 184.066 40.3521 184.156C40.5076 184.246 40.6591 184.34 40.8064 184.439C40.9783 184.553 41.0561 184.647 41.0397 184.721C41.0316 184.787 40.9333 184.844 40.745 184.893C40.5158 184.95 40.3603 185.02 40.2784 185.102C40.1966 185.175 40.1597 185.306 40.1679 185.495ZM50.9121 184.93C50.8303 184.602 50.7238 184.345 50.5929 184.156C50.4619 183.96 50.2327 183.718 49.9052 183.432L50.0403 183.198C50.6051 183.297 51.0185 183.387 51.2805 183.469C51.5424 183.542 51.7143 183.624 51.7962 183.714C51.8781 183.804 51.919 183.931 51.919 184.095C51.919 184.422 51.7716 184.701 51.477 184.93H54.8905L55.2343 184.537C55.2753 184.496 55.3162 184.475 55.3571 184.475C55.439 184.475 55.6764 184.635 56.0693 184.954C56.4623 185.274 56.6587 185.486 56.6587 185.593C56.6587 185.691 56.5196 185.74 56.2412 185.74C55.9711 185.74 55.6805 185.818 55.3694 185.974C55.0583 186.129 54.6941 186.383 54.2766 186.735L54.117 186.661C54.3953 186.219 54.6572 185.761 54.9028 185.286H46.9583C46.9828 186.088 46.901 186.616 46.7127 186.87C46.5244 187.115 46.2788 187.238 45.9759 187.238C45.8122 187.238 45.669 187.201 45.5462 187.128C45.4316 187.046 45.3743 186.948 45.3743 186.833C45.3743 186.718 45.5052 186.538 45.7672 186.293C46.0373 186.047 46.2297 185.789 46.3443 185.519C46.4671 185.241 46.5694 184.901 46.6513 184.5L46.9214 184.512C46.9378 184.701 46.946 184.84 46.946 184.93H50.9121ZM47.1547 189.461C46.5653 190.116 45.9514 190.689 45.3129 191.18L45.1778 191.008C45.9227 190.116 46.5121 189.297 46.946 188.552C47.388 187.799 47.8464 186.817 48.3212 185.605C48.7305 185.834 49.0334 186.01 49.2299 186.133C49.4263 186.256 49.5246 186.346 49.5246 186.403C49.5246 186.477 49.4509 186.522 49.3036 186.538C49.1562 186.555 49.0007 186.723 48.837 187.042C48.5832 187.541 48.2844 188.02 47.9406 188.478C48.3253 188.585 48.5177 188.675 48.5177 188.749C48.5177 188.814 48.4154 188.904 48.2107 189.019V194.262C48.2107 194.311 48.1984 194.348 48.1739 194.372C48.1575 194.397 48.0797 194.442 47.9406 194.508C47.8096 194.581 47.6541 194.643 47.474 194.692C47.2939 194.749 47.1834 194.778 47.1424 194.778C47.1097 194.778 47.0933 194.741 47.0933 194.667L47.1424 193.525C47.1506 193.181 47.1547 192.842 47.1547 192.506V189.461ZM51.612 187.386H49.8316C49.6105 187.386 49.4386 187.414 49.3158 187.472L49.1194 186.944C49.2913 186.985 49.4877 187.005 49.7088 187.005H54.4853L55.0256 186.465C55.1075 186.383 55.1811 186.342 55.2466 186.342C55.3694 186.342 55.5741 186.485 55.8606 186.772C56.1471 187.05 56.2903 187.23 56.2903 187.312C56.2903 187.361 56.2085 187.386 56.0448 187.386H52.7294C52.4757 187.95 52.1769 188.433 51.833 188.835H54.0064L54.2643 188.466C54.3298 188.376 54.3953 188.331 54.4608 188.331C54.5344 188.331 54.7637 188.442 55.1484 188.663C55.5331 188.875 55.7255 189.023 55.7255 189.105C55.7255 189.178 55.5577 189.301 55.2221 189.473V193.083C55.2221 193.394 55.2262 193.611 55.2343 193.734L55.2589 194.078C55.2589 194.135 55.2303 194.184 55.173 194.225C55.1157 194.274 54.9601 194.344 54.7063 194.434C54.4608 194.532 54.3093 194.581 54.252 194.581C54.1947 194.581 54.1661 194.54 54.1661 194.458V193.562H50.8753V194.139C50.8753 194.205 50.8548 194.254 50.8139 194.286C50.773 194.327 50.6297 194.393 50.3841 194.483C50.1467 194.573 49.9789 194.618 49.8807 194.618C49.8397 194.618 49.8234 194.585 49.8316 194.52C49.8807 194.192 49.9052 193.836 49.9052 193.451V189.277C49.9052 188.941 49.8889 188.638 49.8561 188.368C50.3636 188.523 50.7443 188.679 50.9981 188.835H51.2928C51.4647 188.384 51.5711 187.901 51.612 187.386ZM50.8753 191.008H54.1661V189.215H50.8753V191.008ZM54.1661 191.389H50.8753V193.206H54.1661V191.389Z"
            fill="white" />
        <circle cx="64.4652" cy="189.557" r="3.06977" fill="#D9D9D9" />
    </g>
    <g class='five-star-btn'>
        <rect y="117.418" width="65.2326" height="19.9535" rx="9.97674" fill="#5988FF" />
        <path
            d="M25.5466 123.608H22.2435C22.0225 123.608 21.8506 123.637 21.7278 123.694L21.5068 123.142C21.6787 123.183 21.8833 123.203 22.1207 123.203H29.7583L30.36 122.417C30.4418 122.311 30.5237 122.258 30.6056 122.258C30.6874 122.258 30.9043 122.45 31.2563 122.835C31.6083 123.219 31.7843 123.453 31.7843 123.535C31.7843 123.584 31.7066 123.608 31.551 123.608H26.6517L26.1605 126.739H28.5058L28.911 126.285C28.9765 126.211 29.0379 126.175 29.0952 126.175C29.1525 126.175 29.3081 126.261 29.5618 126.432C29.8156 126.604 30.008 126.748 30.139 126.862C30.2781 126.969 30.3477 127.059 30.3477 127.132C30.3477 127.206 30.1512 127.321 29.7583 127.476L29.5004 131.835H30.581L31.0476 131.135C31.1622 130.972 31.2563 130.89 31.33 130.89C31.4119 130.89 31.6493 131.078 32.0422 131.455C32.4433 131.839 32.6439 132.069 32.6439 132.142C32.6439 132.216 32.5743 132.253 32.4351 132.253H21.5804C21.3594 132.253 21.1875 132.281 21.0647 132.339L20.8437 131.774C21.0156 131.815 21.2203 131.835 21.4576 131.835H24.2082L24.9695 127.132H22.9434C22.7224 127.132 22.5505 127.161 22.4277 127.218L22.2067 126.678C22.3786 126.719 22.5832 126.739 22.8206 126.739H25.0309L25.5466 123.608ZM26.0991 127.132L25.3624 131.835H28.3339L28.6286 127.132H26.0991ZM36.5486 122.822H41.6936L42.0005 122.38C42.066 122.282 42.1274 122.233 42.1847 122.233C42.2666 122.233 42.4835 122.36 42.8355 122.614C43.1957 122.867 43.3758 123.035 43.3758 123.117C43.3758 123.183 43.2407 123.273 42.9706 123.387V125.536C42.9706 125.773 42.9747 126.027 42.9829 126.297L43.0074 126.678C43.0074 126.735 42.991 126.784 42.9583 126.825C42.9337 126.858 42.856 126.911 42.725 126.985C42.594 127.05 42.4385 127.108 42.2584 127.157C42.0783 127.206 41.9555 127.231 41.89 127.231C41.8327 127.231 41.8041 127.198 41.8041 127.132V126.482H36.4258C36.4258 126.596 36.4136 126.674 36.389 126.715C36.3726 126.756 36.3071 126.809 36.1925 126.874C36.0861 126.932 35.9388 126.989 35.7505 127.046C35.5622 127.104 35.4353 127.132 35.3698 127.132C35.3125 127.132 35.288 127.091 35.2962 127.01C35.3371 126.608 35.3576 126.203 35.3576 125.794V123.228C35.3576 122.843 35.3412 122.491 35.3084 122.172C35.7423 122.36 36.1557 122.577 36.5486 122.822ZM41.8041 124.455V123.228H36.4258V124.455H41.8041ZM41.8041 126.101V124.861H36.4258V126.101H41.8041ZM38.7957 130.521H36.082C35.861 130.521 35.6891 130.55 35.5663 130.607L35.3207 130.03C35.4926 130.071 35.6973 130.092 35.9347 130.092H38.7957V128.679H36.303C35.5827 129.719 34.6986 130.62 33.6508 131.381L33.4543 131.209C34.6986 129.744 35.4885 128.377 35.8242 127.108C36.8065 127.271 37.2976 127.427 37.2976 127.574C37.2976 127.64 37.2363 127.693 37.1135 127.734C36.9907 127.775 36.9047 127.82 36.8556 127.869C36.8065 127.91 36.7533 127.98 36.696 128.078C36.6387 128.168 36.6018 128.225 36.5855 128.25H38.7957C38.7957 127.308 38.7875 126.78 38.7711 126.666C39.1968 126.731 39.557 126.813 39.8517 126.911C40.1464 127.001 40.2937 127.079 40.2937 127.145C40.2937 127.21 40.175 127.296 39.9376 127.402V128.25H42.0005L42.4917 127.562C42.5981 127.407 42.6923 127.329 42.7741 127.329C42.8642 127.329 43.0975 127.513 43.474 127.881C43.8506 128.242 44.0389 128.467 44.0389 128.557C44.0389 128.639 43.9324 128.679 43.7196 128.679H39.9376V130.092H41.3375L41.8286 129.465C41.9514 129.318 42.0578 129.244 42.1479 129.244C42.2379 129.244 42.4671 129.416 42.8355 129.76C43.2121 130.104 43.4003 130.325 43.4003 130.423C43.4003 130.489 43.2857 130.521 43.0565 130.521H39.9376V132.191H42.7741L43.2284 131.491C43.3267 131.344 43.4208 131.27 43.5109 131.27C43.6091 131.27 43.7196 131.324 43.8424 131.43C43.9734 131.536 44.178 131.725 44.4563 131.995C44.7429 132.273 44.8861 132.449 44.8861 132.523C44.8861 132.597 44.7797 132.633 44.5669 132.633H34.277C34.056 132.633 33.8841 132.662 33.7613 132.719L33.5403 132.13C33.7122 132.171 33.9168 132.191 34.1542 132.191H38.7957V130.521Z"
            fill="white" />
        <circle cx="64.4652" cy="127.394" r="3.06977" fill="#D9D9D9" />
    </g>
    <g class='four-xiang-btn'>
        <rect y="61.3943" width="65.2326" height="19.9535" rx="9.97674" fill="#5988FF" />
        <path
            d="M23.41 67.0691H30.3231L30.6056 66.6148C30.6629 66.5247 30.7202 66.4797 30.7775 66.4797C30.843 66.4797 31.0599 66.5943 31.4283 66.8235C31.7966 67.0527 31.9808 67.2001 31.9808 67.2655C31.9808 67.331 31.8457 67.4293 31.5756 67.5602V75.4925C31.5756 75.8527 31.5797 76.1024 31.5879 76.2415L31.6002 76.6345C31.6002 76.7163 31.5633 76.7777 31.4896 76.8187C31.4242 76.8596 31.2686 76.921 31.023 77.0028C30.7856 77.0847 30.6301 77.1256 30.5564 77.1256C30.5073 77.1256 30.4828 77.0724 30.4828 76.966V75.6644H23.2627V76.6099C23.2627 76.6918 23.2504 76.7491 23.2258 76.7818C23.2013 76.8228 23.1194 76.876 22.9803 76.9414C22.8411 77.0151 22.6937 77.0724 22.5382 77.1134C22.3827 77.1625 22.2803 77.187 22.2312 77.187C22.1903 77.187 22.1739 77.1379 22.1821 77.0397C22.2149 76.6713 22.2312 76.2784 22.2312 75.8609V67.5111C22.2312 67.1673 22.219 66.8194 22.1944 66.4674C22.661 66.6557 23.0662 66.8562 23.41 67.0691ZM23.2627 75.2592H30.4828V67.4743H28.3585V72.5333C28.3585 72.697 28.383 72.8075 28.4322 72.8648C28.4813 72.9221 28.5754 72.9508 28.7146 72.9508C28.8619 72.9508 29.173 72.8648 29.6478 72.6929C29.7542 72.652 29.8443 72.6315 29.9179 72.6315C30.0816 72.6315 30.2044 72.7256 30.2863 72.9139C30.3682 73.1022 30.4091 73.2495 30.4091 73.356C30.4091 73.4542 30.3723 73.5401 30.2986 73.6138C30.2249 73.6793 29.967 73.7407 29.525 73.798C29.083 73.8553 28.6941 73.884 28.3585 73.884C28.0229 73.884 27.7609 73.8021 27.5726 73.6384C27.3843 73.4665 27.2902 73.1636 27.2902 72.7297V67.4743H26.0377V69.1934C26.0377 70.9697 25.8331 72.2222 25.4238 72.9508C25.0227 73.6793 24.3514 74.3137 23.41 74.854L23.2995 74.633C23.9135 74.06 24.3514 73.4133 24.6134 72.6929C24.8835 71.9725 25.0186 70.8879 25.0186 69.4389V67.4743H23.2627V75.2592ZM44.8738 75.6276C44.6856 75.644 44.5259 75.6644 44.395 75.689C44.2722 75.7135 44.1657 75.7504 44.0757 75.7995C43.9938 75.8568 43.9202 75.9305 43.8547 76.0205C43.7974 76.1106 43.7319 76.2252 43.6582 76.3643C43.6255 76.4216 43.5886 76.4503 43.5477 76.4503C43.515 76.4503 43.4617 76.4298 43.3881 76.3889C43.0606 76.217 42.7618 76.0287 42.4917 75.8241C42.2216 75.6194 41.976 75.382 41.755 75.1119C41.5339 74.8417 41.3375 74.5307 41.1656 74.1787C40.9936 73.8185 40.8422 73.3969 40.7112 72.9139C40.6294 72.9303 40.5475 72.9508 40.4656 72.9753C40.392 72.9999 40.3142 73.0203 40.2323 73.0367C40.3224 73.2577 40.3879 73.5156 40.4288 73.8103C40.4697 74.0968 40.4902 74.3915 40.4902 74.6944C40.4984 74.9973 40.482 75.2879 40.4411 75.5662C40.4083 75.8527 40.3592 76.0983 40.2937 76.3029C40.0891 76.9251 39.6225 77.3467 38.8939 77.5677C38.7957 77.6004 38.7261 77.6045 38.6852 77.58C38.6443 77.5554 38.6074 77.4899 38.5747 77.3835C38.5337 77.2607 38.4887 77.1543 38.4396 77.0642C38.3987 76.9824 38.3291 76.9087 38.2309 76.8432C38.1326 76.7777 37.9976 76.7122 37.8256 76.6468C37.6619 76.5813 37.445 76.5035 37.1749 76.4134L37.2731 76.1556C37.666 76.2456 37.9812 76.3029 38.2186 76.3275C38.456 76.3602 38.6443 76.3643 38.7834 76.3398C38.9226 76.3152 39.0249 76.262 39.0904 76.1801C39.1559 76.0983 39.2091 75.9919 39.25 75.8609C39.3974 75.3452 39.467 74.8213 39.4588 74.2892C39.0822 74.5757 38.6893 74.8458 38.28 75.0996C37.8789 75.3534 37.4491 75.5908 36.9907 75.8118C36.5323 76.0328 36.037 76.2374 35.5049 76.4257C34.981 76.6222 34.4039 76.8023 33.7736 76.966L33.6753 76.745C35.0178 76.1474 36.1393 75.5621 37.0398 74.9891C37.9484 74.4079 38.7097 73.8021 39.3237 73.1718C39.2828 72.9999 39.2336 72.8402 39.1763 72.6929C38.8898 72.9467 38.5501 73.1963 38.1572 73.4419C37.7643 73.6875 37.3427 73.9208 36.8924 74.1418C36.4504 74.3628 35.992 74.5675 35.5172 74.7558C35.0506 74.9441 34.5922 75.1078 34.1419 75.2469L34.0314 75.0014C34.9401 74.6084 35.7996 74.1664 36.61 73.6752C37.4204 73.1841 38.0835 72.6315 38.5992 72.0175C38.5419 71.9521 38.4969 71.9029 38.4642 71.8702C38.4314 71.8374 38.37 71.7883 38.28 71.7228C37.9771 71.9848 37.6701 72.2099 37.359 72.3982C37.048 72.5865 36.7164 72.7584 36.3644 72.9139C36.0206 73.0613 35.6441 73.2045 35.2348 73.3437C34.8336 73.4747 34.3875 73.6138 33.8963 73.7612L33.7613 73.5279C34.3507 73.2577 34.8623 73.0244 35.2962 72.828C35.7382 72.6233 36.127 72.4268 36.4627 72.2386C36.8065 72.0421 37.1094 71.8456 37.3713 71.6492C37.6415 71.4445 37.8952 71.2112 38.1326 70.9493H36.3399V71.0598C36.3399 71.1334 36.3112 71.1826 36.2539 71.2071C36.1066 71.2808 35.9797 71.334 35.8733 71.3668C35.7669 71.3995 35.6031 71.4363 35.3821 71.4773C35.3248 71.4854 35.3003 71.4445 35.3084 71.3545C35.333 71.1908 35.3494 71.0393 35.3576 70.9001C35.3657 70.761 35.3698 70.6054 35.3698 70.4335V69.3284C35.0915 69.5085 34.8009 69.6804 34.498 69.8441C34.1951 70.0079 33.8677 70.1798 33.5157 70.3599L33.3683 70.1511C33.7858 69.8646 34.187 69.5699 34.5717 69.267C34.9564 68.956 35.3207 68.6326 35.6645 68.297C36.0165 67.9532 36.344 67.5848 36.6469 67.1919C36.9497 66.7989 37.2322 66.3733 37.4941 65.9148C37.7561 66.0049 37.9771 66.0868 38.1572 66.1604C38.3373 66.2341 38.5174 66.316 38.6975 66.406C38.8203 66.4715 38.8776 66.5329 38.8694 66.5902C38.8694 66.6393 38.7998 66.6721 38.6606 66.6884C38.587 66.6966 38.5133 66.7253 38.4396 66.7744C38.3741 66.8235 38.2513 66.9463 38.0712 67.1428C38.0303 67.1837 37.9935 67.2205 37.9607 67.2533C37.9362 67.286 37.9034 67.3228 37.8625 67.3638H40.2323L40.6376 66.8603C40.6867 66.7948 40.7317 66.7621 40.7726 66.7621C40.8136 66.7621 40.8709 66.7826 40.9445 66.8235C41.0018 66.8562 41.0714 66.9013 41.1533 66.9586C41.2351 67.0077 41.317 67.0609 41.3989 67.1182C41.4807 67.1673 41.5585 67.2205 41.6322 67.2778C41.714 67.3269 41.7836 67.372 41.8409 67.4129C41.9637 67.5029 42.0169 67.6012 42.0005 67.7076C41.9842 67.814 41.8982 67.859 41.7427 67.8427C41.6526 67.8345 41.5749 67.8304 41.5094 67.8304C41.4439 67.8304 41.3825 67.8386 41.3252 67.8549C41.2679 67.8713 41.2024 67.9 41.1287 67.9409C41.0632 67.9818 40.9773 68.0391 40.8709 68.1128C40.699 68.2356 40.527 68.3543 40.3551 68.4689C40.1914 68.5753 40.0359 68.7104 39.8885 68.8741H42.1847L42.3689 68.4934C42.4098 68.4034 42.4508 68.3543 42.4917 68.3461C42.5408 68.3379 42.6104 68.3543 42.7004 68.3952C42.8887 68.4853 43.0524 68.5671 43.1916 68.6408C43.339 68.7063 43.4822 68.7841 43.6214 68.8741C43.736 68.9396 43.781 69.0133 43.7564 69.0951C43.7401 69.1688 43.6009 69.2711 43.339 69.4021V70.2494C43.339 70.364 43.339 70.4581 43.339 70.5318C43.3471 70.6054 43.3594 70.6996 43.3758 70.8142C43.384 70.8961 43.3553 70.9534 43.2898 70.9861C43.2162 71.027 43.1507 71.0598 43.0934 71.0843C43.0443 71.1007 42.9747 71.1171 42.8846 71.1334C43.032 71.2972 43.1793 71.4445 43.3267 71.5755C43.4822 71.7065 43.5927 71.817 43.6582 71.907C43.7483 72.0298 43.781 72.1199 43.7564 72.1772C43.7319 72.2263 43.6705 72.2386 43.5723 72.214C43.5231 72.1976 43.4372 72.1935 43.3144 72.2017C43.1998 72.2099 43.0688 72.2386 42.9215 72.2877C42.6268 72.3859 42.3075 72.4801 41.9637 72.5701C41.6199 72.6601 41.317 72.742 41.055 72.8157C41.3088 73.2086 41.5626 73.5401 41.8163 73.8103C42.0701 74.0804 42.3443 74.3096 42.639 74.4979C42.9337 74.6862 43.2612 74.8499 43.6214 74.9891C43.9816 75.1201 44.4031 75.251 44.8861 75.382L44.8738 75.6276ZM42.725 71.1703C42.6841 71.1703 42.6309 71.1785 42.5654 71.1948C42.5081 71.203 42.459 71.2112 42.418 71.2194C42.3443 71.2194 42.3075 71.1785 42.3075 71.0966V70.9493H39.2623C39.2377 70.9738 39.2009 71.0107 39.1518 71.0598C39.1027 71.1089 39.0495 71.1621 38.9922 71.2194C38.943 71.2767 38.8939 71.3299 38.8448 71.379C38.7957 71.4281 38.7589 71.465 38.7343 71.4895C39.0781 71.7024 39.3646 71.9111 39.5938 72.1158C39.823 72.3204 39.9909 72.5333 40.0973 72.7543C40.3019 72.6561 40.5189 72.5496 40.7481 72.435C40.9855 72.3204 41.2188 72.1976 41.448 72.0667C41.6854 71.9275 41.9105 71.7842 42.1233 71.6369C42.3443 71.4895 42.5449 71.334 42.725 71.1703ZM39.8026 69.2548V70.5809H42.283V69.2548H39.8026ZM37.5187 67.7444C37.314 67.9491 37.093 68.1374 36.8556 68.3093C36.6264 68.4812 36.4136 68.6449 36.2171 68.8004L36.3399 68.8741H39.3114C39.4506 68.6858 39.5897 68.5016 39.7289 68.3215C39.8763 68.1333 40.0031 67.9409 40.1096 67.7444H37.5187ZM36.3399 70.5809H38.7343V69.2548H36.3399V70.5809Z"
            fill="white" />
        <circle cx="64.4652" cy="71.371" r="3.06977" fill="#D9D9D9" />
    </g>
    <g class='three-yuan-btn'>
        <rect y="-0.000976562" width="65.2326" height="20.7209" rx="10.3605" fill="#5988FF" />
        <path
            d="M29.7706 6.30005L30.2863 5.48963C30.3436 5.3914 30.4173 5.34228 30.5073 5.34228C30.5974 5.34228 30.7856 5.45279 31.0722 5.67381C31.3587 5.89484 31.5838 6.07084 31.7475 6.20181C31.9194 6.33279 32.0054 6.45149 32.0054 6.55791C32.0054 6.65614 31.9317 6.70526 31.7843 6.70526H22.9311C22.7101 6.70526 22.5382 6.73391 22.4154 6.79121L22.1698 6.23865C22.3417 6.27958 22.5464 6.30005 22.7838 6.30005H29.7706ZM28.997 10.1557L29.5127 9.38209C29.5782 9.28386 29.6437 9.23474 29.7092 9.23474C29.7747 9.23474 29.8893 9.29614 30.053 9.41893C30.2249 9.54172 30.4296 9.70135 30.667 9.89781C30.9125 10.0861 31.0599 10.2089 31.109 10.2662C31.1663 10.3153 31.195 10.3685 31.195 10.4258C31.195 10.5404 31.1213 10.5977 30.9739 10.5977H23.6679C23.4469 10.5977 23.275 10.6264 23.1522 10.6837L22.8943 10.0943C23.0662 10.1352 23.2709 10.1557 23.5083 10.1557H28.997ZM30.3477 14.392L30.8634 13.5693C30.9453 13.4383 31.023 13.3728 31.0967 13.3728C31.1704 13.3728 31.2932 13.4342 31.4651 13.557C31.637 13.6798 31.8335 13.8353 32.0545 14.0236C32.2755 14.2119 32.4229 14.3469 32.4965 14.4288C32.5784 14.5107 32.6193 14.5843 32.6193 14.6498C32.6193 14.7562 32.5456 14.8094 32.3983 14.8094H22.0593C21.8383 14.8094 21.6664 14.8381 21.5436 14.8954L21.2857 14.3306C21.4576 14.3715 21.6623 14.392 21.8997 14.392H30.3477ZM42.5899 5.87028L43.1179 5.20721C43.2162 5.08442 43.2939 5.02302 43.3512 5.02302C43.4167 5.02302 43.6336 5.18674 44.002 5.51419C44.3786 5.83344 44.5669 6.04219 44.5669 6.14042C44.5669 6.23046 44.5136 6.27549 44.4072 6.27549H38.1572C37.9362 6.27549 37.7643 6.30414 37.6415 6.36144L37.359 5.80888C37.531 5.84981 37.7356 5.87028 37.973 5.87028H42.5899ZM36.1557 12.6974L37.8502 12.28L37.9362 12.5255L35.861 13.4587C35.5581 13.5979 35.2511 13.7698 34.9401 13.9745C34.629 14.1709 34.4162 14.3224 34.3016 14.4288C34.1951 14.5352 34.1174 14.5884 34.0683 14.5884C34.0273 14.5884 33.9823 14.5434 33.9332 14.4533C33.8841 14.3715 33.704 13.9908 33.3929 13.3114C33.6794 13.2787 34.277 13.1559 35.1856 12.943V8.81726H34.191C33.9618 8.81726 33.7899 8.85 33.6753 8.91549L33.442 8.35065C33.6139 8.39158 33.8186 8.41205 34.056 8.41205H35.1856V5.91939C35.1856 5.52646 35.1775 5.12126 35.1611 4.70377C35.5295 4.77744 35.8323 4.8593 36.0697 4.94935C36.3153 5.03121 36.4627 5.08851 36.5118 5.12126C36.5691 5.14581 36.5977 5.17856 36.5977 5.21949C36.5977 5.29316 36.4504 5.42823 36.1557 5.6247V8.41205H36.4136L36.8679 7.9086C36.9661 7.80219 37.0521 7.74898 37.1257 7.74898C37.2076 7.74898 37.3877 7.89223 37.666 8.17874C37.9525 8.46526 38.0958 8.64535 38.0958 8.71902C38.0958 8.78451 38.0508 8.81726 37.9607 8.81726H36.1557V12.6974ZM42.418 12.7957H39.2255V13.4833C39.2255 13.5652 39.205 13.6307 39.1641 13.6798C39.1231 13.7207 38.9758 13.7944 38.722 13.9008C38.4683 13.999 38.3045 14.0481 38.2309 14.0481C38.1899 14.0481 38.1776 14.0031 38.194 13.9131C38.235 13.6347 38.2554 13.2295 38.2554 12.6974V8.38749C38.2554 8.04367 38.2431 7.69577 38.2186 7.34377C38.6852 7.54842 39.0454 7.72851 39.2991 7.88405H42.3689L42.6759 7.442C42.725 7.37651 42.77 7.34377 42.811 7.34377C42.8601 7.34377 43.0606 7.47065 43.4126 7.72442C43.7728 7.97 43.9529 8.12144 43.9529 8.17874C43.9529 8.23605 43.7933 8.34656 43.474 8.51028V12.0221C43.474 12.3987 43.4781 12.6688 43.4863 12.8325L43.5109 13.2254C43.5109 13.2664 43.474 13.3073 43.4003 13.3482C43.3267 13.381 43.1793 13.4342 42.9583 13.5079C42.7373 13.5733 42.5817 13.6061 42.4917 13.6061C42.4426 13.6061 42.418 13.5733 42.418 13.5079V12.7957ZM39.2255 10.0697H42.418V8.27698H39.2255V10.0697ZM42.418 10.4381H39.2255V12.4027H42.418V10.4381ZM42.9951 14.7972L43.474 14.1587C43.5477 14.0604 43.6255 14.0113 43.7073 14.0113C43.7892 14.0113 43.867 14.04 43.9406 14.0973L44.3704 14.4779C44.5914 14.6744 44.7429 14.8176 44.8247 14.9077C44.9066 14.9977 44.9475 15.0673 44.9475 15.1164C44.9475 15.1655 44.8656 15.1901 44.7019 15.1901H37.0766C36.8638 15.1901 36.696 15.2187 36.5732 15.276L36.3276 14.7358C36.4995 14.7767 36.7042 14.7972 36.9416 14.7972H42.9951Z"
            fill="white" />
        <circle cx="64.4652" cy="9.97577" r="3.06977" fill="#D9D9D9" />
    </g>

    <path d="M64.4651 9.97583H224.86" stroke="white" stroke-width="0.767442" class='connection'
        id='connection01' />
    <path d="M65.2325 9.97583L224.86 190.325" stroke="white" stroke-width="0.767442"
        class='connection' id='connection02' />
    <path d="M65.2325 9.97583L224.86 248.65" stroke="white" stroke-width="0.767442"
        class='connection' id='connection03' />
    <path d="M64.4651 71.3711H224.86" stroke="white" stroke-width="0.767442" class='connection'
        id='connection05' />
    <path d="M64.4651 71.3711L224.86 9.97575" stroke="white" stroke-width="0.767442"
        class='connection' id='connection04' />
    <path d="M63.6976 127.394L224.093 71.371" stroke="white" stroke-width="0.767442"
        class='connection' id='connection09' />
    <path d="M63.6976 127.394L224.86 248.65" stroke="white" stroke-width="0.767442"
        class='connection' id='connection10' />
    <path d="M64.4651 71.3711L224.093 130.464" stroke="white" stroke-width="0.767442"
        class='connection' id='connection06' />
    <path d="M65.2325 71.3711L224.86 190.325" stroke="white" stroke-width="0.767442"
        class='connection' id='connection07' />
    <path d="M65.2325 71.3711L224.86 248.65" stroke="white" stroke-width="0.767442"
        class='connection' id='connection08' />
    <path d="M64.4651 189.557L224.86 71.3711" stroke="white" stroke-width="0.767442"
        class='connection' id='connection12' />
    <path d="M64.4651 189.557L224.86 9.97574" stroke="white" stroke-width="0.767442"
        class='connection' id='connection11' />
    <path d="M65.2325 190.325L224.093 130.464" stroke="white" stroke-width="0.767442"
        class='connection' id='connection13' />
    <path d="M64.4651 190.325L224.86 189.557" stroke="white" stroke-width="0.767442"
        class='connection' id='connection14' />
    <path d="M64.4651 189.557L224.86 248.65" stroke="white" stroke-width="0.767442"
        class='connection' id='connection15' />
    <defs>
        <filter id="filter0_d_373_55" x="220.86" y="119.72" width="73.2325" height="28.7209"
            filterUnits="userSpaceOnUse" color-interpolation-filters="sRGB">
            <feFlood flood-opacity="0" result="BackgroundImageFix" />
            <feColorMatrix in="SourceAlpha" type="matrix"
                values="0 0 0 0 0 0 0 0 0 0 0 0 0 0 0 0 0 0 127 0" result="hardAlpha" />
            <feOffset dy="4" />
            <feGaussianBlur stdDeviation="2" />
            <feComposite in2="hardAlpha" operator="out" />
            <feColorMatrix type="matrix" values="0 0 0 0 0 0 0 0 0 0 0 0 0 0 0 0 0 0 0.25 0" />
            <feBlend mode="normal" in2="BackgroundImageFix" result="effect1_dropShadow_373_55" />
            <feBlend mode="normal" in="SourceGraphic" in2="effect1_dropShadow_373_55" result="shape" />
        </filter>
    </defs>
</svg>