<svg width="1429" height="1945" viewBox="0 0 1429 1945" fill="none" xmlns="http://www.w3.org/2000/svg">
<g style="mix-blend-mode:screen" opacity="0.5">
<path d="M1085.2 219.954C1145.94 219.954 1195.18 170.715 1195.18 109.977C1195.18 49.2384 1145.94 0 1085.2 0C1024.46 0 975.223 49.2384 975.223 109.977C975.223 170.715 1024.46 219.954 1085.2 219.954Z" fill="#AF5656"/>
</g>
<g style="mix-blend-mode:screen" opacity="0.6">
<path d="M1164.84 269.254C1204.63 269.254 1236.89 236.995 1236.89 197.2C1236.89 157.406 1204.63 125.146 1164.84 125.146C1125.04 125.146 1092.78 157.406 1092.78 197.2C1092.78 236.995 1125.04 269.254 1164.84 269.254Z" fill="#E8AD8B"/>
</g>
<path d="M1264.19 87.2829C1282.45 90.1157 1300.19 93.9505 1317.16 98.7338C1334.3 103.379 1349.78 109.798 1362.82 117.667C1369.23 121.73 1374.25 126.447 1377.6 131.571C1380.91 136.743 1381.82 142.315 1380.25 147.748C1378.61 153.216 1374.81 158.397 1369.13 162.895C1363.59 167.334 1357.03 171.328 1349.63 174.769C1334.8 181.543 1318.36 187.071 1300.79 191.188C1283.35 195.372 1265.33 198.726 1246.92 201.215C1173.01 211.03 1096.16 211.03 1022.26 201.215C1003.85 198.726 985.829 195.372 968.383 191.188C950.82 187.071 934.374 181.543 919.541 174.769C912.064 171.316 905.436 167.301 899.835 162.834C894.188 158.329 890.402 153.15 888.764 147.687C887.169 142.245 888.082 136.66 891.412 131.481C894.782 126.36 899.794 121.644 906.192 117.576C919.244 109.718 934.726 103.31 951.855 98.6732C968.831 93.8949 986.571 90.0602 1004.83 87.2223C986.772 90.233 969.263 94.2299 952.544 99.1578C935.716 103.918 920.575 110.42 907.887 118.333C901.695 122.308 896.861 126.911 893.637 131.905C890.483 136.876 889.643 142.232 891.201 147.445C892.895 152.66 896.625 157.589 902.113 161.865C907.532 166.195 913.966 170.079 921.237 173.406C935.915 180.044 952.186 185.44 969.549 189.431C986.792 193.52 1004.6 196.782 1022.79 199.186C1059.38 203.945 1096.82 206.272 1134.35 206.123C1171.9 206.289 1209.36 203.961 1245.97 199.186C1264.22 196.785 1282.09 193.533 1299.42 189.462C1316.78 185.452 1333.06 180.057 1347.78 173.437C1355.01 170.086 1361.44 166.206 1366.9 161.895C1372.28 157.603 1375.9 152.675 1377.5 147.475C1379.05 142.254 1378.23 136.893 1375.11 131.905C1371.88 126.922 1367.06 122.321 1360.92 118.333C1348.28 110.472 1333.23 103.994 1316.53 99.2184C1299.78 94.298 1282.26 90.3014 1264.19 87.2829Z" fill="white"/>
<circle cx="966.657" cy="68.2614" r="7.58462" fill="white"/>
<path d="M1132.62 18.9619L1144.01 144.583H1121.23L1132.62 18.9619Z" fill="white"/>
<path d="M1013.15 105.714L1136.11 133.723L1129.13 155.355L1013.15 105.714Z" fill="white"/>
<path d="M1058.77 246.221L1123.44 137.83L1141.81 151.265L1058.77 246.221Z" fill="white"/>
<path d="M1206.47 246.221L1123.43 151.265L1141.8 137.83L1206.47 246.221Z" fill="white"/>
<path d="M1252.1 105.714L1136.11 155.355L1129.13 133.723L1252.1 105.714Z" fill="white"/>
<path d="M1132.62 170.772C1147.08 170.772 1158.81 159.048 1158.81 144.585C1158.81 130.123 1147.08 118.398 1132.62 118.398C1118.16 118.398 1106.43 130.123 1106.43 144.585C1106.43 159.048 1118.16 170.772 1132.62 170.772Z" fill="white"/>
<path d="M1134.5 128.938L1147.64 151.692H1121.36L1134.5 128.938Z" fill="#070707"/>
<g style="mix-blend-mode:screen" opacity="0.6">
<path d="M357.85 664.565C393.142 664.565 421.752 635.955 421.752 600.663C421.752 565.371 393.142 536.762 357.85 536.762C322.558 536.762 293.948 565.371 293.948 600.663C293.948 635.955 322.558 664.565 357.85 664.565Z" fill="#E8AD8B"/>
</g>
<g style="mix-blend-mode:screen" opacity="0.5">
<path d="M213.006 741.248C281.237 741.248 336.549 685.936 336.549 617.705C336.549 549.474 281.237 494.162 213.006 494.162C144.775 494.162 89.4626 549.474 89.4626 617.705C89.4626 685.936 144.775 741.248 213.006 741.248Z" fill="#4C4C4C"/>
</g>
<g style="mix-blend-mode:screen" opacity="0.6">
<path d="M302.469 796.628C347.172 796.628 383.411 760.389 383.411 715.686C383.411 670.983 347.172 634.744 302.469 634.744C257.766 634.744 221.527 670.983 221.527 715.686C221.527 760.389 257.766 796.628 302.469 796.628Z" fill="#86FFE2"/>
</g>
<path d="M343.923 507.949C362.608 497.744 381.521 488.823 400.399 481.311C419.329 473.558 437.995 468.59 455.456 466.658C464.172 465.891 472.072 466.701 478.744 469.046C485.402 471.471 490.155 475.941 492.541 482.022C494.889 488.185 495.054 495.603 493.024 503.71C491.081 511.664 487.896 519.923 483.554 528.265C474.759 544.874 463.613 561.474 450.453 577.562C437.449 593.628 423.335 609.336 408.257 624.525C347.603 685.336 277.349 739.216 202.891 782.029C184.311 792.652 165.481 802.21 146.592 810.604C127.642 819.142 108.72 825.602 90.3986 829.791C81.1348 831.866 72.2523 832.831 63.9914 832.662C55.6613 832.49 48.5589 830.396 43.2192 826.535C37.934 822.663 34.8404 816.902 34.2433 809.818C33.7221 802.76 34.9878 794.922 37.9754 786.707C44.3806 770.351 54.0258 753.621 66.4239 737.361C78.5815 721.078 92.1008 705.125 106.795 689.723C92.4062 705.143 79.2117 721.083 67.3942 737.322C55.3587 753.485 46.0902 770.061 40.0576 786.213C37.1921 794.198 36.0109 801.808 36.5752 808.647C37.1881 815.417 40.1865 820.916 45.2762 824.605C50.4926 828.198 57.3685 830.102 65.3919 830.176C73.3905 830.348 82.0038 829.398 90.9895 827.352C109.075 823.147 127.743 816.689 146.422 808.176C165.059 799.836 183.632 790.343 201.948 779.796C238.748 758.503 274.605 734.393 308.807 707.944C343.249 681.772 375.851 653.378 405.958 623.333C420.954 608.336 435.009 592.821 447.98 576.944C461.033 561.094 472.124 544.732 480.922 528.343C485.178 520.2 488.327 512.134 490.287 504.353C492.183 496.648 492.027 489.591 489.831 483.703C487.574 477.831 483.053 473.491 476.702 471.097C470.238 468.798 462.604 467.954 454.181 468.606C437.096 470.261 418.789 474.868 400.159 482.201C381.394 489.427 362.563 498.049 343.923 507.949Z" fill="white"/>
<circle cx="113.406" cy="668.825" r="8.52022" fill="white"/>
<path d="M268.92 515.461L281.71 656.578H256.13L268.92 515.461Z" fill="white"/>
<path d="M169.072 556.727L277.958 647.451L259.882 665.613L169.072 556.727Z" fill="white"/>
<path d="M127.802 656.579L268.92 643.789V669.369L127.802 656.579Z" fill="white"/>
<path d="M169.072 756.343L259.882 647.457L277.958 665.619L169.072 756.343Z" fill="white"/>
<path d="M268.92 797.694L256.13 656.576H281.71L268.92 797.694Z" fill="white"/>
<path d="M368.687 756.343L259.885 665.619L277.962 647.457L368.687 756.343Z" fill="white"/>
<path d="M410.03 656.579L268.913 669.369V643.789L410.03 656.579Z" fill="white"/>
<path d="M368.687 556.727L277.962 665.613L259.885 647.451L368.687 556.727Z" fill="white"/>
<path d="M268.914 685.998C285.16 685.998 298.331 672.827 298.331 656.58C298.331 640.334 285.16 627.163 268.914 627.163C252.667 627.163 239.497 640.334 239.497 656.58C239.497 672.827 252.667 685.998 268.914 685.998Z" fill="white"/>
<path d="M268.387 639.003L283.145 664.564H253.63L268.387 639.003Z" fill="#070707"/>
<g style="mix-blend-mode:screen" opacity="0.6">
<path d="M1242.32 1187.64C1277.27 1187.64 1305.61 1159.3 1305.61 1124.34C1305.61 1089.39 1277.27 1061.05 1242.32 1061.05C1207.36 1061.05 1179.02 1089.39 1179.02 1124.34C1179.02 1159.3 1207.36 1187.64 1242.32 1187.64Z" fill="#86FFE2"/>
</g>
<g style="mix-blend-mode:screen" opacity="0.5">
<path d="M1098.85 1263.59C1166.43 1263.59 1221.22 1208.8 1221.22 1141.22C1221.22 1073.64 1166.43 1018.86 1098.85 1018.86C1031.27 1018.86 976.487 1073.64 976.487 1141.22C976.487 1208.8 1031.27 1263.59 1098.85 1263.59Z" fill="#294F98"/>
</g>
<g style="mix-blend-mode:screen" opacity="0.6">
<path d="M1187.46 1318.44C1231.74 1318.44 1267.63 1282.55 1267.63 1238.27C1267.63 1193.99 1231.74 1158.1 1187.46 1158.1C1143.19 1158.1 1107.29 1193.99 1107.29 1238.27C1107.29 1282.55 1143.19 1318.44 1187.46 1318.44Z" fill="#1A7469"/>
</g>
<path d="M1315.92 1214.1C1331.7 1228.99 1346.31 1244.5 1359.55 1260.43C1373.03 1276.32 1383.73 1292.85 1391.11 1309.16C1394.61 1317.36 1396.31 1325.27 1396.15 1332.48C1395.9 1339.69 1393.06 1345.71 1387.92 1349.94C1382.69 1354.16 1375.56 1356.66 1367.06 1357.25C1358.74 1357.88 1349.73 1357.4 1340.28 1355.82C1321.41 1352.53 1301.81 1346.97 1282.06 1339.29C1262.39 1331.76 1242.72 1323.04 1223.24 1313.22C1145.18 1273.62 1070.81 1222.54 1005.83 1163.89C989.677 1149.24 974.475 1134.01 960.382 1118.35C946.131 1102.68 933.902 1086.38 924.063 1069.95C919.13 1061.63 915.392 1053.32 912.951 1045.26C910.489 1037.14 910.279 1029.59 912.335 1023.2C914.42 1016.86 919.028 1012.04 925.704 1009.23C932.378 1006.5 940.373 1005.25 949.277 1005.56C967.147 1006.6 986.402 1010.67 1006.07 1017.56C1025.68 1024.2 1045.41 1032.27 1064.97 1041.65C1045.49 1032.57 1025.88 1024.82 1006.41 1018.49C986.954 1011.92 967.967 1008.17 950.413 1007.42C941.77 1007.16 934.024 1008.42 927.574 1011.12C921.207 1013.85 916.824 1018.49 914.855 1024.59C913.018 1030.77 913.342 1038.04 915.801 1045.84C918.158 1053.64 921.796 1061.69 926.613 1069.75C936.393 1085.95 948.54 1102 962.681 1117.42C976.643 1132.85 991.7 1147.85 1007.7 1162.27C1039.94 1191.22 1074.62 1218.36 1111.04 1243.16C1147.26 1268.28 1185.06 1290.92 1223.67 1310.61C1242.94 1320.41 1262.41 1329.14 1281.88 1336.7C1301.36 1344.35 1320.71 1349.94 1339.37 1353.29C1348.61 1354.85 1357.41 1355.36 1365.57 1354.8C1373.64 1354.21 1380.43 1351.83 1385.44 1347.84C1390.42 1343.8 1393.2 1338.05 1393.51 1331.15C1393.7 1324.16 1392.11 1316.49 1388.82 1308.54C1381.83 1292.5 1371.59 1276.21 1358.61 1260.47C1345.69 1244.57 1331.39 1229.04 1315.92 1214.1Z" fill="white"/>
<circle cx="946.95" cy="1035.73" r="8.43898" fill="white"/>
<path d="M1151.61 1039.95L1164.28 1179.72H1138.95L1151.61 1039.95Z" fill="white"/>
<path d="M1018.68 1136.48L1155.5 1167.64L1147.73 1191.71L1018.68 1136.48Z" fill="white"/>
<path d="M1069.45 1292.81L1141.4 1172.21L1161.84 1187.16L1069.45 1292.81Z" fill="white"/>
<path d="M1233.79 1292.81L1141.39 1187.16L1161.83 1172.21L1233.79 1292.81Z" fill="white"/>
<path d="M1284.55 1136.48L1155.5 1191.71L1147.73 1167.64L1284.55 1136.48Z" fill="white"/>
<path d="M1151.61 1208.86C1167.7 1208.86 1180.75 1195.82 1180.75 1179.73C1180.75 1163.63 1167.7 1150.59 1151.61 1150.59C1135.52 1150.59 1122.47 1163.63 1122.47 1179.73C1122.47 1195.82 1135.52 1208.86 1151.61 1208.86Z" fill="white"/>
<rect x="1136.83" y="1166.54" width="25.3169" height="25.3169" fill="#070707"/>
<g style="mix-blend-mode:screen" opacity="0.6">
<path d="M360.043 1738.75C391.866 1738.75 417.664 1712.96 417.664 1681.13C417.664 1649.31 391.866 1623.51 360.043 1623.51C328.22 1623.51 302.422 1649.31 302.422 1681.13C302.422 1712.96 328.22 1738.75 360.043 1738.75Z" fill="#867BFF"/>
</g>
<g style="mix-blend-mode:screen" opacity="0.5">
<path d="M229.435 1807.9C290.96 1807.9 340.836 1758.02 340.836 1696.5C340.836 1634.97 290.96 1585.1 229.435 1585.1C167.91 1585.1 118.034 1634.97 118.034 1696.5C118.034 1758.02 167.91 1807.9 229.435 1807.9Z" fill="#AF5656"/>
</g>
<g style="mix-blend-mode:screen" opacity="0.6">
<path d="M310.104 1857.84C350.414 1857.84 383.091 1825.16 383.091 1784.85C383.091 1744.54 350.414 1711.87 310.104 1711.87C269.795 1711.87 237.118 1744.54 237.118 1784.85C237.118 1825.16 269.795 1857.84 310.104 1857.84Z" fill="#6DB5F7"/>
</g>
<path d="M427.05 1766.69C441.419 1780.24 454.721 1794.37 466.77 1808.86C479.046 1823.34 488.789 1838.38 495.508 1853.23C498.688 1860.7 500.242 1867.9 500.089 1874.46C499.862 1881.03 497.284 1886.51 492.604 1890.36C487.841 1894.2 481.344 1896.47 473.61 1897.01C466.034 1897.58 457.834 1897.14 449.227 1895.71C432.048 1892.72 414.203 1887.65 396.231 1880.66C378.322 1873.81 360.411 1865.87 342.681 1856.93C271.613 1820.88 203.904 1774.37 144.751 1720.98C130.042 1707.64 116.203 1693.77 103.373 1679.52C90.3986 1665.25 79.265 1650.42 70.3084 1635.45C65.8173 1627.88 62.4143 1620.32 60.1916 1612.98C57.9506 1605.58 57.759 1598.72 59.6311 1592.9C61.5291 1587.12 65.7238 1582.74 71.8018 1580.18C77.8784 1577.69 85.1569 1576.56 93.2627 1576.83C109.531 1577.79 127.061 1581.49 144.967 1587.76C162.823 1593.81 180.779 1601.15 198.588 1609.69C180.851 1601.43 163 1594.37 145.279 1588.6C127.564 1582.63 110.278 1579.21 94.2965 1578.53C86.4287 1578.29 79.3761 1579.44 73.5046 1581.9C67.7079 1584.38 63.7175 1588.61 61.925 1594.16C60.253 1599.79 60.5475 1606.4 62.7868 1613.5C64.9319 1620.61 68.2438 1627.94 72.6293 1635.28C81.5328 1650.02 92.5913 1664.64 105.466 1678.67C118.176 1692.72 131.885 1706.38 146.449 1719.51C175.803 1745.86 207.371 1770.57 240.527 1793.15C273.507 1816.01 307.92 1836.62 343.072 1854.56C360.609 1863.48 378.333 1871.42 396.065 1878.31C413.797 1885.27 431.417 1890.35 448.402 1893.41C456.809 1894.83 464.829 1895.29 472.256 1894.78C479.598 1894.24 485.779 1892.08 490.343 1888.45C494.875 1884.77 497.406 1879.54 497.694 1873.25C497.865 1866.88 496.418 1859.91 493.423 1852.66C487.057 1838.07 477.736 1823.24 465.916 1808.91C454.151 1794.43 441.137 1780.29 427.05 1766.69Z" fill="white"/>
<circle cx="91.145" cy="1604.31" r="7.6828" fill="white"/>
<path d="M276.704 1585.1L288.237 1712.35H265.171L276.704 1585.1Z" fill="white"/>
<path d="M177.212 1632.92L283.854 1703.35L269.477 1721.34L177.212 1632.92Z" fill="white"/>
<path d="M152.607 1740.56L274.089 1701.12L279.24 1723.57L152.607 1740.56Z" fill="white"/>
<path d="M221.265 1826.91L266.32 1707.35L287.08 1717.35L221.265 1826.91Z" fill="white"/>
<path d="M331.68 1827.14L266.326 1717.35L287.085 1707.35L331.68 1827.14Z" fill="white"/>
<path d="M400.724 1740.94L274.091 1723.57L279.32 1701.12L400.724 1740.94Z" fill="white"/>
<path d="M376.425 1633.3L283.854 1721.42L269.553 1703.35L376.425 1633.3Z" fill="white"/>
<path d="M276.706 1738.87C291.356 1738.87 303.232 1727 303.232 1712.35C303.232 1697.7 291.356 1685.82 276.706 1685.82C262.056 1685.82 250.18 1697.7 250.18 1712.35C250.18 1727 262.056 1738.87 276.706 1738.87Z" fill="white"/>
<rect x="264.008" y="1700.34" width="25.5108" height="25.5108" rx="12.7554" fill="#070707"/>
</svg>
