<svg t="1705685595221" class="icon" viewBox="0 0 1024 1024" version="1.1" xmlns="http://www.w3.org/2000/svg" p-id="11270" width="200" height="200"><path d="M268.4 610.1c-10.5 0-15.2 11.6-27.5 10.7 8.5 8.1 16.2 5 23.2 5.7 5.8-4.3 15.2-7.7 4.3-16.4zM950.5 499.1c-2.6-1.6-5.2-3.1-7.8-4.7-2.2 0.1-4.4 0.3-6.6 0.4-1.5-0.8-3.2-1.7-5-2.5-9.5-2.2-20-1.4-28-8.5-0.5-0.2-1-0.3-1.5-0.5 1.2-3 4-4.2 8.1-3.9 2.5-0.1 5-0.3 7.6-0.4 7.6 6.2 15.2 4.7 23.7 1.5-3.7-8.5-10.2-4.3-14.7-6.2-1.1-1-2.2-1.3-3.2-0.7-0.4-1.3-1-2.3-1.7-3 2.9-0.8 5.7-2 8.2-4.1-0.9-4.6-3.9-7.2-8-8.9-1.6-1.5-3-1.3-4.2 0.4-4.1-0.2-8.1-0.4-12.2-0.6-6.4-0.9-12.8-1.9-19.3-2.9-0.3-0.5-0.5-0.9-0.9-1.3-6.5-5.2-15.1-6.4-21.6-11.7-0.9-0.9-1.9-1.7-2.9-2.6v-1.1c1.9-4.2 3.3-8.4-1.4-11.9-5-0.7-5.2-3.3-4.5-6.2 0.8-1 1.7-2 2.8-3.1 0.3-2.9 0.7-5.7-2.6-7.3-0.8-1.2-1.5-2.4-2.3-3.6 6.7-4.4 20.9-7.6 2.6-16-19.6-9.6-41.2 2.8-60.9-5.3-15.8-12.8-35.1-10.3-53.4-12.4-6-3.9-10.5-2.3-14.4 1.8l-1.5-0.6c-6.8-1.7-13.2 0.1-19.7 1.8-0.7 0.3-1.4 0.4-2.2 0.6-2.3-3.7-7-2.9-11.2-3l-6 4.5c-0.4 0-0.7 0-1.1-0.1-1.7 0.2-3.4 0.8-4.9 1.6-0.3 0.3-0.5 0.6-0.7 0.8 2.4-2.4 2-4.9 0-7.3-1.4-0.2-2.7-0.4-4.1-0.6-7 1.8-13.9 3.6-20.9 5.4-5.4-0.3-10.9-0.6-16.3-0.9-1.3 0.4-2.7 0.8-4 1.2-5.5-1.7-10.9-3.4-16.4-5.1-0.3-1.2-0.6-2.4-1-3.6-6.5 1.3-13 2.7-19.5 4-4.8-0.9-8.6 1.5-12.3 4-7.6-3-16.3-11.2-20.4 4-6.4 4-14.9-2.3-20.8 4.3-12.5 0.6-24.7-12-37.3-0.8-1.2 0.3-2.5 0.5-3.7 0.8-16.4-3.5-32.9 0.5-49.4-0.6-9.7-8.8-19.1 4.4-28.8 0.2-6.2-0.7-6.4 3.1-5.7 7.6-0.2 0.1-0.4 0.2-0.6 0.2 0-0.1 0-0.2 0.1-0.4-2.3-4-3.6-9.4-10.2-7.6-1.6 1.3-3.2 2.5-4.8 3.8-7.9-5-15.7-4.4-23.5 0-5.6-1.1-11.1-2.1-16.7-3.2-1.3-0.4-2.7-0.8-4-1.2-12.8-3.5-25.5-5.8-36.9 3.9-1.1 2-1.2 3.5-0.7 4.8-5-1.4-10-2.8-14.9-4.2 0.1-0.3 0.2-0.5 0.2-0.9 0.2-1.1-0.3-2.2-1.3-3.1 1-3.6 3.8-7.9-3.7-7.8-13.9 0.2-27.7 0-41.6 0L247.6 388c-9.6 0.1-19.2 0.3-28.8 0.4-1.4-0.4-2.8-0.7-4.2-1.1-5.4 0.4-10.9 0.7-16.3 1.1-14.4-4.1-21.7 0.6-20.2 16.2 0.1 0.2 0.2 0.3 0.2 0.5-1-0.1-2-0.1-3-0.2V403c-3.6-6.5-8.6-5.3-13.9-2.5-7.5-5.8-17.8 5.6-24.7-4-1.3-0.1-2.6 0-3.9 0.1-9.6-1.3-19.3-2.5-28.9-3.8-10.3-2.8-13.4 4.3-16.1 11.8 5.7 0.4 9.2-3.7 13.2-6.5-2 7.3-4.6 15 8.9 11.4 3.6-1 6.6 0.4 8.9 3.2l0.1 0.1c-0.9 0-1.8-0.1-2.8-0.1-1.1 5.6-14 12.5 1.8 16.1 1.2 2.6 2.5 5.3 3.7 7.9 1 0 2.1 0.2 3 0.6 1 1.5 2.5 2.5 4.2 3.1 5.6 0.9 10.2-3 15.5-3.7-0.1 3 2.1 5.3 4.4 7.5 5.2 3.1 10.4 5.9 16.2 2.8-3 5.4-0.1 7.9 5.5 9.2 1.5-0.2 2.7-0.9 3.9-1.7 3.9 2.6 7.8 5.3 11.6 7.9-2.5 4.2-8.9 5.9-8 12.4h-5.1c-0.8-0.5-1.5-1-2.3-1.5-2.6-1.2-5.3-1.4-8.1-0.6-2.9 1.2-3.7 4.1-5.1 6.4 0.5 13.1 11.4 11.1 19.4 13.5 4.9 1.4 13.4-3.8 13.5 7-0.2 1.5-0.4 2.9-0.7 4.4 0.8 4.3-0.6 9.4 4.2 12.4 3.2 2.9 6.8 3.2 10.5 2.1-2.6 2.6-5.9 4.6-5.7 8.9-0.1 0.3-0.2 0.5-0.4 0.8 0.1 1.4 0.2 2.8 0.2 4.1 6.4-3.2 18.8 7.6 19.8-8.4l17.1-3.9c2.7-3.4 7.6-4.4 9.8-8.4 2.6 0.4 5 1.2 6.3 3.9-5.4-3.2-9.2-0.8-12.1 4.4-0.8 6.3 3.7 7.5 8.3 8.4-0.2 8.1-4.8 13.3-10.4 18-0.7-0.1-1.4-0.1-2.1-0.1-2 0.4-3.6 1.3-4.9 2.8 0.5 3.2 0.1 6.1-3.1 7.9-13.6 9.3-7.2 17.3 1.5 25.3 1.4 1.1 3 1.9 4.7 2.5 4.9 1.5 10.1 0.9 15 2.5 0.8 0.3 1.3 0.7 1.8 1.2-0.7 3-1.3 6-2 9l7.5 0.3c10.9 1.7 22.7-2.8 32.9 4.6l4.2-0.3c2.3 5.5 6.4 8.2 12.3 8.4 2.4-6.6 6.3-12 12.5-15.4 2.8-0.5 5.5-1 8.3-1.5 2.6 0.2 5.2 0.4 7.7 0.6 1.5 1.3 2.9 2.6 4.3 3.9 7.1 5.7 14.8 6.1 22.9 2.2 1.2-1.1 1.8-2 2.2-2.9 5.9 2.3 5.1-2.8 6.4-5.5 0 1.6 0.3 3.1 1.2 4.5 5.3 6 12.7 7.5 20 9.4-2.3 0.3-4.7 0.6-7 1v7.2c5-3.3 10.2 0.5 15.2-0.1l0.6 0.9 8.4 12 24.6 0.9v-1.7c4.3-0.5 12.2 3 8.1-7.1-3.1 0.1-6.3 0.2-9.4 0.3-0.5-0.7-1.2-1.3-1.9-1.9-3.7-0.9-4.2-3.9-4.9-6.9h-0.2c-6.8-6.9-14.7-8.9-23.8-5.5-0.5 0.4-0.8 0.8-1.2 1.2-1.1-0.9-2.2-1.4-3.3-1.5 6.8-2 13.8-3 20.2-6.1 3.1-0.2 5.5-1.1 7-3.1 1.7 0 3.3 0 5-0.2 0.7-0.1 1.4-0.1 2.1-0.2 4.8 7.3 11.7 3.9 18.8-0.6 0.9-0.3 1.7-0.7 2.6-1.1 0.1 0.5 0.2 0.9 0.5 1.3 1.3 1.3 2.9 2.2 4.6 2.8-1.2 3.9-4.2 8.2 3.8 9.6 1.9 7.1 11 10.9 9.3 19.7 2.6-1.4 5.2-2.7 7.8-4.1 0.1-4.3 0.2-8.6 0.3-13 3.6 2.3 6.9 5.5 11.8 4.7 1.5-1.3 2.9-2.5 4.4-3.8 8.3 0.1 16.5 0.1 24.8 0.2l0.1-0.1c1.3 1.3 2.6 2.7 3.9 4v8c6 1 11.1-1.2 16.1-4.2 5.1-3.9 6.9-9.4 7.1-15.5 0-0.1 0-0.1-0.1-0.2 5.2 0.7 5.1 7.4 8.2 10.5-0.2 0.2-0.5 0.3-0.7 0.5-3.5 4-5.9 8.1-2.3 13.3 0.1 1.4 0.2 2.7 0.3 4.1 5.2-2.8 10.7-4.4 16.7-4 2.8-0.1 5.5-0.3 8.3-0.4 4.1 2.8 8.1 5.6 12.2 8.4 9.8 1 18.9 3.4 25.4 11.6 11.6-5.3 24.6 4.1 35.9-3.6 4.3 0 8.5-0.1 12.8-0.1 6.2-0.9 13.3 2.8 18.6-3.5 3.2 2.7 5.6 2.2 7.3-1.7 2.2 1.4 4.3 3.3 7.1 1.2 3.9-0.1 7.9-0.1 11.8-0.2 4.2-0.2 8.3-0.3 12.5-0.5 4.9 2.6 8.3-1.2 12.2-2.9l16.5-0.6c11.5 1.3 23 1.3 34-3 5.4 5.6 10.5 3.7 15.4-0.8 13.9 2.5 27.6 2.6 40.8-3.6 2.5-1.2 5.3-2 2.6-5-0.9-1-3.8-0.1-5.8-0.1 0.1-2.4 0.1-4.8 0.2-7.1 4.2-1.7 4.5-5 3.8-8.8 1.1-1.5 2.3-3 3.4-4.5l0.4 0.4c16 1.1 28.6-4.3 35.2-19.7 4-9.4-4.3-3.3-6.6-4.9 0.8-9.9 9.1-5.8 14.2-7.4 15.6-4.8 30-11.5 40.2-24.9l1.7 0.3 1.6-0.7c5-0.3 12.6 2 14-2.6 1.8-5.9-6.1-4.7-9.9-6.5-1.8 0.4-3.7 0.7-5.5 1.1-0.8-0.9-1.7-1.7-2.6-2.5-1.8-1-3.7-1.7-5.8-2.2-0.5 0-1.1-0.1-1.6-0.2-0.2-5.8 11.8-12.2 2.1-17.6 4.4-1 8.8-1.9 13.2-2.9 4.1 0.2 8.2 0.4 12.4 0.5 5 2.2 10.6 4.4 13.2-2.4 3.3-8.1-5.6-7-8.6-10.5zM540.9 394.4c0.1 0.1 0.2 0.1 0.3 0.2 2.7 0.6 4.7 2 6.5 3.7-1.9-0.4-3.7-0.2-5.5 0.6-0.1-1.6-0.6-3-1.4-4.4 0 0 0-0.1 0.1-0.1z m108.8 226v-1c0.2 0.1 0.5 0.2 0.7 0.3h1.1c-0.5 0.5-1.1 0.8-1.8 0.7z m-286.6-84.7c-0.3-1-0.3-1.9-0.1-2.7 0.2 0.8 0.5 1.7 0.7 2.6-0.2 0-0.4 0-0.6 0.1zM333.8 520c0.1-0.1 0.3-0.2 0.4-0.4l-0.4 0.4z m3.5-19.3c-0.2-0.2-0.5-0.4-0.7-0.7l0.9-0.6 0.3 0.3c-0.2 0.5-0.5 1-0.5 1z m-82.2-55.6c0.7-0.7 1.1-1.4 1.5-2 0.1 0.6 0.1 1.3-0.1 2.1-0.5-0.1-1-0.1-1.4-0.1 0 0-0.1 0 0 0-0.1 0-0.1 0 0 0z m66.6 90.6c-0.2-1.1-0.7-2.1-1.3-3 2.8-0.2 5.6-0.4 8.3-0.7 0 0.1 0.1 0.2 0.1 0.3 1.4 1.2 2.8 1.3 4.4 0.4-0.3 0.8-0.6 1.6-0.6 2.5 0 0.2 0.1 0.3 0.2 0.4-3.8-1.5-7.5-2-11.1 0.1z m13.8-81.1c-0.5-0.7-0.3-0.9 0.3-1-0.2 0.3-0.3 0.7-0.3 1z m0.5 13.4l0.3 2.4c-0.8-0.1-1.6-0.3-2.4-0.5 0.1-0.8 1-1.4 2.1-1.9z m-72.4-33.9c0.1-0.1 0.2-0.1 0.3-0.2 0 0.1-0.1 0.3-0.2 0.4 0 0 0-0.1-0.1-0.2z m49.4 93.4c0.1 0.5 0.1 1.1 0.2 1.6-0.3 0-0.6-0.1-0.9-0.1-2.5 0.2-4.7 1-6.1 3.1-0.8-1.3-1.7-2.4-2.8-3.5 3.3-0.3 6.4-0.9 9.6-1.1z m-3.8 33.7v0.3c-0.1 0-0.2-0.1-0.3-0.1 0.1-0.1 0.2-0.2 0.3-0.2z m73.4-123.4s-0.1 0 0 0c-0.1 0-0.1 0 0 0z m133.2 6.1c0.2 0 0.4 0 0.6 0.1-0.3 0-0.6 0-0.9 0.1 0.1-0.2 0.2-0.2 0.3-0.2z m28.5-30.3z m16.2-3.1v-0.3c0.3-0.1 0.6-0.1 0.9-0.2-0.3 0.2-0.6 0.3-0.9 0.5zM382.7 573.2c-0.2 0.1-0.3 0.2-0.4 0.3 0.1-0.2 0.2-0.2 0.4-0.3z m-114.6-57c1.8 10.1 6.8 13.5 16.3 8.1 1 0.9 2 1.8 2.9 2.7-0.2 0.2-0.4 0.5-0.6 0.7-2 7.7-17.6 5.6-13.6 17.6h-0.3c-1.1 0.9-1.6 2-1.8 3.2-3.4-0.2-6.7-0.4-10.1-0.5 16.4-13.6 16.1-13.9 1.6-21.7-0.3 0-0.7-0.1-1-0.1 0.9-3.4 1.8-6.8 2.8-10.2 1.3 0 2.6 0.1 3.8 0.2z m53.5-103.1c0.1 0.2 0.3 0.5 0.5 0.7h-0.9c0-0.2 0.2-0.4 0.4-0.7z m-142.4 4.8c0.5 0.3 1.1 0.3 1.8-0.1-0.7 2-0.8 4.2-1.9 6.1-0.3-2.1-1.3-3.7-2.6-5 0.6-0.1 1.1-0.1 1.7-0.2 0.3-0.3 0.7-0.5 1-0.8zM315 581.7c-1.1-1-2.4-1.5-4.1-0.9 0-2.6-0.8-4.6-2.3-6.3 0.5-0.2 1-0.4 1.5-0.8 2.3 1.4 4.7 2.6 7.3 3.1-0.8 1.6-1.6 3.3-2.4 4.9z m286.3 32.7zM618.2 381l3.3 3.3c0.7-1.5 2-1.9 3.5-2.1-1.2 0.7-2.3 1.4-3.5 2.1l16.1 0.3v0.3c-4.4 0.7-8.4 2.3-12.6 3.8-1.9-4.2-7.2-3.7-11.2-5.1 1.6-0.4 3.1-1.2 4.4-2.6zM331 398.7c-0.1-0.1-0.1-0.2-0.2-0.3 0.2 0 0.4 0.1 0.6 0.1-0.1 0.1-0.2 0.1-0.4 0.2z m-181 18.4c-0.2 0.4-0.3 0.8-0.5 1.2-1.6-0.4-3.1-0.6-4.7-0.8-0.4-0.9-1-1.6-1.8-2.2 2.4 0.8 4.7 1.4 7 1.8z m-11.8-3.4c-2.3-0.1-4.5 0.5-6.8 1 0.9-0.8 1.4-2.2 1.4-4.3 1.5 1.5 3.4 2.5 5.4 3.3z m62.4 83.6c0.4-0.5 0.7-1.1 1.1-1.6 3.4 0 6.8 0.1 10.2 0.1-1.5 1.7-2.5 3.5-1.9 5.9-2.7-2.4-6-3.6-9.4-4.4z m292.9 108.5c0.1 0 0.2 0 0.4-0.1-0.1 0.2-0.2 0.5-0.3 0.7 0-0.2-0.1-0.4-0.1-0.6zM91.6 466.4c2.5-1.9 2.3-3.1-0.8-3.9-2.5-0.3-5-0.6-7.4-0.9-5.7 2.5-13.3-1.8-19.4 6 7.9 4.5 16 2.4 23.4 3.4 1.4-1.4 2.8-3 4.2-4.6z" fill="#ffffff" p-id="11271"></path><path d="M432.6 630.5c-6-0.2-11.4 1.6-16.5 4.7-0.3 0-0.6 0.4-0.9 1.3-0.3 0.9 0.1 1.7 1.1 2.5 11-2.9 22 6.1 32.9 0v-4.2c-4.7-4.6-9.9-7.3-16.6-4.3zM731.6 364.8c-5.2-2-10.4-4.1-15.6-6.1-2.7 0.1-5.4 0.1-8.1 0.2-3.9 1.1-8.7-0.3-11.3 4.2 10.9 7.1 22.7 4.3 35 1.7zM531.2 639.4c-2.7 2.6-5.5 5.2-8.2 7.8-2.8 0.8-6.6-1.1-8.4 3.2 12 0.7 28.7 9.4 24.4-15.4-2.6 1.4-5.2 2.9-7.8 4.4zM107.7 597.4c8.3 12 16.7 8.7 25.3 4.4 2-2.6 2.4-5.3-0.1-7.8-7.8 1-15.7 2.1-25.2 3.4zM214.7 594.2c-7.9 1.7-18.6-6.1-23.1 6.8 10.6-2.1 22.2 5.1 32-3.7-2.5-2.3-5.4-3.6-8.9-3.1zM73.4 571.3c9.2 3.3 17.3 1.9 25.9 0.3-7.8-3.4-16.2-11.9-25.9-0.3zM206.7 380.1c0-2.8 0.1-5.6 0.1-8.4-8.6-6.9-12.4 9.4-20.6 4.3 5.7 6.9 13.5 3.3 20.5 4.1zM284.5 610.4c-1.3-0.1-2.6-0.3-3.9-0.5-0.1 6.2 2.8 10.6 8.4 13.3l7.8-0.9c1.1-9.2-9.6-6.5-12.3-11.9zM132.8 581.5h-20.6c-2.7 2.6-5.4 5.3-8.1 7.9 9.6 0 19.2 0 28.8 0.1v0.1c4 3.6 8 3.2 12.1 0 1.2-0.3 2.3-0.6 3.5-0.8-1.4-10.9-9.8-6.4-15.7-7.3zM887.3 591.1c8.2 2.8 13.2 4.5 24 8.2-8.5-9.6-13.1-13.2-24-8.2zM198.3 547.6c3.3-1.6-3.3-4.2-3.7-7.2h-8.4c-1.3 1.4-2.7 2.7-4 4.1 4.4 5.9 11.3 5.5 16.1 3.1zM148.2 661.6c1.1 1.3 2.7 3.9 3.3 3.7 2.3-0.7 4.3-2.4 6.5-3.8-1.5-0.7-3-1.5-4.7-2.3-1.8 0.9-3.5 1.6-5.1 2.4zM456 652.6c1.5 0.8 3.1 2.4 4.5 2.2 4.3-0.4 4.8-3.9 4.9-7.5-1.3-0.1-2.7-0.2-4-0.2-1.8 1.8-3.6 3.7-5.4 5.5zM563.6 642c-3.2 1.1-7 2.4-6.4 6.4 0.5 3.1 4 2.7 6.6 2.4 1.3-2.9 5-5.9-0.2-8.8zM156.5 642.1c-0.2 4.7 5.1 4.7 8.9 4.9 0.1-2.7 0.2-5.3 0.3-8-3.3 0.5-8.9-2.3-9.2 3.1zM222.1 552.1c-0.8-4.1-3.4-6.7-7.2-8.2-2.4 1.1-5 2.7-3.3 5.6 2.4 4 6.8 2.4 10.5 2.6zM345.2 606.3c-2.3 0-4.6 0-7-0.1-0.1 1.1-0.2 2.2-0.4 3.4-4.3 6.6 2.5 4.1 4.5 5.6 4 0 8 0.1 12.1 0.1 2.7-0.3 5.4-0.7 8.1-1 5.3 0.2 8.3-2.2 8.4-7.7-4.8 0-9.6-0.1-14.4-0.1-3.4-2.2-7.2-1.7-11.3-0.2zM312.2 610c4 6.7 10.2 9 17.7 8.3-1.1-12.9-11.4-6.3-17.7-8.3zM203.6 580.8c6.1-0.1 12.2-0.2 18.4-0.2-6.3-13.2-12.4-10.4-18.4 0.2zM127.2 466.4c-4-0.2-7.7 0.6-10.8 4.3-0.8 5.9 1.1 11.1 4.1 16.1 1.3 0.1 2.6 0.2 4 0.2 3.9-4.1 7.9-8.1 11.8-12.2 5.2 2.5 0.4 12.1 8.8 12.3 4.3-4-1.4-8.5 0.6-12.6-1.5-1.6-3-3.1-4.6-4.7-1.2 0.3-2.3 0.6-3.5 0.9-0.1-0.3-0.1-0.7-0.3-1-1.4-1.3-3.1-2.3-4.9-2.8-1.3-0.2-2.5-0.4-3.8-0.5-1.5-1.5-3-3-4.5-4.6-2.7-4.9-6.1-7.8-11.7-4.1-2.8 0.2-5.7 0.4-8.5 0.6-4.3-0.2-5.5-8.2-10.8-4.4-0.6 0.5 1.9 5.4 3 8.2 2.6 0 5.2-0.1 7.9-0.1 7.6 1.5 15.4 3 23.2 4.4z" fill="#ffffff" p-id="11272"></path></svg>