<svg width="38" height="38" viewBox="0 0 38 38" fill="none" xmlns="http://www.w3.org/2000/svg">
<path fill-rule="evenodd" clip-rule="evenodd" d="M26.3289 17.0115L37.4583 18.6741C37.5476 18.6814 37.6303 18.7238 37.6883 18.7921C37.7463 18.8604 37.7747 18.9489 37.7674 19.0382C37.7602 19.1275 37.7177 19.2102 37.6494 19.2682C37.5811 19.3262 37.4926 19.3546 37.4033 19.3473L26.274 21.0099C26.0658 21.0394 25.869 21.1226 25.7029 21.2514C25.5367 21.3802 25.407 21.55 25.3266 21.7443C25.2461 21.9385 25.2177 22.1503 25.2441 22.3588C25.2705 22.5674 25.3508 22.7654 25.4771 22.9335L32.1822 31.9744C32.2368 32.0352 32.2658 32.1148 32.263 32.1965C32.2602 32.2782 32.2258 32.3556 32.1672 32.4125C32.1085 32.4694 32.03 32.5014 31.9482 32.5017C31.8665 32.502 31.7878 32.4705 31.7287 32.414L22.7565 25.6677C22.5873 25.5421 22.3884 25.4624 22.1792 25.4364C21.97 25.4103 21.7577 25.4387 21.5628 25.5189C21.3678 25.5991 21.1969 25.7283 21.0666 25.894C20.9364 26.0597 20.8511 26.2563 20.8192 26.4646L19.1704 37.594C19.1704 37.6778 19.1371 37.7582 19.0778 37.8175C19.0186 37.8767 18.9382 37.91 18.8544 37.91C18.7706 37.91 18.6902 37.8767 18.6309 37.8175C18.5717 37.7582 18.5384 37.6778 18.5384 37.594L16.8896 26.4646C16.8577 26.2563 16.7724 26.0597 16.6421 25.894C16.5119 25.7283 16.341 25.5991 16.146 25.5189C15.9511 25.4387 15.7387 25.4103 15.5296 25.4364C15.3204 25.4624 15.1215 25.5421 14.9522 25.6677L5.92509 32.3591C5.86601 32.4156 5.78732 32.447 5.70557 32.4467C5.62382 32.4464 5.54536 32.4145 5.48667 32.3576C5.42798 32.3007 5.39363 32.2232 5.39083 32.1415C5.38803 32.0598 5.41701 31.9802 5.47167 31.9194L12.1768 22.8785C12.3031 22.7105 12.3834 22.5124 12.4098 22.3039C12.4361 22.0953 12.4077 21.8835 12.3273 21.6893C12.2468 21.4951 12.1171 21.3252 11.951 21.1964C11.7848 21.0677 11.588 20.9844 11.3799 20.9549L0.250485 19.2924C0.179628 19.2774 0.116079 19.2385 0.0704808 19.1822C0.0248824 19.1259 0 19.0557 0 18.9832C0 18.9108 0.0248824 18.8406 0.0704808 18.7843C0.116079 18.728 0.179628 18.6891 0.250485 18.6741L11.3799 17.0528C11.588 17.0233 11.7848 16.94 11.951 16.8112C12.1171 16.6825 12.2468 16.5126 12.3273 16.3184C12.4077 16.1242 12.4361 15.9124 12.4098 15.7038C12.3834 15.4953 12.3031 15.2972 12.1768 15.1292L5.47167 6.08828C5.41701 6.02749 5.38803 5.94788 5.39083 5.86617C5.39363 5.78446 5.42798 5.70702 5.48667 5.65011C5.54536 5.5932 5.62382 5.56125 5.70557 5.56096C5.78732 5.56068 5.86601 5.59209 5.92509 5.6486L14.9522 12.3537C15.1225 12.4795 15.3224 12.5589 15.5325 12.5843C15.7427 12.6096 15.9558 12.58 16.151 12.4983C16.3463 12.4166 16.517 12.2856 16.6464 12.1182C16.7759 11.9507 16.8597 11.7526 16.8896 11.543L18.5384 0.413675C18.5384 0.329861 18.5717 0.249484 18.6309 0.190219C18.6902 0.130954 18.7706 0.0976562 18.8544 0.0976562C18.9382 0.0976562 19.0186 0.130954 19.0778 0.190219C19.1371 0.249484 19.1704 0.329861 19.1704 0.413675L20.8192 11.543C20.8491 11.7526 20.9329 11.9507 21.0624 12.1182C21.1918 12.2856 21.3625 12.4166 21.5578 12.4983C21.753 12.58 21.9661 12.6096 22.1762 12.5843C22.3864 12.5589 22.5863 12.4795 22.7565 12.3537L31.7837 5.60738C31.8428 5.55088 31.9215 5.51946 32.0032 5.51975C32.085 5.52003 32.1634 5.55198 32.2221 5.60889C32.2808 5.6658 32.3152 5.74325 32.318 5.82495C32.3207 5.90666 32.2918 5.98627 32.2371 6.04706L25.532 15.0879C25.4057 15.256 25.3254 15.4541 25.299 15.6626C25.2726 15.8711 25.3011 16.083 25.3815 16.2772C25.462 16.4714 25.5917 16.6412 25.7578 16.77C25.924 16.8988 26.1208 16.9821 26.3289 17.0115ZM22.1105 19.0177C22.1105 20.8162 20.6526 22.2741 18.8542 22.2741C17.0557 22.2741 15.5978 20.8162 15.5978 19.0177C15.5978 17.2193 17.0557 15.7614 18.8542 15.7614C20.6526 15.7614 22.1105 17.2193 22.1105 19.0177Z" fill="#72A5DF"/>
</svg>
