<svg width="416" height="416" viewBox="0 0 416 416" fill="none" xmlns="http://www.w3.org/2000/svg">
<g clip-path="url(#clip0_32_29)">
<path opacity="0.64" d="M208 327.428C273.958 327.428 327.428 273.958 327.428 208C327.428 142.041 273.958 88.5713 208 88.5713C142.042 88.5713 88.5717 142.041 88.5717 208C88.5717 273.958 142.042 327.428 208 327.428Z" fill="#2156CC"/>
<path opacity="0.64" d="M208 284.489C250.244 284.489 284.49 250.244 284.49 208C284.49 165.755 250.244 131.51 208 131.51C165.756 131.51 131.51 165.755 131.51 208C131.51 250.244 165.756 284.489 208 284.489Z" fill="#3DA9D3"/>
<path d="M321.793 93.7685C326.407 87.4415 331.206 81.1761 336.189 75.0952C338.363 71.8484 340.925 68.8784 343.817 66.2506C347.101 63.6896 350.864 61.8116 354.885 60.7275L355.499 61.3427C354.486 65.391 352.595 69.1667 349.959 72.4015C347.387 75.3516 344.405 77.9161 341.102 80.016C335.014 84.9897 328.802 89.8404 322.407 94.3836L321.793 93.7685Z" fill="white"/>
<path d="M93.7686 94.2075C87.3801 89.6544 81.1762 84.7942 75.0953 79.8111C71.847 77.6387 68.8766 75.077 66.2507 72.183C63.654 68.9219 61.7724 65.1511 60.7277 61.1155L61.3427 60.5015C65.3617 61.5918 69.1219 63.4754 72.4016 66.0415C75.2915 68.672 77.8487 71.6463 80.016 74.898C84.9897 80.9866 89.7788 87.2594 94.3836 93.5935L93.7686 94.2075Z" fill="white"/>
<path d="M94.2074 322.23C89.5928 328.68 84.794 334.823 79.8109 340.904C77.687 344.225 75.0973 347.224 72.1212 349.81C68.9009 352.42 65.1423 354.286 61.1154 355.271L60.5012 354.656C61.5695 350.659 63.4328 346.919 65.9798 343.659C68.6305 340.748 71.6251 338.171 74.8977 335.983C80.9863 331.009 87.1976 326.281 93.5933 321.615L94.2074 322.23Z" fill="white"/>
<path d="M322.231 321.793C328.619 326.469 334.885 331.267 340.904 336.189C344.173 338.382 347.164 340.964 349.81 343.879C352.362 347.136 354.221 350.882 355.272 354.885L354.657 355.499C350.641 354.48 346.891 352.612 343.659 350.02C340.749 347.369 338.171 344.375 335.983 341.102C331.071 335.075 326.22 328.864 321.616 322.407L322.231 321.793Z" fill="white"/>
<path d="M302.875 77.651C303.204 74.7543 304.278 71.9923 305.992 69.6346C307.707 67.2768 310.003 65.4039 312.658 64.1985C312.401 67.1265 311.311 69.9196 309.517 72.2476C307.823 74.6071 305.53 76.4722 302.875 77.651Z" fill="white"/>
<path d="M281.312 64.4208C281.171 61.5197 281.81 58.6338 283.162 56.0633C284.446 53.3976 286.449 51.1429 288.945 49.5529C289.121 52.4569 288.48 55.3523 287.094 57.9103C285.81 60.5761 283.807 62.8308 281.312 64.4208Z" fill="white"/>
<path d="M257.964 54.6905C257.391 51.8407 257.56 48.8913 258.456 46.1258C259.351 43.3603 260.943 40.8714 263.078 38.8986C263.651 41.7484 263.482 44.698 262.586 47.4635C261.691 50.229 260.099 52.7177 257.964 54.6905Z" fill="white"/>
<path d="M233.384 48.7724C232.334 46.0541 232.018 43.1075 232.468 40.2286C232.903 37.3189 234.116 34.5806 235.978 32.3027C237.005 35.0482 237.3 38.0142 236.831 40.9081C236.404 43.7901 235.213 46.5052 233.384 48.7724Z" fill="white"/>
<path d="M208.124 46.8476C206.67 44.2821 205.93 41.374 205.98 38.4256C205.935 35.5161 206.681 32.649 208.137 30.1299C209.606 32.6697 210.368 35.5566 210.343 38.4904C210.351 41.4227 209.585 44.3052 208.124 46.8476Z" fill="white"/>
<path d="M182.924 48.7941C181.065 46.5134 179.857 43.7731 179.427 40.8627C178.951 37.9839 179.272 35.0298 180.355 32.3203C182.181 34.5904 183.368 37.3074 183.791 40.19C184.255 43.0846 183.956 46.0503 182.924 48.7941Z" fill="white"/>
<path d="M158.334 54.6762C156.068 52.6854 154.391 50.1122 153.484 47.2357C152.547 44.464 152.379 41.49 152.999 38.6306C155.152 40.6062 156.758 43.1048 157.66 45.8839C158.563 48.663 158.731 51.6282 158.15 54.4917L158.334 54.6762Z" fill="white"/>
<path d="M134.91 64.3071C132.417 62.7132 130.418 60.4554 129.137 57.7877C127.789 55.2152 127.154 52.3283 127.3 49.4275C129.793 51.0214 131.792 53.2791 133.072 55.9469C134.454 58.507 135.091 61.4034 134.91 64.3071Z" fill="white"/>
<path d="M113.326 77.5049C110.674 76.2954 108.38 74.4188 106.669 72.0584C104.958 69.698 103.889 66.9343 103.564 64.0371C106.27 65.2465 108.603 67.1584 110.321 69.574C112.011 71.9031 113.048 74.6409 113.326 77.5049Z" fill="white"/>
<path d="M77.6508 113.125C74.7506 112.875 71.9808 111.807 69.6632 110.046C67.2194 108.357 65.3033 106.012 64.1367 103.281C67.052 103.557 69.8256 104.669 72.1244 106.483C74.535 108.154 76.4454 110.45 77.6508 113.125Z" fill="white"/>
<path d="M64.4202 134.688C61.5022 134.886 58.5869 134.266 56.0014 132.899C53.3601 131.578 51.1143 129.584 49.4909 127.117C52.409 126.919 55.3243 127.538 57.9097 128.906C60.551 130.227 62.7968 132.221 64.4202 134.688Z" fill="white"/>
<path d="M54.7527 158.098C51.8927 158.718 48.9178 158.545 46.1485 157.599C43.2595 156.717 40.6811 155.031 38.7153 152.738C41.5756 152.122 44.5494 152.295 47.3196 153.236C50.1947 154.148 52.7653 155.829 54.7527 158.098Z" fill="white"/>
<path d="M48.8331 182.678C46.0876 183.705 43.1215 184 40.2277 183.531C37.3457 183.104 34.6305 181.913 32.3633 180.083C35.0515 178.996 37.9947 178.7 40.8457 179.229C43.7697 179.64 46.5289 180.831 48.8331 182.678Z" fill="white"/>
<path d="M46.7856 207.937C44.2502 209.354 41.3914 210.093 38.4865 210.081C35.5527 210.101 32.667 209.335 30.1294 207.862C32.6508 206.41 35.519 205.668 38.4285 205.717C41.3624 205.698 44.248 206.464 46.7856 207.937Z" fill="white"/>
<path d="M48.7329 233.137C46.4719 234.978 43.7506 236.166 40.8632 236.573C37.9686 237.037 35.0031 236.738 32.2592 235.706C34.5107 233.849 37.2365 232.659 40.1289 232.27C43.0223 231.768 45.9979 232.068 48.7329 233.137Z" fill="white"/>
<path d="M54.6142 257.727C52.6448 260.017 50.064 261.699 47.1736 262.577C44.4028 263.518 41.4277 263.686 38.5686 263.061C40.5594 260.796 43.1327 259.119 46.0092 258.212C48.7809 257.274 51.7548 257.107 54.6142 257.727Z" fill="white"/>
<path d="M64.3069 281.089C62.7165 283.586 60.4578 285.585 57.7875 286.862C55.2273 288.244 52.3311 288.88 49.4273 288.699C51.003 286.191 53.2658 284.187 55.9467 282.927C58.5368 281.627 61.4106 280.995 64.3069 281.089Z" fill="white"/>
<path d="M77.5041 302.674C76.2947 305.38 74.3829 307.713 71.9673 309.43C69.6469 311.188 66.8756 312.252 63.9749 312.497C65.1656 309.78 67.0811 307.442 69.5117 305.741C71.8677 304.048 74.6205 302.992 77.5041 302.674Z" fill="white"/>
<path d="M113.124 338.349C112.836 341.269 111.749 344.054 109.984 346.398C108.314 348.858 105.963 350.779 103.219 351.924C103.529 349.046 104.615 346.307 106.359 343.998C108.061 341.536 110.399 339.584 113.124 338.349Z" fill="white"/>
<path d="M134.688 351.58C134.781 354.489 134.142 357.374 132.83 359.972C131.518 362.569 129.574 364.796 127.178 366.448C126.98 363.53 127.6 360.614 128.967 358.029C130.276 355.415 132.249 353.191 134.688 351.58Z" fill="white"/>
<path d="M158.036 361.308C158.613 364.173 158.44 367.138 157.533 369.915C156.626 372.693 155.017 375.189 152.861 377.161C152.259 374.316 152.452 371.361 153.421 368.619C154.294 365.82 155.885 363.3 158.036 361.308Z" fill="white"/>
<path d="M182.677 367.289C183.751 370.003 184.026 372.968 183.47 375.833C183.077 378.725 181.882 381.449 180.022 383.697C179.014 380.968 178.741 378.022 179.23 375.153C179.641 372.267 180.833 369.547 182.677 367.289Z" fill="white"/>
<path d="M207.875 369.275C209.328 371.797 210.069 374.665 210.02 377.574C210.101 380.488 209.353 383.365 207.862 385.87C206.481 383.322 205.759 380.469 205.761 377.571C205.763 374.673 206.49 371.821 207.875 369.275Z" fill="white"/>
<path d="M233.137 367.268C234.963 369.555 236.13 372.297 236.512 375.199C237.059 378.065 236.779 381.028 235.706 383.741C233.865 381.48 232.677 378.759 232.27 375.872C231.773 372.978 232.073 370.004 233.137 367.268Z" fill="white"/>
<path d="M257.727 361.386C259.879 363.362 261.485 365.861 262.388 368.64C263.29 371.419 263.459 374.384 262.877 377.248C260.58 375.285 258.896 372.701 258.028 369.807C257.181 367.077 257.077 364.17 257.727 361.386Z" fill="white"/>
<path d="M281.09 351.693C283.56 353.314 285.552 355.564 286.862 358.212C288.224 360.824 288.859 363.754 288.7 366.695C286.23 365.075 284.237 362.824 282.927 360.176C281.565 357.564 280.931 354.634 281.09 351.693Z" fill="white"/>
<path d="M302.673 338.495C305.366 339.727 307.679 341.661 309.368 344.093C310.343 343.981 311.328 344.196 312.168 344.704C313.008 345.212 313.656 345.984 314.009 346.9C314.363 347.816 314.403 348.823 314.123 349.764C313.842 350.704 313.257 351.525 312.46 352.098C311.663 352.671 310.698 352.962 309.717 352.928C308.736 352.893 307.794 352.533 307.039 351.905C306.285 351.278 305.76 350.417 305.547 349.459C305.334 348.501 305.445 347.499 305.863 346.611C304.069 344.253 302.964 341.444 302.673 338.495Z" fill="white"/>
<path d="M338.348 302.875C341.259 303.205 344.033 304.287 346.397 306.016C348.81 307.737 350.719 310.073 351.924 312.781C349.014 312.45 346.239 311.368 343.875 309.64C341.462 307.919 339.554 305.583 338.348 302.875Z" fill="white"/>
<path d="M351.58 281.311C354.507 281.178 357.416 281.839 359.998 283.223C362.669 284.5 364.926 286.504 366.509 289.006C363.586 289.087 360.691 288.429 358.09 287.094C355.419 285.817 353.162 283.813 351.58 281.311Z" fill="white"/>
<path d="M367.228 233.383C369.966 232.323 372.941 232.027 375.834 232.529C378.72 232.94 381.44 234.133 383.698 235.977C380.96 237.038 377.985 237.333 375.093 236.831C372.206 236.42 369.486 235.228 367.228 233.383Z" fill="white"/>
<path d="M369.214 208.186C371.764 206.785 374.626 206.046 377.536 206.037C380.446 206.029 383.312 206.751 385.87 208.138C383.363 209.624 380.485 210.368 377.571 210.283C374.648 210.348 371.76 209.624 369.214 208.186Z" fill="white"/>
<path d="M367.328 182.923C369.598 181.097 372.315 179.911 375.198 179.488C378.067 179.003 381.013 179.281 383.74 180.293C381.46 182.152 378.719 183.36 375.809 183.791C372.956 184.288 370.021 183.988 367.328 182.923Z" fill="white"/>
<path d="M361.385 158.273C363.398 156.017 365.994 154.36 368.887 153.485C371.625 152.493 374.589 152.303 377.431 152.938C375.482 155.251 372.893 156.938 369.99 157.788C367.225 158.757 364.242 158.925 361.385 158.273Z" fill="white"/>
<path d="M351.692 134.91C353.32 132.446 355.569 130.455 358.212 129.138C360.799 127.775 363.716 127.16 366.634 127.362C365.006 129.827 362.757 131.818 360.114 133.134C357.527 134.498 354.61 135.113 351.692 134.91Z" fill="white"/>
<path d="M338.495 113.326C339.716 110.626 341.652 108.311 344.093 106.631C346.416 104.858 349.18 103.755 352.086 103.441C350.877 106.094 349 108.388 346.639 110.099C344.279 111.81 341.515 112.879 338.618 113.204L338.495 113.326Z" fill="white"/>
<path d="M208 327.428C273.958 327.428 327.428 273.958 327.428 208C327.428 142.041 273.958 88.5713 208 88.5713C142.042 88.5713 88.5717 142.041 88.5717 208C88.5717 273.958 142.042 327.428 208 327.428Z" stroke="white" stroke-width="2" stroke-miterlimit="10"/>
<path d="M235.206 200.611L281.187 165.843L228.079 188.269C226.75 188.829 225.31 189.076 223.871 188.99C222.431 188.905 221.031 188.488 219.778 187.773C218.526 187.059 217.455 186.066 216.648 184.87C215.841 183.675 215.321 182.31 215.127 180.881L208 101.522L200.873 180.881C200.692 182.307 200.182 183.671 199.385 184.867C198.588 186.063 197.525 187.058 196.278 187.774C195.032 188.49 193.636 188.907 192.201 188.993C190.766 189.079 189.331 188.831 188.008 188.269L134.813 165.843L180.881 200.611C182.033 201.478 182.967 202.601 183.611 203.89C184.254 205.18 184.59 206.602 184.59 208.043C184.59 209.485 184.254 210.906 183.611 212.196C182.967 213.486 182.033 214.608 180.881 215.475L134.813 250.243L188.008 227.817C189.331 227.255 190.766 227.007 192.201 227.093C193.636 227.179 195.032 227.596 196.278 228.312C197.525 229.028 198.588 230.023 199.385 231.219C200.182 232.415 200.692 233.78 200.873 235.206L208 292.573L215.127 235.206C215.321 233.777 215.841 232.412 216.648 231.216C217.455 230.021 218.526 229.027 219.778 228.313C221.031 227.598 222.431 227.182 223.871 227.096C225.31 227.01 226.75 227.257 228.079 227.817L300.135 263.02L235.206 215.475C234.054 214.608 233.12 213.486 232.476 212.196C231.832 210.906 231.497 209.485 231.497 208.043C231.497 206.602 231.832 205.18 232.476 203.89C233.12 202.601 234.054 201.478 235.206 200.611Z" fill="white"/>
<path d="M208 194.093L193.571 219.213H222.516L208 194.093Z" fill="black"/>
<path opacity="0.68" d="M386.942 253.006C374.734 249.145 361.607 249.329 349.512 253.53C357.495 263.618 368.371 271.025 380.682 274.759C392.994 278.492 406.152 278.373 418.394 274.419C410.544 264.023 399.492 256.499 386.942 253.006Z" fill="#4296EA"/>
<path d="M208 285.011C250.532 285.011 285.011 250.532 285.011 208C285.011 165.467 250.532 130.988 208 130.988C165.468 130.988 130.989 165.467 130.989 208C130.989 250.532 165.468 285.011 208 285.011Z" stroke="white" stroke-width="1.5" stroke-miterlimit="10"/>
<path d="M288.749 304.047C292.973 304.047 296.398 300.622 296.398 296.398C296.398 292.174 292.973 288.749 288.749 288.749C284.524 288.749 281.1 292.174 281.1 296.398C281.1 300.622 284.524 304.047 288.749 304.047Z" fill="white"/>
<path d="M238.509 101.696C242.733 101.696 246.158 98.2718 246.158 94.0474C246.158 89.823 242.733 86.3984 238.509 86.3984C234.285 86.3984 230.86 89.823 230.86 94.0474C230.86 98.2718 234.285 101.696 238.509 101.696Z" fill="white"/>
</g>
<defs>
<clipPath id="clip0_32_29">
<rect width="416" height="416" fill="white"/>
</clipPath>
</defs>
</svg>
